<?xml version="1.0" standalone="no"?> <!DOCTYPE svg PUBLIC "-//W3C//DTD SVG 1.0//EN" "http://www.w3.org/TR/2001/REC-SVG-20010904/DTD/svg10.dtd" > <svg xmlns="http://www.w3.org/2000/svg" width="100%" height="100%">
<defs >
<font id="Daniel" horiz-adv-x="1000" ><font-face
    font-family="Daniel"
    units-per-em="2048"
    panose-1="2 11 5 0 0 0 0 0 0 0"
    ascent="1890"
    descent="-1100"
    alphabetic="0" />
<missing-glyph horiz-adv-x="1536" d="M256 0V1280H1280V0H256ZM1248 32V1248H288V32H1248Z" />
<glyph unicode=" " glyph-name="space.0" horiz-adv-x="870" />
<glyph unicode="!" glyph-name="exclam" horiz-adv-x="742" d="M665 1822Q665 1816 608 1556Q586 1455 514 1128Q487 1075 446 961L365 393Q363 378 334 378Q301 378 274 446Q250 504 250 545Q250 583 336 837Q338 843 338 913Q338 942 358 984Q383 1034 386 1054L430
1288Q470 1502 523 1741Q527 1761 553 1844Q575 1861 606 1886Q665 1862 665 1822ZM345 128Q335 75 316 -9Q217 16 209 20Q196 29 166 86Q232 170 262 170Q276 170 345 128Z" />
<glyph unicode="&quot;" glyph-name="quotedbl" horiz-adv-x="648" d="M565 1767Q565 1740 540 1600Q507 1410 474 1283L431 1253Q373 1298 373 1344Q373 1365 398 1512Q422 1655 454 1828Q463 1838 507 1883Q565 1829 565 1767ZM246 1765Q246 1622 222 1501Q206
1448 178 1342H93Q66 1418 66 1462Q66 1488 86 1571Q109 1662 112 1693Q102 1711 78 1745Q83 1753 127 1805Q163 1847 184 1847Q193 1847 200 1844H216Q246 1813 246 1765Z" />
<glyph unicode="#" glyph-name="numbersign" horiz-adv-x="1711" d="M1802 859Q1802 856 1802 853Q1802 832 1787 808Q1770 780 1747 773Q1699 760 1511 755Q1342 752 1275 715Q1187 666 1187 424Q1299 428 1398 428Q1418 428 1531 424Q1644 421 1662 421Q1654
398 1624 372T1574 345Q1568 345 1539 352Q1508 360 1503 360Q1416 360 1299 336Q1146 305 1127 260Q1101 197 1032 35Q968 -111 884 -142Q841 -121 841 -104Q841 -85 994 263Q981 296 913 296Q668 296 554 239Q525 224 505 142Q486 66 477 24Q432 53 391 53Q386
53 380 53Q380 125 404 224Q353 274 181 299Q37 319 18 393Q59 435 108 435Q121 435 247 410T398 384Q411 384 419 387Q445 422 475 523Q506 624 506 673Q506 719 468 719Q460 719 413 713T358 706Q186 706 134 761Q134 783 153 809Q173 835 191 835Q203 835 268
829T345 822Q497 822 525 833Q587 856 622 970L702 1233Q731 1235 757 1258Q803 1218 803 1175Q803 1165 752 1028T700 880Q700 861 734 834L1122 835Q1163 835 1237 1048Q1261 1119 1324 1306Q1342 1362 1396 1477H1442Q1457 1460 1457 1414Q1457 1345 1439 1289Q1423
1273 1396 1225Q1382 1184 1350 1057Q1316 919 1316 893Q1316 847 1374 847Q1388 847 1464 860T1554 874Q1573 874 1678 867Q1784 859 1802 859ZM1121 703Q970 703 896 709Q888 709 838 714Q796 719 783 719Q705 719 650 686Q571 537 571 435Q571 409 588 398H845Q1018
398 1060 470L1121 703Z" />
<glyph unicode="$" glyph-name="dollar" horiz-adv-x="1322" d="M1268 1161Q1268 1162 1268 1162Q1266 1162 1252 1111Q1051 1161 991 1161Q973 1161 915 1068T856 949Q856 929 939 860Q1046 773 1095 715Q1179 614 1179 511Q1179 475 1155 452T1058 397T951 364H582Q518
281 452 138Q358 -63 340 -97Q337 -97 335 -97Q310 -97 289 -77Q265 -55 265 -29Q265 29 329 169L419 370L384 398Q163 444 48 456Q35 507 33 507Q33 507 33 505Q33 569 105 569Q103 569 103 569Q103 565 487 504Q689 797 689 845Q689 873 643 893Q624 900 575
920Q502 965 424 1047Q329 1147 329 1211Q329 1232 361 1266T413 1301Q446 1301 642 1294Q838 1287 873 1287Q897 1287 909 1301Q916 1310 995 1449L1181 1778H1225Q1252 1750 1254 1730L1049 1295Q1058 1266 1168 1252Q1268 1239 1268 1161ZM816 1157Q808 1163
729 1163Q706 1163 620 1160Q534 1157 511 1157Q520 1128 602 1067T715 1006Q761 1006 816 1157ZM1074 577Q996 686 905 755Q874 769 811 801Q789 789 713 663T637 511Q637 481 652 481H913Q936 481 1002 520T1074 577Z" />
<glyph unicode="%" glyph-name="percent" horiz-adv-x="1862" d="M1830 360Q1830 206 1635 110Q1477 32 1302 32Q1297 32 1273 39Q1250 45 1244 45Q1238 45 1219 32Q1201 19 1193 19Q1178 19 1080 55L955 99V281Q955 304 1011 337Q1029 348 1086 381Q1118 408
1191 450Q1412 546 1462 546Q1581 546 1688 507Q1830 455 1830 360ZM1598 1150Q1598 1102 1552 1065Q1462 993 1364 922Q1222 842 978 683Q419 322 209 73Q198 60 198 42Q198 33 200 24Q200 23 184 8T152 -24Q118 -58 101 -58Q69 -58 37 -35T4 13Q4 73 226 262Q305
329 511 502Q538 525 637 592Q1005 840 1380 1099Q1366 1112 1343 1112Q998 1112 914 1069Q872 1047 763 991Q706 970 599 970Q481 970 404 1050Q402 1072 402 1091Q402 1368 660 1368Q847 1368 911 1311Q924 1273 977 1201Q1071 1201 1319 1225L1475 1240Q1598
1240 1598 1150ZM801 1207Q755 1253 718 1253Q708 1253 657 1238T596 1222Q598 1221 658 1194Q698 1176 718 1176Q739 1176 801 1207ZM1726 349Q1635 417 1550 417Q1220 417 1072 217Q1164 147 1271 147Q1411 147 1534 189Q1692 243 1726 349Z" />
<glyph unicode="&amp;" glyph-name="ampersand" horiz-adv-x="1402" d="M1298 593Q1298 557 1155 440Q993 306 978 286Q1007 232 1106 186V129Q1091 112 1042 112Q1006 112 939 158Q875 199 875 202Q878 202 878 201Q878 191 680 93Q459 -16 362 -16Q78 -16 78
268Q78 393 163 499Q193 535 346 665Q496 793 531 840Q510 937 510 1039Q510 1256 596 1420Q634 1493 785 1594Q934 1693 1010 1693Q1261 1693 1261 1469Q1261 1308 1166 1172Q1102 1081 945 945Q889 896 757 786Q741 785 724 783Q696 778 696 761V724L874 393Q872
393 871 391Q871 382 892 382Q893 382 895 382Q909 383 1065 504L1253 650H1298V593ZM1146 1475Q1146 1565 1049 1565Q863 1565 735 1394Q617 1237 617 1045Q617 988 646 911H690Q855 1010 983 1150Q1146 1328 1146 1475ZM798 325Q765 357 698 527Q645 665 586
665Q509 665 358 504Q208 342 208 260Q208 112 375 112Q406 112 491 137T610 181Q732 249 798 325Z" />
<glyph unicode="&apos;" glyph-name="quotesingle" horiz-adv-x="387" d="M281 1832V1816Q281 1683 264 1548Q239 1333 182 1333H114V1414Q114 1425 140 1575L181 1802Q188 1844 222 1872Q242 1859 281 1832Z" />
<glyph unicode="(" glyph-name="parenleft" horiz-adv-x="586" d="M956 1848Q956 1829 808 1671L624 1478Q567 1417 522 1324Q490 1235 449 1157Q351 975 229 731Q145 516 145 261Q145 -186 325 -406Q321 -437 294 -465Q60 -327 39 -35Q18 242 18 305Q18 322 27
365T39 417Q112 984 536 1571Q652 1731 870 1885H926Q956 1868 956 1848Z" />
<glyph unicode=")" glyph-name="parenright" horiz-adv-x="657" d="M578 798Q578 460 400 60Q372 -4 48 -622Q19 -621 -90 -621V-562Q2 -455 35 -395Q51 -363 204 -120Q306 45 342 170Q450 559 450 739Q450 1151 341 1516Q287 1644 231 1801V1882H299Q333 1882
375 1752Q399 1709 432 1644Q493 1524 534 1300Q578 1060 578 798Z" />
<glyph unicode="*" glyph-name="asterisk" horiz-adv-x="855" d="M810 1739Q788 1732 667 1655Q622 1615 527 1537Q606 1473 759 1346Q725 1287 696 1287Q678 1287 599 1325Q518 1363 516 1363Q461 1363 461 1295Q461 1277 467 1240Q450 1199 408 1119Q359 1144
347 1224Q345 1247 334 1352Q332 1357 327 1358Q323 1356 318 1350Q305 1356 293 1356Q245 1356 208 1291Q198 1275 147 1188Q119 1170 110 1170Q90 1170 65 1198T39 1249Q39 1265 142 1386T245 1537Q245 1551 182 1596L104 1650V1719Q130 1748 149 1748Q173 1748
366 1620Q394 1662 422 1747Q451 1836 467 1878H511Q549 1860 549 1778Q549 1740 573 1724Q711 1826 747 1826Q771 1826 810 1784V1739Z" />
<glyph unicode="+" glyph-name="plus" horiz-adv-x="942" d="M921 511Q845 455 773 455Q759 455 683 462T594 469Q481 469 474 367Q464 214 404 149H332Q332 165 336 260Q340 354 340 370Q340 426 334 470Q237 443 169 443Q99 443 35 486Q57 548 116 560Q127 562
232 562Q333 562 378 632Q393 656 427 813Q450 917 534 930L548 902Q561 874 561 860Q561 846 536 764T510 668Q510 597 600 597Q606 597 639 603T678 610Q720 610 771 604L865 592Q888 579 921 511Z" />
<glyph unicode="," glyph-name="comma" horiz-adv-x="460" d="M321 53Q321 -65 262 -138Q197 -196 73 -296Q35 -304 -44 -350H-116Q-122 -327 -130 -276Q23 -182 65 -147Q162 -67 187 35Q191 93 209 208H250Q321 208 321 53Z" />
<glyph unicode="-" glyph-name="hyphen" horiz-adv-x="767" d="M709 412Q709 355 657 355Q643 355 567 367T477 379Q350 379 258 364Q160 347 135 341Q127 340 127 339Q127 338 130 338Q112 338 86 369T60 421Q60 475 118 487Q219 507 379 507Q439 507 496 511Q501
512 557 529Q612 547 625 547Q655 547 683 493Q709 444 709 412Z" />
<glyph unicode="." glyph-name="period" horiz-adv-x="421" d="M338 121Q338 91 278 45Q219 -1 185 -1Q152 -1 77 37Q86 79 114 150Q132 173 179 203T246 233Q278 233 308 196T338 121Z" />
<glyph unicode="/" glyph-name="slash" horiz-adv-x="1521" d="M1498 1807Q1498 1738 1226 1400Q1202 1372 1141 1289Q1106 1234 1018 1097Q915 975 794 813Q751 756 332 65Q293 2 182 -176Q156 -217 105 -217Q70 -217 35 -201Q34 -199 27 -189T20 -166Q20 -157
46 -103T76 -33Q180 57 276 213Q337 311 442 487Q467 542 527 652Q530 660 706 878Q830 1033 834 1116Q919 1185 1037 1348Q1142 1495 1203 1614Q1193 1623 1175 1623Q1171 1623 1166 1622Q1170 1634 1257 1712Q1316 1765 1453 1878Q1498 1859 1498 1807Z" />
<glyph unicode="0" glyph-name="zero" horiz-adv-x="1633" d="M1530 911Q1530 799 1515 745Q1439 468 1106 218Q808 -5 547 -5Q361 -5 206 158Q44 327 44 555Q44 684 58 724Q61 734 81 775Q70 824 70 874Q70 1175 419 1404Q537 1482 733 1542T1062 1602Q1173 1602
1335 1532Q1435 1490 1464 1419Q1530 1255 1530 911ZM1452 849L1438 1212Q1435 1286 1360 1370Q1273 1466 1233 1481Q1149 1512 1045 1512Q752 1512 519 1352Q415 1282 378 1251Q292 1180 260 1117H298Q478 1301 630 1324Q599 1285 393 1085Q222 919 168 775Q141
704 141 599Q141 369 282 229Q412 99 604 99Q655 99 818 159T1028 257Q1258 434 1344 580Q1370 623 1407 713Q1452 818 1452 847Q1452 848 1452 849Z" />
<glyph unicode="1" glyph-name="one" horiz-adv-x="537" d="M448 1237Q448 1159 426 1053Q398 927 323 567Q244 173 162 9Q142 19 120 43Q101 65 101 77Q101 78 101 79L360 1345H419Q448 1291 448 1237Z" />
<glyph unicode="2" glyph-name="two" horiz-adv-x="1481" d="M1453 1404Q1453 1299 1337 1176Q1285 1123 1151 984Q778 597 269 173Q269 170 269 168Q269 135 317 122Q382 105 450 105Q466 105 483 106L1080 145Q1086 145 1094 145Q1157 145 1354 124L1372 140L1387
57Q1306 53 1074 44Q973 40 742 18L573 2Q566 2 528 9T483 16Q477 16 448 3T412 -11Q342 -11 229 20Q114 50 65 83V101Q65 107 65 113Q65 155 83 181Q114 223 249 327Q435 472 683 685Q772 761 1042 1028Q1267 1251 1337 1408Q1293 1455 1241 1455Q1043 1455 666
1286Q401 1168 401 1160Q401 1160 403 1160H351Q322 1180 322 1203Q322 1254 419 1291Q458 1303 555 1342Q1043 1558 1266 1558Q1347 1558 1401 1515Q1453 1471 1453 1404Z" />
<glyph unicode="3" glyph-name="three" horiz-adv-x="1798" d="M1729 600Q1729 560 1625 486Q1549 432 1481 399Q1181 258 555 108Q381 66 114 -55L72 3Q147 71 268 120Q417 179 714 257Q1014 335 1157 387Q1403 476 1576 609Q1557 664 1414 698Q1280 732 963
767Q733 793 669 793Q663 793 647 786Q630 780 624 780Q503 780 342 847V905Q375 935 397 942Q398 942 452 955Q507 968 616 997Q755 1038 974 1150Q1241 1285 1241 1352Q1241 1411 1145 1411Q786 1411 427 1315Q409 1310 318 1275Q239 1243 219 1243Q162 1243
162 1301Q162 1382 615 1454Q985 1513 1183 1513Q1232 1513 1311 1464Q1396 1411 1396 1365Q1396 1258 1115 1109L739 909Q766 885 999 863Q998 863 998 863Q998 863 1108 847Q1142 845 1238 834Q1729 773 1729 600Z" />
<glyph unicode="4" glyph-name="four" horiz-adv-x="1266" d="M1379 1583Q1379 1569 1352 1537Q1321 1501 1308 1469Q1285 1418 1250 1299Q1211 1172 1181 1106Q1163 1082 1137 1029Q1113 947 1113 859Q1113 829 1116 798Q1097 783 1073 757Q1060 715 1030 632Q916
299 916 145Q916 135 909 78T901 12Q878 4 830 -3Q801 24 801 138Q801 165 807 212Q810 234 816 286Q826 387 880 555Q916 664 916 672V733Q891 757 852 757Q847 757 769 744Q679 729 531 729Q380 729 296 747Q208 767 57 832Q53 850 53 867Q53 917 109 1003Q185
1116 193 1137Q211 1186 262 1315Q321 1462 343 1462Q341 1462 341 1461Q341 1460 387 1448Q387 1445 394 1416Q401 1385 401 1378Q401 1313 324 1145Q232 945 222 904Q365 831 468 831H801Q907 831 947 860Q1002 900 1022 1031Q1027 1067 1074 1175Q1102 1241
1176 1411Q1228 1529 1319 1629H1362Q1379 1616 1379 1583Z" />
<glyph unicode="5" glyph-name="five" horiz-adv-x="1481" d="M1422 538Q1422 504 1311 410Q1208 323 1162 304Q969 224 878 193Q822 175 634 114Q633 114 373 26Q160 -47 138 -47Q105 -47 35 -18Q55 35 116 64Q165 80 349 139Q1280 440 1280 570Q1280 655 1014
779Q824 868 595 902Q515 914 347 946Q335 950 311 977Q296 994 248 994Q246 994 244 994Q228 1008 228 1045Q228 1100 324 1301Q417 1496 463 1546Q702 1519 921 1519Q980 1519 1003 1524Q1008 1524 1053 1543Q1092 1559 1109 1559H1383Q1388 1534 1396 1484Q1122
1405 992 1405Q963 1405 799 1418T606 1432Q502 1432 456 1289Q439 1234 393 1091L429 1060L533 1037Q666 1006 798 973Q1054 909 1221 810Q1422 691 1422 538Z" />
<glyph unicode="6" glyph-name="six" horiz-adv-x="1631" d="M1552 433Q1552 145 829 22Q678 -3 614 -3Q493 -3 376 24Q270 50 160 199Q49 349 49 465Q49 483 65 534Q83 589 83 595Q99 689 127 773Q263 1182 849 1559Q928 1610 1025 1629Q1030 1631 1214 1655L1243
1623Q1241 1601 1216 1580Q993 1544 719 1319Q475 1117 335 898Q290 829 224 669Q222 664 197 619Q178 584 178 570V417L200 393Q214 393 224 417Q235 470 285 505Q356 556 527 609Q788 690 1078 690Q1552 690 1552 433ZM1475 440Q1475 512 1314 555Q1194 588 1091
588Q872 588 613 519Q274 429 242 285Q376 99 646 99Q804 99 1111 193Q1203 220 1323 291Q1475 381 1475 440Z" />
<glyph unicode="7" glyph-name="seven" horiz-adv-x="1333" d="M1236 1376Q1236 1232 999 915Q702 516 557 301Q515 237 395 55Q368 14 317 -13Q296 2 262 2L252 17Q247 24 247 39Q247 73 387 266Q437 334 564 511Q691 692 849 905Q1023 1142 1108 1317Q1086 1352
1027 1352Q1010 1352 863 1337Q644 1314 537 1314Q531 1314 493 1317T447 1321Q434 1321 422 1319Q397 1298 369 1298Q366 1298 198 1299L30 1300V1372Q101 1416 493 1431Q657 1437 953 1460L1165 1478Q1169 1478 1173 1478Q1236 1478 1236 1376Z" />
<glyph unicode="8" glyph-name="eight" horiz-adv-x="1425" d="M237 422Q222 352 222 321Q222 252 268 213Q293 192 332 184Q355 181 401 172Q475 158 527 158Q657 158 795 232Q896 288 1099 400Q1138 422 1189 469Q1249 524 1249 554Q1249 698 1056 770L952 809Q909
821 841 821Q689 821 452 735Q425 725 382 659Q373 647 347 627Q335 616 310 578Q289 549 257 485Q247 467 237 422ZM189 573Q204 593 224 634Q261 704 340 786Q351 796 378 807Q388 811 411 834L178 914Q26 993 26 1192Q26 1261 68 1319Q88 1345 163 1416L235
1373Q219 1337 166 1270Q130 1226 130 1183Q130 1092 246 1024Q344 966 425 966H494Q509 983 573 994Q591 998 634 1024Q682 1055 696 1062Q727 1065 784 1082Q788 1083 838 1133Q846 1142 904 1192Q935 1225 935 1278Q935 1322 880 1367Q830 1409 782 1416Q750
1421 716 1431Q688 1438 683 1438Q663 1438 606 1455Q550 1472 534 1473Q530 1473 527 1473Q466 1473 378 1440Q356 1433 314 1419Q294 1412 255 1385Q259 1401 259 1426Q260 1452 255 1488Q255 1489 255 1490Q255 1514 314 1543Q388 1580 486 1580Q491 1580 496
1580Q512 1580 598 1575Q671 1571 742 1571Q760 1571 771 1556Q777 1547 852 1521Q932 1491 955 1473Q983 1452 1011 1401Q1039 1351 1039 1321Q1039 1141 944 1070Q906 1032 826 960Q858 947 913 947Q912 947 912 947Q912 946 986 937Q1093 921 1208 829Q1345
719 1345 586Q1345 443 1175 312Q1134 274 1108 255Q1050 215 977 195Q896 158 707 93Q640 60 573 45T447 30Q395 30 349 42Q230 71 178 130Q123 191 123 299Q123 395 153 475L189 573Z" />
<glyph unicode="9" glyph-name="nine" horiz-adv-x="1139" d="M1091 1301Q1091 778 277 86Q119 -49 106 -49H41L24 -30V58Q245 243 387 365Q599 547 705 729Q693 753 667 753Q660 753 651 745T634 737Q372 737 210 878Q152 927 132 955Q102 997 102 1124Q102 1352
354 1491Q557 1602 775 1602Q943 1602 1006 1555Q1091 1491 1091 1301ZM974 1324Q974 1430 915 1460Q881 1477 775 1477Q614 1477 431 1394Q204 1290 204 1130Q204 1005 354 926Q476 861 596 861Q624 861 667 878Q722 898 737 901Q762 905 819 931Q883 975 928
1090T974 1324Z" />
<glyph unicode=":" glyph-name="colon" horiz-adv-x="490" d="M362 645Q362 612 354 601Q332 569 319 542Q314 542 280 530T241 518Q178 518 178 519Q175 524 142 554Q119 575 119 593Q119 641 163 683Q204 725 252 725Q291 725 327 701Q362 675 362 645ZM299
183Q299 146 264 93T199 39Q176 39 114 65Q114 71 107 114Q101 158 101 166Q101 281 204 281Q211 281 244 275T285 268Q285 262 292 226T299 183Z" />
<glyph unicode=";" glyph-name="semicolon" horiz-adv-x="529" d="M244 468Q168 468 168 580Q168 624 209 659T301 694Q399 693 399 568Q399 468 244 468ZM289 -118Q265 -154 237 -174Q222 -186 178 -220Q156 -238 101 -283Q65 -290 -14 -337H-72Q-76 -318 -83
-279Q167 -122 210 51Q210 90 213 180Q214 210 241 210L321 209Q345 195 347 160Q348 147 348 132Q348 105 345 70Q335 -45 289 -118Z" />
<glyph unicode="&lt;" glyph-name="less" horiz-adv-x="886" d="M902 1298Q900 1298 561 989Q220 678 220 643Q220 613 289 542L381 448Q460 340 622 140Q652 120 709 74V3Q661 -24 613 -24Q556 -24 472 99Q441 148 358 273Q306 350 163 483Q142 503 85 558Q53
590 53 630Q53 722 842 1388Q856 1381 879 1347T902 1298Z" />
<glyph unicode="=" glyph-name="equal" horiz-adv-x="1155" d="M1068 678Q1051 632 896 632Q847 632 568 638Q288 644 240 644Q176 644 57 673L28 714Q55 797 111 797Q136 797 262 788L640 759Q793 747 825 747Q830 747 865 766Q899 786 909 786Q923 786 970 761L1036
727Q1045 709 1068 678ZM1119 247Q1099 235 1062 208L1034 229Q992 237 663 258Q618 261 445 286Q311 305 226 305Q83 305 42 273V383Q125 426 227 426Q275 426 485 415Q764 401 921 382Q1052 366 1119 307V247Z" />
<glyph unicode="&gt;" glyph-name="greater" horiz-adv-x="870" d="M843 696Q843 657 719 563Q677 531 557 442Q451 327 308 176Q269 135 162 22Q143 2 143 -42L125 -31H22Q5 -16 5 26Q5 74 37 108Q55 127 361 411Q637 667 637 688Q637 706 534 810L411 937Q361
1008 250 1148L132 1269Q32 1370 32 1383Q32 1405 58 1426Q84 1448 109 1448Q165 1448 237 1359Q266 1321 341 1226Q443 1100 514 1028Q525 1018 692 856Q843 710 843 696Z" />
<glyph unicode="?" glyph-name="question" horiz-adv-x="1616" d="M1576 1565Q1576 1383 1446 1243Q1338 1128 1150 1034Q1071 997 874 901L826 878Q673 801 626 750Q619 729 593 674Q472 437 388 350Q329 393 329 440Q329 477 353 571T397 706Q441 797 551 883Q573
900 778 988Q1448 1278 1448 1565Q1448 1699 1287 1699Q1048 1699 703 1614Q314 1517 170 1392H112Q100 1444 98 1444Q97 1444 97 1442Q97 1522 406 1631Q638 1713 797 1741Q935 1765 1088 1796T1255 1828Q1576 1828 1576 1565ZM444 26Q370 -15 180 -77Q124 -28
124 13Q124 44 148 79T195 114Q202 114 240 102T285 90Q319 90 414 127Q444 88 444 26Z" />
<glyph unicode="@" glyph-name="at" horiz-adv-x="1719" d="M1679 614Q1679 490 1532 383Q1404 291 1266 270Q1268 259 1268 250Q1268 157 1137 118Q1114 111 929 83Q913 81 808 55Q729 37 694 37H614Q388 37 241 121Q59 225 59 434Q59 575 129 671Q181 742 320
834Q363 872 463 931Q742 1039 901 1039Q916 1039 1010 1029T1119 1017Q1298 1013 1475 903Q1679 779 1679 614ZM1563 609Q1563 732 1367 815Q1207 884 1062 884Q895 884 606 828Q539 815 435 752T270 626Q187 539 187 442Q187 298 389 233Q524 191 709 191Q718
191 808 209Q957 239 1074 258Q1034 310 968 421Q747 331 619 331Q342 331 342 505Q342 695 696 747Q715 750 839 775Q934 794 972 794Q1001 794 1081 778Q1162 762 1181 752Q1188 748 1229 711V703Q1229 670 1184 557Q1140 447 1139 447Q1139 450 1139 450Q1141
450 1153 398Q1199 386 1199 384Q1199 383 1197 383Q1222 383 1357 438Q1489 493 1521 516Q1563 545 1563 609ZM1047 637Q1019 644 982 648Q951 652 837 652Q837 652 768 641Q660 624 608 604Q515 570 483 504Q527 461 573 461Q701 461 878 516Q922 529 974 564Q1036
605 1047 637Z" />
<glyph unicode="A" glyph-name="A" horiz-adv-x="1550" d="M1460 -22Q1460 -93 1370 -93Q1335 -93 1322 -88Q988 254 670 254Q600 254 376 198Q306 181 252 77Q239 53 182 -91Q168 -103 118 -127Q86 -96 86 -42Q86 151 180 358Q204 396 250 475L431 872Q652 1350
850 1686L851 1655Q898 1677 922 1774Q944 1861 988 1861Q992 1864 999 1864Q1028 1864 1045 1817Q1048 1805 1073 1699Q1164 1314 1262 805L1322 493Q1344 450 1379 365Q1395 312 1426 171Q1460 17 1460 -22ZM1266 152V211Q1266 251 1209 553L1111 1072Q1066 1316
968 1577Q840 1442 623 932L556 777Q532 743 514 714T440 549Q381 408 381 389Q381 358 397 358Q397 358 678 370Q696 371 714 371Q860 371 990 318Q1086 278 1266 152Z" />
<glyph unicode="B" glyph-name="B" horiz-adv-x="1738" d="M1719 433Q1719 301 1409 147Q1375 129 1280 78Q1250 56 1155 24Q1128 16 1022 -20L714 -167Q568 -217 401 -281Q218 -350 147 -478Q74 -446 74 -402Q74 -235 472 -99Q510 -86 616 -48Q672 -12 919 83Q1202
191 1262 219Q1454 310 1575 419Q1581 432 1592 463Q1521 511 1454 532Q1441 536 1302 550Q938 588 819 588Q814 588 787 582T755 575Q594 575 461 629V670Q461 691 478 709Q1474 1235 1474 1500Q1474 1596 1352 1644Q1263 1679 1147 1679Q1129 1679 1025 1654T903
1629Q896 1629 883 1635Q871 1642 865 1642Q845 1642 840 1634Q833 1623 829 1620Q819 1614 681 1579Q386 1506 281 1361Q254 1322 254 1153Q254 1134 262 1016T270 878Q270 611 335 248Q338 232 362 158Q382 96 382 81Q382 58 358 34T311 9Q261 9 250 90Q246 114
237 206Q212 324 195 434L191 455Q174 565 160 1260Q158 1271 145 1295Q137 1282 106 1282Q49 1282 49 1339Q49 1403 218 1484Q294 1520 709 1683Q768 1715 850 1739Q1045 1796 1161 1796Q1316 1796 1438 1736Q1591 1659 1591 1519Q1591 1352 1360 1145Q1234 1033
984 870Q873 797 742 698Q757 686 896 686Q1719 686 1719 433Z" />
<glyph unicode="C" glyph-name="C" horiz-adv-x="1703" d="M1589 92Q1716 124 1771 147L1757 222L1258 169Q1024 145 994 145Q765 145 648 180Q478 232 345 367Q191 524 191 706Q191 717 213 796T245 902Q342 1145 714 1335L906 1434Q942 1468 957 1488Q1028 1511
1111 1539Q1119 1543 1408 1659Q1434 1684 1436 1715Q1408 1719 1381 1719Q1256 1719 1120 1659Q1052 1627 876 1545Q521 1380 352 1243Q75 1019 75 738Q75 553 119 452Q219 223 580 20Q647 -17 806 -17Q888 -17 1080 -5Q1299 8 1329 19L1524 73Q1547 80 1589 92Z"
/>
<glyph unicode="D" glyph-name="D" horiz-adv-x="1705" d="M1967 1086Q1967 945 1870 845Q1796 767 1668 689Q1608 653 1451 556Q1319 473 1206 414Q1127 372 867 232Q822 208 731 158Q717 142 691 114Q575 86 318 -108H262Q232 -81 232 -37Q232 27 457 147Q539
188 750 298Q796 324 930 399Q1360 633 1649 806Q1716 845 1782 933Q1851 1025 1851 1099Q1851 1113 1796 1206Q1679 1406 1286 1515Q979 1600 669 1600Q661 1600 435 1589Q411 1427 372 1091Q347 874 347 838V487Q347 465 368 452Q375 403 375 356L373 268Q364
252 336 252Q281 252 252 424Q232 538 232 643Q232 752 268 1101Q307 1480 335 1519V1552Q327 1563 317 1563Q240 1563 99 1521Q-70 1471 -70 1418Q-70 1396 -40 1379V1331Q-154 1388 -154 1457Q-154 1590 210 1664Q464 1715 696 1715Q1361 1715 1767 1414Q1824
1373 1893 1264Q1967 1148 1967 1086Z" />
<glyph unicode="E" glyph-name="E" horiz-adv-x="1402" d="M1734 1759Q1697 1747 1627 1697Q1598 1701 1561 1701Q1385 1701 1001 1638L770 1601Q760 1601 697 1608Q634 1616 623 1616Q569 1616 492 1585Q407 1552 388 1512Q360 1449 340 1304Q321 1174 321 1084Q321
1075 343 1014Q542 1043 592 1043H1168V955Q1111 948 1016 948Q983 948 871 950L727 952Q636 952 496 896Q469 889 370 869Q291 853 264 804Q217 391 217 220Q252 177 289 169L450 136Q527 136 623 145Q839 164 1127 164Q1190 164 1240 160L1291 158Q1322 150 1322
127V76Q1262 48 1091 48Q1065 48 1010 30Q957 12 957 12Q943 12 871 22Q814 29 791 29Q786 29 783 29L766 28Q708 24 501 -3Q379 -19 365 -19Q309 -19 197 51Q76 127 76 182Q76 206 101 395Q135 642 163 804Q128 829 128 882Q128 888 130 916Q132 945 132 950Q244
986 257 1421Q196 1452 77 1526V1613Q103 1652 163 1657Q251 1662 262 1667Q273 1670 308 1706Q340 1740 360 1740Q367 1740 410 1724T463 1708Q529 1715 740 1736Q840 1745 1214 1774Q1225 1775 1290 1795T1362 1816Q1378 1816 1426 1811L1484 1804Q1569 1800
1719 1800L1734 1759Z" />
<glyph unicode="F" glyph-name="F" horiz-adv-x="1433" d="M1710 1661Q1603 1618 1576 1618Q1570 1618 1534 1631Q1499 1644 1493 1644Q1476 1644 1386 1650Q1296 1657 1280 1657Q1260 1657 1037 1627Q782 1594 575 1562Q497 1550 404 1503Q391 1496 358 1480Q355
1480 352 1480Q332 1480 293 1473Q283 1469 217 1423Q165 1387 142 1387Q119 1387 93 1414Q65 1439 65 1464Q65 1542 173 1574Q317 1617 545 1690Q595 1706 735 1710Q900 1715 946 1724Q982 1742 1060 1767Q1123 1776 1217 1776Q1234 1776 1253 1776Q1344 1775
1393 1775Q1430 1775 1444 1775Q1469 1798 1486 1798Q1492 1798 1517 1785T1549 1772Q1555 1772 1585 1778Q1614 1785 1620 1785Q1672 1785 1688 1736L1710 1661ZM52 686Q52 701 58 718Q91 752 94 755Q113 769 153 783Q181 831 206 976Q242 1183 259 1244Q303 1405
382 1481Q408 1469 466 1411Q386 1249 358 1051Q346 969 329 878L364 857L1379 1064Q1408 1045 1467 1009V963Q1412 935 1209 918Q1210 915 1210 913Q1210 896 1179 896Q1173 896 1144 902T1109 909Q1045 909 1024 911H1043Q1106 911 1106 905Q1101 901 1069 895Q1055
892 955 878Q873 846 775 810Q688 794 531 763Q468 750 351 687Q329 675 300 600Q273 531 255 527Q260 502 260 472Q260 448 241 312T221 151Q221 70 253 15Q199 -42 101 -42Q72 -15 72 22Q72 37 85 139L120 419Q136 545 136 556V617Q119 624 86 638T52 686Z" />
<glyph unicode="G" glyph-name="G" horiz-adv-x="2329" d="M2262 551Q2262 365 1792 201Q1723 177 1662 154Q1621 114 1541 99Q1088 17 850 17Q827 17 693 30Q560 42 537 42Q533 42 481 70Q429 99 417 99Q317 168 132 332Q103 366 66 490Q61 509 61 525V549Q62
572 62 572Q62 572 62 570Q62 650 101 725L176 873Q178 882 178 898Q178 918 169 937Q250 1017 329 1098Q441 1206 546 1287L773 1462Q927 1580 1016 1596Q1032 1613 1068 1639Q1086 1646 1119 1660Q1146 1676 1224 1717Q1422 1813 1657 1813Q1689 1813 1734 1773T1780
1703Q1780 1644 1728 1644Q1716 1644 1689 1661T1655 1679Q1627 1688 1569 1688Q1562 1688 1519 1686Q1475 1684 1468 1684Q1386 1684 1025 1473Q691 1276 594 1185Q467 1068 377 970Q367 959 355 893Q291 870 247 788Q246 765 239 724Q227 704 209 660Q206 647
206 557Q206 553 203 527T200 496Q200 447 264 373Q320 309 371 281Q584 160 642 160Q650 160 689 164T734 169Q747 169 824 152T915 134Q927 134 1002 140T1091 147Q1223 147 1473 202Q1579 247 1655 272Q1739 299 1957 373Q2171 451 2171 557Q2171 720 1537 720Q1338
720 1256 678Q1228 663 1191 591H1147Q1103 622 1103 648Q1106 648 1157 778Q1222 814 1358 814Q1387 814 1559 820Q1731 825 1761 825Q1765 825 1796 812T1839 798Q1844 798 1868 804T1898 811Q1949 811 2067 768Q2185 726 2221 693Q2262 657 2262 551Z" />
<glyph unicode="H" glyph-name="H" horiz-adv-x="1701" d="M1717 1434Q1717 1427 1662 1367Q1606 1303 1603 1295Q1555 1168 1512 882Q1470 608 1470 457Q1470 425 1448 397Q1447 336 1420 140Q1408 54 1408 35Q1408 28 1442 -86Q1420 -93 1368 -101Q1314 9 1314
55Q1314 74 1332 262Q1350 440 1367 680H1205Q1188 680 1069 660T930 640Q916 640 868 640L806 641Q709 641 658 634Q630 630 573 611Q521 593 489 593Q459 593 437 609Q409 591 355 578L270 557Q234 525 234 452Q234 443 237 393Q241 342 241 334Q241 258 178
68Q173 68 148 67T120 65Q104 65 90 70Q115 222 115 542Q115 551 140 668Q215 1023 263 1183Q296 1243 354 1367H414Q426 1320 428 1320Q428 1320 428 1324Q428 1309 388 1220Q346 1123 340 1100Q271 842 271 751Q271 703 308 703Q354 703 446 722Q547 741 591
744Q747 753 900 753Q921 753 1042 749Q1162 744 1183 744Q1213 744 1277 751Q1337 758 1370 760Q1400 778 1420 938Q1447 1150 1475 1243Q1530 1421 1644 1485H1703Q1714 1431 1716 1431Q1717 1431 1717 1434Z" />
<glyph unicode="I" glyph-name="I" horiz-adv-x="442" d="M377 1475Q361 1408 307 1168Q167 547 167 80Q167 57 167 35Q151 32 136 18Q65 103 65 305Q65 342 91 579Q132 933 172 1132Q221 1374 301 1541H347Q377 1516 377 1475Z" />
<glyph unicode="J" glyph-name="J" horiz-adv-x="1775" d="M1708 803Q1708 319 1559 125Q1521 76 1363 37Q1226 2 1143 2Q966 2 575 149T55 410V469Q86 472 112 498Q323 355 614 244Q939 120 1155 120Q1365 120 1457 211T1571 532Q1587 712 1587 916Q1587 952
1580 1160Q1574 1366 1574 1402Q1574 1437 1607 1473Q1652 1471 1665 1427Q1665 1424 1678 1269Q1708 888 1708 803Z" />
<glyph unicode="K" glyph-name="K" horiz-adv-x="1616" d="M1705 101Q1681 55 1646 55Q1629 55 1565 81Q1488 112 1475 116Q1419 130 1306 141Q1170 154 1137 163Q978 202 746 254Q637 278 467 370Q259 483 259 556Q259 571 520 796Q804 1041 821 1058Q837 1083
873 1129Q883 1138 1036 1278Q1159 1391 1240 1456Q1366 1558 1464 1604Q1478 1591 1495 1589V1516L1486 1511Q1410 1465 1337 1406Q1092 1207 429 544Q625 404 970 336Q1006 329 1406 227Q1455 215 1594 181Q1604 178 1705 101ZM323 1360L166 9Q150 -7 108 -7Q37
-7 37 44Q37 64 68 307Q81 398 145 832Q156 921 187 1151Q213 1332 262 1462Q324 1449 324 1380Q324 1369 323 1360Z" />
<glyph unicode="L" glyph-name="L" horiz-adv-x="1701" d="M1600 63Q1595 62 1578 62Q1527 62 1362 74Q1176 87 1176 88Q1176 88 1177 88L479 41Q287 41 202 57Q147 67 53 134Q140 404 204 660Q386 1385 469 1625L512 1644Q542 1583 542 1569Q542 1569 542 1567L210
242Q222 156 400 156Q461 156 577 170Q696 184 745 184Q749 184 752 184L830 181Q832 181 835 181Q863 181 972 186Q1056 191 1114 191Q1256 191 1588 125L1600 63Z" />
<glyph unicode="M" glyph-name="M" horiz-adv-x="2402" d="M2501 1791Q2501 1766 2211 994Q2165 874 2101 646Q2031 391 2028 301Q1987 235 1938 50Q1876 77 1876 127Q1876 309 2175 1236Q2202 1318 2271 1532L2270 1577Q2059 1446 1921 1257Q1858 1169 1755 1057Q1607
896 1578 863Q1478 745 1306 524Q1152 329 1128 301Q989 145 918 145H834V373Q845 442 870 637L938 1164L919 1185L50 -24L2 -11V75L1032 1524H1080Q1109 1475 1109 1446Q1109 1433 1082 1319Q1057 1211 1032 1088Q1016 1000 975 616Q952 404 952 373Q955 367 974
312Q1069 384 1172 516Q1219 580 1347 740Q1557 1001 1868 1335Q2127 1614 2441 1888Q2501 1851 2501 1791Z" />
<glyph unicode="N" glyph-name="N" horiz-adv-x="1826" d="M2239 1752Q2239 1679 2015 1273Q1852 976 1726 773Q1617 596 1421 329Q1257 107 1100 15Q1075 28 1060 44Q1057 53 932 586Q855 914 749 1109L125 41Q109 55 73 55Q70 55 67 55V137Q67 150 388 698L757
1328H807Q911 1142 1019 634Q1080 349 1145 220Q1146 220 1147 220Q1155 220 1166 210Q1496 539 1934 1364Q1972 1437 2081 1649Q2095 1679 2139 1763Q2150 1785 2195 1811Q2239 1780 2239 1752Z" />
<glyph unicode="O" glyph-name="O" horiz-adv-x="2136" d="M2233 982Q2233 947 2193 832Q2157 728 2132 681Q2012 440 1749 264Q1595 161 1270 61T763 -40H627Q455 -40 270 94Q73 238 73 402Q73 545 180 716Q276 868 401 965Q454 1006 567 1129Q666 1237 740 1282Q827
1334 1071 1390Q1309 1444 1420 1444Q1692 1444 1928 1344Q2233 1214 2233 982ZM2156 970Q2156 1050 2109 1099Q1894 1322 1642 1322Q1637 1322 1609 1320T1576 1317Q1570 1317 1540 1329T1506 1341Q1496 1341 1442 1332Q1389 1324 1380 1324Q1279 1324 1028 1265Q973
1252 905 1235Q829 1209 807 1168L786 1103Q586 965 562 945Q447 847 402 724Q401 722 391 624Q386 563 341 546Q305 597 289 663Q178 478 178 443Q178 337 327 210T596 83Q600 83 617 85T636 88Q642 88 676 77T718 65Q729 65 900 86Q1020 101 1135 121Q1163 135
1240 164Q1553 257 1782 424Q2069 633 2134 891Q2154 970 2156 970Z" />
<glyph unicode="P" glyph-name="P" horiz-adv-x="1591" d="M1828 1356Q1828 1345 1803 1278T1771 1198Q1688 1062 1458 962Q1268 883 885 724Q757 690 641 650Q546 619 365 504Q350 393 340 263Q327 89 306 -99Q275 -141 228 -141Q232 -141 232 -140Q225 -136
183 -127V-59Q183 37 199 136Q199 138 217 187Q235 234 235 244Q235 301 214 360Q200 320 163 308Q119 334 119 398Q119 405 193 506Q269 611 281 650Q291 679 316 837Q353 1071 381 1179Q441 1414 523 1478L580 1435V1391Q527 1350 505 1242Q498 1209 473 1072Q468
1047 432 942Q400 850 400 830V702Q409 693 417 693Q460 693 551 729Q660 770 688 778Q1151 898 1402 1051Q1622 1184 1669 1232Q1725 1287 1725 1381Q1725 1546 1576 1657Q1439 1760 1269 1760Q1135 1760 952 1727Q716 1684 509 1607Q195 1491 164 1356L138 1337Q79
1388 79 1433Q79 1497 212 1589Q321 1665 406 1690Q971 1864 1250 1864Q1514 1864 1671 1726Q1828 1589 1828 1356Z" />
<glyph unicode="Q" glyph-name="Q" horiz-adv-x="2173" d="M2331 -3Q2318 -18 2316 -35Q2304 -37 2272 -42Q2235 -50 2222 -50Q2216 -50 1952 98Q1686 246 1675 246Q1668 246 1431 145Q1092 2 893 2Q603 2 338 178Q42 376 42 650Q42 988 275 1020Q465 1250 845
1363Q1149 1454 1515 1454Q1626 1454 1822 1383Q2051 1301 2051 1216Q2051 1212 2073 1185T2095 1153Q2105 1130 2122 1045Q2139 957 2139 933Q2139 809 2032 622Q1935 452 1831 354Q1857 301 2059 185Q2275 60 2331 -3ZM2049 947Q2049 1111 1934 1220T1642 1329H1618Q1602
1329 1528 1346T1444 1364Q1268 1364 1064 1321Q419 1182 291 821Q283 736 270 640Q261 605 239 605Q236 605 233 606Q176 660 176 736Q176 741 178 769T180 804Q180 814 178 824Q178 813 156 755T134 689Q134 672 163 586Q219 416 426 280T834 143H988Q1073 143
1201 191Q1258 214 1409 272Q1432 280 1493 301Q1516 319 1521 358L1455 406Q1406 441 1406 459Q1406 491 1427 529H1475Q1479 529 1579 478T1688 426Q1793 426 1925 636Q2049 834 2049 947Z" />
<glyph unicode="R" glyph-name="R" horiz-adv-x="1790" d="M1811 201Q1783 141 1734 141Q1697 141 1552 178L1164 273Q987 311 826 350Q749 362 671 373Q529 399 482 432Q365 516 365 553Q365 629 445 665Q449 666 621 709Q782 747 840 781Q968 855 1150 1045Q1348
1252 1348 1381Q1348 1572 1201 1627Q1121 1657 893 1657Q801 1657 729 1639Q686 1626 597 1601Q504 1577 342 1453Q309 1408 237 1324Q204 1350 204 1388Q204 1496 371 1588Q468 1642 637 1701Q849 1774 970 1774Q1214 1774 1332 1690Q1361 1670 1419 1560T1477
1414Q1477 1239 1280 1020Q1130 854 933 722Q908 704 792 639Q732 627 673 614Q555 590 531 570Q542 541 674 514Q768 496 861 477Q913 465 1047 431Q1229 383 1811 201ZM422 1315Q422 1298 378 1151Q329 988 323 955Q263 613 252 199Q240 139 226 17Q222 14 130
-39Q101 168 101 231Q101 254 139 496Q191 832 233 1023Q255 1123 310 1301Q335 1329 360 1385L422 1373V1315Z" />
<glyph unicode="S" glyph-name="S" horiz-adv-x="1715" d="M1631 544Q1631 492 1532 422Q1453 367 1383 342Q1330 324 740 191Q296 91 162 -20Q141 -18 114 6V68Q223 152 337 193Q463 237 698 293L1062 380Q1145 399 1237 428Q1342 461 1403 496Q1416 503 1462
552Q1430 609 1358 644Q1310 668 1223 694Q1158 713 973 768Q114 1031 114 1264Q114 1332 158 1362Q163 1366 270 1398Q865 1572 1162 1572H1196Q1380 1572 1451 1490Q1438 1475 1436 1458Q1265 1482 1239 1482Q1128 1482 861 1431Q617 1383 391 1324Q297 1298
242 1256Q304 1152 465 1075Q489 1064 739 957L945 901Q1631 711 1631 544Z" />
<glyph unicode="T" glyph-name="T" horiz-adv-x="1790" d="M2418 1439L1358 1385Q1146 1375 1124 1301Q1111 1260 1081 1076Q1042 836 1014 582Q1003 493 980 232Q973 157 961 81Q957 68 898 13H826Q842 83 865 336Q891 639 924 834L1007 1312Q959 1313 903 1313Q580
1313 281 1291Q270 1291 186 1268T86 1244Q61 1244 30 1286V1346L85 1381Q245 1407 421 1424Q575 1440 886 1471Q1211 1502 1539 1502H1872Q1896 1502 2039 1515T2208 1528Q2335 1528 2418 1486V1439Z" />
<glyph unicode="U" glyph-name="U" horiz-adv-x="2152" d="M2070 1251Q2070 1185 1984 883Q1938 722 1851 597Q1675 343 1352 166Q1029 -10 740 -10Q627 -10 473 76Q333 154 250 250Q232 270 178 367Q160 383 134 419Q127 446 118 473Q53 672 53 775Q53 916 111
1080Q180 1273 287 1324Q328 1343 353 1343Q369 1343 369 1311Q363 1311 211 996Q169 910 169 762Q169 547 337 340Q514 120 724 120H778Q994 120 1256 246Q1504 365 1664 529Q1767 634 1843 784Q1888 873 1938 988Q1980 1120 1980 1262Q1980 1389 1919 1409Q1916
1419 1916 1429Q1916 1503 1965 1503Q1971 1503 1985 1498Q2070 1465 2070 1251Z" />
<glyph unicode="V" glyph-name="V" horiz-adv-x="2018" d="M1969 1803Q1969 1743 1024 417Q929 283 861 198Q743 48 681 7Q657 -7 569 -7Q557 -7 545 -7Q429 175 314 406Q291 450 182 755Q78 1050 78 1091Q78 1098 85 1138Q93 1178 93 1185Q118 1190 166 1198Q217
1037 301 783Q337 704 395 565Q419 504 489 327Q495 317 549 232Q605 145 619 145Q686 145 1022 639Q1264 994 1936 1854Q1969 1831 1969 1803Z" />
<glyph unicode="W" glyph-name="W" horiz-adv-x="2672" d="M2961 1705Q2937 1679 2928 1615Q2749 1392 2412 896Q2084 416 1890 182Q1792 62 1686 -53Q1665 -75 1617 -75Q1611 -75 1588 -73Q1565 -73 1563 -73Q1474 105 1381 488Q1287 879 1206 1053Q1150 975
804 425Q802 409 796 378Q779 328 675 193Q563 49 531 49Q532 49 532 49Q532 47 431 35L42 1315Q52 1346 74 1406Q181 1317 277 977Q288 939 321 830Q324 784 341 691Q362 652 398 569Q411 516 446 380Q485 235 524 235Q581 235 870 725Q1118 1147 1205 1329Q1221
1313 1257 1291Q1331 1166 1398 886Q1423 775 1492 489Q1545 272 1621 109Q1621 109 1622 109Q1639 109 1673 149Q1705 187 1771 263Q1862 362 1924 443L2942 1761L2961 1705Z" />
<glyph unicode="X" glyph-name="X" horiz-adv-x="1678" d="M1745 1319Q1729 1303 1729 1279Q1729 1277 1729 1275Q1695 1278 1677 1278Q1646 1278 1625 1269Q1460 1191 1216 1036Q947 863 845 752Q947 629 1257 310Q1321 244 1449 118Q1478 116 1514 85V30Q1473
-13 1431 -13Q1375 -13 1337 32Q1260 125 1161 239Q1143 259 812 571Q736 643 717 643Q677 643 625 594L546 519Q441 445 307 252Q178 68 92 14Q61 41 61 85Q61 103 73 114Q91 132 95 139Q106 161 137 224Q178 306 246 396Q261 416 443 591Q600 742 600 771Q600
798 514 873Q483 900 400 970Q340 1036 204 1153L143 1192Q101 1219 101 1240Q101 1287 170 1324Q242 1280 341 1216Q345 1213 425 1135Q706 861 749 861Q765 861 796 878Q816 895 950 988Q1494 1363 1635 1363Q1678 1363 1745 1319Z" />
<glyph unicode="Y" glyph-name="Y" horiz-adv-x="1045" d="M1437 1611Q1437 1575 1306 1471L1139 1337Q1122 1324 1040 1240L813 918Q634 664 450 316Q410 241 396 193Q385 153 355 49Q332 -28 275 -73H208Q178 -49 178 -3Q178 33 322 321Q402 481 567 757Q769
1096 821 1189Q757 1177 596 1113Q456 1057 370 1057Q231 1057 164 1205Q112 1317 112 1475Q112 1619 170 1675Q185 1666 211 1644V1585Q211 1172 382 1172Q573 1172 893 1368Q1027 1453 1377 1672H1422Q1435 1608 1437 1608Q1437 1608 1437 1611Z" />
<glyph unicode="Z" glyph-name="Z" horiz-adv-x="2167" d="M2336 59Q2196 59 1850 73L1611 83L428 -22Q391 -25 369 -25Q248 -25 142 22Q49 62 49 101Q49 211 373 487Q387 499 972 961Q1295 1216 1295 1277Q1295 1347 1062 1347Q970 1347 916 1342Q883 1332 813
1319Q716 1315 557 1298Q543 1296 459 1271Q395 1252 363 1252Q329 1252 306 1282Q327 1328 399 1362Q419 1367 481 1380Q846 1456 1025 1456H1032Q1423 1456 1423 1322Q1423 1255 1335 1150Q1188 975 950 781Q650 537 535 446Q489 411 370 321Q271 245 228 176V142Q304
94 428 94Q444 94 598 109L929 141Q1248 172 1734 172Q2244 172 2336 59Z" />
<glyph unicode="[" glyph-name="bracketleft" horiz-adv-x="1078" d="M1034 -413Q992 -486 976 -486Q967 -486 935 -480T893 -474Q887 -474 875 -487T855 -501Q852 -501 801 -484Q751 -468 740 -468Q739 -468 739 -468Q739 -468 767 -472Q793 -476 793 -477Q761
-477 669 -463Q629 -456 615 -456Q616 -456 616 -456Q616 -458 584 -468Q547 -479 509 -479H409Q312 -490 91 -509L166 592Q196 1029 196 1122Q196 1124 196 1127L195 1332Q194 1539 182 1618Q181 1625 181 1634Q181 1658 194 1721Q207 1790 209 1802L235 1826Q347
1826 571 1849Q573 1849 576 1849Q622 1849 703 1861Q714 1865 732 1868Q752 1872 794 1872Q822 1872 858 1870Q878 1870 896 1870Q949 1870 982 1878Q1008 1857 1008 1809Q1008 1744 893 1743Q794 1742 722 1734Q685 1719 593 1713Q528 1709 463 1706Q388 1701
378 1697Q340 1685 340 1644Q340 1639 341 1603Q342 1562 342 1526L343 1407Q343 1397 343 1386Q343 1240 324 1037Q303 811 303 778Q303 504 272 109Q269 70 242 -150Q230 -246 230 -263Q230 -360 320 -360Q334 -360 373 -356T421 -351Q514 -347 536 -347Q540
-347 578 -335T626 -322Q636 -322 677 -332Q718 -341 729 -341Q734 -341 750 -334Q766 -329 773 -329Q803 -329 965 -375Q988 -388 1034 -413Z" />
<glyph unicode="\" glyph-name="backslash" horiz-adv-x="1028" d="M994 -248Q857 -206 807 -91Q780 -4 722 167Q643 346 582 491Q559 546 542 606Q538 623 529 656Q506 685 461 757Q458 761 420 856Q296 1168 57 1813L74 1870H120Q258 1641 409 1224Q574 769
742 389Q811 234 994 -178V-248Z" />
<glyph unicode="]" glyph-name="bracketright" horiz-adv-x="1053" d="M994 1321Q994 1306 957 1114Q942 1033 932 876Q919 691 909 638Q889 537 865 406Q863 331 856 240Q826 -201 779 -467Q612 -540 509 -540Q509 -540 405 -532Q298 -525 254 -525Q150 -525
87 -534Q43 -541 22 -552Q5 -560 5 -560Q6 -560 6 -560Q6 -559 -49 -548Q-65 -516 -65 -450V-433Q-48 -419 -24 -398Q-16 -395 283 -395Q289 -395 314 -401Q337 -408 342 -408Q411 -408 511 -388Q645 -362 652 -323Q678 -210 700 -9Q724 196 789 781Q793 842 809
1014Q821 1105 851 1366Q865 1495 865 1534Q865 1654 817 1685Q745 1734 565 1734Q553 1734 484 1729Q414 1725 401 1725Q376 1725 229 1734Q83 1742 58 1742Q53 1765 44 1816Q55 1824 99 1851Q117 1852 210 1867Q296 1882 327 1882Q337 1882 394 1869T461 1855Q473
1855 544 1868T628 1882Q648 1882 772 1858Q892 1834 924 1824Q946 1818 994 1762V1321Z" />
<glyph unicode="^" glyph-name="asciicircum" horiz-adv-x="966" d="M963 1446Q963 1423 927 1390T865 1356Q859 1356 712 1516Q565 1677 557 1677Q523 1677 367 1519Q314 1464 172 1321Q128 1277 30 1252Q11 1269 11 1319Q11 1356 29 1378Q46 1398 205 1543Q437
1754 542 1881Q543 1881 545 1881Q566 1881 609 1854Q655 1826 673 1801T744 1708Q777 1671 863 1574Q963 1460 963 1446Z" />
<glyph unicode="_" glyph-name="underscore" horiz-adv-x="3072" d="M3032 -189Q3020 -189 2962 -215T2898 -241Q2885 -241 2838 -220Q2785 -198 2770 -195Q2719 -185 2641 -182L1786 -150Q1782 -150 1776 -150Q1715 -150 1439 -163Q1170 -178 1093 -178Q1087
-178 1052 -164T1009 -150Q1000 -150 948 -170T887 -190Q865 -191 749 -197Q504 -212 331 -220L291 -252Q284 -252 224 -260Q170 -268 147 -268Q39 -268 39 -197Q39 -160 70 -120Q272 -87 417 -87Q424 -87 457 -94Q490 -100 496 -100Q501 -100 546 -90Q557 -88
573 -87L1466 -42L2796 -75Q2801 -75 2846 -55Q2890 -37 2898 -37Q2937 -37 2972 -81Q3016 -134 3032 -142V-189Z" />
<glyph unicode="`" glyph-name="grave" horiz-adv-x="739" d="M719 1508Q719 1497 698 1477Q663 1444 627 1444Q606 1444 545 1475L459 1517Q376 1559 273 1638Q161 1724 78 1747Q34 1802 34 1833Q34 1863 42 1870Q48 1875 81 1875Q134 1875 241 1813Q496 1662
709 1521L719 1508Z" />
<glyph unicode="a" glyph-name="a" horiz-adv-x="1037" d="M999 3Q978 -26 953 -26Q937 -26 845 70Q753 167 722 167Q722 165 504 83Q281 0 220 0Q170 0 109 49T48 141Q48 252 291 400Q519 540 639 540Q689 540 729 483V440Q709 411 683 411Q678 411 649 424T613
437Q573 437 430 355Q294 278 248 240Q202 200 189 149Q224 116 272 116Q297 116 513 199Q728 283 773 283Q839 283 868 250Q875 242 919 160Q952 98 999 48V3Z" />
<glyph unicode="b" glyph-name="b" horiz-adv-x="1457" d="M1411 417Q1411 341 1242 241Q1116 165 997 128Q888 95 725 76Q679 70 447 44Q420 41 292 17Q188 -2 145 -2Q120 -2 68 28Q96 94 137 108Q201 129 369 142Q473 150 767 181Q861 192 1071 276Q1294 365
1294 431Q1294 433 1294 435Q1288 492 1150 532Q1039 564 946 564Q937 564 933 563L263 437Q258 436 250 436Q211 436 122 465V737Q122 865 139 1097L182 1675Q189 1773 219 1835H277Q308 1788 308 1718Q308 1706 307 1695L237 636Q237 634 237 633Q237 613 258
590Q279 565 301 565Q310 565 483 588L860 637Q1000 655 1014 655Q1153 655 1268 601Q1411 534 1411 417Z" />
<glyph unicode="c" glyph-name="c" horiz-adv-x="1045" d="M1006 142Q947 106 885 93Q787 73 600 44Q477 24 452 24Q326 24 201 75Q42 139 42 244Q42 363 213 456Q462 591 525 591L652 578Q652 578 651 578Q638 578 636 554Q632 521 630 519Q532 488 378 409Q183
309 183 257Q183 160 427 132Q470 128 483 128Q484 128 486 128L988 204L1006 189V142Z" />
<glyph unicode="d" glyph-name="d" horiz-adv-x="1314" d="M1241 594Q1111 537 827 446Q560 360 503 340Q263 251 219 194Q220 166 242 154Q293 125 457 125Q514 125 720 169Q996 227 1226 290Q1214 227 1174 206Q1132 183 865 104Q589 22 547 22Q533 22 454 16T360
9Q278 9 176 48Q53 95 53 164Q53 252 108 287Q117 292 232 345Q473 454 636 488Q691 500 778 538Q877 583 918 595L1032 617Q1089 629 1132 673Q1104 1028 1104 1548Q1104 1844 1150 1860Q1188 1843 1199 1829Q1218 1804 1222 1737Q1222 1740 1222 1740Q1221 1740
1221 1510L1222 837Q1222 720 1241 594Z" />
<glyph unicode="e" glyph-name="e" horiz-adv-x="1053" d="M1025 53Q988 9 929 9H575Q452 9 301 46Q103 94 77 167Q48 249 48 324Q48 475 178 556Q288 626 446 626Q582 626 662 568T742 408Q742 352 550 285Q391 228 319 228Q310 228 303 229Q303 215 281 195Q293
175 398 149Q492 125 532 125H850Q850 124 970 107Q1008 83 1025 53ZM613 452Q557 509 433 509Q346 509 272 475Q176 431 176 356Q176 329 194 318H258Q292 318 442 375T613 452Z" />
<glyph unicode="f" glyph-name="f" horiz-adv-x="1528" d="M1805 1383Q1805 1384 1805 1384Q1803 1384 1789 1331Q1614 1575 1286 1575Q1176 1575 1051 1522Q917 1467 857 1385Q789 1292 722 1104Q650 907 650 805Q650 773 663 673Q676 564 678 544Q722 509 745
509Q755 509 793 519Q832 529 834 529Q911 537 1172 537Q1343 537 1497 527Q1488 527 1454 500L1457 472L1086 450Q860 437 738 358Q768 252 867 79V24Q857 6 829 6Q802 6 691 187Q578 367 553 367Q495 367 387 345Q354 337 255 301Q157 264 141 264Q86 264 20
332Q20 334 20 336Q20 381 62 400Q178 454 524 486Q544 500 554 516Q540 634 540 747Q540 1137 711 1394Q906 1690 1278 1690Q1447 1690 1606 1618Q1805 1527 1805 1383Z" />
<glyph unicode="g" glyph-name="g" horiz-adv-x="1006" d="M907 -216Q907 -426 806 -632Q690 -864 489 -982Q377 -1049 40 -1049Q-14 -1049 -120 -1027Q-227 -1004 -283 -982Q-362 -951 -412 -903Q-446 -871 -477 -799Q-507 -728 -507 -681Q-507 -546 -214 -404Q-10
-306 255 -235Q447 -183 757 -147L779 -136Q780 -125 780 -114Q780 -105 761 37Q755 80 714 183Q667 301 644 301Q647 301 647 300Q647 294 533 256Q398 211 341 211Q260 211 201 239Q123 276 123 345Q123 368 130 410L140 463L180 511Q227 537 322 570Q428 608
465 608H751L766 547L722 509Q694 511 667 511Q317 511 227 373Q277 314 360 314Q393 314 546 391Q684 460 684 467Q684 468 683 468Q736 468 781 347Q907 17 907 -216ZM792 -240Q792 -198 775 -176H733Q711 -187 650 -239Q580 -248 489 -268Q57 -364 -241 -524Q-382
-601 -382 -719Q-382 -861 -77 -935Q20 -959 118 -959Q289 -959 391 -911Q427 -880 455 -863Q474 -851 525 -814Q637 -727 719 -542Q792 -377 792 -240Z" />
<glyph unicode="h" glyph-name="h" horiz-adv-x="1116" d="M1082 -172L1051 -200Q924 -149 924 -30Q924 -21 926 24T929 77Q929 211 783 211H755Q645 211 362 142Q220 108 215 108Q147 108 55 174L134 1032Q188 1619 301 1874Q325 1868 375 1859Q348 1768 299
1451Q252 1156 242 1039Q221 806 200 544Q183 325 183 293V279Q183 250 191 243Q199 237 235 237Q245 237 281 247T318 257Q344 260 628 301Q809 327 819 327Q823 327 847 328Q871 329 875 329Q905 329 924 321Q1015 285 1038 165Q1047 120 1047 -40Q1047 -95 1082
-127V-172Z" />
<glyph unicode="i" glyph-name="i" horiz-adv-x="433" d="M364 970L365 966Q365 927 283 871Q259 878 185 953Q215 1025 250 1025Q283 1025 364 970ZM270 206Q258 44 258 18Q210 -9 172 -9Q156 37 156 105Q156 483 250 506Q283 491 286 455Q285 468 283 469Q284
458 284 442Q284 371 270 206Z" />
<glyph unicode="j" glyph-name="j" horiz-adv-x="529" d="M373 988Q373 942 296 878Q215 911 215 973Q215 1009 289 1047Q373 1022 373 988ZM435 -729Q436 -747 436 -763Q436 -905 403 -963Q374 -1016 186 -1047Q50 -1069 -66 -1069Q-194 -1069 -279 -995Q-360
-925 -361 -825Q-361 -819 -360 -812Q-191 -957 -140 -957Q232 -957 276 -867Q308 -802 308 -645Q308 -601 306 -581L255 393Q255 397 255 401Q255 436 272 479Q294 536 325 536Q382 536 393 292Q395 242 398 3Q410 -53 421 -124L435 -729Z" />
<glyph unicode="k" glyph-name="k" horiz-adv-x="1122" d="M990 18Q990 15 990 12Q990 -22 942 -59Q895 -96 857 -101Q855 -101 853 -101Q822 -101 747 -41L642 44Q611 79 553 145Q539 140 325 55Q254 27 174 3Q163 2 152 2Q77 2 69 75Q68 78 68 84Q68 131 96
332L135 615Q171 884 187 1165Q188 1175 211 1652Q214 1729 222 1792Q227 1823 270 1854Q317 1837 326 1778Q326 1775 326 1766Q326 1720 317 1503Q310 1370 255 738Q255 699 255 661Q255 598 253 537Q252 514 229 397Q211 303 211 279Q211 276 211 275L224 164Q262
160 262 158Q262 158 258 158Q340 194 431 224Q666 301 807 369Q836 383 986 452L1027 457Q1062 440 1070 349Q1041 329 903 272Q783 222 752 176Q815 46 990 18Z" />
<glyph unicode="l" glyph-name="l" horiz-adv-x="448" d="M327 1710L270 446Q265 442 265 422Q265 402 270 367Q281 273 322 11Q320 2 288 -9Q282 -10 277 -10Q172 -10 141 232Q140 237 140 252Q140 299 145 445Q152 633 162 838Q165 916 185 1128Q204 1322 204
1416Q204 1703 242 1817L257 1818Q260 1818 262 1818Q296 1818 308 1780Q317 1755 327 1710Z" />
<glyph unicode="m" glyph-name="m" horiz-adv-x="1616" d="M1570 365Q1570 336 1563 176Q1556 15 1556 -13Q1527 -15 1499 -40Q1426 19 1426 142Q1426 155 1432 235Q1439 315 1439 329Q1439 389 1420 424H1385Q1341 424 1047 243L755 62Q711 62 636 118Q634 127
634 138Q634 150 643 222T652 307Q652 370 624 410H590Q545 410 152 51H94Q68 90 68 108Q68 136 198 219Q217 231 426 421Q584 564 671 564Q765 564 765 347Q765 329 763 288Q759 247 759 228Q796 220 798 218Q797 217 793 217Q813 217 1137 412Q1161 434 1216
469Q1405 551 1475 551Q1570 551 1570 365Z" />
<glyph unicode="n" glyph-name="n" horiz-adv-x="1041" d="M940 540Q940 519 919 301Q901 120 875 -93Q873 -109 843 -109Q804 -109 779 -11Q760 64 760 122Q760 144 785 280T811 437Q811 496 779 496Q738 496 604 425Q488 363 435 324Q334 250 206 101Q185 77
124 9Q100 -16 29 -17V50Q29 97 213 257Q360 385 521 489Q747 636 857 636Q886 636 913 604T940 540Z" />
<glyph unicode="o" glyph-name="o" horiz-adv-x="1243" d="M1166 365Q1166 258 1121 182Q1080 113 830 46Q607 -14 491 -14Q355 -14 222 51Q61 131 61 250Q61 303 122 358Q176 397 285 505Q357 593 549 647Q711 693 852 693Q890 693 966 660Q1042 625 1070 596Q1098
565 1132 485T1166 365ZM1064 373Q1064 447 975 514Q893 577 813 577Q798 577 580 534Q496 517 427 469Q191 301 191 237Q191 183 320 139Q430 101 499 101Q602 101 788 143Q958 181 1030 258Q1064 293 1064 373Z" />
<glyph unicode="p" glyph-name="p" horiz-adv-x="1076" d="M1054 450Q1054 348 859 213Q722 117 573 53Q467 6 429 6H388L360 37Q381 90 414 116Q454 132 523 160Q924 315 924 463Q924 559 646 559Q509 559 375 537Q184 505 140 442Q127 389 96 296Q37 387 37
444Q37 506 70 545Q109 592 335 642Q538 687 629 687Q1054 687 1054 450ZM398 276Q398 263 360 183Q315 92 310 75Q149 -463 127 -917Q69 -930 69 -932Q69 -932 70 -932Q47 -932 24 -908T0 -861Q0 -583 196 78Q223 169 273 259Q290 290 366 327Q398 305 398 276Z"
/>
<glyph unicode="q" glyph-name="q" horiz-adv-x="1076" d="M1025 138Q1025 65 976 -62Q954 -118 898 -263Q824 -472 819 -502Q811 -558 795 -671L734 -1071L711 -1100H641Q624 -1088 624 -1056Q624 -811 713 -493Q718 -458 796 -195Q799 -184 845 -61Q883 39 883
61Q883 106 845 106Q818 106 556 50Q396 16 196 16Q139 16 81 61Q21 106 21 151Q21 186 50 245T106 319Q161 351 334 384Q492 414 575 414Q652 414 703 373Q698 345 689 289Q660 273 606 273Q596 273 542 292T478 311Q438 311 318 260Q196 207 163 176Q184 129
244 129Q247 129 270 130T299 132Q309 132 467 160L812 224Q941 247 953 247Q1025 247 1025 138Z" />
<glyph unicode="r" glyph-name="r" horiz-adv-x="1001" d="M935 518L903 489Q798 522 740 522Q736 522 732 522Q657 518 622 518H542Q540 518 472 496Q429 493 345 474Q211 415 185 266Q174 207 174 162Q174 150 175 138Q183 27 183 7Q160 1 109 -5Q81 49 81 70Q81
81 86 127Q89 173 89 189Q89 273 163 478Q188 530 235 563Q337 633 612 633Q888 632 935 560V518Z" />
<glyph unicode="s" glyph-name="s" horiz-adv-x="775" d="M725 241Q725 156 670 128Q629 109 470 60Q305 9 268 9Q262 9 252 15T237 22Q215 22 152 -42Q108 -9 108 9Q108 121 445 189Q466 194 523 204Q539 215 572 248Q540 301 473 327Q406 350 231 418Q57 485
57 569Q57 678 275 678Q358 678 488 659Q640 637 686 609L670 583L299 564Q296 560 275 544L542 425Q725 344 725 241Z" />
<glyph unicode="t" glyph-name="t" horiz-adv-x="1085" d="M1098 676Q869 676 704 600Q664 582 655 549Q653 502 639 378Q634 332 634 283Q634 273 638 217T643 151Q643 72 604 20Q596 22 560 37Q521 138 521 272Q521 305 532 404Q542 501 542 535Q542 565 521
580Q503 573 393 562Q374 558 279 544Q262 542 217 537Q207 536 168 505Q158 496 158 466Q158 463 158 459H114Q99 459 52 500T4 554Q4 616 224 646Q493 683 545 711Q575 729 611 1106Q629 1292 685 1583Q690 1608 701 1660Q705 1671 771 1703L788 1580Q783 1555
769 1475L727 1218Q720 1186 711 1095L694 738L1098 742V676Z" />
<glyph unicode="u" glyph-name="u" horiz-adv-x="1021" d="M1054 564Q1054 522 902 354Q768 206 703 158Q670 134 562 54Q517 22 424 -9Q329 -40 275 -40Q173 -40 106 91Q51 198 51 314Q51 410 91 511Q106 511 122 525Q141 514 174 483Q164 404 164 345Q164 103
321 103Q473 103 686 292Q720 322 1006 591H1022Q1054 591 1054 564Z" />
<glyph unicode="v" glyph-name="v" horiz-adv-x="1148" d="M1162 668Q1087 634 980 573Q971 568 842 437Q396 -15 296 -15Q273 -15 210 90Q152 185 139 220Q124 265 83 381Q53 464 -5 529V613Q47 625 47 627Q47 628 44 628Q65 628 195 397T353 166Q387 166 577
347Q791 552 819 571Q950 663 1080 744H1146L1162 729V668Z" />
<glyph unicode="w" glyph-name="w" horiz-adv-x="1639" d="M1612 468Q1506 381 1406 273Q1096 -62 988 -62Q901 -62 794 95L640 323Q596 316 481 163Q373 17 283 17L255 32Q224 89 138 283Q44 493 44 522Q44 573 104 606Q164 534 222 406Q309 217 322 194H371Q391
231 465 308Q491 348 542 419Q601 503 642 503Q680 503 706 461Q744 401 842 246Q950 78 1001 78Q1039 78 1285 296Q1532 514 1556 514H1612V468Z" />
<glyph unicode="x" glyph-name="x" horiz-adv-x="1164" d="M1113 169Q1113 92 1018 92Q982 92 758 253T522 414Q370 414 191 121Q175 96 172 59Q169 11 165 -4Q153 -50 94 -74Q92 -53 74 9Q59 63 59 92Q59 166 141 270Q183 322 406 523Q358 581 268 621L114 689Q97
734 97 748Q97 812 156 812Q161 812 340 716Q517 619 527 619Q534 619 742 710T991 801Q1036 801 1113 744V700Q1107 698 1005 687Q986 685 773 628Q716 613 650 523Q751 401 984 254Q1104 178 1113 169Z" />
<glyph unicode="y" glyph-name="y" horiz-adv-x="911" d="M875 406Q875 395 862 349Q848 301 848 296Q848 293 848 289Q848 263 844 217Q794 99 713 -139Q686 -168 607 -337Q609 -336 609 -335V-336Q609 -339 552 -493Q521 -576 467 -707Q460 -741 445 -822Q443
-836 419 -896Q399 -945 399 -970Q399 -979 403 -986Q384 -1018 332 -1070H288Q258 -1014 258 -988Q258 -889 390 -550Q442 -416 518 -241Q543 -196 599 -75Q618 -16 639 29Q658 58 704 191Q701 194 701 201Q701 211 706 227Q708 235 708 240Q708 250 701 250Q692
250 581 205T463 160Q442 160 362 147T270 134Q189 134 123 265Q65 380 65 475Q65 503 94 558H152Q226 248 360 248Q473 248 632 365L810 496Q875 473 875 406Z" />
<glyph unicode="z" glyph-name="z" horiz-adv-x="1322" d="M1315 125Q1254 99 1194 79Q1146 63 1009 50L822 33Q799 23 732 2Q566 -40 378 -40Q317 -40 220 -19Q105 5 83 41V125L379 352Q548 482 647 611Q632 655 599 655Q598 655 596 655L577 654Q564 653 401
615T216 577Q200 577 134 606Q134 610 132 631T129 657Q129 678 136 691L732 795Q801 777 801 686Q801 564 594 376Q579 362 288 108Q305 88 343 88H371Q370 88 370 88Q370 90 694 118Q851 131 1091 154Q1093 154 1132 166T1181 178Q1251 178 1315 125Z" />
<glyph unicode="{" glyph-name="braceleft" horiz-adv-x="863" d="M909 1796L905 1789L893 1780L619 1789Q616 1789 613 1789Q545 1789 511 1743Q504 1725 461 1635Q465 1611 469 1565Q486 1580 486 1602V1608L463 1537Q473 1477 503 1347Q518 1314 540 1241Q573
1070 573 1014Q573 999 560 926T544 847Q529 819 485 783Q434 743 419 725Q472 633 514 594Q524 586 544 571Q560 553 560 516Q560 383 525 304Q516 246 485 135Q450 57 415 -26Q377 -116 377 -195Q377 -322 461 -370Q478 -380 561 -396T675 -412Q679 -412 710
-410T748 -408Q752 -408 765 -410Q781 -423 810 -433L812 -450Q805 -465 801 -481Q780 -491 750 -505Q703 -527 650 -527Q583 -527 404 -469Q388 -450 369 -439Q291 -391 263 -358Q222 -311 222 -233Q222 -172 246 -60Q263 19 335 167L340 186Q376 280 425 483Q370
597 273 608Q250 608 204 615L172 611Q174 588 194 551L149 614Q127 626 108 630Q96 650 88 659V671Q88 693 154 716Q286 761 366 849T447 1040Q447 1060 444 1080L364 1558Q369 1587 380 1682Q385 1726 393 1747Q406 1781 433 1796Q440 1799 535 1825T642 1854Q717
1866 765 1866Q778 1866 830 1855Q883 1844 886 1842Q891 1834 896 1811L909 1796Z" />
<glyph unicode="|" glyph-name="bar" horiz-adv-x="514" d="M189 1870L191 1868Q204 1851 231 1824Q271 1738 271 1652Q271 1649 271 1647L252 -174Q250 -260 237 -310L232 -311Q215 -306 205 -306Q204 -306 202 -306Q187 -296 160 -274H158Q143 -163 143 -154L151
1198Q154 1288 162 1559Q162 1605 165 1737Q166 1784 189 1870Z" />
<glyph unicode="}" glyph-name="braceright" horiz-adv-x="823" d="M-30 1776L-26 1771L-13 1761L260 1770Q263 1770 265 1770Q334 1770 367 1724Q376 1706 418 1615L411 1545Q394 1561 394 1583L393 1590L417 1519Q407 1458 378 1328Q361 1295 340 1222Q306 1051
306 995Q306 980 319 906Q332 833 337 826Q352 799 394 765Q447 722 461 706Q406 610 365 573Q365 573 335 550Q319 531 319 498Q319 365 354 283Q364 228 396 117L464 -44Q503 -134 503 -213Q503 -340 419 -388Q401 -399 319 -414Q235 -431 204 -431Q199 -431
168 -429T132 -426Q127 -426 114 -428Q97 -442 70 -454L68 -469Q74 -483 79 -499Q96 -509 128 -524Q182 -545 228 -545Q296 -545 475 -488Q490 -471 540 -439Q596 -401 617 -378Q657 -330 657 -252Q657 -188 634 -79Q617 0 545 147Q519 239 488 327Q465 390 455
465Q510 578 606 588Q612 588 675 596L708 592L707 581Q707 570 711 570Q717 570 725 586L729 590L731 594Q754 606 772 610Q784 630 791 640V652Q791 673 726 696Q593 740 514 829Q433 917 433 1021Q433 1041 436 1060L516 1539Q516 1601 491 1715Q482 1757 446
1776Q440 1780 345 1807T237 1836Q169 1847 114 1847Q101 1847 49 1837T-6 1824Q-11 1813 -17 1792L-30 1776Z" />
<glyph unicode="~" glyph-name="asciitilde" horiz-adv-x="1821" d="M1785 1675Q1701 1617 1598 1537Q1452 1422 1407 1397Q1299 1336 1183 1336Q1144 1336 1006 1396Q866 1457 852 1482Q766 1624 731 1651Q672 1697 527 1697Q416 1697 317 1626Q260 1586 178
1497Q112 1426 85 1426Q26 1426 26 1479Q26 1580 213 1725Q392 1863 502 1863Q665 1863 775 1775Q848 1704 988 1570Q1015 1543 1088 1519Q1174 1492 1216 1492Q1298 1492 1506 1626L1715 1761Q1714 1761 1714 1761Q1714 1760 1785 1747V1675Z" />
<glyph unicode="&#xa0;" glyph-name="nbspace" horiz-adv-x="870" />
<glyph unicode="&#xa1;" glyph-name="exclamdown" horiz-adv-x="553" d="M455 1344Q455 1332 411 1150Q368 968 235 206Q218 106 163 -260Q147 -262 132 -276Q78 -256 78 -213Q78 -207 85 -176Q91 -144 91 -138L90 -130Q60 -79 60 -31Q60 144 270 1139Q316 1351
383 1427Q455 1393 455 1344ZM549 1770Q549 1730 493 1675H454Q432 1675 401 1713T369 1778Q369 1806 392 1836T439 1867Q479 1867 514 1837T549 1770Z" />
<glyph unicode="&#xa2;" glyph-name="cent" horiz-adv-x="982" d="M940 481Q632 402 632 400Q627 400 611 407T588 414Q525 414 507 379Q432 229 422 -15Q420 -51 383 -88Q324 -60 324 60Q324 96 347 206Q373 332 377 362Q293 412 149 532Q138 544 114 637Q111
643 94 678Q79 709 79 722Q79 770 186 883Q287 988 341 1012Q445 1031 573 1060Q621 1077 709 1324Q791 1558 870 1558Q929 1558 929 1493Q929 1480 903 1449Q873 1417 868 1406Q805 1290 791 1175Q745 1130 745 1065Q745 1011 806 986Q880 954 889 949V865Q824
865 695 859Q642 798 582 577Q650 542 729 542Q807 542 884 580L940 525V481ZM542 860L457 876Q350 808 331 793Q247 729 247 683Q247 684 247 684Q249 684 264 623Q270 619 340 575Q396 542 414 542Q428 542 542 860Z" />
<glyph unicode="&#xa3;" glyph-name="sterling" horiz-adv-x="1798" d="M1743 136Q1743 58 1556 4Q1408 -39 1300 -39Q1191 -39 1114 20Q1073 51 978 165Q902 255 838 308Q770 220 669 107Q500 -26 388 -26Q254 -26 150 65Q47 156 47 276Q47 281 45 307Q44 332
44 337Q44 391 103 473Q127 507 244 568Q273 584 347 625Q409 657 461 657H496Q506 657 522 657Q538 658 542 658H625Q651 658 710 637Q739 627 769 615L845 893Q830 913 804 913Q804 913 658 914L511 915Q500 965 498 965Q498 965 498 964Q498 1000 540 1033T626
1067Q637 1067 705 1054T786 1041Q850 1041 865 1100Q874 1177 886 1253Q895 1312 942 1499Q946 1532 964 1591Q988 1632 1060 1665Q1132 1696 1197 1696Q1232 1696 1379 1627Q1406 1615 1448 1524Q1486 1439 1486 1401Q1486 1368 1467 1339Q1447 1311 1422 1311Q1372
1311 1362 1385Q1349 1484 1342 1493Q1326 1516 1251 1537Q1186 1556 1146 1556Q1055 1556 1012 1350Q984 1217 984 1064Q1029 1049 1116 1041Q1201 1033 1247 1023Q1342 1001 1498 922Q1493 903 1485 863Q1451 856 1411 856Q1383 856 1224 886T1038 916Q1016 916
994 914Q979 890 944 727T909 521Q909 484 1062 283Q1129 196 1191 158Q1260 116 1364 116Q1557 116 1714 204Q1721 189 1729 174Q1743 145 1743 136ZM716 430Q716 465 657 498Q605 526 568 526Q388 526 255 413Q163 335 163 296Q163 232 223 180T355 128Q401 128
415 132Q479 146 595 255Q716 368 716 430Z" />
<glyph unicode="&#xa4;" glyph-name="currency" horiz-adv-x="1514" d="M1644 1405Q1579 1361 1529 1361Q1521 1361 1478 1367Q1433 1372 1425 1372Q1203 1372 953 1253T581 968Q678 953 792 953Q825 953 943 956L1095 958Q1214 958 1374 953Q1394 942 1429 916V851Q1383
847 1324 847Q1297 847 1208 850L1093 852Q1005 852 701 828L549 816H511Q467 812 434 738Q468 718 509 718Q519 718 568 725Q618 732 626 732Q638 732 705 719T783 705Q785 705 806 711Q827 718 828 718Q845 718 869 696Q1146 693 1449 652L1462 592Q1378 577
1226 577L1201 564Q1175 551 1163 551Q1155 551 1129 564Q1101 577 1097 577L616 590Q616 589 406 573Q372 546 372 487Q372 376 424 318Q590 135 970 122Q985 122 1076 111Q1163 101 1190 101Q1211 101 1288 101L1385 99V13Q1143 -28 1124 -28Q811 -28 580 53Q253
168 234 415Q233 419 226 567Q199 581 50 617V687Q79 733 128 733Q140 733 194 719T257 705Q300 705 300 778V794Q213 813 42 858V955Q97 984 120 984Q135 984 227 971Q320 958 338 958Q360 958 379 960Q413 1013 504 1148Q581 1260 658 1305Q928 1461 1265 1479Q1271
1479 1318 1490T1374 1502Q1537 1502 1613 1456Q1621 1438 1644 1405Z" />
<glyph unicode="&#xa5;" glyph-name="yen" horiz-adv-x="1385" d="M1427 1488L1040 1045Q734 696 734 613Q734 567 744 555T797 542Q826 542 928 544L1058 546Q1194 546 1273 540L1268 506Q1210 452 1139 452Q1132 452 1116 458T1093 465Q1080 465 972 447Q973
447 973 447Q973 449 839 452Q836 452 833 452Q711 452 696 320Q711 299 740 299Q747 299 774 309T805 319Q907 332 1099 332Q1141 332 1187 332L1271 331V248Q1244 254 1216 259Q1204 259 1166 242Q1147 233 1127 224Q1037 224 896 204Q804 190 770 178Q704 157
685 109Q665 9 663 5Q643 -50 586 -75Q542 -40 542 13Q542 19 545 49Q549 78 549 83Q549 130 465 130Q447 130 345 111Q242 93 224 93H93Q81 147 79 147Q78 147 78 143Q78 219 285 241Q476 260 489 263Q537 270 547 291Q557 329 567 367Q551 388 516 388Q405 388
318 371Q306 369 222 342Q162 323 129 323Q95 323 53 364V426Q101 454 219 486Q336 516 393 516Q399 516 419 511Q437 504 445 504Q468 504 523 525T593 562L142 1345Q158 1416 213 1416Q261 1416 430 1144Q611 850 675 812Q758 895 949 1118Q1003 1185 1148 1360Q1304
1545 1358 1545Q1373 1545 1427 1488Z" />
<glyph unicode="&#xa7;" glyph-name="section" horiz-adv-x="1185" d="M1068 321Q1068 244 1028 182Q1016 163 993 147Q948 125 812 53Q693 -11 683 -11H447Q391 -11 265 58L118 138V224L128 229Q138 235 147 235Q159 235 222 189Q296 138 322 127Q415 90 498
90Q518 90 665 110Q711 117 807 176Q860 202 913 229Q959 258 959 325Q959 381 922 448Q878 531 808 557Q786 560 744 563Q732 571 709 586Q706 586 703 586Q555 586 246 709Q204 725 128 810Q61 886 61 960Q61 1003 111 1104L162 1205Q162 1203 161 1203Q158 1203
129 1276Q97 1361 97 1408Q97 1643 227 1736Q267 1765 367 1815T483 1866Q537 1866 621 1844Q670 1832 757 1780Q796 1758 796 1708Q796 1690 779 1670T747 1649Q750 1649 750 1650Q750 1659 682 1703Q599 1758 538 1758Q489 1758 470 1747L377 1696Q349 1688 296
1655Q198 1574 198 1414Q198 1382 230 1319Q278 1226 399 1205Q453 1198 593 1174Q682 1157 786 1091Q830 1063 896 955Q959 855 959 824Q959 819 941 734T922 643Q922 636 976 569Q1032 499 1046 468Q1068 415 1068 321ZM841 796Q841 848 790 923T686 1019Q632
1041 556 1065Q470 1080 312 1108Q291 1122 270 1122Q235 1122 196 1047Q162 982 162 947Q162 916 239 852Q303 798 327 790Q370 774 491 736Q660 688 755 688Q781 688 811 726T841 796Z" />
<glyph unicode="&#xa8;" glyph-name="dieresis" horiz-adv-x="1012" d="M867 1580Q850 1531 806 1495Q753 1451 704 1451Q701 1451 698 1451Q645 1454 609 1492L582 1524Q568 1542 568 1565Q568 1570 568 1574Q570 1598 596 1614Q621 1628 645 1642Q677 1666 736
1701L842 1657Q845 1639 856 1606Q858 1598 865 1580H867ZM337 1482Q320 1465 276 1442Q272 1442 268 1442Q257 1442 245 1446Q223 1452 213 1453Q208 1453 203 1453Q188 1453 174 1452Q154 1452 140 1472Q132 1483 132 1497Q132 1501 133 1506L132 1565L168 1629L242
1677L349 1682Q392 1642 392 1590Q392 1565 382 1540T337 1482Z" />
<glyph unicode="&#xa9;" glyph-name="copyright" horiz-adv-x="1466" d="M1408 770Q1408 504 1176 334Q964 178 688 178Q551 178 388 243Q210 315 140 417Q119 447 77 545Q33 648 33 673Q33 683 42 706Q52 730 55 738Q55 760 59 821Q70 968 140 1089Q291 1354
565 1407Q658 1425 816 1425Q816 1424 1187 1330Q1408 1153 1408 770ZM1280 751Q1280 924 1250 1010Q1232 1060 1163 1131Q1089 1207 1042 1207Q1037 1207 1007 1201Q978 1194 972 1194Q954 1194 826 1226T683 1258Q671 1258 638 1247T604 1236Q505 1219 461 1196Q347
1138 273 1007Q200 875 200 732Q200 652 239 558Q283 451 345 427Q586 334 683 334Q739 334 893 368Q1047 403 1096 427Q1152 455 1216 569T1280 751ZM1049 668Q1049 591 932 516Q826 450 747 450Q693 450 527 491L451 591Q392 668 392 687Q392 859 450 922Q590
1078 747 1078Q826 1078 879 1042T933 950Q933 924 902 898Q891 903 837 921Q791 937 773 937Q719 937 627 872T535 763Q535 604 759 604Q813 604 886 657Q973 720 1003 732Q1049 717 1049 668Z" />
<glyph unicode="&#xaa;" glyph-name="ordfeminine" horiz-adv-x="895" d="M874 1235Q827 1224 825 1221Q825 1220 829 1220Q801 1240 650 1363Q624 1465 560 1465Q544 1465 367 1413T174 1361Q147 1361 100 1404T52 1470Q52 1594 402 1852Q481 1875 527 1875Q584
1875 663 1824Q747 1767 747 1715Q747 1680 702 1644L630 1703Q591 1734 547 1734Q389 1734 270 1559Q270 1557 269 1550T268 1541Q268 1528 290 1528Q300 1528 445 1586Q588 1644 598 1644Q657 1644 757 1492Q833 1374 874 1278V1235Z" />
<glyph unicode="&#xab;" glyph-name="guillemotleft" horiz-adv-x="1203" d="M1121 60Q1080 46 999 19Q984 37 952 77T893 118Q880 118 867 110L868 118Q868 137 822 186Q804 205 758 254Q737 276 588 406Q453 522 453 560Q453 609 519 665Q563 701 623 750Q725
859 949 1060Q1019 1007 1019 977Q1019 961 833 778Q647 593 647 573Q647 539 796 413Q847 370 981 259Q1020 227 1121 119V60ZM660 977Q660 937 455 735T249 521Q249 494 435 283Q621 73 621 53V-2Q597 -32 563 -32Q532 -32 437 62Q363 135 322 189Q226 316 73
448Q55 483 55 514Q55 582 170 672Q246 732 340 805Q419 895 588 1060Q660 1023 660 977Z" />
<glyph unicode="&#xac;" glyph-name="logicalnot" horiz-adv-x="2147" d="M2136 535Q2136 519 2097 427Q2073 370 2048 307L1993 114Q1947 0 1854 -3Q1854 -2 1847 21T1839 53Q1839 111 1907 325Q1916 357 1929 400V474Q1912 496 1898 496Q1890 496 1855 491T1813
485Q1806 485 1763 497T1711 509Q1688 509 1547 493Q1448 482 1165 457L105 380Q102 380 99 380Q72 380 45 399Q15 419 15 444Q15 474 47 504T111 535L2019 625Q2021 625 2024 625Q2064 625 2099 599Q2136 570 2136 535Z" />
<glyph unicode="&#xae;" glyph-name="registered" horiz-adv-x="1567" d="M1504 783Q1504 637 1460 491Q1410 322 1331 232Q1279 173 1154 124T932 75Q906 75 753 63T573 50Q557 50 527 64Q492 81 481 83Q436 95 340 132Q216 200 135 335T53 609Q53 617 61 666T69
724Q69 732 66 775T63 827Q63 892 123 1021Q176 1136 224 1199Q329 1340 481 1406Q514 1421 687 1440Q715 1443 788 1460Q855 1477 887 1477Q1067 1477 1217 1357T1451 1029Q1504 896 1504 783ZM1363 744Q1363 850 1310 995Q1252 1152 1181 1212Q1038 1334 919
1334Q898 1334 865 1308Q825 1276 814 1273Q692 1233 598 1233Q593 1233 573 1252T547 1271Q510 1271 422 1190Q350 1124 314 1075Q258 1002 224 845Q194 711 194 596Q194 556 246 455Q292 362 323 325Q361 281 481 250Q489 248 558 224Q618 204 630 204Q650 204
752 220Q903 245 1041 274Q1007 291 808 379Q664 442 583 506V421Q583 332 514 332Q485 332 452 355Q448 399 448 739Q448 834 445 853T421 904Q399 934 399 949Q399 1019 581 1091Q740 1155 829 1155Q924 1155 1002 1077T1080 904Q1080 816 940 668Q884 622 811
542Q1003 465 1203 345Q1363 467 1363 744ZM951 930Q951 960 904 993T816 1026Q776 1026 678 987T554 921Q554 808 583 538Q678 661 742 688Q749 689 781 696Q951 867 951 930Z" />
<glyph unicode="&#xaf;" glyph-name="overscore" horiz-adv-x="1068" d="M1030 1668Q1017 1662 973 1642Q934 1625 916 1625Q897 1625 829 1636L586 1675Q499 1688 479 1688Q458 1688 319 1663Q178 1637 158 1637Q117 1637 86 1666T54 1734Q54 1752 83 1778Q114
1803 138 1808Q201 1813 323 1826L511 1844Q540 1844 710 1833T909 1821Q958 1821 986 1762Q1025 1676 1030 1668Z" />
<glyph unicode="&#xb0;" glyph-name="degree" horiz-adv-x="807" d="M769 1480Q604 1319 442 1319Q334 1319 208 1393Q202 1396 194 1396H178Q143 1396 132 1383Q62 1469 62 1500Q62 1570 142 1692T286 1842Q359 1872 481 1872Q571 1872 663 1828Q693 1813 728
1747Q762 1682 762 1642Q762 1633 755 1588T747 1534Q747 1503 769 1480ZM628 1596Q628 1646 582 1682T474 1719Q439 1719 360 1656T281 1563Q281 1516 354 1485Q410 1462 468 1462Q514 1462 571 1508Q628 1555 628 1596Z" />
<glyph unicode="&#xb1;" glyph-name="plusminus" horiz-adv-x="1037" d="M955 670Q924 612 884 612Q875 612 820 618T755 625Q652 625 632 555Q627 497 617 414Q607 329 522 304Q502 335 502 396Q502 405 505 456Q507 506 507 516Q507 572 489 588Q458 614 325
614Q229 614 184 655Q199 694 240 748Q334 750 521 768Q565 874 575 893Q620 979 657 983Q672 919 672 823Q672 800 671 775Q693 764 825 735Q929 711 955 670ZM993 195Q993 147 950 114L796 94Q683 80 397 40Q334 32 235 32Q140 32 109 39Q30 55 30 118Q30 122
85 187H432Q442 187 503 201Q647 235 704 235Q715 235 781 233Q847 231 859 231Q930 231 976 239Q993 222 993 195Z" />
<glyph unicode="&#xb4;" glyph-name="acute" horiz-adv-x="870" d="M847 1801Q847 1796 732 1730Q692 1707 554 1634L364 1532Q347 1519 316 1495Q150 1370 88 1370Q30 1370 30 1410Q30 1456 86 1484T255 1567Q312 1611 434 1688L560 1748L634 1798L711 1840Q727
1842 788 1866Q847 1830 847 1801Z" />
<glyph unicode="&#xb5;" glyph-name="mu" horiz-adv-x="2147" d="M2249 1352Q2249 1236 2195 1137Q2164 1080 2062 957Q2032 922 1960 843Q1944 827 1826 762Q1722 706 1681 688Q1550 632 1453 632Q1427 632 1420 645Q1388 616 1388 569Q1388 560 1394 547Q1400
532 1400 529H1585Q1593 529 1631 542Q1670 555 1677 555Q1684 555 2065 571L2095 554V521L2062 483Q2064 483 2064 483Q2064 479 1846 444Q1807 440 1614 417Q1477 401 1390 353V343Q1390 326 1402 231T1414 121Q1414 -11 1316 -22Q1304 -11 1287 -7Q1288 2 1288
15Q1288 57 1242 354Q1239 363 1224 363Q1206 363 1123 344T1028 324Q980 324 938 367Q964 447 1080 465Q1216 484 1247 524V588Q1227 621 1189 621Q1176 621 1037 601L766 564Q678 552 632 520V502Q632 481 638 376T644 255Q644 170 612 35Q599 -19 533 -48Q506
-16 506 18Q506 40 514 165T522 311Q522 531 456 531Q458 531 458 531Q458 526 42 452Q14 477 14 499Q14 574 229 609Q459 646 470 667Q495 1078 524 1214Q591 1521 786 1681Q824 1712 959 1712Q1291 1712 1396 1391Q1519 1585 1617 1662Q1748 1763 1941 1763Q2085
1763 2167 1653T2249 1352ZM2210 1333Q2210 1466 2131 1563T1941 1661Q1816 1661 1679 1556Q1540 1449 1526 1335L1495 1297Q1482 1230 1433 1020Q1402 886 1402 869V751Q1468 738 1468 736Q1468 736 1466 736Q1500 736 1653 777Q1913 846 1990 909Q2210 1087 2210
1333ZM1337 1179Q1337 1238 1306 1348Q1280 1444 1177 1513T957 1583Q847 1583 724 1402Q702 1368 665 1180Q654 1132 627 1009Q604 904 604 839Q604 829 609 778Q612 727 612 718Q612 690 608 673L1257 724Q1270 793 1313 1027Q1337 1157 1337 1179Z" />
<glyph unicode="&#xb6;" glyph-name="paragraph" horiz-adv-x="1330" d="M1312 1671Q1312 1598 1242 1316Q1199 1143 1083 648Q1070 592 1020 275Q1007 197 990 76Q955 -51 863 -51Q841 -51 819 -29T797 14Q797 18 831 91Q866 168 870 187Q884 251 921 432Q950
589 1032 1037Q1041 1088 1129 1409Q1170 1562 1170 1577V1623Q1109 1647 1010 1647Q942 1647 913 1631L830 1200Q819 1142 767 765Q746 634 689 263Q655 25 655 -95Q655 -97 655 -99Q639 -106 611 -106Q599 -106 558 -103Q518 -101 516 -101Q503 -42 501 -42Q502
-42 502 -44Q502 -29 532 104Q555 205 599 419Q603 509 629 687Q604 712 534 722Q442 733 428 737Q293 783 190 873Q65 983 65 1106Q65 1235 150 1381T358 1613Q402 1644 506 1688Q535 1708 596 1743Q739 1800 1233 1800Q1312 1800 1312 1671ZM784 1605H738Q660
1574 629 1561Q557 1532 541 1495Q605 1480 605 1422V1383Q605 1371 590 1270L552 1010Q540 931 540 919Q540 900 581 880Q615 865 641 863Q693 1055 747 1328Q784 1518 784 1547V1605Z" />
<glyph unicode="&#xb8;" glyph-name="cedilla" horiz-adv-x="950" d="M914 -155Q914 -380 550 -406Q509 -407 393 -417Q353 -420 296 -431Q278 -434 278 -436Q278 -437 283 -437Q245 -437 170 -444Q90 -452 57 -454L28 -434V-342Q28 -335 41 -300T55 -257L86 -281Q98
-281 196 -296Q280 -308 316 -308Q399 -308 564 -268Q759 -219 759 -167Q759 -88 685 -42Q646 -19 534 14Q437 42 412 68Q412 94 415 149Q422 190 498 324Q575 463 606 463Q657 463 657 408Q657 379 623 299Q583 206 579 174Q613 151 716 124Q748 116 790 77Q845
26 856 18Q914 -121 914 -155Z" />
<glyph unicode="&#xba;" glyph-name="ordmasculine" horiz-adv-x="870" d="M803 1695Q803 1590 639 1529Q514 1483 384 1483Q283 1483 191 1516Q70 1560 70 1644Q70 1701 150 1798Q153 1798 215 1809Q250 1816 281 1816Q288 1816 311 1810Q335 1804 340 1804Q353
1804 447 1835T557 1867Q803 1867 803 1695ZM673 1708Q612 1739 590 1739Q561 1739 478 1714Q396 1688 381 1675T366 1625H388Q588 1625 673 1708Z" />
<glyph unicode="&#xbb;" glyph-name="guillemotright" horiz-adv-x="1172" d="M1109 763Q1109 637 678 191Q650 163 577 93Q511 28 511 -24Q511 -41 516 -55Q457 -86 440 -86Q406 -86 378 -58T350 4Q350 27 381 97Q411 168 432 195Q449 217 507 252Q559 282 737
499T916 750Q916 791 716 961Q546 1103 511 1135Q460 1182 454 1203Q452 1211 452 1252Q452 1298 499 1329Q588 1275 755 1155Q801 1096 901 983Q1016 897 1027 888Q1109 816 1109 763ZM724 731Q724 694 668 634Q640 603 584 547Q404 323 257 232Q239 206 193 163L86
132Q55 154 55 178Q55 213 293 469T531 731Q531 749 319 924T106 1116Q106 1139 128 1163T170 1187Q229 1187 597 895Q629 869 670 832Q724 763 724 731Z" />
<glyph unicode="&#xbf;" glyph-name="questiondown" horiz-adv-x="1528" d="M1565 1708Q1565 1669 1510 1614H1470Q1448 1614 1416 1652Q1385 1690 1385 1715Q1385 1745 1407 1775T1455 1805Q1496 1805 1530 1775Q1565 1746 1565 1708ZM1475 1341Q1475 1331 1457
1289T1439 1243Q1434 1180 1414 999Q1385 788 1380 598Q1339 576 1237 567Q1195 565 1083 552Q1007 539 788 501Q765 497 672 459Q240 283 240 170Q240 43 562 43Q698 43 1024 108Q1211 145 1223 145Q1257 145 1331 118Q1328 83 1304 59Q1086 10 755 -57Q544 -99
529 -99Q393 -99 259 -35Q99 43 99 165Q99 336 324 448Q508 516 694 590Q836 645 1067 668Q1224 683 1235 688Q1262 700 1266 773Q1268 801 1273 873Q1283 921 1308 1062Q1314 1112 1333 1244Q1350 1347 1416 1405Q1475 1381 1475 1341Z" />
<glyph unicode="&#xc0;" glyph-name="Agrave" horiz-adv-x="1256" d="M1183 -18Q1183 -76 1110 -76Q1082 -76 1071 -72Q800 206 542 206Q486 206 304 160Q247 146 204 63Q194 43 147 -73Q136 -83 96 -102Q70 -78 70 -34Q70 122 145 291Q165 321 201 385L350 706Q528
1093 688 1366L689 1340Q728 1358 747 1437Q764 1507 801 1507Q804 1510 809 1510Q833 1510 846 1472Q849 1462 869 1376Q943 1064 1023 652L1071 399Q1088 365 1117 296Q1130 252 1155 139Q1183 14 1183 -18ZM1025 123V170Q1025 204 979 448L901 868Q863 1065
783 1278Q681 1168 504 755L450 629Q430 601 416 578T355 445Q308 331 308 316Q308 289 322 289L549 300Q563 301 578 301Q696 301 801 258Q880 225 1025 123ZM1100 1537Q1100 1526 1080 1507Q1048 1478 1016 1478Q998 1478 942 1506L864 1544Q789 1582 695 1654Q595
1731 519 1752Q479 1802 479 1830Q479 1857 485 1863T522 1869Q570 1869 667 1811Q898 1675 1090 1548L1100 1537Z" />
<glyph unicode="&#xc1;" glyph-name="Aacute" horiz-adv-x="1256" d="M1183 -18Q1183 -76 1110 -76Q1082 -76 1071 -72Q800 206 542 206Q486 206 304 160Q247 146 204 63Q194 43 147 -73Q136 -83 96 -102Q70 -78 70 -34Q70 122 145 291Q165 321 201 385L350 706Q528
1093 688 1366L689 1340Q728 1358 747 1437Q764 1507 801 1507Q804 1510 809 1510Q833 1510 846 1472Q849 1462 869 1376Q943 1064 1023 652L1071 399Q1088 365 1117 296Q1130 252 1155 139Q1183 14 1183 -18ZM1025 123V170Q1025 204 979 448L901 868Q863 1065
783 1278Q681 1168 504 755L450 629Q430 601 416 578T355 445Q308 331 308 316Q308 289 322 289L549 300Q563 301 578 301Q696 301 801 258Q880 225 1025 123ZM1134 1801Q1134 1796 1019 1730Q979 1707 842 1634L651 1532Q634 1519 603 1495Q437 1370 376 1370Q317
1370 317 1410Q317 1456 373 1484T542 1567Q599 1611 722 1688L847 1748L922 1798L998 1840Q1015 1842 1076 1866Q1134 1830 1134 1801Z" />
<glyph unicode="&#xc2;" glyph-name="Acircumflex" horiz-adv-x="1256" d="M1183 -18Q1183 -76 1110 -76Q1082 -76 1071 -72Q800 206 542 206Q486 206 304 160Q247 146 204 63Q194 43 147 -73Q136 -83 96 -102Q70 -78 70 -34Q70 122 145 291Q165 321 201 385L350
706Q528 1093 688 1366L689 1340Q728 1358 747 1437Q764 1507 801 1507Q804 1510 809 1510Q833 1510 846 1472Q849 1462 869 1376Q943 1064 1023 652L1071 399Q1088 365 1117 296Q1130 252 1155 139Q1183 14 1183 -18ZM1025 123V170Q1025 204 979 448L901 868Q863
1065 783 1278Q681 1168 504 755L450 629Q430 601 416 578T355 445Q308 331 308 316Q308 289 322 289L549 300Q563 301 578 301Q696 301 801 258Q880 225 1025 123ZM1157 1534Q1157 1486 1101 1486Q1086 1486 1068 1496Q1052 1525 1002 1557Q993 1569 945 1644Q895
1723 867 1723Q861 1723 708 1601Q554 1480 543 1480Q527 1480 509 1494T491 1522Q491 1538 528 1560Q576 1588 582 1593Q588 1599 654 1676Q668 1691 704 1713Q754 1742 761 1747Q775 1758 795 1791T823 1830Q848 1850 881 1850Q925 1850 947 1816Q973 1778 1039
1680Q1093 1602 1154 1555Q1157 1549 1157 1534Z" />
<glyph unicode="&#xc3;" glyph-name="Atilde" horiz-adv-x="1256" d="M1184 -18Q1184 -76 1110 -76Q1082 -76 1071 -72Q800 206 542 206Q486 206 304 160Q247 146 204 63Q194 43 147 -73Q136 -83 96 -102Q71 -78 71 -34Q71 122 146 291Q166 321 203 385L350 706Q528
1093 688 1366L689 1340Q728 1358 747 1437Q764 1507 801 1507Q804 1510 809 1510Q833 1510 846 1472Q849 1462 869 1376Q943 1064 1024 652L1072 399Q1089 365 1118 296Q1131 252 1156 139Q1184 14 1184 -18ZM1026 123V170Q1026 204 980 448L901 868Q863 1065
783 1278Q681 1168 505 755L451 629Q432 601 417 578Q403 555 357 445Q309 331 309 316Q309 289 322 289L549 300Q563 301 578 301Q696 301 801 258Q880 225 1026 123ZM1342 1773Q1342 1726 1237 1647Q1150 1584 1082 1556Q999 1521 885 1521Q885 1524 752 1619Q616
1717 567 1717Q524 1717 418 1625T311 1533Q292 1533 273 1552Q255 1570 255 1589Q255 1644 383 1752Q512 1860 572 1860Q578 1860 765 1757Q951 1655 957 1655Q998 1655 1002 1657Q1013 1662 1047 1672Q1048 1672 1049 1672Q1057 1672 1069 1680Q1086 1691 1109
1698Q1112 1700 1201 1771Q1274 1829 1290 1829Q1342 1829 1342 1773Z" />
<glyph unicode="&#xc4;" glyph-name="Adieresis" horiz-adv-x="1256" d="M1183 -18Q1183 -76 1110 -76Q1082 -76 1071 -72Q800 206 542 206Q486 206 304 160Q247 146 204 63Q194 43 147 -73Q136 -83 96 -102Q70 -78 70 -34Q70 122 145 291Q165 321 201 385L350
706Q528 1093 688 1366L689 1340Q728 1358 747 1437Q764 1507 801 1507Q804 1510 809 1510Q833 1510 846 1472Q849 1462 869 1376Q943 1064 1023 652L1071 399Q1088 365 1117 296Q1130 252 1155 139Q1183 14 1183 -18ZM1025 123V170Q1025 204 979 448L901 868Q863
1065 783 1278Q681 1168 504 755L450 629Q430 601 416 578T355 445Q308 331 308 316Q308 289 322 289L549 300Q563 301 578 301Q696 301 801 258Q880 225 1025 123ZM1175 1652Q1160 1603 1115 1567Q1061 1523 1011 1523Q1009 1523 1006 1523Q954 1525 918 1563L891
1596Q876 1614 876 1637Q876 1642 877 1646Q880 1670 904 1685T954 1714Q986 1738 1045 1773L1151 1728Q1155 1711 1165 1678Q1167 1670 1173 1652H1175ZM646 1554Q629 1536 584 1514Q581 1514 577 1514Q566 1514 553 1518Q532 1524 522 1525Q517 1525 512 1525Q496
1525 483 1524Q462 1524 449 1544Q441 1555 441 1568Q441 1573 442 1578L440 1637L476 1701L551 1749L658 1754Q701 1714 701 1662Q701 1637 691 1612T646 1554Z" />
<glyph unicode="&#xc5;" glyph-name="Aring" horiz-adv-x="1256" d="M1183 -18Q1183 -76 1110 -76Q1082 -76 1071 -72Q800 206 542 206Q486 206 304 160Q247 146 204 63Q194 43 147 -73Q136 -83 96 -102Q70 -78 70 -34Q70 122 145 291Q165 321 201 385L350 706Q528
1093 688 1366L689 1340Q728 1358 747 1437Q764 1507 801 1507Q804 1510 809 1510Q833 1510 846 1472Q849 1462 869 1376Q943 1064 1023 652L1071 399Q1088 365 1117 296Q1130 252 1155 139Q1183 14 1183 -18ZM1025 123V170Q1025 204 979 448L901 868Q863 1065
783 1278Q681 1168 504 755L450 629Q430 601 416 578T355 445Q308 331 308 316Q308 289 322 289L549 300Q563 301 578 301Q696 301 801 258Q880 225 1025 123ZM1030 1631Q1030 1623 1010 1597Q998 1583 987 1567Q981 1552 967 1522Q938 1481 887 1451T793 1421Q725
1421 683 1442Q650 1458 611 1516Q573 1573 573 1608Q573 1683 654 1775Q734 1868 801 1868Q879 1868 947 1837Q957 1829 1017 1782L1030 1631ZM913 1662Q913 1717 882 1729Q868 1734 800 1734Q764 1734 723 1694T681 1618Q681 1598 717 1572T780 1546Q830 1546
871 1581T913 1662Z" />
<glyph unicode="&#xc6;" glyph-name="AE" horiz-adv-x="2527" d="M2726 111Q2649 86 2595 86Q2578 86 2566 88Q2378 104 2183 104Q1795 104 1596 78Q1562 73 1449 44Q1349 17 1315 17Q1252 17 1223 70Q1220 76 1189 252Q1184 278 1116 560Q1109 591 1088 681Q1082
694 1058 722Q1003 712 801 698Q637 686 551 655Q528 647 489 592Q474 570 433 514Q338 387 119 -13H35Q20 5 20 55Q20 111 89 208Q89 208 196 352Q251 450 374 643Q400 700 458 811Q613 1054 909 1546Q955 1703 1034 1703Q1057 1703 1199 1680T1366 1657Q1413
1657 1683 1647Q1952 1637 1999 1637Q2075 1637 2118 1646Q2144 1650 2252 1686Q2348 1719 2368 1719Q2389 1719 2444 1684V1671Q2444 1618 2457 1569Q2208 1457 2152 1457Q2104 1461 1967 1468L1282 1504Q1262 1506 1244 1506Q1055 1506 1055 1412Q1055 1393 1078
1268Q1105 1124 1133 992Q1158 875 1201 875Q1215 875 1302 883T1406 891H2057Q2093 883 2218 855Q2317 833 2317 745Q2317 706 2301 663Q2283 663 2228 681Q2228 681 2170 701L1685 752Q1677 752 1628 745T1570 737Q1563 737 1532 752T1493 768Q1432 768 1219
694V636Q1219 614 1266 450Q1308 303 1324 258Q1339 217 1379 217Q1398 217 1414 240Q1444 248 1516 248H2424Q2439 248 2550 224T2676 199Q2688 199 2695 201L2726 165V111ZM1014 863V947Q1014 975 973 1038Q979 1054 979 1076Q979 1121 955 1191Q924 1287 920
1304Q901 1272 775 1084Q675 934 660 863Q761 874 850 874Q934 874 1014 863Z" />
<glyph unicode="&#xc7;" glyph-name="Ccedilla" horiz-adv-x="1844" d="M1601 97Q1731 129 1787 153L1772 229L1265 176Q1027 150 996 150Q763 150 645 186Q472 239 336 377Q178 537 178 722Q178 734 201 814Q222 895 233 921Q332 1169 711 1362L907 1463Q943
1498 958 1517Q1031 1541 1115 1570Q1124 1574 1418 1691Q1444 1718 1446 1749Q1418 1754 1391 1754Q1263 1754 1124 1691Q1056 1660 876 1576Q515 1408 342 1269Q60 1040 60 755Q60 567 104 464Q207 230 575 24Q642 -14 804 -14Q888 -14 1084 -2Q1307 12 1337
23L1535 78Q1559 85 1601 97ZM1115 -351Q1115 -500 873 -516Q847 -518 770 -524Q732 -528 709 -532Q693 -536 693 -537Q693 -537 697 -537Q672 -537 622 -542Q569 -547 547 -549L527 -536V-475Q527 -470 537 -447Q547 -423 547 -418L567 -434Q575 -434 640 -444Q695
-452 719 -452Q774 -452 883 -425Q1012 -393 1012 -359Q1012 -306 962 -276Q937 -260 863 -239Q798 -220 782 -204Q782 -186 784 -150Q788 -122 839 -33Q891 59 911 59Q945 59 945 22Q945 3 922 -50Q896 -111 893 -132Q915 -148 983 -165Q1005 -171 1032 -197Q1068
-231 1076 -236Q1115 -328 1115 -351Z" />
<glyph unicode="&#xc8;" glyph-name="Egrave" horiz-adv-x="1135" d="M1405 1425Q1375 1414 1319 1375Q1295 1377 1265 1377Q1121 1377 811 1327L624 1296Q615 1296 564 1302T504 1309Q461 1309 399 1285Q330 1257 314 1224Q291 1174 275 1057Q260 951 260 878Q260
871 278 821Q440 845 479 845H946V773Q900 768 824 768Q796 768 706 770L588 771Q515 771 402 725Q380 720 300 704Q236 691 214 651Q176 317 176 178Q204 143 234 137L364 111Q427 111 504 118Q681 133 913 133Q964 133 1004 130L1045 127Q1072 122 1072 103V62Q1023
39 884 39Q863 39 819 24T775 9Q764 9 706 17Q657 24 638 24Q636 24 634 24L621 22Q573 19 406 -3Q307 -16 296 -16Q250 -16 160 42Q62 103 62 147Q62 167 82 320Q109 520 132 651Q104 672 104 714Q104 719 106 742Q106 765 106 770Q198 798 208 1151Q158 1176
63 1236V1306Q83 1338 132 1342Q204 1347 212 1350Q221 1353 250 1383Q276 1409 291 1409Q297 1409 332 1396Q368 1383 374 1383Q429 1389 600 1406Q681 1414 983 1437Q993 1438 1045 1454T1103 1471Q1116 1471 1155 1467L1202 1461Q1270 1457 1392 1457L1405 1425ZM1045
1557Q1045 1547 1024 1532Q989 1506 955 1506Q934 1506 875 1530L791 1564Q710 1597 610 1660Q502 1728 421 1746Q378 1790 378 1814Q378 1838 384 1843T423 1848Q475 1848 579 1798Q827 1679 1034 1567L1045 1557Z" />
<glyph unicode="&#xc9;" glyph-name="Eacute" horiz-adv-x="1135" d="M1405 1425Q1375 1414 1319 1375Q1295 1377 1265 1377Q1121 1377 811 1327L624 1296Q615 1296 564 1302T504 1309Q461 1309 399 1285Q330 1257 314 1224Q291 1174 275 1057Q260 951 260 878Q260
871 278 821Q440 845 479 845H946V773Q900 768 824 768Q796 768 706 770L588 771Q515 771 402 725Q380 720 300 704Q236 691 214 651Q176 317 176 178Q204 143 234 137L364 111Q427 111 504 118Q681 133 913 133Q964 133 1004 130L1045 127Q1072 122 1072 103V62Q1023
39 884 39Q863 39 819 24T775 9Q764 9 706 17Q657 24 638 24Q636 24 634 24L621 22Q573 19 406 -3Q307 -16 296 -16Q250 -16 160 42Q62 103 62 147Q62 167 82 320Q109 520 132 651Q104 672 104 714Q104 719 106 742Q106 765 106 770Q198 798 208 1151Q158 1176
63 1236V1306Q83 1338 132 1342Q204 1347 212 1350Q221 1353 250 1383Q276 1409 291 1409Q297 1409 332 1396Q368 1383 374 1383Q429 1389 600 1406Q681 1414 983 1437Q993 1438 1045 1454T1103 1471Q1116 1471 1155 1467L1202 1461Q1270 1457 1392 1457L1405 1425ZM1114
1808Q1114 1805 1011 1750Q976 1731 854 1670L684 1587Q669 1575 641 1556Q494 1452 440 1452Q388 1452 388 1485Q388 1524 437 1547Q487 1570 587 1616Q638 1651 747 1715L858 1765L924 1807L992 1842Q1007 1843 1062 1862Q1114 1833 1114 1808Z" />
<glyph unicode="&#xca;" glyph-name="Ecircumflex" horiz-adv-x="1135" d="M1405 1425Q1375 1414 1319 1375Q1295 1377 1265 1377Q1121 1377 811 1327L624 1296Q615 1296 564 1302T504 1309Q461 1309 399 1285Q330 1257 314 1224Q291 1174 275 1057Q260 951 260
878Q260 871 278 821Q440 845 479 845H946V773Q900 768 824 768Q796 768 706 770L588 771Q515 771 402 725Q380 720 300 704Q236 691 214 651Q176 317 176 178Q204 143 234 137L364 111Q427 111 504 118Q681 133 913 133Q964 133 1004 130L1045 127Q1072 122 1072
103V62Q1023 39 884 39Q863 39 819 24T775 9Q764 9 706 17Q657 24 638 24Q636 24 634 24L621 22Q573 19 406 -3Q307 -16 296 -16Q250 -16 160 42Q62 103 62 147Q62 167 82 320Q109 520 132 651Q104 672 104 714Q104 719 106 742Q106 765 106 770Q198 798 208 1151Q158
1176 63 1236V1306Q83 1338 132 1342Q204 1347 212 1350Q221 1353 250 1383Q276 1409 291 1409Q297 1409 332 1396Q368 1383 374 1383Q429 1389 600 1406Q681 1414 983 1437Q993 1438 1045 1454T1103 1471Q1116 1471 1155 1467L1202 1461Q1270 1457 1392 1457L1405
1425ZM1093 1579Q1093 1538 1025 1538Q1007 1538 986 1546Q968 1572 908 1599Q898 1609 840 1674Q780 1741 747 1741Q740 1741 558 1637T363 1533Q344 1533 323 1545T301 1569Q301 1583 346 1601Q404 1625 410 1630Q417 1635 496 1701Q511 1714 555 1732Q614 1757
622 1762Q638 1771 663 1799Q686 1827 696 1833Q725 1850 764 1850Q816 1850 843 1821Q873 1789 952 1705Q1016 1637 1088 1597Q1093 1592 1093 1579Z" />
<glyph unicode="&#xcb;" glyph-name="Edieresis" horiz-adv-x="1135" d="M1405 1425Q1375 1414 1319 1375Q1295 1377 1265 1377Q1121 1377 811 1327L624 1296Q615 1296 564 1302T504 1309Q461 1309 399 1285Q330 1257 314 1224Q291 1174 275 1057Q260 951 260
878Q260 871 278 821Q440 845 479 845H946V773Q900 768 824 768Q796 768 706 770L588 771Q515 771 402 725Q380 720 300 704Q236 691 214 651Q176 317 176 178Q204 143 234 137L364 111Q427 111 504 118Q681 133 913 133Q964 133 1004 130L1045 127Q1072 122 1072
103V62Q1023 39 884 39Q863 39 819 24T775 9Q764 9 706 17Q657 24 638 24Q636 24 634 24L621 22Q573 19 406 -3Q307 -16 296 -16Q250 -16 160 42Q62 103 62 147Q62 167 82 320Q109 520 132 651Q104 672 104 714Q104 719 106 742Q106 765 106 770Q198 798 208 1151Q158
1176 63 1236V1306Q83 1338 132 1342Q204 1347 212 1350Q221 1353 250 1383Q276 1409 291 1409Q297 1409 332 1396Q368 1383 374 1383Q429 1389 600 1406Q681 1414 983 1437Q993 1438 1045 1454T1103 1471Q1116 1471 1155 1467L1202 1461Q1270 1457 1392 1457L1405
1425ZM1088 1649Q1071 1600 1027 1564Q973 1520 924 1520Q921 1520 918 1520Q865 1522 829 1560L803 1593Q788 1609 788 1633Q788 1638 789 1643Q791 1667 816 1682Q842 1697 865 1711Q897 1734 956 1770L1062 1725Q1066 1708 1077 1675Q1078 1667 1086 1649H1088ZM601
1607Q591 1584 557 1551Q540 1533 495 1511Q491 1510 488 1510Q477 1510 464 1514Q443 1521 433 1521Q425 1522 417 1522Q406 1522 394 1521Q373 1521 360 1541Q352 1552 352 1565Q352 1570 353 1575L352 1634L387 1698L463 1745L569 1751Q611 1711 611 1658Q611
1633 601 1607Z" />
<glyph unicode="&#xcc;" glyph-name="Igrave" horiz-adv-x="555" d="M327 1195Q314 1140 270 947Q157 446 157 68Q157 48 157 28Q144 26 132 14Q74 83 74 247Q74 278 96 469Q128 755 161 917Q201 1113 266 1248H302Q327 1228 327 1195ZM534 1355Q534 1347 518
1334Q491 1313 465 1313Q450 1313 403 1332L339 1360Q276 1387 199 1437Q117 1492 53 1506Q21 1542 21 1562Q21 1581 26 1585T55 1589Q95 1589 176 1549Q366 1453 526 1362L534 1355Z" />
<glyph unicode="&#xcd;" glyph-name="Iacute" horiz-adv-x="841" d="M523 1181Q511 1127 467 933Q353 429 353 50Q353 32 353 14Q340 12 328 1Q271 70 271 233Q271 264 293 455Q325 742 358 904Q397 1099 463 1234H499Q523 1214 523 1181ZM812 1637Q812 1632 698
1567Q657 1544 520 1470L329 1369Q313 1355 281 1332Q116 1206 55 1206Q-4 1206 -4 1247Q-4 1293 52 1321T221 1404Q278 1447 401 1524L526 1585L601 1635L676 1677Q693 1679 755 1703Q812 1666 812 1637Z" />
<glyph unicode="&#xce;" glyph-name="Icircumflex" horiz-adv-x="707" d="M412 1195Q400 1140 356 947Q243 446 243 68Q243 48 243 28Q230 26 217 14Q160 83 160 247Q160 278 181 469Q214 755 247 917Q286 1113 351 1248H388Q412 1228 412 1195ZM687 1296Q687
1247 631 1247Q615 1247 597 1257Q582 1287 532 1319Q523 1330 475 1406Q424 1484 396 1484Q391 1484 237 1363T73 1242Q56 1242 39 1256T21 1283Q21 1299 58 1321Q106 1350 112 1355Q118 1361 184 1437Q197 1453 234 1474Q283 1503 291 1508Q304 1519 324 1552T352
1591Q378 1612 411 1612Q455 1612 477 1578Q502 1540 568 1442Q623 1363 683 1316Q687 1311 687 1296Z" />
<glyph unicode="&#xcf;" glyph-name="Idieresis" horiz-adv-x="779" d="M428 1180Q415 1126 371 932Q258 432 258 53Q258 33 258 13Q245 12 233 0Q175 68 175 232Q175 263 196 455Q229 741 263 902Q301 1098 367 1234H404Q428 1214 428 1180ZM751 1471Q734 1422
691 1385Q637 1342 586 1342Q584 1342 582 1342Q529 1344 493 1383L466 1415Q452 1432 452 1455Q452 1460 452 1465Q455 1489 481 1505Q505 1519 529 1533Q560 1556 620 1592L727 1547Q729 1531 740 1497Q742 1489 749 1471H751ZM221 1373Q204 1355 160 1333Q156
1332 152 1332Q141 1332 129 1337Q107 1344 97 1344Q90 1344 83 1344Q70 1344 58 1342Q37 1344 24 1363Q17 1375 17 1388Q17 1393 17 1397L16 1456L51 1520L127 1567L233 1573Q276 1533 276 1481Q276 1455 266 1431T221 1373Z" />
<glyph unicode="&#xd1;" glyph-name="Ntilde" horiz-adv-x="1480" d="M1814 1419Q1814 1360 1632 1031Q1499 791 1398 626Q1310 483 1151 267Q1018 86 891 12Q871 22 858 35Q856 42 755 475Q693 741 606 898L101 33Q88 45 57 45Q55 45 54 45V111Q54 121 314 565L614
1075H653Q737 925 825 514Q874 283 927 178Q928 178 929 178Q935 179 945 170Q1212 436 1566 1105Q1598 1165 1685 1336Q1698 1360 1732 1429Q1742 1446 1778 1467Q1814 1442 1814 1419ZM1751 1694Q1751 1647 1645 1568Q1560 1505 1491 1477Q1409 1442 1294 1442Q1294
1445 1162 1540Q1025 1638 977 1638Q933 1638 827 1546Q722 1454 721 1454Q701 1454 683 1473Q663 1491 663 1510Q663 1565 793 1674Q921 1781 982 1781Q988 1781 1174 1678T1366 1575Q1408 1575 1412 1578Q1422 1583 1457 1593Q1458 1593 1459 1593Q1466 1593
1478 1601Q1496 1612 1518 1619Q1521 1621 1611 1692Q1684 1750 1699 1750Q1751 1750 1751 1694Z" />
<glyph unicode="&#xd2;" glyph-name="Ograve" horiz-adv-x="1731" d="M1809 796Q1809 768 1777 673Q1747 590 1728 551Q1630 356 1417 214Q1292 130 1029 49T618 -32H508Q368 -32 219 76Q59 193 59 326Q59 442 145 580Q223 704 325 782Q368 814 460 914Q540 1002
600 1038Q669 1080 868 1126Q1060 1170 1150 1170Q1370 1170 1562 1088Q1809 983 1809 796ZM1747 786Q1747 850 1708 890Q1534 1071 1330 1071Q1326 1071 1303 1069T1277 1067Q1271 1067 1247 1076T1219 1086Q1211 1086 1168 1079T1118 1072Q1036 1072 833 1024Q788
1014 733 1000Q671 979 653 947L637 893Q475 782 455 765Q363 686 326 587Q324 585 317 505Q312 456 276 442Q247 483 234 537Q144 388 144 359Q144 273 265 170T483 67Q486 67 500 69T515 71Q520 71 548 62T581 53Q590 53 729 70Q826 82 919 98Q942 109 1004 132Q1257
209 1443 343Q1676 512 1729 721Q1745 786 1747 786ZM1321 1306Q1321 1296 1298 1278Q1260 1250 1221 1250Q1200 1250 1134 1276L1042 1313Q953 1349 844 1416Q725 1489 636 1508Q589 1556 589 1583Q589 1608 596 1614Q604 1619 638 1619Q695 1619 809 1565Q1082
1437 1309 1316L1321 1306Z" />
<glyph unicode="&#xd3;" glyph-name="Oacute" horiz-adv-x="1731" d="M1809 796Q1809 768 1777 673Q1747 590 1728 551Q1630 356 1417 214Q1292 130 1029 49T618 -32H508Q368 -32 219 76Q59 193 59 326Q59 442 145 580Q223 704 325 782Q368 814 460 914Q540 1002
600 1038Q669 1080 868 1126Q1060 1170 1150 1170Q1370 1170 1562 1088Q1809 983 1809 796ZM1747 786Q1747 850 1708 890Q1534 1071 1330 1071Q1326 1071 1303 1069T1277 1067Q1271 1067 1247 1076T1219 1086Q1211 1086 1168 1079T1118 1072Q1036 1072 833 1024Q788
1014 733 1000Q671 979 653 947L637 893Q475 782 455 765Q363 686 326 587Q324 585 317 505Q312 456 276 442Q247 483 234 537Q144 388 144 359Q144 273 265 170T483 67Q486 67 500 69T515 71Q520 71 548 62T581 53Q590 53 729 70Q826 82 919 98Q942 109 1004 132Q1257
209 1443 343Q1676 512 1729 721Q1745 786 1747 786ZM1326 1586Q1326 1581 1211 1515Q1170 1492 1033 1419L842 1317Q826 1303 794 1280Q629 1155 567 1155Q509 1155 509 1196Q509 1242 564 1270T733 1352Q791 1396 913 1473L1038 1534L1113 1584L1189 1626Q1206
1628 1267 1651Q1326 1615 1326 1586Z" />
<glyph unicode="&#xd4;" glyph-name="Ocircumflex" horiz-adv-x="1731" d="M1809 796Q1809 768 1777 673Q1747 590 1728 551Q1630 356 1417 214Q1292 130 1029 49T618 -32H508Q368 -32 219 76Q59 193 59 326Q59 442 145 580Q223 704 325 782Q368 814 460 914Q540
1002 600 1038Q669 1080 868 1126Q1060 1170 1150 1170Q1370 1170 1562 1088Q1809 983 1809 796ZM1747 786Q1747 850 1708 890Q1534 1071 1330 1071Q1326 1071 1303 1069T1277 1067Q1271 1067 1247 1076T1219 1086Q1211 1086 1168 1079T1118 1072Q1036 1072 833
1024Q788 1014 733 1000Q671 979 653 947L637 893Q475 782 455 765Q363 686 326 587Q324 585 317 505Q312 456 276 442Q247 483 234 537Q144 388 144 359Q144 273 265 170T483 67Q486 67 500 69T515 71Q520 71 548 62T581 53Q590 53 729 70Q826 82 919 98Q942 109
1004 132Q1257 209 1443 343Q1676 512 1729 721Q1745 786 1747 786ZM1688 1302Q1688 1243 1595 1243Q1569 1243 1539 1255Q1515 1292 1432 1331Q1429 1332 1339 1438Q1256 1534 1210 1534Q1201 1534 949 1385T678 1236Q651 1236 622 1254T593 1288Q593 1307 655
1334Q734 1368 743 1375Q752 1383 861 1477Q883 1496 943 1522Q1024 1557 1037 1565Q1058 1578 1091 1616Q1126 1658 1138 1666Q1179 1691 1233 1691Q1305 1691 1342 1649Q1383 1603 1493 1483Q1583 1385 1682 1328Q1688 1321 1688 1302Z" />
<glyph unicode="&#xd5;" glyph-name="Otilde" horiz-adv-x="1731" d="M1809 796Q1809 768 1777 673Q1747 590 1728 551Q1630 356 1417 214Q1292 130 1029 49T618 -32H508Q368 -32 219 76Q59 193 59 326Q59 442 145 580Q223 704 325 782Q368 814 460 914Q540 1002
600 1038Q669 1080 868 1126Q1060 1170 1150 1170Q1370 1170 1562 1088Q1809 983 1809 796ZM1747 786Q1747 850 1708 890Q1534 1071 1330 1071Q1326 1071 1303 1069T1277 1067Q1271 1067 1247 1076T1219 1086Q1211 1086 1168 1079T1118 1072Q1036 1072 833 1024Q788
1014 733 1000Q671 979 653 947L637 893Q475 782 455 765Q363 686 326 587Q324 585 317 505Q312 456 276 442Q247 483 234 537Q144 388 144 359Q144 273 265 170T483 67Q486 67 500 69T515 71Q520 71 548 62T581 53Q590 53 729 70Q826 82 919 98Q942 109 1004 132Q1257
209 1443 343Q1676 512 1729 721Q1745 786 1747 786ZM1648 1521Q1648 1473 1542 1395Q1456 1332 1388 1303Q1305 1269 1191 1269Q1191 1272 1058 1367Q921 1465 873 1465Q829 1465 724 1373Q617 1280 616 1280Q598 1280 578 1299Q559 1318 559 1337Q559 1391 688
1500Q818 1608 878 1608Q883 1608 1070 1506Q1256 1402 1262 1402Q1304 1402 1308 1405Q1319 1411 1353 1419Q1354 1419 1355 1419Q1362 1419 1375 1427Q1392 1439 1414 1445Q1418 1447 1507 1519Q1580 1577 1595 1577Q1648 1577 1648 1521Z" />
<glyph unicode="&#xd6;" glyph-name="Odieresis" horiz-adv-x="1731" d="M1809 796Q1809 768 1777 673Q1747 590 1728 551Q1630 356 1417 214Q1292 130 1029 49T618 -32H508Q368 -32 219 76Q59 193 59 326Q59 442 145 580Q223 704 325 782Q368 814 460 914Q540
1002 600 1038Q669 1080 868 1126Q1060 1170 1150 1170Q1370 1170 1562 1088Q1809 983 1809 796ZM1747 786Q1747 850 1708 890Q1534 1071 1330 1071Q1326 1071 1303 1069T1277 1067Q1271 1067 1247 1076T1219 1086Q1211 1086 1168 1079T1118 1072Q1036 1072 833
1024Q788 1014 733 1000Q671 979 653 947L637 893Q475 782 455 765Q363 686 326 587Q324 585 317 505Q312 456 276 442Q247 483 234 537Q144 388 144 359Q144 273 265 170T483 67Q486 67 500 69T515 71Q520 71 548 62T581 53Q590 53 729 70Q826 82 919 98Q942 109
1004 132Q1257 209 1443 343Q1676 512 1729 721Q1745 786 1747 786ZM1449 1455Q1434 1406 1388 1370Q1335 1326 1285 1326Q1283 1326 1280 1326Q1227 1329 1191 1367L1165 1399Q1150 1417 1150 1441Q1150 1445 1151 1449Q1154 1473 1178 1488T1227 1517Q1260 1541
1319 1577L1424 1532Q1429 1515 1439 1481Q1441 1473 1447 1455H1449ZM964 1414Q954 1391 919 1357Q903 1339 857 1317Q854 1316 850 1316Q839 1316 827 1321Q806 1328 796 1328Q787 1329 779 1329Q767 1329 757 1327Q735 1328 722 1347Q715 1358 715 1371Q715
1376 716 1381L714 1441L750 1504L824 1552L932 1557Q975 1518 975 1465Q975 1440 964 1414Z" />
<glyph unicode="&#xd8;" glyph-name="Oslash" horiz-adv-x="1607" d="M1615 1319Q1457 1219 1383 1155Q1565 974 1565 757Q1565 670 1535 580Q1519 533 1478 410Q1406 191 1239 127Q1174 101 1032 68Q883 32 825 32Q817 32 774 45T722 58Q717 58 691 52T658 46Q641
46 523 77T388 109Q322 109 235 -134H178Q174 -114 138 -78Q240 120 240 167Q240 185 193 244Q175 265 128 321Q82 388 74 470Q73 480 73 630Q73 634 61 658T48 683Q92 717 92 734Q92 737 83 752T73 771Q73 927 349 1080Q552 1193 771 1247Q797 1254 834 1254H865L896
1253Q919 1253 1050 1234T1203 1214Q1238 1214 1366 1304L1495 1394H1601Q1607 1368 1615 1319ZM1422 757Q1422 841 1381 929Q1332 1034 1262 1034Q1204 1034 832 686T459 283Q459 234 619 200Q739 174 825 174Q865 174 1001 201Q1127 226 1173 241Q1269 272 1348
447Q1422 611 1422 757ZM1062 1080Q940 1111 902 1111Q902 1111 771 1093Q755 1070 720 1024Q588 1021 470 965T299 819Q277 783 262 722Q258 703 226 632Q201 578 201 540Q201 466 245 395Q272 351 340 327Q466 513 683 722Q815 847 1062 1080Z" />
<glyph unicode="&#xd9;" glyph-name="Ugrave" horiz-adv-x="1743" d="M1677 1013Q1677 960 1607 715Q1570 586 1499 483Q1357 278 1096 135T600 -8Q507 -8 383 62Q270 124 203 202Q188 219 144 297Q130 310 109 339Q102 361 96 383Q43 545 43 627Q43 742 90 875Q146
1032 233 1073Q266 1088 286 1088Q299 1088 299 1062Q295 1062 170 807Q137 737 137 617Q137 443 273 275Q417 97 586 97H630Q806 97 1017 199Q1219 296 1347 428Q1432 514 1493 635Q1530 708 1570 801Q1604 907 1604 1023Q1604 1125 1554 1142Q1552 1150 1552
1158Q1552 1218 1591 1218Q1596 1218 1608 1214Q1677 1187 1677 1013ZM1216 1329Q1216 1318 1195 1301Q1159 1273 1123 1273Q1102 1273 1039 1299L952 1336Q868 1372 763 1439Q650 1513 565 1532Q520 1580 520 1606Q520 1632 527 1637T567 1643Q621 1643 730 1589Q989
1460 1206 1339L1216 1329Z" />
<glyph unicode="&#xda;" glyph-name="Uacute" horiz-adv-x="1743" d="M1677 1013Q1677 960 1607 715Q1570 586 1499 483Q1357 278 1096 135T600 -8Q507 -8 383 62Q270 124 203 202Q188 219 144 297Q130 310 109 339Q102 361 96 383Q43 545 43 627Q43 742 90 875Q146
1032 233 1073Q266 1088 286 1088Q299 1088 299 1062Q295 1062 170 807Q137 737 137 617Q137 443 273 275Q417 97 586 97H630Q806 97 1017 199Q1219 296 1347 428Q1432 514 1493 635Q1530 708 1570 801Q1604 907 1604 1023Q1604 1125 1554 1142Q1552 1150 1552
1158Q1552 1218 1591 1218Q1596 1218 1608 1214Q1677 1187 1677 1013ZM1312 1602Q1312 1597 1197 1532Q1157 1508 1020 1435L829 1334Q813 1320 781 1296Q616 1171 555 1171Q496 1171 496 1211Q496 1257 551 1287Q607 1314 720 1369Q778 1412 900 1489L1025 1550L1100
1600L1176 1642Q1193 1644 1254 1667Q1312 1631 1312 1602Z" />
<glyph unicode="&#xdb;" glyph-name="Ucircumflex" horiz-adv-x="1743" d="M1677 1013Q1677 960 1607 715Q1570 586 1499 483Q1357 278 1096 135T600 -8Q507 -8 383 62Q270 124 203 202Q188 219 144 297Q130 310 109 339Q102 361 96 383Q43 545 43 627Q43 742
90 875Q146 1032 233 1073Q266 1088 286 1088Q299 1088 299 1062Q295 1062 170 807Q137 737 137 617Q137 443 273 275Q417 97 586 97H630Q806 97 1017 199Q1219 296 1347 428Q1432 514 1493 635Q1530 708 1570 801Q1604 907 1604 1023Q1604 1125 1554 1142Q1552
1150 1552 1158Q1552 1218 1591 1218Q1596 1218 1608 1214Q1677 1187 1677 1013ZM1394 1347Q1394 1299 1309 1299Q1285 1299 1257 1309Q1235 1339 1158 1370Q1155 1372 1071 1458Q994 1537 952 1537Q943 1537 710 1415T459 1293Q434 1293 408 1307T381 1335Q381
1352 438 1373Q511 1401 519 1407T629 1491Q650 1506 705 1527Q780 1556 792 1562Q811 1573 842 1606T886 1645Q924 1666 974 1666Q1040 1666 1075 1631Q1113 1593 1214 1495Q1296 1416 1388 1369Q1394 1362 1394 1347Z" />
<glyph unicode="&#xdc;" glyph-name="Udieresis" horiz-adv-x="1743" d="M1677 1013Q1677 960 1607 715Q1570 586 1499 483Q1357 278 1096 135T600 -8Q507 -8 383 62Q270 124 203 202Q188 219 144 297Q130 310 109 339Q102 361 96 383Q43 545 43 627Q43 742 90
875Q146 1032 233 1073Q266 1088 286 1088Q299 1088 299 1062Q295 1062 170 807Q137 737 137 617Q137 443 273 275Q417 97 586 97H630Q806 97 1017 199Q1219 296 1347 428Q1432 514 1493 635Q1530 708 1570 801Q1604 907 1604 1023Q1604 1125 1554 1142Q1552 1150
1552 1158Q1552 1218 1591 1218Q1596 1218 1608 1214Q1677 1187 1677 1013ZM1311 1478Q1295 1428 1251 1392Q1197 1348 1147 1348Q1144 1348 1142 1348Q1091 1350 1054 1389L1027 1421Q1012 1439 1012 1462Q1012 1467 1013 1471Q1016 1496 1040 1510T1090 1539Q1122
1563 1181 1598L1287 1554Q1291 1537 1301 1503Q1303 1496 1309 1478H1311ZM826 1436Q816 1413 782 1379Q765 1362 720 1339Q716 1339 713 1339Q702 1339 689 1343Q668 1350 658 1350Q653 1350 648 1350Q632 1350 619 1349Q599 1350 585 1370Q578 1380 578 1393Q578
1398 578 1403L577 1462L612 1526L687 1574L794 1579Q837 1540 837 1488Q837 1462 826 1436Z" />
<glyph unicode="&#xdf;" glyph-name="germandbls" horiz-adv-x="1164" d="M1109 398Q1109 342 1040 263Q986 201 924 160Q891 147 826 118Q791 83 714 24Q573 -68 461 -127H409Q381 -109 381 -86Q381 -47 667 170Q951 387 951 404Q951 481 855 540Q811 565 699
632Q429 803 429 933Q429 978 653 1203Q878 1429 878 1480Q878 1590 798 1656T588 1723Q504 1723 414 1694Q304 1658 274 1602Q237 1531 237 1303Q237 1293 240 1233Q244 1173 244 1162Q244 1127 198 689L174 465Q174 447 199 325Q222 202 222 183Q222 177 211
137T200 86Q200 77 205 26T210 -35Q204 -35 160 -52Q117 -70 108 -70Q86 -70 63 -47Q41 -24 41 -2L58 48Q76 99 76 132Q76 147 71 221T65 309V667Q65 682 73 710T86 747Q116 950 116 1285Q116 1535 154 1672Q176 1752 360 1815Q516 1868 624 1868Q622 1868 622
1868Q622 1865 765 1826Q860 1799 936 1700T1012 1502Q1012 1345 898 1221Q845 1164 688 1051Q575 970 575 916Q575 885 668 823Q695 804 731 777Q829 718 973 623Q1006 601 1057 516Q1109 432 1109 398Z" />
<glyph unicode="&#xe0;" glyph-name="agrave" horiz-adv-x="1037" d="M999 3Q978 -26 953 -26Q937 -26 845 70Q753 167 722 167Q722 165 504 83Q281 0 220 0Q170 0 109 49T48 141Q48 252 291 400Q519 540 639 540Q689 540 729 483V440Q709 411 683 411Q678 411
649 424T613 437Q573 437 430 355Q294 278 248 240Q202 200 189 149Q224 116 272 116Q297 116 513 199Q728 283 773 283Q839 283 868 250Q875 242 919 160Q952 98 999 48V3ZM871 664Q871 653 850 633Q815 600 779 600Q758 600 697 631L611 673Q528 715 425 794Q313
880 230 903Q186 958 186 989Q186 1019 194 1026Q200 1031 233 1031Q286 1031 393 969Q648 818 861 677L871 664Z" />
<glyph unicode="&#xe1;" glyph-name="aacute" horiz-adv-x="1037" d="M999 3Q978 -26 953 -26Q937 -26 845 70Q753 167 722 167Q722 165 504 83Q281 0 220 0Q170 0 109 49T48 141Q48 252 291 400Q519 540 639 540Q689 540 729 483V440Q709 411 683 411Q678 411
649 424T613 437Q573 437 430 355Q294 278 248 240Q202 200 189 149Q224 116 272 116Q297 116 513 199Q728 283 773 283Q839 283 868 250Q875 242 919 160Q952 98 999 48V3ZM978 1006Q978 1001 863 935Q823 912 685 839L495 737Q478 724 447 700Q281 575 219 575Q161
575 161 615Q161 661 217 689T386 772Q443 816 565 893L691 953L765 1003L842 1045Q858 1047 919 1071Q978 1035 978 1006Z" />
<glyph unicode="&#xe2;" glyph-name="acircumflex" horiz-adv-x="1037" d="M999 3Q978 -26 953 -26Q937 -26 845 70Q753 167 722 167Q722 165 504 83Q281 0 220 0Q170 0 109 49T48 141Q48 252 291 400Q519 540 639 540Q689 540 729 483V440Q709 411 683 411Q678
411 649 424T613 437Q573 437 430 355Q294 278 248 240Q202 200 189 149Q224 116 272 116Q297 116 513 199Q728 283 773 283Q839 283 868 250Q875 242 919 160Q952 98 999 48V3ZM951 629Q951 581 883 581Q865 581 843 591Q825 621 765 653Q763 655 697 742Q637
822 604 822Q597 822 414 698Q231 575 217 575Q198 575 177 589T156 617Q156 634 201 656Q258 685 264 690T350 775Q366 791 410 812Q469 841 478 847Q493 858 517 891T552 932Q581 952 621 952Q673 952 700 918Q729 879 809 780Q874 699 946 651Q951 645 951 629Z"
/>
<glyph unicode="&#xe3;" glyph-name="atilde" horiz-adv-x="1037" d="M999 3Q978 -26 953 -26Q937 -26 845 70Q753 167 722 167Q722 165 504 83Q281 0 220 0Q170 0 109 49T48 141Q48 252 291 400Q519 540 639 540Q689 540 729 483V440Q709 411 683 411Q678 411
649 424T613 437Q573 437 430 355Q294 278 248 240Q202 200 189 149Q224 116 272 116Q297 116 513 199Q728 283 773 283Q839 283 868 250Q875 242 919 160Q952 98 999 48V3ZM944 839Q944 797 864 727Q800 672 748 647Q686 616 600 616Q600 619 501 704Q398 790
362 790Q329 790 250 708T169 626Q155 626 140 643Q126 660 126 676Q126 724 223 821Q320 916 365 916Q370 916 510 826Q650 734 654 734Q686 734 688 736Q699 743 722 749Q729 749 739 757Q752 767 768 772Q771 774 838 837Q893 888 904 888Q944 888 944 839Z"
/>
<glyph unicode="&#xe4;" glyph-name="adieresis" horiz-adv-x="1037" d="M999 3Q978 -26 953 -26Q937 -26 845 70Q753 167 722 167Q722 165 504 83Q281 0 220 0Q170 0 109 49T48 141Q48 252 291 400Q519 540 639 540Q689 540 729 483V440Q709 411 683 411Q678
411 649 424T613 437Q573 437 430 355Q294 278 248 240Q202 200 189 149Q224 116 272 116Q297 116 513 199Q728 283 773 283Q839 283 868 250Q875 242 919 160Q952 98 999 48V3ZM937 771Q920 722 876 686Q823 642 774 642Q771 642 768 642Q715 645 679 683L652
715Q638 733 638 756Q638 761 638 765Q640 789 666 805Q691 819 715 833Q747 857 806 892L912 848Q915 830 926 797Q928 789 935 771H937ZM407 673Q390 656 346 633Q342 633 338 633Q327 633 315 637Q293 643 283 644Q278 644 273 644Q258 644 244 643Q224 643
210 663Q202 674 202 688Q202 692 203 697L202 756L238 820L312 868L419 873Q462 833 462 781Q462 756 452 731T407 673Z" />
<glyph unicode="&#xe5;" glyph-name="aring" horiz-adv-x="1037" d="M999 3Q978 -26 953 -26Q937 -26 845 70Q753 167 722 167Q722 165 504 83Q281 0 220 0Q170 0 109 49T48 141Q48 252 291 400Q519 540 639 540Q689 540 729 483V440Q709 411 683 411Q678 411
649 424T613 437Q573 437 430 355Q294 278 248 240Q202 200 189 149Q224 116 272 116Q297 116 513 199Q728 283 773 283Q839 283 868 250Q875 242 919 160Q952 98 999 48V3ZM765 798Q765 789 745 762Q732 747 720 731Q714 714 698 683Q668 640 614 609Q560 576
515 576Q444 576 400 598Q365 616 324 676T283 774Q283 852 368 950T524 1048Q606 1048 677 1015Q688 1007 752 957L765 798ZM642 830Q642 888 609 901Q594 906 522 906Q485 906 442 864T398 784Q398 763 436 735Q474 708 501 708Q555 708 599 745Q642 783 642
830Z" />
<glyph unicode="&#xe6;" glyph-name="ae" horiz-adv-x="1592" d="M1550 61Q1341 -4 1247 -4Q1206 -4 1103 20Q1001 45 963 64Q942 75 876 132Q813 187 793 187Q794 187 794 186Q794 178 658 85Q509 -18 478 -18H393Q291 -18 227 40Q163 99 163 195Q163 291 255
355Q290 378 452 443Q609 506 639 531Q594 601 514 646Q367 729 323 729Q286 729 66 639Q7 663 7 715Q7 778 64 801Q94 812 210 840T349 869Q437 869 734 676Q758 701 821 798Q870 875 924 902Q1038 959 1209 959Q1280 959 1347 841Q1408 734 1408 657Q1408 563
1285 493Q1209 450 1043 404Q898 363 883 347Q901 302 1018 226T1186 149H1508L1550 107V61ZM1280 654Q1260 757 1257 762Q1236 819 1170 819Q1165 819 1103 806Q1045 795 1029 795Q1029 795 1028 795Q1001 778 937 696Q870 611 870 592V523H939Q991 523 1121 570Q1260
620 1280 654ZM663 283V341H608Q576 341 456 292Q344 247 305 222V166Q349 137 413 137Q504 137 558 170Q606 199 663 283Z" />
<glyph unicode="&#xe7;" glyph-name="ccedilla" horiz-adv-x="1045" d="M1006 142Q947 106 885 93Q787 73 600 44Q477 24 452 24Q326 24 201 75Q42 139 42 244Q42 363 213 456Q462 591 525 591L652 578Q652 578 651 578Q638 578 636 554Q632 521 630 519Q532 488
378 409Q183 309 183 257Q183 160 427 132Q470 128 483 128Q484 128 486 128L988 204L1006 189V142ZM717 -327Q717 -468 488 -485Q462 -486 388 -491Q353 -495 330 -499Q315 -503 315 -504Q315 -504 319 -504Q295 -504 247 -509Q196 -514 176 -515L158 -503V-445Q158
-440 166 -417Q175 -395 175 -391L194 -406Q201 -406 263 -415Q317 -423 340 -423Q392 -423 496 -397Q619 -367 619 -334Q619 -284 573 -255Q548 -240 477 -219Q416 -201 400 -186Q400 -169 402 -135Q406 -109 455 -22T522 65Q555 65 555 29Q555 12 534 -40Q509
-99 506 -118Q527 -133 592 -150Q613 -155 639 -180Q673 -211 681 -217Q717 -305 717 -327Z" />
<glyph unicode="&#xe8;" glyph-name="egrave" horiz-adv-x="1053" d="M1025 53Q988 9 929 9H575Q452 9 301 46Q103 94 77 167Q48 249 48 324Q48 475 178 556Q288 626 446 626Q582 626 662 568T742 408Q742 352 550 285Q391 228 319 228Q310 228 303 229Q303 215
281 195Q293 175 398 149Q492 125 532 125H850Q850 124 970 107Q1008 83 1025 53ZM613 452Q557 509 433 509Q346 509 272 475Q176 431 176 356Q176 329 194 318H258Q292 318 442 375T613 452ZM739 738Q739 727 718 707Q683 674 647 674Q626 674 565 705L479 747Q396
789 293 868Q181 954 98 977Q54 1032 54 1063Q54 1093 62 1100Q68 1105 101 1105Q154 1105 261 1043Q516 892 729 751L739 738Z" />
<glyph unicode="&#xe9;" glyph-name="eacute" horiz-adv-x="1053" d="M1025 53Q988 9 929 9H575Q452 9 301 46Q103 94 77 167Q48 249 48 324Q48 475 178 556Q288 626 446 626Q582 626 662 568T742 408Q742 352 550 285Q391 228 319 228Q310 228 303 229Q303 215
281 195Q293 175 398 149Q492 125 532 125H850Q850 124 970 107Q1008 83 1025 53ZM613 452Q557 509 433 509Q346 509 272 475Q176 431 176 356Q176 329 194 318H258Q292 318 442 375T613 452ZM820 1058Q820 1053 705 987Q665 964 527 891L337 789Q320 776 289 752Q123
627 61 627Q3 627 3 667Q3 713 59 741T228 824Q285 868 407 945L533 1005L607 1055L684 1097Q700 1099 761 1123Q820 1087 820 1058Z" />
<glyph unicode="&#xea;" glyph-name="ecircumflex" horiz-adv-x="1053" d="M1025 53Q988 9 929 9H575Q452 9 301 46Q103 94 77 167Q48 249 48 324Q48 475 178 556Q288 626 446 626Q582 626 662 568T742 408Q742 352 550 285Q391 228 319 228Q310 228 303 229Q303
215 281 195Q293 175 398 149Q492 125 532 125H850Q850 124 970 107Q1008 83 1025 53ZM613 452Q557 509 433 509Q346 509 272 475Q176 431 176 356Q176 329 194 318H258Q292 318 442 375T613 452ZM786 670Q786 622 719 622Q701 622 679 632Q662 662 601 694Q599
696 533 783Q473 863 440 863Q433 863 250 739Q68 616 54 616Q35 616 14 630T-8 658Q-8 675 37 697Q95 726 101 732Q108 737 187 816Q203 832 247 853Q306 882 314 888Q330 899 354 932T388 973Q418 993 457 993Q509 993 536 959Q566 920 645 820Q710 740 782 692Q786
686 786 670Z" />
<glyph unicode="&#xeb;" glyph-name="edieresis" horiz-adv-x="1053" d="M1025 53Q988 9 929 9H575Q452 9 301 46Q103 94 77 167Q48 249 48 324Q48 475 178 556Q288 626 446 626Q582 626 662 568T742 408Q742 352 550 285Q391 228 319 228Q310 228 303 229Q303
215 281 195Q293 175 398 149Q492 125 532 125H850Q850 124 970 107Q1008 83 1025 53ZM613 452Q557 509 433 509Q346 509 272 475Q176 431 176 356Q176 329 194 318H258Q292 318 442 375T613 452ZM826 877Q809 828 765 792Q712 748 663 748Q660 748 657 748Q604
751 568 789L541 821Q527 839 527 862Q527 867 527 871Q529 895 555 911Q580 925 604 939Q636 963 695 998L801 954Q804 936 815 903Q817 895 824 877H826ZM296 779Q279 762 235 739Q231 739 227 739Q216 739 204 743Q182 749 172 750Q167 750 162 750Q147 750
133 749Q113 749 99 769Q91 780 91 794Q91 798 92 803L91 862L127 926L201 974L308 979Q351 939 351 887Q351 862 341 837T296 779Z" />
<glyph unicode="&#xec;" glyph-name="igrave" horiz-adv-x="742" d="M390 616Q399 582 404 362Q406 267 406 204Q406 130 403 99Q402 84 370 -20Q328 -7 246 15Q240 118 240 216Q240 289 243 360Q255 640 307 654Q315 656 320 656Q379 656 390 616ZM719 695Q719
684 698 664Q663 631 627 631Q606 631 545 662L459 704Q376 746 273 825Q161 911 78 934Q34 989 34 1020Q34 1050 42 1057Q48 1062 81 1062Q134 1062 241 1000Q496 849 709 708L719 695Z" />
<glyph unicode="&#xed;" glyph-name="iacute" horiz-adv-x="874" d="M518 616Q527 582 532 362Q534 267 534 204Q534 130 531 99Q530 84 498 -20Q456 -7 374 15Q368 118 368 216Q368 289 371 360Q383 640 435 654Q443 656 448 656Q507 656 518 616ZM847 1051Q847
1046 732 980Q692 957 554 884L364 782Q347 769 316 745Q150 620 88 620Q30 620 30 660Q30 706 86 734T255 817Q312 861 434 938L560 998L634 1048L711 1090Q727 1092 788 1116Q847 1080 847 1051Z" />
<glyph unicode="&#xee;" glyph-name="icircumflex" horiz-adv-x="860" d="M496 616Q506 582 511 362Q513 274 513 214Q513 132 509 99Q508 84 476 -20Q434 -7 352 15Q347 118 347 216Q347 289 350 360Q361 640 413 654Q422 656 426 656Q486 656 496 616ZM806 692Q806
643 738 643Q720 643 698 652Q681 683 620 715Q618 716 552 804Q492 884 459 884Q452 884 269 760Q86 637 73 637Q53 637 32 652Q12 666 12 680Q12 696 56 718Q114 747 120 753Q127 759 206 837Q222 852 265 874Q324 904 333 909Q349 920 373 954Q398 987 407 993Q437
1014 475 1014Q528 1014 555 980Q585 941 664 842Q729 761 801 714Q806 707 806 692Z" />
<glyph unicode="&#xef;" glyph-name="idieresis" horiz-adv-x="770" d="M402 616Q411 582 416 362Q418 267 418 204Q418 130 415 99Q414 84 382 -20Q340 -7 258 15Q252 118 252 216Q252 289 255 360Q267 640 319 654Q327 656 332 656Q391 656 402 616ZM750 918Q733
869 689 833Q636 789 587 789Q584 789 581 789Q528 792 492 830L465 862Q451 880 451 903Q451 908 451 912Q453 936 479 952Q504 966 528 980Q560 1004 619 1039L725 995Q728 977 739 944Q741 936 748 918H750ZM220 820Q203 803 159 780Q155 780 151 780Q140 780
128 784Q106 790 96 791Q91 791 86 791Q71 791 57 790Q37 790 23 810Q15 821 15 835Q15 839 16 844L15 903L51 967L125 1015L232 1020Q275 980 275 928Q275 903 265 878T220 820Z" />
<glyph unicode="&#xf1;" glyph-name="ntilde" horiz-adv-x="1041" d="M940 540Q940 519 919 301Q901 120 875 -93Q873 -109 843 -109Q804 -109 779 -11Q760 64 760 122Q760 144 785 280T811 437Q811 496 779 496Q738 496 604 425Q488 363 435 324Q334 250 206
101Q185 77 124 9Q100 -16 29 -17V50Q29 97 213 257Q360 385 521 489Q747 636 857 636Q886 636 913 604T940 540ZM1261 940Q1261 898 1182 829Q1117 773 1065 747Q1003 717 917 717Q917 719 818 804Q715 891 679 891Q646 891 567 809T486 727Q472 727 458 743T443
777Q443 825 540 921Q637 1018 683 1018Q687 1018 827 927T971 835Q1003 835 1006 837Q1016 845 1039 850Q1040 850 1041 850Q1047 850 1056 857Q1069 868 1086 873Q1088 875 1155 938Q1210 990 1221 990Q1261 990 1261 940Z" />
<glyph unicode="&#xf2;" glyph-name="ograve" horiz-adv-x="1243" d="M1166 365Q1166 258 1121 182Q1080 113 830 46Q607 -14 491 -14Q355 -14 222 51Q61 131 61 250Q61 303 122 358Q176 397 285 505Q357 593 549 647Q711 693 852 693Q890 693 966 660Q1042 625
1070 596Q1098 565 1132 485T1166 365ZM1064 373Q1064 447 975 514Q893 577 813 577Q798 577 580 534Q496 517 427 469Q191 301 191 237Q191 183 320 139Q430 101 499 101Q602 101 788 143Q958 181 1030 258Q1064 293 1064 373ZM973 822Q973 811 952 791Q917 758
881 758Q860 758 799 789L713 831Q630 873 527 952Q415 1038 332 1061Q288 1116 288 1147Q288 1177 296 1184Q302 1189 335 1189Q388 1189 495 1127Q750 976 963 835L973 822Z" />
<glyph unicode="&#xf3;" glyph-name="oacute" horiz-adv-x="1243" d="M1166 365Q1166 258 1121 182Q1080 113 830 46Q607 -14 491 -14Q355 -14 222 51Q61 131 61 250Q61 303 122 358Q176 397 285 505Q357 593 549 647Q711 693 852 693Q890 693 966 660Q1042 625
1070 596Q1098 565 1132 485T1166 365ZM1064 373Q1064 447 975 514Q893 577 813 577Q798 577 580 534Q496 517 427 469Q191 301 191 237Q191 183 320 139Q430 101 499 101Q602 101 788 143Q958 181 1030 258Q1064 293 1064 373ZM1025 1080Q1025 1075 910 1009Q870
986 732 913L542 811Q525 798 494 774Q328 649 266 649Q208 649 208 689Q208 735 264 763T433 846Q490 890 612 967L738 1027L812 1077L889 1119Q905 1121 966 1145Q1025 1109 1025 1080Z" />
<glyph unicode="&#xf4;" glyph-name="ocircumflex" horiz-adv-x="1243" d="M1166 365Q1166 258 1121 182Q1080 113 830 46Q607 -14 491 -14Q355 -14 222 51Q61 131 61 250Q61 303 122 358Q176 397 285 505Q357 593 549 647Q711 693 852 693Q890 693 966 660Q1042
625 1070 596Q1098 565 1132 485T1166 365ZM1064 373Q1064 447 975 514Q893 577 813 577Q798 577 580 534Q496 517 427 469Q191 301 191 237Q191 183 320 139Q430 101 499 101Q602 101 788 143Q958 181 1030 258Q1064 293 1064 373ZM1101 795Q1101 746 1034 746Q1015
746 993 755Q976 786 916 819Q914 819 847 907Q788 987 755 987Q747 987 565 863Q381 739 368 739Q349 739 328 754T306 783Q306 799 351 821Q409 850 415 856T501 939Q517 955 560 977Q619 1006 629 1012Q644 1023 668 1056T702 1096Q732 1117 771 1117Q824 1117
850 1083Q880 1044 959 945Q1024 864 1096 816Q1101 810 1101 795Z" />
<glyph unicode="&#xf5;" glyph-name="otilde" horiz-adv-x="1243" d="M1166 365Q1166 258 1121 182Q1080 113 830 46Q607 -14 491 -14Q355 -14 222 51Q61 131 61 250Q61 303 122 358Q176 397 285 505Q357 593 549 647Q711 693 852 693Q890 693 966 660Q1042 625
1070 596Q1098 565 1132 485T1166 365ZM1064 373Q1064 447 975 514Q893 577 813 577Q798 577 580 534Q496 517 427 469Q191 301 191 237Q191 183 320 139Q430 101 499 101Q602 101 788 143Q958 181 1030 258Q1064 293 1064 373ZM1088 967Q1088 923 1003 850Q937
792 883 766Q817 734 727 734Q727 737 622 825Q514 915 475 915Q442 915 358 830T273 745Q258 745 243 762T228 797Q228 847 330 947T480 1047Q484 1047 631 952T783 857Q816 857 819 860Q831 867 855 873Q862 873 872 880Q886 891 904 897Q906 898 977 965Q1034
1018 1046 1018Q1088 1018 1088 967Z" />
<glyph unicode="&#xf6;" glyph-name="odieresis" horiz-adv-x="1243" d="M1166 365Q1166 258 1121 182Q1080 113 830 46Q607 -14 491 -14Q355 -14 222 51Q61 131 61 250Q61 303 122 358Q176 397 285 505Q357 593 549 647Q711 693 852 693Q890 693 966 660Q1042
625 1070 596Q1098 565 1132 485T1166 365ZM1064 373Q1064 447 975 514Q893 577 813 577Q798 577 580 534Q496 517 427 469Q191 301 191 237Q191 183 320 139Q430 101 499 101Q602 101 788 143Q958 181 1030 258Q1064 293 1064 373ZM1019 949Q1002 900 958 864Q905
820 856 820Q853 820 850 820Q797 823 761 861L734 893Q720 911 720 934Q720 939 720 943Q722 967 748 983Q773 997 797 1011Q829 1035 888 1070L994 1026Q997 1008 1008 975Q1010 967 1017 949H1019ZM489 851Q472 834 428 811Q424 811 420 811Q409 811 397 815Q375
821 365 822Q360 822 355 822Q340 822 326 821Q306 821 292 841Q284 852 284 866Q284 870 285 875L284 934L320 998L394 1046L501 1051Q544 1011 544 959Q544 934 534 909T489 851Z" />
<glyph unicode="&#xf7;" glyph-name="divide" horiz-adv-x="1280" d="M755 764Q755 747 723 686Q723 686 659 709Q611 727 599 780L626 857Q642 905 683 905Q714 905 736 846Q755 798 755 764ZM1248 481Q1241 462 1197 430T1133 398Q1125 398 1090 409T1048 420Q1042
420 1004 416T960 411Q941 411 831 436T703 462Q696 462 670 449Q645 436 637 436L545 441Q542 441 475 447Q415 452 401 452Q385 452 296 441Q208 429 193 429Q123 429 83 456V544Q157 583 416 583Q394 583 392 581Q449 575 940 565Q941 565 942 565Q960 565 1038
577Q1120 590 1133 590Q1183 590 1248 481ZM689 215Q689 199 657 179Q626 158 606 158Q582 158 552 187T521 241Q521 311 606 311Q632 311 689 283V215Z" />
<glyph unicode="&#xf8;" glyph-name="oslash" horiz-adv-x="1068" d="M1026 435Q1026 428 1015 380T1004 322Q1004 59 542 13Q503 10 391 1Q361 -1 331 -62Q310 -103 287 -147Q228 -213 184 -213Q152 -213 152 -168Q152 -160 184 -88Q216 -15 216 -6Q216 70 185
103Q122 168 118 176Q75 246 75 294Q75 432 162 539T397 691Q450 707 544 716Q548 716 586 727T634 738Q640 738 682 732Q723 724 731 724Q742 724 835 808T949 893Q1012 893 1012 841Q1012 822 957 761L884 681Q959 627 971 613Q1026 549 1026 435ZM884 491Q841
533 794 533Q752 533 629 373Q593 324 473 164L583 147L790 204Q887 245 887 382Q887 388 885 432Q883 458 883 474Q883 485 884 491ZM613 550V595H569Q547 588 469 532Q398 481 383 481Q378 481 354 488Q329 493 325 493Q279 493 217 428Q215 417 215 400Q215
329 237 268Q268 185 325 185Q345 185 391 235Q430 279 443 305Q470 361 524 430Q593 519 613 550Z" />
<glyph unicode="&#xf9;" glyph-name="ugrave" horiz-adv-x="1021" d="M1054 564Q1054 522 902 354Q768 206 703 158Q670 134 562 54Q517 22 424 -9Q329 -40 275 -40Q173 -40 106 91Q51 198 51 314Q51 410 91 511Q106 511 122 525Q141 514 174 483Q164 404 164
345Q164 103 321 103Q473 103 686 292Q720 322 1006 591H1022Q1054 591 1054 564ZM907 681Q907 670 886 650Q851 617 815 617Q794 617 733 648L647 690Q564 732 461 811Q349 897 266 920Q222 975 222 1006Q222 1036 230 1043Q236 1048 269 1048Q322 1048 429 986Q684
835 897 694L907 681Z" />
<glyph unicode="&#xfa;" glyph-name="uacute" horiz-adv-x="1021" d="M1054 564Q1054 522 902 354Q768 206 703 158Q670 134 562 54Q517 22 424 -9Q329 -40 275 -40Q173 -40 106 91Q51 198 51 314Q51 410 91 511Q106 511 122 525Q141 514 174 483Q164 404 164
345Q164 103 321 103Q473 103 686 292Q720 322 1006 591H1022Q1054 591 1054 564ZM972 1049Q972 1044 857 978Q817 955 679 882L489 780Q472 767 441 743Q275 618 213 618Q155 618 155 658Q155 704 211 732T380 815Q437 859 559 936L685 996L759 1046L836 1088Q852
1090 913 1114Q972 1078 972 1049Z" />
<glyph unicode="&#xfb;" glyph-name="ucircumflex" horiz-adv-x="1021" d="M1054 564Q1054 522 902 354Q768 206 703 158Q670 134 562 54Q517 22 424 -9Q329 -40 275 -40Q173 -40 106 91Q51 198 51 314Q51 410 91 511Q106 511 122 525Q141 514 174 483Q164 404
164 345Q164 103 321 103Q473 103 686 292Q720 322 1006 591H1022Q1054 591 1054 564ZM973 698Q973 650 906 650Q887 650 865 660Q847 690 787 722Q785 724 719 811Q659 891 626 891Q619 891 437 768Q253 644 240 644Q220 644 199 658T178 686Q178 703 223 725Q281
754 287 759T373 844Q388 860 432 881Q491 910 501 916Q516 927 540 961Q565 994 574 1001Q604 1021 643 1021Q695 1021 722 987Q752 948 831 848Q896 768 968 720Q973 714 973 698Z" />
<glyph unicode="&#xfc;" glyph-name="udieresis" horiz-adv-x="1020" d="M1054 564Q1054 522 902 354Q768 206 703 158Q670 134 562 54Q517 22 424 -9Q329 -40 275 -40Q173 -40 106 91Q51 198 51 314Q51 410 91 511Q106 511 122 525Q141 514 174 483Q164 404 164
345Q164 103 321 103Q473 103 686 292Q720 322 1006 591H1022Q1054 591 1054 564ZM930 800Q913 751 869 715Q816 671 767 671Q764 671 761 671Q708 674 672 712L645 744Q631 762 631 785Q631 790 631 794Q633 818 659 834Q684 848 708 862Q740 886 799 921L905
877Q908 859 919 826Q921 818 928 800H930ZM400 702Q383 685 339 662Q335 662 331 662Q320 662 308 666Q286 672 276 673Q271 673 266 673Q251 673 237 672Q217 672 203 692Q195 703 195 717Q195 721 196 726L195 785L231 849L305 897L412 902Q455 862 455 810Q455
785 445 760T400 702Z" />
<glyph unicode="&#xff;" glyph-name="ydieresis" horiz-adv-x="910" d="M875 406Q875 395 862 349Q848 301 848 296Q848 293 848 289Q848 263 844 217Q794 99 713 -139Q686 -168 607 -337Q609 -336 609 -335V-336Q609 -339 552 -493Q521 -576 467 -707Q460 -741
445 -822Q443 -836 419 -896Q399 -945 399 -970Q399 -979 403 -986Q384 -1018 332 -1070H288Q258 -1014 258 -988Q258 -889 390 -550Q442 -416 518 -241Q543 -196 599 -75Q618 -16 639 29Q658 58 704 191Q701 194 701 201Q701 211 706 227Q708 235 708 240Q708
250 701 250Q692 250 581 205T463 160Q442 160 362 147T270 134Q189 134 123 265Q65 380 65 475Q65 503 94 558H152Q226 248 360 248Q473 248 632 365L810 496Q875 473 875 406ZM867 833Q850 784 806 748Q753 704 704 704Q701 704 698 704Q645 707 609 745L582
777Q568 795 568 818Q568 823 568 827Q570 851 596 867Q621 881 645 895Q677 919 736 954L842 910Q845 892 856 859Q858 851 865 833H867ZM337 735Q320 718 276 695Q272 695 268 695Q257 695 245 699Q223 705 213 706Q208 706 203 706Q188 706 174 705Q154 705
140 725Q132 736 132 750Q132 754 133 759L132 818L168 882L242 930L349 935Q392 895 392 843Q392 818 382 793T337 735Z" />
<glyph unicode="&#x131;" glyph-name="dotlessi" horiz-adv-x="325" d="M230 616Q239 582 244 362Q246 267 246 204Q246 130 243 99Q242 84 210 -20Q168 -7 86 15Q80 118 80 216Q80 289 83 360Q95 640 147 654Q155 656 160 656Q219 656 230 616Z" />
<glyph unicode="&#x152;" glyph-name="OE" horiz-adv-x="2425" d="M2691 1464Q2660 1433 2623 1398Q2582 1361 2544 1361Q2539 1361 2510 1374T2474 1388Q2461 1388 2388 1375Q2316 1363 2301 1363Q2250 1363 2067 1366L1833 1369Q1492 1369 1356 1324Q1456 1205
1543 933Q1544 921 1592 681Q1782 710 1903 710Q1993 710 2144 686Q2323 658 2365 621V542Q2358 542 2312 548T2257 554Q2250 554 2218 540T2180 525Q2165 525 2157 536Q2154 542 2151 550Q2105 582 1949 582Q1926 582 1801 561Q1674 540 1652 540Q1614 540 1590
568Q1466 285 1341 154L2144 145Q2150 144 2170 130Q2188 116 2195 116H2294L2393 114V105Q2395 98 2395 91Q2395 29 2324 -27Q2272 16 2208 16H1388Q1381 16 1310 -26T1229 -68H1113Q1106 -53 1106 -31Q1106 -37 1106 -37Q1108 -37 1111 47Q1105 47 819 17Q675
2 660 2Q496 2 291 130Q101 250 71 391Q55 466 55 604Q55 749 101 905Q153 1078 235 1176Q402 1373 656 1455Q675 1461 731 1478Q751 1503 781 1539Q813 1545 863 1545H911Q968 1545 1093 1535Q1283 1521 1344 1517Q1605 1502 2018 1502H2032Q2165 1502 2362 1519Q2600
1538 2691 1539V1464ZM1466 661Q1466 722 1416 898Q1370 1057 1324 1118Q1267 1192 1181 1229Q1168 1235 1018 1293Q829 1366 803 1374Q792 1374 588 1278Q409 1194 301 1036Q247 956 214 814Q184 687 184 575Q184 332 412 222Q464 198 563 182Q578 179 639 160Q690
145 711 145Q865 145 1070 204Q1296 270 1375 410Q1466 571 1466 661Z" />
<glyph unicode="&#x153;" glyph-name="oe" horiz-adv-x="1837" d="M1742 -3Q1731 9 1694 9L1523 -42Q1395 -81 1257 -81Q1243 -81 1062 17V30Q1046 59 1009 101Q965 151 942 151Q931 151 836 88Q741 26 714 14Q645 -16 519 -16Q351 -16 216 68Q62 165 62 324Q62
412 127 489Q142 509 257 615Q277 650 335 711Q355 724 420 738Q493 754 503 757Q505 758 537 785Q565 807 582 807Q633 807 715 775Q755 760 857 722Q932 692 959 615Q988 600 1001 600Q997 601 997 601Q997 612 1164 696Q1355 793 1456 793Q1542 793 1619 704Q1694
614 1694 516Q1694 513 1696 488Q1696 462 1696 457Q1696 381 1588 322Q1567 311 1491 307Q1401 303 1381 301Q1362 296 1286 276Q1232 262 1189 262L1155 233Q1175 186 1246 143T1373 100Q1391 100 1527 132T1682 164Q1744 164 1744 83Q1744 76 1744 40Q1742 2
1742 -3ZM1552 500Q1550 538 1521 591Q1488 652 1456 652Q1358 652 1247 586Q1119 512 1117 422H1326Q1346 422 1424 442Q1504 463 1510 463Q1514 467 1552 500ZM886 470Q886 523 827 581Q811 597 765 618T698 640Q606 640 505 622Q470 615 440 594Q397 563 288
483Q192 409 192 337Q192 252 286 198Q368 150 459 150Q885 150 885 427V448Q886 471 886 471Q886 471 886 470Z" />
<glyph unicode="&#x178;" glyph-name="Ydieresis" horiz-adv-x="846" d="M1164 1304Q1164 1275 1058 1192L922 1083Q909 1073 842 1004L659 744Q514 538 364 255Q332 195 321 156Q312 124 288 40Q269 -22 223 -59H168Q143 -40 143 -3Q143 27 260 260Q325 390 460
614Q623 888 665 963Q614 953 483 901Q369 856 300 856Q187 856 132 976Q91 1067 91 1194Q91 1311 138 1357Q150 1350 170 1332V1285Q170 950 309 950Q465 950 723 1109Q832 1177 1116 1355H1152Q1162 1302 1164 1302Q1164 1302 1164 1304ZM1042 1608Q1026 1559
982 1523Q928 1479 878 1479Q875 1479 873 1479Q821 1481 785 1520L757 1552Q743 1570 743 1593Q743 1598 744 1602Q747 1626 772 1642Q796 1656 821 1670Q852 1693 912 1729L1018 1685Q1021 1667 1032 1634Q1034 1626 1040 1608H1042ZM512 1510Q496 1493 451 1470Q447
1470 443 1470Q432 1470 420 1474Q399 1480 389 1481Q384 1481 379 1481Q363 1481 350 1480Q329 1481 316 1501Q308 1512 308 1526Q308 1530 309 1534L308 1593L343 1657L418 1705L525 1710Q568 1670 568 1618Q568 1593 557 1568Q547 1543 512 1510Z" />
<glyph unicode="&#x192;" glyph-name="florin" horiz-adv-x="982" d="M1175 1549Q1175 1455 1103 1434Q1079 1451 1078 1516Q1077 1589 1057 1617Q976 1729 842 1729Q704 1729 613 1490Q535 1283 481 644Q540 599 694 599Q770 599 891 573L918 529Q852 483 784
483Q771 483 691 490T597 498Q504 498 483 461Q476 378 470 295Q455 127 437 90Q442 28 442 -30Q442 -334 321 -735Q281 -757 194 -791Q96 -828 64 -828H-53Q-198 -828 -354 -746Q-345 -705 -325 -623Q-316 -623 -275 -640T-231 -657Q-140 -673 -46 -673Q-38 -673
6 -678Q51 -682 58 -682Q153 -682 209 -586Q252 -514 292 -214Q327 47 327 182V461Q320 470 317 470Q300 470 209 451T103 431Q44 431 44 465Q44 529 101 555Q122 565 220 586Q301 602 336 634Q347 706 370 968Q389 1180 421 1301Q489 1564 560 1679Q680 1870 886
1870Q919 1870 1019 1817T1132 1739Q1175 1648 1175 1549Z" />
<glyph unicode="&#x2c6;" glyph-name="circumflex" horiz-adv-x="990" d="M951 1348Q951 1271 874 1271Q852 1271 828 1286Q808 1334 738 1385Q736 1388 660 1526Q591 1652 553 1652Q545 1652 335 1457T109 1262Q87 1262 63 1285Q39 1309 39 1329Q39 1355 90 1390Q156
1435 164 1444Q171 1454 262 1577Q281 1602 331 1636Q399 1682 409 1692Q427 1709 454 1760Q483 1814 493 1824Q527 1857 573 1857Q632 1857 663 1803Q698 1742 788 1585Q863 1457 946 1383Q951 1373 951 1348Z" />
<glyph unicode="&#x2c7;" glyph-name="caron" horiz-adv-x="1188" d="M1122 1750Q1122 1682 999 1619Q888 1563 888 1521Q888 1518 889 1515Q887 1515 884 1515Q850 1515 809 1497Q742 1467 732 1465Q503 1396 491 1396Q412 1396 316 1439Q270 1460 178 1559Q81
1664 81 1705Q81 1755 137 1808Q163 1800 274 1681Q372 1576 491 1576Q590 1576 773 1684L1049 1846H1095Q1095 1839 1108 1799T1122 1750Z" />
<glyph unicode="&#x2d8;" glyph-name="breve" horiz-adv-x="1243" d="M1183 1785Q1183 1747 1144 1690Q1103 1631 1074 1631Q1068 1631 1056 1637T1036 1644Q1010 1644 806 1460Q606 1280 573 1237Q533 1183 477 1183Q425 1183 343 1289Q312 1332 229 1440Q173
1485 70 1581Q52 1603 52 1644Q52 1666 76 1688Q99 1708 123 1708Q182 1708 309 1573L483 1387Q505 1404 606 1488Q1060 1863 1113 1863Q1137 1863 1160 1837T1183 1785Z" />
<glyph unicode="&#x2d9;" glyph-name="dotaccent" horiz-adv-x="490" d="M403 1626Q376 1572 270 1572Q226 1572 178 1592Q122 1616 122 1655Q122 1723 170 1789T270 1855Q406 1854 406 1668Q406 1648 403 1626Z" />
<glyph unicode="&#x2da;" glyph-name="ring" horiz-adv-x="775" d="M711 1508Q711 1496 682 1458Q665 1437 649 1416Q641 1393 621 1352Q580 1292 506 1249Q433 1205 371 1205Q274 1205 214 1235Q165 1259 110 1341T55 1475Q55 1581 171 1714T383 1848Q496 1848
592 1803Q606 1792 693 1724L711 1508ZM543 1552Q543 1630 499 1648Q479 1655 381 1655Q329 1655 270 1597T210 1488Q210 1460 263 1422Q316 1385 352 1385Q424 1385 483 1435T543 1552Z" />
<glyph unicode="&#x2db;" glyph-name="ogonek" horiz-adv-x="814" d="M755 -216Q760 -250 760 -268Q760 -292 753 -303Q677 -434 623 -469Q577 -499 468 -529Q358 -562 303 -562Q188 -562 125 -417Q77 -305 77 -170Q77 12 107 114Q125 175 173 232Q192 255 263
337Q309 312 309 240Q309 210 289 127L260 7Q246 -54 246 -193Q246 -383 366 -383Q470 -383 755 -216Z" />
<glyph unicode="&#x2dc;" glyph-name="tilde" horiz-adv-x="1418" d="M1385 1747Q1385 1687 1253 1589Q1146 1510 1060 1475Q957 1432 813 1432Q813 1435 647 1555Q476 1677 415 1677Q360 1677 228 1562T94 1446Q70 1446 47 1470Q22 1493 22 1516Q22 1587 187
1723Q349 1857 422 1857Q429 1857 662 1728T903 1598Q955 1598 960 1601Q973 1608 1017 1619Q1018 1619 1019 1619Q1029 1619 1045 1630Q1065 1644 1093 1652Q1098 1655 1210 1744Q1301 1817 1321 1817Q1385 1817 1385 1747Z" />
<glyph unicode="&#x2dd;" glyph-name="hungarumlaut" horiz-adv-x="1037" d="M981 1775Q981 1750 914 1657Q907 1654 888 1635Q827 1575 778 1547Q716 1511 575 1387Q453 1278 369 1236Q349 1252 349 1299Q349 1375 467 1467Q530 1516 686 1606Q806 1675 806 1690L804
1694Q802 1694 802 1696Q804 1701 809 1703Q839 1727 898 1767Q924 1778 961 1813Q981 1790 981 1775ZM657 1778Q575 1675 384 1539L86 1326Q41 1352 41 1383Q41 1432 59 1452Q98 1496 325 1662Q562 1838 595 1838Q593 1838 593 1838Q593 1836 657 1824V1778Z"
/>
<glyph unicode="&#x3c0;" glyph-name="pi" horiz-adv-x="1560" d="M1908 1780Q1862 1754 1669 1754Q1588 1754 1265 1705Q1145 1686 1132 1686Q1127 1686 1100 1693Q1073 1701 1067 1701Q1014 1701 786 1644Q751 1634 717 1601Q707 1493 681 1187L663 976V783Q671
773 682 773Q715 773 977 832L1243 891Q1301 891 1387 791T1473 627V619L1357 -2Q1312 -13 1312 -14Q1312 -15 1314 -15Q1296 -15 1275 2Q1231 83 1231 132Q1231 145 1260 261Q1337 577 1343 577Q1344 577 1344 575Q1344 762 1203 762Q1157 762 1078 745Q1039 736
860 685Q675 632 661 617Q624 577 597 492L554 354Q527 297 522 283Q506 241 503 202T489 -5Q476 -14 452 -35H408Q379 -15 379 9Q379 51 389 132Q401 163 401 235V268Q401 312 396 345Q478 480 490 551Q522 750 565 1183Q598 1520 598 1552Q598 1623 538 1623Q353
1623 79 1541Q61 1535 -29 1500Q-111 1468 -127 1468Q-153 1468 -182 1493Q-212 1516 -212 1539Q-212 1659 616 1755Q680 1761 861 1780Q931 1787 1346 1846L1588 1880Q1651 1880 1727 1874L1866 1862Q1890 1846 1908 1780Z" />
<glyph unicode="&#x2013;" glyph-name="endash" horiz-adv-x="1275" d="M1192 396Q1192 338 1141 338Q1128 338 1052 350Q975 363 961 363Q673 363 395 312Q265 289 165 289Q147 289 121 320T94 373Q94 422 151 437Q276 451 393 459Q501 465 807 481Q886 486 981
496Q986 496 1042 514Q1096 531 1109 531Q1137 531 1164 483T1192 396Z" />
<glyph unicode="&#x2014;" glyph-name="emdash" horiz-adv-x="2829" d="M2691 470Q2691 427 2668 394T2613 360Q2608 360 2570 372T2523 384Q2504 384 2380 360Q2254 335 2234 335Q2223 335 2157 347T2080 360Q2036 360 1778 366Q1521 373 1475 373Q1460 373 1361
360T1244 347Q1233 347 1165 365T1084 384Q1072 384 998 376Q924 369 911 369Q878 369 763 370L615 372Q514 372 463 368Q437 367 334 350Q237 335 211 335Q178 335 150 361T121 419Q121 502 296 502H1333Q1347 502 1424 500Q1501 498 1514 498Q1521 498 1553 506T1592
514Q1605 514 1668 501Q1723 489 1742 489Q1744 489 1747 489L2331 540Q2338 540 2366 528Q2395 514 2402 514Q2490 514 2596 578Q2603 554 2649 538Q2691 524 2691 470Z" />
<glyph unicode="&#x2018;" glyph-name="quoteleft" horiz-adv-x="419" d="M410 1552Q264 1468 220 1398Q212 1384 167 1278Q129 1189 116 1189Q104 1189 73 1203Q73 1206 65 1235T57 1273Q57 1298 85 1427Q96 1478 202 1565T360 1652Q367 1652 387 1645T410 1637V1552Z" />
<glyph unicode="&#x2019;" glyph-name="quoteright" horiz-adv-x="450" d="M393 1515Q393 1416 317 1324Q247 1239 194 1220Q164 1218 106 1203Q91 1224 68 1269Q127 1314 152 1344Q188 1375 222 1406Q258 1444 259 1492Q259 1493 259 1495Q259 1529 242 1581Q219
1645 216 1670L257 1686Q393 1639 393 1515Z" />
<glyph unicode="&#x201a;" glyph-name="quotesinglbase" horiz-adv-x="616" d="M623 222Q623 115 423 -73T114 -261H35Q18 -248 18 -216Q18 -168 127 -108Q144 -99 279 -28Q399 58 439 132Q452 156 536 329H594Q623 276 623 222Z" />
<glyph unicode="&#x201c;" glyph-name="quotedblleft" horiz-adv-x="767" d="M732 1611Q586 1526 542 1456Q537 1448 490 1335Q453 1247 437 1247Q429 1247 395 1262Q393 1270 387 1296Q380 1324 380 1331Q380 1357 408 1486Q419 1536 525 1623Q632 1710 682 1710Q691
1710 710 1703L732 1695V1611ZM382 1629L241 1561Q189 1523 189 1427Q189 1367 204 1343Q209 1332 266 1280Q263 1275 258 1244Q254 1222 237 1222Q59 1222 59 1383Q59 1493 59 1493Q59 1493 59 1492Q66 1566 206 1670Q284 1729 319 1729Q383 1729 383 1652Q383
1642 382 1629Z" />
<glyph unicode="&#x201d;" glyph-name="quotedblright" horiz-adv-x="670" d="M637 1527Q637 1405 452 1226Q440 1231 429 1231Q424 1231 417 1229L394 1297Q407 1336 466 1427Q504 1485 504 1547Q504 1554 503 1561Q501 1571 484 1619Q473 1651 473 1675Q473
1715 507 1731Q637 1701 637 1527ZM345 1616Q358 1580 358 1543Q358 1444 281 1352Q213 1268 158 1247Q128 1244 70 1233Q57 1253 33 1297Q92 1342 118 1372Q152 1403 187 1434Q223 1472 224 1521Q224 1522 224 1524Q224 1563 208 1611Q183 1682 181 1699L222 1714Q322
1680 345 1616Z" />
<glyph unicode="&#x201e;" glyph-name="quotedblbase" horiz-adv-x="791" d="M797 169Q797 32 670 -110Q559 -236 417 -299Q404 -287 387 -285V-213L542 -47Q643 63 663 132Q667 144 667 195Q667 288 729 292Q797 246 797 169ZM488 158Q488 91 405 -36T254 -204Q159
-261 103 -261Q96 -261 58 -253Q21 -246 15 -246Q7 -222 1 -172Q71 -150 106 -129Q293 -21 342 108Q355 141 356 199Q358 270 362 291H408Q488 224 488 158Z" />
<glyph unicode="&#x2020;" glyph-name="dagger" horiz-adv-x="616" d="M568 1620Q540 1590 523 1590Q516 1590 504 1597T485 1604Q463 1604 424 1596Q373 1587 373 1587Q327 1496 317 1342Q302 1126 296 1091Q290 1091 255 1084Q221 1078 215 1078Q184 1078 184
1221Q184 1242 191 1388Q197 1532 197 1560V1567Q163 1581 109 1581Q91 1581 70 1580Q53 1604 53 1623Q53 1662 103 1690Q117 1698 204 1729Q235 1861 260 1861Q279 1861 332 1790T408 1719Q415 1719 427 1732T446 1745Q461 1745 506 1711Q523 1698 568 1664V1620Z"
/>
<glyph unicode="&#x2021;" glyph-name="daggerdbl" horiz-adv-x="823" d="M779 1650Q779 1607 729 1607Q721 1607 677 1614T626 1621Q554 1621 483 1585V1527Q565 1515 727 1477V1418Q698 1389 670 1389Q665 1389 648 1395T626 1402H591Q476 1402 446 1364Q424
1337 406 1210H334Q276 1256 276 1287L284 1316Q291 1342 291 1363Q291 1365 291 1367Q283 1372 272 1372Q268 1372 247 1367Q225 1363 220 1363Q147 1363 59 1404V1464Q95 1504 158 1504Q163 1504 193 1503Q223 1501 228 1501Q317 1501 317 1570Q317 1594 279
1594Q274 1594 252 1588Q231 1581 227 1581Q196 1581 166 1601T136 1646Q136 1652 143 1678T150 1708Q173 1708 247 1716Q326 1724 345 1725Q375 1772 435 1864H443Q481 1864 492 1820Q506 1765 532 1752Q545 1744 683 1728Q779 1716 779 1650Z" />
<glyph unicode="&#x2022;" glyph-name="bullet" horiz-adv-x="767" d="M646 658Q646 591 535 525Q434 465 363 465Q304 465 202 527Q93 592 93 645Q93 717 232 812Q363 902 440 902Q524 902 585 829T646 658Z" />
<glyph unicode="&#x2026;" glyph-name="ellipsis" horiz-adv-x="1508" d="M1423 127Q1423 124 1423 121Q1423 30 1251 30Q1203 30 1147 127L1166 241Q1175 242 1222 262Q1262 279 1280 279Q1383 279 1416 255L1423 127ZM924 169Q924 110 875 62Q827 14 768 14Q739
14 704 57T669 136Q669 196 714 238T826 281Q859 281 891 243Q924 206 924 169ZM427 132Q427 98 350 39Q315 12 241 12Q183 12 160 24Q119 47 103 88Q92 114 92 137Q92 163 105 187Q122 219 165 241Q200 246 241 259Q299 277 317 277Q427 277 427 132Z" />
<glyph unicode="&#x2030;" glyph-name="perthousand" horiz-adv-x="2599" d="M2270 1523Q2267 1475 2167 1400Q2126 1371 2024 1295Q1738 1074 1392 896Q1283 819 1109 716Q1083 700 797 492Q745 455 612 360Q504 281 439 211Q379 172 281 79L244 -12Q222 -65
168 -65Q153 -65 102 -51T35 -37V22Q273 287 644 551Q805 665 1322 991Q1747 1257 1988 1449L1989 1460Q1989 1468 1978 1473Q1747 1516 1646 1516H1237Q1224 1516 1150 1528T1062 1541Q1008 1541 974 1520Q974 1416 940 1365Q896 1296 755 1243Q624 1194 516 1194Q392
1194 298 1253Q187 1321 187 1439Q187 1486 244 1560L300 1635Q300 1642 291 1681T281 1727Q281 1761 310 1780L490 1798Q580 1798 762 1743Q837 1712 992 1673Q1182 1652 1495 1636Q1641 1629 2007 1607L2173 1596Q2236 1585 2270 1523ZM2566 244Q2566 141 2331
70Q2146 13 2007 13Q1998 13 1954 19Q1911 24 1903 24Q1845 24 1767 73Q1688 120 1646 180Q1545 124 1396 72Q1225 13 1132 13Q1103 13 978 51T822 107Q807 116 786 198Q767 275 767 301Q767 391 823 406Q855 416 970 450Q1193 514 1278 514H1345L1411 516Q1414
516 1417 516Q1598 516 1675 345H1706Q1719 442 1903 504Q2048 553 2173 553Q2316 553 2434 472Q2566 381 2566 244ZM2424 247V290Q2424 301 2406 332Q2349 425 2187 425Q2055 425 1947 387Q1801 337 1783 235Q1927 154 1961 154H2109Q2222 154 2424 247ZM882 1485Q882
1505 863 1531T825 1563Q799 1571 654 1588T470 1606Q427 1606 365 1545Q304 1484 304 1439Q304 1311 509 1311Q619 1311 733 1350Q882 1399 882 1485ZM1537 321Q1537 398 1370 398Q1060 398 920 250Q994 154 1133 154Q1257 154 1373 187Q1537 235 1537 321Z" />
<glyph unicode="&#x2039;" glyph-name="guilsinglleft" horiz-adv-x="974" d="M972 1168Q972 1133 966 1122Q863 1025 763 953Q678 905 520 792Q433 716 265 556Q283 530 503 386T768 176Q775 165 856 86Q914 31 918 -13Q861 -26 861 -28Q861 -28 863 -28Q781
-28 733 16Q634 107 516 199Q488 222 216 376Q188 391 121 452Q47 517 47 538Q47 582 276 766Q538 977 557 999Q567 1027 601 1073Q647 1097 683 1120Q896 1258 901 1258Q972 1258 972 1168Z" />
<glyph unicode="&#x203a;" glyph-name="guilsinglright" horiz-adv-x="902" d="M867 613Q867 574 665 373L411 122Q373 81 273 -18Q263 -22 237 -22Q229 -22 174 -15T109 -7V37Q119 49 209 122Q265 168 265 216Q265 224 265 232L317 237Q436 345 663 575L57 1086V1131Q83
1160 122 1160Q151 1160 228 1121Q301 1086 325 1064L557 863Q691 749 812 691Q867 665 867 613Z" />
<glyph unicode="&#x2044;" glyph-name="fraction" horiz-adv-x="694" d="M1163 1798Q1163 1729 891 1391Q868 1363 806 1282Q762 1211 682 1088Q592 982 459 806Q419 752 -3 57Q-62 -40 -154 -184Q-180 -224 -231 -224Q-266 -224 -301 -209Q-316 -187 -316 -173Q-316
-166 -289 -109Q-260 -48 -259 -41Q-152 53 -59 206Q-13 281 106 478Q137 547 191 645Q194 652 370 871Q496 1026 499 1108Q581 1176 701 1341Q809 1489 867 1606Q858 1615 839 1616Q834 1616 830 1615Q834 1626 921 1705Q1025 1798 1117 1870Q1163 1849 1163 1798Z"
/>
<glyph unicode="&#x20ac;" glyph-name="currency" horiz-adv-x="1514" d="M1644 1405Q1579 1361 1529 1361Q1521 1361 1478 1367Q1433 1372 1425 1372Q1203 1372 953 1253T581 968Q678 953 792 953Q825 953 943 956L1095 958Q1214 958 1374 953Q1394 942 1429
916V851Q1383 847 1324 847Q1297 847 1208 850L1093 852Q1005 852 701 828L549 816H511Q467 812 434 738Q468 718 509 718Q519 718 568 725Q618 732 626 732Q638 732 705 719T783 705Q785 705 806 711Q827 718 828 718Q845 718 869 696Q1146 693 1449 652L1462
592Q1378 577 1226 577L1201 564Q1175 551 1163 551Q1155 551 1129 564Q1101 577 1097 577L616 590Q616 589 406 573Q372 546 372 487Q372 376 424 318Q590 135 970 122Q985 122 1076 111Q1163 101 1190 101Q1211 101 1288 101L1385 99V13Q1143 -28 1124 -28Q811
-28 580 53Q253 168 234 415Q233 419 226 567Q199 581 50 617V687Q79 733 128 733Q140 733 194 719T257 705Q300 705 300 778V794Q213 813 42 858V955Q97 984 120 984Q135 984 227 971Q320 958 338 958Q360 958 379 960Q413 1013 504 1148Q581 1260 658 1305Q928
1461 1265 1479Q1271 1479 1318 1490T1374 1502Q1537 1502 1613 1456Q1621 1438 1644 1405Z" />
<glyph unicode="&#x2122;" glyph-name="trademark" horiz-adv-x="1394" d="M1377 1194Q1377 1170 1351 1134T1306 1098Q1288 1098 1270 1115Q1247 1137 1241 1139Q1207 1173 1201 1216V1304Q1201 1366 1164 1406Q1135 1381 1020 1286Q901 1188 882 1188Q878 1190
840 1205Q788 1293 652 1367Q644 1351 639 1268T629 1175Q620 1155 604 1137H531Q517 1160 487 1310T442 1484Q308 1475 308 1380Q308 1368 320 1303T332 1226Q332 1200 305 1150Q273 1088 266 1073Q178 1144 178 1216Q178 1227 188 1288Q199 1348 199 1359Q199
1433 160 1455Q131 1471 53 1471H44L28 1488V1559Q76 1613 227 1613Q231 1613 255 1606Q279 1600 285 1600Q300 1600 409 1632T535 1664Q563 1664 735 1535Q896 1415 896 1407Q896 1406 895 1406Q913 1406 1050 1516Q1093 1552 1216 1651Q1257 1628 1293 1558Q1315
1517 1346 1381T1377 1194Z" />
<glyph unicode="&#x2126;" glyph-name="Omega" horiz-adv-x="2702" d="M2636 413Q2636 217 2395 109Q2207 26 1978 26Q1878 26 1771 147Q1665 268 1665 380Q1665 393 1668 404L1672 409Q1669 413 1653 413Q1647 413 1637 406Q1627 400 1621 400Q1531 452 1479
452Q1444 450 1280 441L911 422Q886 406 865 379Q842 277 842 189Q842 153 845 138Q856 88 858 88Q858 88 858 90Q858 73 793 -24Q762 -9 751 5Q729 33 717 379L686 414Q673 415 658 415Q508 415 305 369Q295 367 245 325T187 283Q156 283 29 377V450Q127 501 266
509Q337 511 522 519Q522 519 675 531Q693 546 704 562Q685 731 685 888Q685 1275 803 1512Q959 1826 1306 1826Q1452 1826 1617 1757Q1696 1724 1748 1641T1801 1466Q1801 1412 1773 1326L1713 1328L1712 1334Q1712 1342 1718 1383Q1724 1422 1724 1429Q1724 1447
1719 1458Q1629 1698 1300 1698Q1305 1699 1305 1699Q1305 1699 1296 1698Q1280 1698 1252 1698H1203Q1103 1698 990 1563Q884 1439 865 1331Q853 1262 830 1077L826 1042Q811 921 811 901Q811 637 860 569Q1018 542 1133 542Q1148 542 1235 547Q1322 553 1337
553Q1524 553 1585 595Q1627 659 1726 767Q1834 850 2078 850Q2295 850 2454 742Q2636 621 2636 413ZM2546 444Q2546 586 2379 674Q2240 747 2083 747Q1828 747 1738 598Q1807 553 1807 479Q1807 472 1804 432T1801 384Q1801 282 1873 213Q1946 143 2051 143Q2216
143 2365 214Q2546 301 2546 444Z" />
<glyph unicode="&#x2202;" glyph-name="partialdiff" horiz-adv-x="3122" d="M3084 757Q3049 683 2923 683Q2914 683 2862 690Q2811 696 2801 696Q2768 696 2744 673Q2731 676 2715 676Q2632 676 2521 596Q2521 580 2521 556Q2520 532 2521 501Q2522 437 2522
406Q2522 207 2451 102T2217 -47Q1967 -114 1804 -114Q1655 -114 1504 -63T1264 70Q1245 94 1222 118T1168 143Q1144 143 1014 110Q880 76 842 70Q587 28 430 28Q320 28 187 101Q37 185 37 285Q37 450 337 562Q442 600 608 645L882 719Q893 836 923 1068L928 1109Q933
1147 978 1329Q1011 1465 1011 1550Q1011 1548 1011 1548Q1010 1548 1002 1618Q1029 1637 1086 1672Q1143 1618 1143 1589Q1143 1582 1115 1451Q1011 962 1011 582Q791 579 577 516Q332 444 191 316V252Q275 156 501 156Q548 156 674 178Q838 205 930 215Q982 221
1034 227Q1106 239 1127 268Q1145 455 1166 507Q1210 613 1352 665Q1442 696 1554 696Q1811 696 1811 496Q1811 393 1727 335Q1678 301 1544 257Q1419 214 1373 173Q1386 117 1547 57Q1691 2 1767 2Q1927 2 2118 57Q2366 127 2385 240Q2393 284 2393 358Q2393 378
2386 491Q2380 605 2380 625Q2380 698 2445 729Q2477 745 2588 772Q2697 798 2731 798Q2759 798 2851 786L3084 757ZM1708 511Q1631 568 1548 568Q1456 568 1368 531Q1259 484 1259 406V311Q1259 311 1275 305Q1293 298 1304 298Q1385 298 1615 404Q1693 440 1708
511Z" />
<glyph unicode="&#x2206;" glyph-name="increment" horiz-adv-x="1220" d="M1148 228Q1141 143 1064 143Q1064 145 880 182Q498 259 363 259Q356 259 341 252Q325 246 319 246Q301 246 205 260Q109 275 96 275Q41 332 41 349V362Q42 370 42 375Q42 428 196 622Q252
691 398 873Q406 883 547 1143Q568 1181 630 1201Q723 1232 732 1236L1148 228ZM941 353Q889 622 652 991Q437 718 260 443Q423 407 600 391Q682 383 744 370Q882 341 893 341Q918 341 941 353Z" />
<glyph unicode="&#x220f;" glyph-name="product" horiz-adv-x="1631" d="M1691 1076Q1691 1060 1668 1030Q1657 1016 1635 986Q1511 1049 1511 1121L1552 1203H1596Q1691 1141 1691 1076ZM1584 472Q1584 427 1529 210Q1521 171 1496 72Q1478 3 1414 -35Q1388 -9
1360 -6V35Q1360 75 1395 241Q1433 419 1456 460Q1444 492 1396 500Q1289 516 957 516Q834 516 773 488Q709 306 689 191Q683 154 665 47Q657 2 600 2Q592 2 557 9Q519 18 518 18Q527 54 575 257T632 496Q615 517 557 517Q529 517 511 516L58 491L29 535Q49 588
120 602L472 645Q478 645 514 638Q549 632 555 632Q647 632 668 655Q695 686 742 858L804 1091Q838 1175 898 1347L927 1482Q943 1558 983 1607H1041Q1072 1547 1072 1517Q1072 1511 1070 1506L811 629Q895 647 993 647Q1089 647 1282 632Q1452 619 1477 612Q1584
581 1584 472Z" />
<glyph unicode="&#x2211;" glyph-name="summation" horiz-adv-x="2178" d="M2114 767Q2085 739 2006 739Q1990 739 1906 752Q1821 766 1805 766Q1667 766 1532 735Q1488 725 1444 693Q1392 656 1392 617Q1392 605 1411 540Q1429 473 1429 463Q1429 289 1389 204Q1338
96 1051 37Q841 -5 650 -5Q453 -5 301 47Q85 122 85 276Q85 411 127 491Q173 581 336 673Q498 766 604 766Q646 766 686 721Q727 675 727 630Q727 537 595 437Q470 341 373 341Q332 341 303 399Q327 427 440 472Q542 512 598 604Q586 623 560 623Q450 623 325 516T200
309Q200 282 228 250Q335 123 540 123Q559 123 668 117Q778 109 797 109Q832 109 1025 162Q1211 212 1243 228Q1260 236 1275 259Q1283 291 1293 329Q1306 376 1306 399Q1306 419 1280 537Q1254 656 1254 675Q1254 704 1281 745Q1309 787 1334 798Q1467 856 1729
856Q1734 856 1848 845Q2019 829 2098 829L2114 813V767Z" />
<glyph unicode="&#x2219;" glyph-name="middot" horiz-adv-x="514" d="M459 632Q459 590 372 521T233 452Q185 452 72 509Q85 573 128 676Q155 709 219 751Q290 798 323 798Q370 798 415 744Q459 688 459 632Z" />
<glyph unicode="&#x221a;" glyph-name="radical" horiz-adv-x="1282" d="M2314 1172L2271 1135Q2047 1097 1688 920Q1371 764 1142 600Q1085 560 993 472Q889 372 847 340Q639 183 511 -37Q496 -63 465 -124L447 -191Q435 -217 385 -217Q334 -217 211 -55Q91 101
91 149Q91 193 149 232Q353 26 366 26Q393 26 409 49Q591 332 1036 661Q1114 719 1185 766Q1211 769 1262 788Q1311 819 1350 843Q1555 972 1963 1139Q2006 1156 2125 1203Q2182 1212 2296 1235L2314 1219V1172Z" />
<glyph unicode="&#x221e;" glyph-name="infinity" horiz-adv-x="1765" d="M1739 663Q1739 367 1339 367Q1193 367 1101 399Q1065 414 972 448Q907 471 832 471Q819 471 496 393Q391 367 382 367Q250 367 86 463Q29 556 29 639Q29 690 91 773Q154 856 201 865Q297
882 370 882Q390 882 509 852Q622 823 654 812Q668 807 755 738Q832 678 870 678Q879 678 1109 812Q1339 947 1391 947Q1513 947 1621 868Q1739 781 1739 663ZM1596 644Q1596 753 1475 753Q1280 753 1096 593Q1144 545 1179 538Q1265 523 1385 523Q1455 523 1517
549Q1596 583 1596 644ZM659 592Q640 631 514 675Q402 715 343 715Q171 715 171 619Q171 578 213 540Q223 538 290 524Q352 510 376 510Q537 510 659 592Z" />
<glyph unicode="&#x222b;" glyph-name="integral'" horiz-adv-x="1028" d="M1099 1593Q1080 1592 1058 1567Q1050 1569 1014 1585Q993 1711 911 1741Q900 1745 857 1745Q754 1745 652 1681Q537 1608 537 1513Q537 1508 542 1482T547 1451Q547 1426 534 1288Q522
1149 522 1124V170L511 -50Q491 -411 491 -575Q456 -634 327 -674Q217 -709 129 -709Q94 -709 46 -702Q-28 -692 -40 -691Q-108 -599 -108 -567Q-108 -514 -66 -452Q-70 -452 -70 -454Q-70 -462 2 -504Q91 -555 156 -555Q187 -555 248 -536T325 -493Q365 -434 370
-266Q371 -198 376 -20L389 468Q392 644 401 1148Q406 1429 415 1493Q444 1708 553 1792Q588 1799 652 1826Q738 1875 824 1875Q924 1875 1011 1805T1099 1651V1593Z" />
<glyph unicode="&#x2248;" glyph-name="approxequal" horiz-adv-x="1821" d="M1796 919Q1714 864 1608 781Q1465 670 1418 642Q1309 581 1192 581Q1154 581 1016 641T863 726Q775 870 742 896Q682 941 537 941Q427 941 327 870Q273 834 187 742Q123 672 94 672Q37
672 37 724Q37 825 222 970Q404 1109 511 1109Q689 1109 786 1021Q845 963 998 814Q1024 791 1098 765Q1183 736 1225 736Q1309 736 1518 870L1726 1005Q1725 1006 1725 1006Q1725 1004 1796 991V919ZM1790 557Q1715 508 1603 421Q1466 313 1412 283Q1303 220 1188
220Q1150 220 1011 280T857 364Q770 509 736 534Q678 579 533 579Q422 579 322 509Q270 473 183 380Q117 310 88 310Q31 310 31 362Q31 463 218 608Q399 748 506 748Q683 748 779 659Q838 601 993 452Q1020 427 1093 402Q1178 375 1220 375Q1281 375 1514 509Q1724
632 1724 643Q1724 643 1721 643Q1721 644 1721 644Q1721 642 1790 630V557Z" />
<glyph unicode="&#x2260;" glyph-name="notequal" horiz-adv-x="1745" d="M1917 588Q1917 519 1784 486Q1698 465 1596 465Q1549 465 1287 478Q1024 490 978 490Q950 490 882 476Q803 460 794 460Q733 411 688 274Q680 250 634 60L614 41H557Q542 70 542 143Q542
231 619 419Q582 452 554 452Q540 452 470 437L217 383Q117 362 97 362Q91 362 68 370Q46 377 42 377Q31 422 29 422Q28 422 28 419Q28 499 319 546Q388 557 686 595Q761 681 761 713Q761 714 761 716V724Q692 762 582 762Q578 762 573 762L496 760Q478 760 353
735Q229 709 208 709Q105 709 105 779Q105 857 409 864L604 868Q691 870 868 893Q905 902 983 1021Q1011 1066 1085 1181Q1109 1219 1258 1361Q1410 1506 1436 1506H1515Q1531 1473 1531 1416Q1325 1319 1081 945V911Q1100 888 1139 888Q1163 888 1295 909Q1426
928 1448 928Q1455 928 1490 921Q1524 915 1530 915Q1539 915 1589 927T1647 939Q1665 939 1688 902T1711 838Q1711 811 1660 773T1576 735Q1566 735 1539 751T1511 768Q1483 775 1235 775Q888 775 875 640Q897 606 955 606H1537Q1557 606 1678 625T1820 644Q1844
644 1880 624Q1917 604 1917 588Z" />
<glyph unicode="&#x2264;" glyph-name="lessequal" horiz-adv-x="1012" d="M780 1191Q780 1184 714 1111L504 875Q387 744 317 627Q434 511 584 456Q601 450 647 434Q677 424 715 385T754 324Q754 259 658 259Q600 259 355 402T110 581Q110 630 217 748Q355 899
364 913Q401 968 538 1109Q688 1262 722 1262Q740 1262 760 1237Q780 1213 780 1191ZM945 83Q608 62 337 24Q311 20 218 -3Q141 -22 105 -22Q73 -22 47 -1Q20 21 20 48Q20 109 77 127Q124 140 362 168T670 196Q713 196 945 128V83Z" />
<glyph unicode="&#x2265;" glyph-name="greaterequal" horiz-adv-x="1045" d="M995 650Q995 615 970 599Q944 590 918 579Q870 547 821 514Q683 427 499 292Q475 275 419 253T340 231Q289 231 289 283Q289 308 324 336Q339 347 378 379Q488 475 592 540Q777 656
810 680Q755 750 608 930Q501 1060 377 1150V1203Q406 1251 457 1251Q524 1251 634 1113Q674 1057 786 920Q995 680 995 650ZM1043 86L143 -41Q122 -44 122 -44Q96 -44 69 -24Q42 -6 42 16Q42 40 75 67T136 95Q141 95 167 90T197 85Q209 85 312 101L588 143Q711
163 724 163Q1016 163 1043 125V86Z" />
<glyph unicode="&#x25ca;" glyph-name="lozenge" horiz-adv-x="1203" d="M988 583Q988 573 826 358Q668 147 647 127Q621 99 554 96Q455 312 284 426Q244 451 140 520Q37 588 37 634Q37 661 265 927Q465 1160 540 1234Q570 1265 577 1265Q676 1265 934 706Q988
591 988 583ZM808 609Q808 688 769 747Q747 780 688 867Q640 939 599 1032H555L383 839Q241 679 241 661Q241 648 330 563L437 460L489 437Q523 393 596 314Q637 364 686 411Q763 486 771 498Q808 546 808 609Z" />
<glyph unicode="&#xf000;" glyph-name="" horiz-adv-x="2321" d="M2180 529Q2175 529 2150 536Q2126 542 2122 542Q2013 542 1816 461Q1681 406 1657 393Q1567 347 1526 288Q1498 247 1498 176Q1498 132 1530 106Q1534 109 1537 109Q1549 99 1591 65Q1621 42 1655
-1Q1678 -43 1764 -86Q1839 -124 1895 -154L1898 -166Q1898 -176 1898 -184Q1898 -242 1866 -278Q1806 -345 1477 -558Q1418 -568 1227 -598Q1127 -614 1119 -614Q892 -614 794 -558Q755 -537 709 -476Q656 -409 627 -387Q565 -342 437 -290Q297 -234 242 -199Q160
-147 109 -37Q59 73 59 196Q59 379 191 629Q303 839 486 935Q594 992 734 992Q747 992 781 976Q820 958 825 957Q882 951 993 922L1075 880Q1107 863 1156 863Q1162 863 1168 863Q1204 959 1204 999Q1204 1016 1185 1110Q1164 1204 1164 1221Q1164 1235 1168 1244Q1215
1380 1343 1518T1605 1719Q1683 1755 1993 1831Q2002 1834 2050 1852Q2086 1866 2108 1866Q2180 1866 2180 1783Q2180 1772 2167 1741Q2159 1724 2158 1719Q2142 1644 2117 1581Q2036 1378 1790 1191Q1674 1105 1370 882Q1381 847 1426 825Q1442 847 1490 884Q1554
917 1674 948T1857 979Q1929 979 2020 954T2152 896Q2198 860 2234 768T2271 600Q2271 577 2269 571Q2252 529 2180 529Z" />
<glyph unicode="&#xf001;" glyph-name="fi" horiz-adv-x="1711" d="M1803 977Q1773 937 1726 937Q1703 937 1670 970T1636 1026Q1636 1052 1653 1077T1690 1103Q1769 1103 1803 977ZM1671 410Q1671 214 1521 -2Q1519 -2 1517 -2Q1464 -2 1464 44Q1464 52 1503
212Q1541 373 1541 380Q1541 423 1508 442Q1481 457 1348 500Q1219 542 1188 542Q1181 542 1167 530T1146 518Q1117 518 1091 537Q942 554 735 554Q702 524 702 448Q702 373 709 265Q717 117 718 83L750 48Q744 37 705 -5Q691 -77 683 -95Q665 -145 624 -164Q597
-116 597 -74Q597 -53 604 70Q611 191 611 213Q611 236 603 368Q595 501 595 524Q595 547 575 560Q285 600 226 600Q217 600 174 588Q131 577 123 577Q88 577 46 657Q106 733 123 733Q135 733 262 717Q342 707 552 685Q562 689 579 704Q583 768 583 819Q583 832
578 904Q574 977 574 988Q574 997 583 1016T592 1037Q592 1042 583 1075Q574 1109 574 1115Q574 1502 748 1759Q805 1844 965 1861Q967 1861 1010 1871T1067 1881Q1249 1881 1411 1747Q1581 1605 1581 1426Q1581 1364 1541 1344H1474Q1468 1761 1012 1761Q904 1761
855 1681Q730 1479 691 1236Q688 1206 680 1121Q683 1130 690 1148Q699 1173 701 1173Q702 1173 702 1170V694Q798 664 960 652Q1671 599 1671 410Z" />
<glyph unicode="&#xf002;" glyph-name="fl" horiz-adv-x="1830" d="M1796 1571Q1796 1557 1786 1497Q1775 1435 1775 1429Q1765 1237 1678 863T1574 299Q1573 283 1556 203Q1541 129 1541 105Q1541 66 1556 30Q1554 16 1480 -93Q1478 -77 1454 -55H1377Q1358 -33
1358 -6Q1358 2 1360 11L1642 1364Q1604 1457 1562 1548Q1513 1657 1427 1688Q1394 1701 1276 1722Q1157 1744 1121 1744Q780 1744 645 1020Q614 846 614 755Q614 600 684 600Q676 600 676 601Q676 604 851 622Q904 627 975 627Q989 627 1068 625Q1147 623 1161
623Q1266 623 1358 650Q1359 637 1359 623Q1359 592 1354 564Q1312 544 1226 514Q1151 497 981 497Q974 497 936 503T891 510Q847 510 738 486Q616 460 604 437Q602 278 583 196Q553 68 470 -16Q466 -16 463 -16Q421 -16 421 29Q421 55 434 101Q451 153 454 170Q473
275 473 406V450Q425 485 364 485Q332 485 246 464T136 429Q132 427 106 400Q88 382 68 382Q49 382 -2 436T-54 511Q-54 554 4 568L338 613Q342 613 367 606Q391 600 396 600Q433 600 470 624Q481 839 516 1083Q535 1221 644 1496Q680 1586 761 1686Q852 1800 927
1830T1194 1861Q1293 1861 1355 1837Q1372 1828 1407 1811Q1421 1810 1457 1803T1629 1678Q1639 1671 1662 1655Q1677 1675 1711 1719H1769Q1796 1631 1796 1571Z" />
</font>
</defs>
</svg>
