<?xml version="1.0" standalone="no"?> <!DOCTYPE svg PUBLIC "-//W3C//DTD SVG 1.0//EN" "http://www.w3.org/TR/2001/REC-SVG-20010904/DTD/svg10.dtd" > <svg xmlns="http://www.w3.org/2000/svg" width="100%" height="100%">
<defs >
<font id="FlorencesansSC" horiz-adv-x="550" ><font-face
    font-family="Florencesans SC"
    units-per-em="1000"
    panose-1="2 0 5 3 2 0 0 2 0 4"
    ascent="878"
    descent="-193"
    alphabetic="0" />
<missing-glyph horiz-adv-x="500" />
<glyph unicode=" " glyph-name="space" horiz-adv-x="436" />
<glyph unicode="!" glyph-name="exclam" horiz-adv-x="252" d="M170 700H82L100 192H152L170 700ZM187 61Q187 87 170 104T126 122Q100 122 83 105T65 61Q65 35 82 18T126 0Q152 0 169 17T187 61Z" />
<glyph unicode="&quot;" glyph-name="quotedbl" horiz-adv-x="462" d="M397 735H275L313 495Q318 472 336 472Q354 472 359 495L397 735ZM187 735H65L103 495Q108 472 126 472Q144 472 149 495L187 735Z" />
<glyph unicode="#" glyph-name="numbersign" horiz-adv-x="584" d="M520 297V367H410L420 472H520V542H426L435 647H365L356 542H251L260 647H190L181 542H65V472H175L165 367H65V297H159L150 192H220L229 297H334L325 192H395L404 297H520ZM350 472L340 367H235L245
472H350Z" />
<glyph unicode="$" glyph-name="dollar" horiz-adv-x="689" d="M625 189Q625 287 552 336Q501 368 388 386V626Q415 621 437 614T477 593Q520 562 520 513H607Q607 597 538 654Q476 703 388 715V787H301V715Q256 709 219 694T151 654Q82 597 82 513Q82 418 147
368Q171 351 209 337T301 315V73Q271 76 246 83T202 104Q152 136 152 189H65Q65 99 141 44Q204 -3 301 -15V-88H388V-15Q486 -3 549 44Q625 100 625 189ZM301 400Q241 412 212 432Q170 460 170 513Q170 562 213 593Q230 606 252 613T301 626V400ZM537 189Q537 90
388 73V301Q456 289 487 272Q537 246 537 189Z" />
<glyph unicode="%" glyph-name="percent" horiz-adv-x="873" d="M808 157Q808 230 757 281T633 332Q560 332 509 281T458 157Q458 84 509 33T633 -18Q706 -18 757 33T808 157ZM782 700H695L91 0H178L782 700ZM415 542Q415 614 363 666Q312 717 240 717Q167 717
115 666Q65 616 65 542Q65 468 115 418Q167 367 240 367Q312 367 363 418Q415 470 415 542ZM738 157Q738 113 708 83Q677 52 633 52Q590 52 559 83T528 157Q528 201 559 232Q589 262 633 262Q678 262 708 232T738 157ZM345 542Q345 499 314 468T240 437Q198 437
165 468Q135 499 135 542Q135 586 165 616Q196 647 240 647Q284 647 314 617Q345 586 345 542Z" />
<glyph unicode="&amp;" glyph-name="ampersand" horiz-adv-x="666" d="M601 0L524 119Q532 130 538 141T549 164H548L590 259L510 294L470 203L347 391Q382 413 404 430T438 458Q478 501 478 562Q478 627 430 672Q386 717 318 717Q286 717 258 706T207 672Q162
625 162 562Q162 525 183 485Q186 479 196 462T227 416Q150 367 115 326Q65 269 65 195Q65 109 127 45Q190 -18 277 -18Q381 -18 464 51L496 0H601ZM390 561Q390 522 351 498L300 465L262 523Q249 542 249 563Q249 591 268 611T317 631Q346 631 368 611T390 561ZM416
125Q356 69 277 69Q224 69 189 107Q152 144 152 197Q152 245 192 284Q203 295 223 309T274 344L416 125Z" />
<glyph unicode="&apos;" glyph-name="quotesingle" horiz-adv-x="252" d="M187 735H65L103 495Q108 472 126 472Q144 472 149 495L187 735Z" />
<glyph unicode="(" glyph-name="parenleft" horiz-adv-x="322" d="M257 -88Q199 14 175 101Q152 188 152 306Q152 424 175 511Q186 554 207 601T257 700H205Q128 606 96 516Q65 430 65 306Q65 184 96 95Q112 51 139 6T205 -88H257Z" />
<glyph unicode=")" glyph-name="parenright" horiz-adv-x="322" d="M257 306Q257 430 226 516Q194 606 117 700H65Q94 648 115 601T147 511Q170 424 170 306Q170 186 146 101Q123 15 65 -88H117Q156 -40 183 5T226 95Q257 184 257 306Z" />
<glyph unicode="*" glyph-name="asterisk" horiz-adv-x="467" d="M402 416L304 472L402 529L367 591L269 533V647H199V533L100 591L65 529L164 472L65 416L100 354L199 412V297H269V412L367 354L402 416Z" />
<glyph unicode="+" glyph-name="plus" horiz-adv-x="479" d="M415 227V297H275V437H205V297H65V227H205V87H275V227H415Z" />
<glyph unicode="," glyph-name="comma" horiz-adv-x="252" d="M187 122H65L103 -117Q108 -140 126 -140Q144 -140 149 -117L187 122Z" />
<glyph unicode="-" glyph-name="hyphen" horiz-adv-x="479" d="M415 227V297H65V227H415Z" />
<glyph unicode="." glyph-name="period" horiz-adv-x="252" d="M187 61Q187 87 170 104T126 122Q100 122 83 105T65 61Q65 35 82 18T126 0Q152 0 169 17T187 61Z" />
<glyph unicode="/" glyph-name="slash" horiz-adv-x="437" d="M395 661L312 691L43 -49L125 -79L395 661Z" />
<glyph unicode="0" glyph-name="zero" horiz-adv-x="681" d="M638 350Q638 492 562 598Q477 717 340 717Q204 717 119 598Q81 545 62 483T43 350Q43 207 119 101Q205 -18 340 -18Q476 -18 562 101Q638 209 638 350ZM550 350Q550 242 500 164Q440 70 340 70Q239
70 181 164Q130 243 130 350Q130 456 181 536Q240 630 340 630Q439 630 500 536Q550 458 550 350Z" />
<glyph unicode="1" glyph-name="one" horiz-adv-x="681" d="M451 0V700H364L178 514L234 458L364 589V0H451Z" />
<glyph unicode="2" glyph-name="two" horiz-adv-x="681" d="M603 0V87H191Q225 150 338 216Q413 261 457 288T516 329Q603 404 603 504Q603 604 519 663Q444 717 340 717Q237 717 164 668Q78 611 78 513H165Q165 573 224 605Q272 630 336 630Q407 630 455 603Q515
568 515 504Q515 418 402 344Q349 311 297 278T192 213Q78 124 78 0H603Z" />
<glyph unicode="3" glyph-name="three" horiz-adv-x="681" d="M608 210Q608 340 472 394Q573 436 573 534Q573 628 493 675Q427 717 328 717Q248 717 189 689Q116 658 93 591L175 561Q199 630 328 630Q389 630 430 612Q486 588 486 534Q486 488 428 459Q383 437
328 437H276V350H328Q399 350 455 316Q521 277 521 210Q521 140 457 101Q405 70 328 70Q192 70 149 152L73 108Q109 44 183 12Q249 -18 328 -18Q440 -18 520 38Q608 102 608 210Z" />
<glyph unicode="4" glyph-name="four" horiz-adv-x="681" d="M620 140V227H533V700H458L60 227V140H445V0H533V140H620ZM445 227H153L445 570V227Z" />
<glyph unicode="5" glyph-name="five" horiz-adv-x="681" d="M613 245Q613 357 529 432Q446 507 333 507Q242 507 169 458V612H526V700H81V360L164 328Q190 371 235 395T333 420Q409 420 466 371Q526 320 526 245Q526 170 466 119Q409 70 333 70Q277 70 226 100Q177
129 154 181L68 159Q99 78 173 30Q245 -18 333 -18Q445 -18 529 58Q613 133 613 245Z" />
<glyph unicode="6" glyph-name="six" horiz-adv-x="681" d="M630 247Q630 358 544 436Q463 510 348 510Q215 510 143 409Q157 500 206 560Q262 630 348 630Q440 630 495 554L563 605Q479 717 348 717Q212 717 127 598Q89 545 70 483T51 350Q51 207 127 101Q213
-18 348 -18Q461 -18 544 57Q630 134 630 247ZM542 246Q542 169 484 120Q454 95 421 83T348 70Q278 70 221 123Q164 177 164 246Q164 323 217 372Q271 423 348 423Q387 423 420 411T483 374Q542 321 542 246Z" />
<glyph unicode="7" glyph-name="seven" horiz-adv-x="681" d="M607 612V700H135V612H506L148 0H252L607 612Z" />
<glyph unicode="8" glyph-name="eight" horiz-adv-x="681" d="M620 210Q620 340 484 394Q585 435 585 534Q585 627 506 675Q438 717 340 717Q242 717 175 675Q95 627 95 534Q95 434 197 394Q60 340 60 210Q60 101 149 38Q228 -18 340 -18Q452 -18 532 38Q620 101
620 210ZM498 534Q498 487 440 459Q395 437 340 437Q285 437 241 459Q183 487 183 534Q183 588 238 612Q278 630 340 630Q402 630 443 612Q498 588 498 534ZM533 210Q533 140 469 101Q417 70 340 70Q264 70 212 101Q148 140 148 210Q148 277 213 316Q269 350 340
350Q412 350 467 316Q533 277 533 210Z" />
<glyph unicode="9" glyph-name="nine" horiz-adv-x="681" d="M630 350Q630 421 611 483T554 598Q469 717 332 717Q219 717 136 643Q51 564 51 453Q51 343 136 264Q219 190 332 190Q466 190 538 291Q523 200 475 140Q417 70 332 70Q242 70 185 146L117 94Q202 -18
332 -18Q468 -18 554 101Q630 207 630 350ZM517 454Q517 378 463 327Q408 277 332 277Q256 277 197 327T138 454Q138 531 197 580Q256 630 332 630Q401 630 459 577Q517 523 517 454Z" />
<glyph unicode=":" glyph-name="colon" horiz-adv-x="252" d="M187 376Q187 402 170 419T126 437Q100 437 83 420T65 376Q65 350 82 333T126 315Q152 315 169 332T187 376ZM187 61Q187 87 170 104T126 122Q100 122 83 105T65 61Q65 35 82 18T126 0Q152 0 169 17T187 61Z" />
<glyph unicode=";" glyph-name="semicolon" horiz-adv-x="252" d="M187 376Q187 402 170 419T126 437Q100 437 83 420T65 376Q65 350 82 333T126 315Q152 315 169 332T187 376ZM187 122H65L103 -117Q108 -140 126 -140Q144 -140 149 -117L187 122Z" />
<glyph unicode="&lt;" glyph-name="less" horiz-adv-x="461" d="M396 95L139 262L396 430L358 488L65 297V227L358 37L396 95Z" />
<glyph unicode="=" glyph-name="equal" horiz-adv-x="479" d="M415 306V376H65V306H415ZM415 149V219H65V149H415Z" />
<glyph unicode="&gt;" glyph-name="greater" horiz-adv-x="461" d="M396 227V297L103 488L65 430L322 262L65 95L103 37L396 227Z" />
<glyph unicode="?" glyph-name="question" horiz-adv-x="444" d="M380 556Q380 620 333 669Q289 717 222 717Q155 717 110 669T65 556H152Q153 585 173 607T222 630Q252 630 272 608T292 556Q292 509 248 471Q228 454 209 438T169 405Q125 361 125 300Q125 296
127 270T135 192H187Q191 222 192 244T196 280Q205 349 255 385Q275 399 296 412T338 440Q380 477 380 556ZM222 61Q222 87 205 104T161 122Q135 122 118 105T100 61Q100 35 117 18T161 0Q187 0 204 17T222 61Z" />
<glyph unicode="@" glyph-name="at" horiz-adv-x="1039" d="M975 262Q975 450 841 584Q708 717 520 717Q331 717 198 584T65 262Q65 74 198 -59Q332 -193 520 -193Q582 -193 648 -173L633 -115Q579 -131 520 -131Q357 -131 241 -15Q126 100 126 262Q126 425 241
540Q357 656 520 656Q683 656 798 541T913 262Q913 187 874 129Q829 61 759 61Q728 61 709 86T690 143Q690 143 690 146Q690 149 691 154L717 459H652L646 388Q595 472 495 472Q407 472 343 402Q280 333 280 243Q280 166 330 108Q381 52 458 52Q559 52 624 136Q624
80 661 40Q697 0 753 0Q850 0 914 85Q975 164 975 262ZM635 275Q635 213 588 164Q539 118 478 118Q421 118 384 157Q346 195 346 250Q346 313 393 360T503 407Q558 407 597 368Q635 330 635 275Z" />
<glyph unicode="A" glyph-name="A" horiz-adv-x="645" d="M624 0L369 700H276L21 0H114L171 157H472L530 0H624ZM441 245H203L322 572L441 245Z" />
<glyph unicode="B" glyph-name="B" horiz-adv-x="654" d="M598 197Q598 314 475 353Q581 396 581 503Q581 587 514 646Q449 700 362 700H65V0H380Q467 0 532 55Q598 111 598 197ZM493 503Q493 454 451 423Q415 394 362 394H152V612H362Q414 612 451 584Q493 552
493 503ZM511 197Q511 147 469 116Q431 87 380 87H152V306H380Q433 306 469 277Q511 245 511 197Z" />
<glyph unicode="C" glyph-name="C" horiz-adv-x="726" d="M670 90L607 150Q525 70 410 70Q295 70 213 152Q130 234 130 350Q130 466 213 548Q295 630 410 630Q526 630 607 549L670 610Q563 717 410 717Q258 717 150 609Q43 500 43 350Q43 200 150 90Q259 -18 410
-18Q562 -18 670 90Z" />
<glyph unicode="D" glyph-name="D" horiz-adv-x="733" d="M677 350Q677 494 574 597Q472 700 327 700H65V0H327Q472 0 574 102Q677 205 677 350ZM590 350Q590 243 513 164Q434 87 327 87H152V612H327Q436 612 513 535T590 350Z" />
<glyph unicode="E" glyph-name="E" horiz-adv-x="619" d="M555 0V87H152V306H467V394H152V612H555V700H65V0H555Z" />
<glyph unicode="F" glyph-name="F" horiz-adv-x="589" d="M555 612V700H65V0H152V306H467V394H152V612H555Z" />
<glyph unicode="G" glyph-name="G" horiz-adv-x="773" d="M717 148V394H410V306H630V176Q546 70 410 70Q295 70 213 152Q130 234 130 350Q130 466 213 548Q295 630 410 630Q476 630 535 601T634 518L706 568Q654 639 576 678T410 717Q258 717 150 609Q43 500 43
350Q43 200 150 90Q259 -18 410 -18Q504 -18 585 26T717 148Z" />
<glyph unicode="H" glyph-name="H" horiz-adv-x="689" d="M625 0V700H537V394H152V700H65V0H152V306H537V0H625Z" />
<glyph unicode="I" glyph-name="I" horiz-adv-x="217" d="M152 0V700H65V0H152Z" />
<glyph unicode="J" glyph-name="J" horiz-adv-x="530" d="M474 219V700H209V612H387V219Q387 158 343 114T238 70Q156 70 112 140L34 99Q66 45 120 14T238 -18Q335 -18 404 52Q474 121 474 219Z" />
<glyph unicode="K" glyph-name="K" horiz-adv-x="615" d="M590 0L314 424L590 700H466L152 386V700H65V0H152V262L251 361L486 0H590Z" />
<glyph unicode="L" glyph-name="L" horiz-adv-x="501" d="M467 0V87H152V700H65V0H467Z" />
<glyph unicode="M" glyph-name="M" horiz-adv-x="826" d="M761 0V700H621L413 128L205 700H65V0H152V590L367 0H460L674 587V0H761Z" />
<glyph unicode="N" glyph-name="N" horiz-adv-x="689" d="M625 0V700H537V157L152 700H65V0H152V542L537 0H625Z" />
<glyph unicode="O" glyph-name="O" horiz-adv-x="821" d="M778 350Q778 502 670 610Q563 717 410 717Q257 717 150 610Q43 501 43 350Q43 199 150 90Q258 -18 410 -18Q562 -18 670 90T778 350ZM690 350Q690 234 608 152T410 70Q295 70 213 152Q130 234 130 350Q130
466 213 548Q295 630 410 630Q526 630 608 548T690 350Z" />
<glyph unicode="P" glyph-name="P" horiz-adv-x="615" d="M581 503Q581 587 514 646Q449 700 362 700H65V0H152V306H362Q448 306 514 361Q581 418 581 503ZM493 503Q493 454 451 423Q415 394 362 394H152V612H362Q414 612 451 584Q493 552 493 503Z" />
<glyph unicode="Q" glyph-name="Q" horiz-adv-x="821" d="M778 350Q778 502 670 610Q563 717 410 717Q257 717 150 610Q43 501 43 350Q43 209 136 106Q230 1 367 -15V-175H454V-15Q591 1 685 106Q778 211 778 350ZM690 350Q690 245 623 168Q557 90 454 73V175H367V73Q263
90 198 168Q130 247 130 350Q130 466 213 548Q295 630 410 630Q526 630 608 548T690 350Z" />
<glyph unicode="R" glyph-name="R" horiz-adv-x="650" d="M651 0L492 245Q448 312 423 314Q493 332 536 383Q581 434 581 503Q581 587 514 646Q449 700 362 700H65V0H152V306H257Q348 306 388 245L547 0H651ZM493 503Q493 454 451 423Q415 394 362 394H152V612H362Q414
612 451 584Q493 552 493 503Z" />
<glyph unicode="S" glyph-name="S" horiz-adv-x="672" d="M616 189Q616 313 498 358L279 403Q161 431 161 513Q161 572 222 605Q247 617 275 623T336 630Q400 630 450 604Q511 573 511 513H598Q598 608 512 666Q435 717 336 717Q236 717 160 666Q73 607 73 513Q73
385 192 340Q246 329 301 318T410 296Q528 269 528 189Q528 125 460 94Q409 70 336 70Q264 70 212 94Q143 125 143 189H56Q56 90 150 32Q232 -18 336 -18Q440 -18 521 31Q616 91 616 189Z" />
<glyph unicode="T" glyph-name="T" horiz-adv-x="602" d="M572 612V700H30V612H257V0H345V612H572Z" />
<glyph unicode="U" glyph-name="U" horiz-adv-x="672" d="M616 262V700H528V262Q528 184 472 126Q416 70 336 70Q255 70 199 126Q143 184 143 262V700H56V262Q56 147 138 65Q221 -18 336 -18Q451 -18 534 65Q616 147 616 262Z" />
<glyph unicode="V" glyph-name="V" horiz-adv-x="645" d="M624 700H530L322 128L114 700H21L276 0H369L624 700Z" />
<glyph unicode="W" glyph-name="W" horiz-adv-x="936" d="M915 700H824L668 158L514 700H423L267 158L112 700H21L221 0H312L468 542L623 0H714L915 700Z" />
<glyph unicode="X" glyph-name="X" horiz-adv-x="653" d="M627 0L381 350L627 700H519L326 427L134 700H25L272 350L25 0H134L326 273L519 0H627Z" />
<glyph unicode="Y" glyph-name="Y" horiz-adv-x="644" d="M623 700H514L322 427L129 700H21L278 335V0H366V335L623 700Z" />
<glyph unicode="Z" glyph-name="Z" horiz-adv-x="672" d="M616 0V87H175L616 612V700H56V612H497L56 87V0H616Z" />
<glyph unicode="[" glyph-name="bracketleft" horiz-adv-x="339" d="M275 -88V0H152V612H275V700H65V-88H275Z" />
<glyph unicode="\" glyph-name="backslash" horiz-adv-x="437" d="M395 -49L125 691L43 661L312 -79L395 -49Z" />
<glyph unicode="]" glyph-name="bracketright" horiz-adv-x="339" d="M275 -88V700H65V612H187V0H65V-88H275Z" />
<glyph unicode="^" glyph-name="asciicircum" horiz-adv-x="485" d="M420 328L277 647H207L65 328L129 299L242 554L356 299L420 328Z" />
<glyph unicode="_" glyph-name="underscore" horiz-adv-x="436" d="M436 0V70H0V0H436Z" />
<glyph unicode="`" glyph-name="grave" horiz-adv-x="269" d="M205 595L152 700H65L152 595H205Z" />
<glyph unicode="a" glyph-name="a" horiz-adv-x="580" d="M562 0L332 630H248L19 0H102L154 142H425L477 0H562ZM397 220H183L290 515L397 220Z" />
<glyph unicode="b" glyph-name="b" horiz-adv-x="589" d="M539 177Q539 283 428 318Q523 357 523 452Q523 529 462 581Q402 630 326 630H59V0H342Q418 0 479 50Q539 99 539 177ZM444 452Q444 408 406 381Q371 354 326 354H137V551H326Q371 551 406 525Q444 498
444 452ZM460 177Q460 132 422 105Q389 79 342 79H137V276H342Q387 276 422 249Q460 222 460 177Z" />
<glyph unicode="c" glyph-name="c" horiz-adv-x="654" d="M603 81L547 136Q474 63 369 63Q265 63 192 137Q117 210 117 315Q117 419 192 493Q266 567 369 567Q472 567 547 494L603 549Q506 646 369 646Q232 646 136 548Q38 452 38 315Q38 179 136 81Q233 -16 369
-16Q506 -16 603 81Z" />
<glyph unicode="d" glyph-name="d" horiz-adv-x="660" d="M610 315Q610 445 516 537Q424 630 295 630H59V0H295Q424 0 516 92Q610 186 610 315ZM531 315Q531 218 461 148Q393 79 295 79H137V551H295Q392 551 461 482Q531 412 531 315Z" />
<glyph unicode="e" glyph-name="e" horiz-adv-x="557" d="M500 0V79H137V276H421V354H137V551H500V630H59V0H500Z" />
<glyph unicode="f" glyph-name="f" horiz-adv-x="530" d="M500 551V630H59V0H137V276H421V354H137V551H500Z" />
<glyph unicode="g" glyph-name="g" horiz-adv-x="696" d="M646 133V354H369V276H567V158Q491 63 369 63Q265 63 192 137Q117 210 117 315Q117 419 192 493Q266 567 369 567Q429 567 482 541T570 466L635 511Q588 575 518 610T369 646Q232 646 136 548Q38 452 38
315Q38 179 136 81Q233 -16 369 -16Q453 -16 526 24T646 133Z" />
<glyph unicode="h" glyph-name="h" horiz-adv-x="620" d="M563 0V630H484V354H137V630H59V0H137V276H484V0H563Z" />
<glyph unicode="i" glyph-name="i" horiz-adv-x="195" d="M137 0V630H59V0H137Z" />
<glyph unicode="j" glyph-name="j" horiz-adv-x="477" d="M427 197V630H188V551H348V197Q348 144 309 102Q270 63 214 63Q140 63 101 126L31 89Q59 41 108 13T214 -16Q302 -16 364 46Q427 111 427 197Z" />
<glyph unicode="k" glyph-name="k" horiz-adv-x="554" d="M531 0L283 381L531 630H420L137 347V630H59V0H137V236L226 325L437 0H531Z" />
<glyph unicode="l" glyph-name="l" horiz-adv-x="451" d="M421 0V79H137V630H59V0H421Z" />
<glyph unicode="m" glyph-name="m" horiz-adv-x="744" d="M685 0V630H559L372 115L185 630H59V0H137V531L330 0H414L606 528V0H685Z" />
<glyph unicode="n" glyph-name="n" horiz-adv-x="620" d="M563 0V630H484V142L137 630H59V0H137V488L484 0H563Z" />
<glyph unicode="o" glyph-name="o" horiz-adv-x="738" d="M700 315Q700 452 603 549T369 646Q233 646 136 549Q38 451 38 315Q38 177 136 81Q233 -16 369 -16Q506 -16 603 81Q700 177 700 315ZM621 315Q621 210 547 137Q474 63 369 63Q265 63 192 137Q117 210
117 315Q117 419 192 493Q266 567 369 567Q473 567 547 493Q621 420 621 315Z" />
<glyph unicode="p" glyph-name="p" horiz-adv-x="554" d="M523 452Q523 529 462 581Q402 630 326 630H59V0H137V276H326Q404 276 463 325Q523 376 523 452ZM444 452Q444 408 406 381Q371 354 326 354H137V551H326Q371 551 406 525Q444 498 444 452Z" />
<glyph unicode="q" glyph-name="q" horiz-adv-x="738" d="M700 315Q700 452 603 549T369 646Q233 646 136 549Q38 451 38 315Q38 189 122 95Q207 0 330 -13V-158H409V-13Q472 -6 523 21T617 95Q700 188 700 315ZM621 315Q621 223 561 151Q500 80 409 66V157H330V66Q239
79 178 151Q117 222 117 315Q117 419 192 493Q266 567 369 567Q473 567 547 493Q621 420 621 315Z" />
<glyph unicode="r" glyph-name="r" horiz-adv-x="585" d="M586 0L443 220Q402 282 381 283Q444 300 483 345Q523 391 523 452Q523 529 462 581Q402 630 326 630H59V0H137V276H232Q313 276 349 220L492 0H586ZM444 452Q444 408 406 381Q371 354 326 354H137V551H326Q371
551 406 525Q444 498 444 452Z" />
<glyph unicode="s" glyph-name="s" horiz-adv-x="605" d="M555 170Q555 281 448 322Q398 332 350 342T251 363Q145 388 145 461Q145 514 200 544Q244 567 303 567Q360 567 405 543Q460 515 460 461H539Q539 547 460 599Q392 646 303 646Q214 646 144 599Q66 546
66 461Q66 346 172 306Q222 296 271 286T369 266Q476 242 476 170Q476 113 414 84Q367 63 303 63Q237 63 191 84Q129 113 129 170H51Q51 81 136 29Q208 -16 303 -16Q396 -16 469 28Q555 82 555 170Z" />
<glyph unicode="t" glyph-name="t" horiz-adv-x="542" d="M515 551V630H27V551H232V0H311V551H515Z" />
<glyph unicode="u" glyph-name="u" horiz-adv-x="605" d="M555 236V630H476V236Q476 164 424 114Q373 63 303 63Q230 63 179 114Q129 163 129 236V630H51V236Q51 131 124 59Q199 -16 303 -16Q405 -16 480 59Q555 132 555 236Z" />
<glyph unicode="v" glyph-name="v" horiz-adv-x="580" d="M562 630H477L290 115L102 630H19L248 0H332L562 630Z" />
<glyph unicode="w" glyph-name="w" horiz-adv-x="843" d="M823 630H742L602 143L462 630H381L240 143L101 630H19L199 0H281L421 487L561 0H642L823 630Z" />
<glyph unicode="x" glyph-name="x" horiz-adv-x="587" d="M564 0L342 315L564 630H467L294 384L121 630H23L245 315L23 0H121L294 246L467 0H564Z" />
<glyph unicode="y" glyph-name="y" horiz-adv-x="579" d="M561 630H463L290 384L116 630H19L250 302V0H329V302L561 630Z" />
<glyph unicode="z" glyph-name="z" horiz-adv-x="605" d="M555 0V79H157L555 551V630H51V551H447L51 79V0H555Z" />
<glyph unicode="{" glyph-name="braceleft" horiz-adv-x="401" d="M336 -88V0H301Q289 0 278 5T259 19T245 39T240 61V201Q240 234 217 269Q192 306 160 306Q192 306 217 344Q240 379 240 411V551Q240 574 259 593T301 612H336V700H292Q239 700 195 653Q152 606
152 551V402Q152 378 135 364T91 350H65V262H91Q117 262 134 248T152 210V61Q152 6 195 -40Q238 -88 292 -88H336Z" />
<glyph unicode="|" glyph-name="bar" horiz-adv-x="217" d="M152 -88V700H65V-88H152Z" />
<glyph unicode="}" glyph-name="braceright" horiz-adv-x="401" d="M336 262V350H310Q284 350 266 364T248 402V551Q248 606 205 653Q161 700 108 700H65V612H100Q111 612 122 607T141 594T155 574T161 551V411Q161 379 184 344Q207 306 241 306Q208 306 184 269Q161
234 161 201V61Q161 38 142 19T100 0H65V-88H108Q161 -88 205 -40Q248 6 248 61V210Q248 234 266 248T310 262H336Z" />
<glyph unicode="~" glyph-name="asciitilde" horiz-adv-x="483" d="M418 284L353 311Q340 273 314 273Q286 273 235 294T157 315Q95 315 65 238L129 212Q144 249 169 249Q195 249 248 228Q299 207 326 207Q388 207 418 284Z" />
<glyph unicode="&#xa0;" glyph-name="nbspace" horiz-adv-x="436" />
<glyph unicode="&#xa1;" glyph-name="exclamdown" horiz-adv-x="252" d="M187 551Q187 577 170 594T126 612Q100 612 83 595T65 551Q65 525 82 508T126 490Q152 490 169 507T187 551ZM170 -88L152 420H100L82 -88H170Z" />
<glyph unicode="&#xa2;" glyph-name="cent" horiz-adv-x="632" d="M567 93L493 140Q452 90 388 75V450Q452 435 493 385L566 433Q498 522 388 539V630H301V539Q200 522 132 444Q65 368 65 262Q65 157 132 80Q202 1 301 -14V-105H388V-14Q497 2 567 93ZM301 75Q236
90 194 143Q152 195 152 262Q152 329 194 382T301 450V75Z" />
<glyph unicode="&#xa3;" glyph-name="sterling" horiz-adv-x="635" d="M570 601Q538 655 484 686T367 717Q269 717 199 647Q130 578 130 481V394H43V306H130V0H568V87H218V306H393V394H218V481Q218 542 262 586Q304 630 367 630Q447 630 493 560L570 601Z" />
<glyph unicode="&#xa4;" glyph-name="currency" horiz-adv-x="797" d="M732 647Q637 717 515 717Q396 717 299 647Q204 577 166 464H91L65 394H150Q149 383 149 372T148 350Q148 339 148 328T150 306H91L65 236H166Q203 124 299 52Q398 -18 515 -18Q614 -18 701
33V140Q619 70 515 70Q432 70 363 115Q294 161 260 236H583L608 306H239Q235 326 235 350Q235 374 239 394H640L666 464H260Q295 539 363 584Q431 630 515 630Q619 630 701 560L732 647Z" />
<glyph unicode="&#xa5;" glyph-name="yen" horiz-adv-x="731" d="M667 700H558L366 427L173 700H65L293 376H103V306H322V219H103V149H322V0H409V149H628V219H409V306H628V376H438L667 700Z" />
<glyph unicode="&#xa6;" glyph-name="brokenbar" horiz-adv-x="217" d="M152 359V700H65V359H152ZM152 -88V254H65V-88H152Z" />
<glyph unicode="&#xa7;" glyph-name="section" horiz-adv-x="567" d="M502 83Q502 167 436 205Q502 245 502 319Q502 416 414 451Q409 453 368 461T249 486Q161 503 161 556Q161 595 205 615Q238 630 283 630Q329 630 362 615Q408 595 406 556H493Q493 632 423
677Q364 717 283 717Q204 717 143 677Q73 631 73 556Q73 470 138 434Q73 393 73 319Q73 222 162 186Q168 184 208 176T326 152Q415 135 415 83Q415 9 283 9Q232 9 199 22Q151 42 152 83H65Q65 5 138 -40Q201 -79 283 -79Q366 -79 429 -40Q502 5 502 83ZM415 319Q415
280 371 260Q336 245 292 245Q246 245 210 261Q161 281 161 319Q161 360 203 380Q236 395 281 395Q326 395 364 380Q415 357 415 319Z" />
<glyph unicode="&#xa8;" glyph-name="dieresis" horiz-adv-x="392" d="M327 656Q327 675 315 687T283 700Q265 700 253 688T240 656Q240 638 252 625T283 612Q302 612 314 625T327 656ZM152 656Q152 675 140 687T108 700Q90 700 78 688T65 656Q65 638 77 625T108
612Q127 612 139 625T152 656Z" />
<glyph unicode="&#xa9;" glyph-name="copyright" horiz-adv-x="681" d="M616 276Q616 389 535 470T340 551Q226 551 145 470Q65 388 65 276Q65 163 145 80Q227 0 340 0Q453 0 535 80Q616 162 616 276ZM568 276Q568 181 500 115Q434 48 340 48Q246 48 179 115Q113
181 113 276Q113 368 179 436Q248 503 340 503Q433 503 500 436Q568 368 568 276ZM479 146L448 176Q408 136 349 136Q291 136 250 177T209 276Q209 333 250 374Q290 416 349 416Q407 416 448 375L479 406Q427 459 349 459Q273 459 219 405T165 276Q165 199 219
145Q272 92 349 92Q426 92 479 146Z" />
<glyph unicode="&#xaa;" glyph-name="ordfeminine" horiz-adv-x="549" d="M485 306V700H419V629Q360 713 262 713Q176 713 121 650Q65 590 65 503Q65 417 121 357Q176 293 262 293Q360 293 419 377V306H485ZM419 503Q419 444 376 401Q334 359 275 359Q215 359
172 401Q130 444 130 503Q130 563 172 605Q215 647 275 647Q334 647 376 605Q419 563 419 503Z" />
<glyph unicode="&#xab;" glyph-name="guillemotleft" horiz-adv-x="715" d="M650 59L428 208L650 358L612 416L353 243V173L612 0L650 59ZM361 59L139 208L361 358L323 416L65 243V173L323 0L361 59Z" />
<glyph unicode="&#xac;" glyph-name="logicalnot" horiz-adv-x="479" d="M415 140V297H65V227H345V140H415Z" />
<glyph unicode="&#xad;" glyph-name="hyphen" horiz-adv-x="479" d="M415 227V297H65V227H415Z" />
<glyph unicode="&#xae;" glyph-name="registered" horiz-adv-x="681" d="M616 276Q616 389 535 470T340 551Q226 551 145 470Q65 388 65 276Q65 163 145 80Q227 0 340 0Q453 0 535 80Q616 162 616 276ZM425 353Q425 328 406 313T360 297H255V407H360Q386 407 405
392T425 353ZM568 276Q568 179 497 111L424 223Q405 253 390 258Q425 266 447 292T469 353Q469 394 436 423Q402 451 360 451H211V101H255V254H307Q353 254 373 223L452 101H486Q422 48 340 48Q246 48 179 115Q113 181 113 276Q113 368 179 436Q248 503 340 503Q433
503 500 436Q568 368 568 276Z" />
<glyph unicode="&#xaf;" glyph-name="overscore" horiz-adv-x="436" d="M436 630V700H0V630H436Z" />
<glyph unicode="&#xb0;" glyph-name="degree" horiz-adv-x="322" d="M257 604Q257 644 229 672T161 700Q121 700 93 672T65 604Q65 563 93 535T161 507Q201 507 229 535T257 604ZM222 604Q222 578 205 560T161 542Q135 542 118 560T100 604Q100 630 117 647T161
665Q187 665 204 648T222 604Z" />
<glyph unicode="&#xb1;" glyph-name="plusminus" horiz-adv-x="479" d="M415 315V385H275V525H205V385H65V315H205V175H275V315H415ZM415 0V70H65V0H415Z" />
<glyph unicode="&#xb2;" glyph-name="twosuperior" horiz-adv-x="392" d="M327 350V394H121Q137 424 194 458Q232 479 254 493T283 514Q327 552 327 602Q327 650 285 682Q247 709 196 709Q143 709 108 684Q65 656 65 606H108Q108 636 137 653Q159 665 193 665Q229
665 253 651Q283 634 283 602Q283 560 227 522L122 457Q65 412 65 350H327Z" />
<glyph unicode="&#xb3;" glyph-name="threesuperior" horiz-adv-x="397" d="M332 455Q332 519 264 547Q315 568 315 617Q315 663 275 688Q242 709 192 709Q96 709 74 646L115 631Q127 665 192 665Q271 665 271 617Q271 593 242 579Q221 569 192 569H166V525H192Q229
525 255 508Q289 488 289 455Q289 419 257 401Q232 385 192 385Q125 385 102 426L65 404Q99 341 192 341Q248 341 288 369Q332 400 332 455Z" />
<glyph unicode="&#xb4;" glyph-name="acute" horiz-adv-x="269" d="M205 700H117L65 595H117L205 700Z" />
<glyph unicode="&#xb5;" glyph-name="mu" horiz-adv-x="584" d="M520 0V525H432V210Q432 152 391 111T292 70Q234 70 193 111T152 210V525H65V-175H152V59Q202 -18 292 -18Q384 -18 432 59V0H520Z" />
<glyph unicode="&#xb6;" glyph-name="paragraph" horiz-adv-x="733" d="M668 612V700H283Q196 700 132 646Q65 588 65 503Q65 417 132 360Q198 306 283 306V-175H371V612H476V-175H563V612H668Z" />
<glyph unicode="&#xb7;" glyph-name="middot" horiz-adv-x="252" d="M187 262Q187 288 170 306T126 324Q100 324 83 306T65 262Q65 236 82 219T126 201Q152 201 169 218T187 262Z" />
<glyph unicode="&#xb8;" glyph-name="cedilla" horiz-adv-x="269" d="M205 -105Q205 -81 189 -62T149 -37L161 17H126L108 -61H135Q152 -61 165 -74T178 -105Q178 -123 165 -136T135 -149H73L65 -175H135Q164 -175 184 -155T205 -105Z" />
<glyph unicode="&#xb9;" glyph-name="onesuperior" horiz-adv-x="266" d="M201 350V700H157L65 607L93 579L157 645V350H201Z" />
<glyph unicode="&#xba;" glyph-name="ordmasculine" horiz-adv-x="549" d="M485 503Q485 589 423 651Q359 713 275 713Q188 713 126 651Q65 590 65 503Q65 415 126 354T275 293Q361 293 423 354Q485 416 485 503ZM419 503Q419 444 376 401Q334 359 275 359Q215
359 172 401Q130 444 130 503Q130 563 172 605Q215 647 275 647Q334 647 376 605Q419 563 419 503Z" />
<glyph unicode="&#xbb;" glyph-name="guillemotright" horiz-adv-x="715" d="M650 173V243L392 416L353 358L576 208L353 59L392 0L650 173ZM361 173V243L103 416L65 358L287 208L65 59L103 0L361 173Z" />
<glyph unicode="&#xbc;" glyph-name="onequarter" horiz-adv-x="479" d="M295 420V700H260L185 626L208 604L260 655V420H295ZM415 332V367H65V332H415ZM352 56V91H317V280H287L129 91V56H282V0H317V56H352ZM282 91H165L282 228V91Z" />
<glyph unicode="&#xbd;" glyph-name="onehalf" horiz-adv-x="479" d="M295 420V700H260L185 626L208 604L260 655V420H295ZM415 332V367H65V332H415ZM345 0V35H180Q195 61 239 87Q297 120 310 131Q345 161 345 201Q345 239 311 265Q282 287 241 287Q201 287 170
267Q136 245 136 205H171Q171 231 194 241Q213 252 239 252Q266 252 286 241Q310 227 310 201Q310 167 264 137Q243 124 222 111T181 85Q136 50 136 0H345Z" />
<glyph unicode="&#xbe;" glyph-name="threequarters" horiz-adv-x="479" d="M347 504Q347 556 292 577Q333 595 333 633Q333 671 302 690Q275 707 235 707Q159 707 141 656L174 644Q183 672 235 672Q298 672 298 633Q298 615 276 604Q256 595 235 595H214V560H235Q265
560 286 546Q312 530 312 504Q312 475 287 460Q266 448 235 448Q180 448 164 481L133 464Q160 413 235 413Q279 413 311 436Q347 460 347 504ZM415 332V367H65V332H415ZM352 56V91H317V280H287L129 91V56H282V0H317V56H352ZM282 91H165L282 228V91Z" />
<glyph unicode="&#xbf;" glyph-name="questiondown" horiz-adv-x="444" d="M345 551Q345 577 327 594T283 612Q257 612 240 595T222 551Q222 525 239 508T283 490Q309 490 327 507T345 551ZM380 57H292Q291 27 271 5T222 -18Q193 -18 173 4T152 57Q152 103 196
142Q216 159 236 174T276 207Q319 252 319 312Q319 319 310 420H257Q254 391 252 369T248 332Q239 264 190 227Q170 213 149 200T107 172Q65 134 65 57Q65 -9 110 -57Q156 -105 222 -105Q288 -105 333 -57Q380 -8 380 57Z" />
<glyph unicode="&#xc0;" glyph-name="Agrave" horiz-adv-x="645" d="M348 770L296 875H208L296 770H348ZM624 0L369 700H276L21 0H114L171 157H472L530 0H624ZM441 245H203L322 572L441 245Z" />
<glyph unicode="&#xc1;" glyph-name="Aacute" horiz-adv-x="645" d="M436 875H348L296 770H348L436 875ZM624 0L369 700H276L21 0H114L171 157H472L530 0H624ZM441 245H203L322 572L441 245Z" />
<glyph unicode="&#xc2;" glyph-name="Acircumflex" horiz-adv-x="645" d="M427 770L357 875H287L217 770H269L322 833L374 770H427ZM624 0L369 700H276L21 0H114L171 157H472L530 0H624ZM441 245H203L322 572L441 245Z" />
<glyph unicode="&#xc3;" glyph-name="Atilde" horiz-adv-x="645" d="M455 847L407 873Q395 831 377 831Q356 831 318 854Q280 878 259 878Q213 878 190 801L239 774Q251 816 269 816Q290 816 327 793Q367 770 387 770Q433 770 455 847ZM624 0L369 700H276L21 0H114L171
157H472L530 0H624ZM441 245H203L322 572L441 245Z" />
<glyph unicode="&#xc4;" glyph-name="Adieresis" horiz-adv-x="645" d="M454 814Q454 832 442 844T410 857Q392 857 380 845T367 814Q367 795 379 783T410 770Q429 770 441 782T454 814ZM279 814Q279 832 267 844T235 857Q217 857 205 845T192 814Q192 795 204
783T235 770Q254 770 266 782T279 814ZM624 0L369 700H276L21 0H114L171 157H472L530 0H624ZM441 245H203L322 572L441 245Z" />
<glyph unicode="&#xc5;" glyph-name="Aring" horiz-adv-x="645" d="M624 0L376 682Q418 710 418 761Q418 801 389 829Q362 857 322 857Q282 857 254 829T226 761Q226 709 269 681L21 0H114L171 157H472L530 0H624ZM383 761Q383 735 366 718T322 700Q296 700 279
717T261 761Q261 787 278 804T322 822Q348 822 365 805T383 761ZM441 245H203L322 572L441 245Z" />
<glyph unicode="&#xc6;" glyph-name="AE" horiz-adv-x="997" d="M933 0V87H618V306H845V394H618V612H933V700H530V257L369 700H276L21 0H114L171 157H472L530 0H933ZM441 245H203L322 572L441 245Z" />
<glyph unicode="&#xc7;" glyph-name="Ccedilla" horiz-adv-x="726" d="M670 90L607 150Q525 70 410 70Q295 70 213 152Q130 234 130 350Q130 466 213 548Q295 630 410 630Q526 630 607 549L670 610Q563 717 410 717Q258 717 150 609Q43 500 43 350Q43 208 137
104Q232 -1 372 -16L358 -79H384Q402 -79 415 -92T428 -123Q428 -140 415 -153T384 -166H323L314 -193H384Q413 -193 433 -173T454 -123Q454 -98 438 -79T398 -54L406 -18Q563 -18 670 90Z" />
<glyph unicode="&#xc8;" glyph-name="Egrave" horiz-adv-x="619" d="M336 770L283 875H196L283 770H336ZM555 0V87H152V306H467V394H152V612H555V700H65V0H555Z" />
<glyph unicode="&#xc9;" glyph-name="Eacute" horiz-adv-x="619" d="M423 875H336L283 770H336L423 875ZM555 0V87H152V306H467V394H152V612H555V700H65V0H555Z" />
<glyph unicode="&#xca;" glyph-name="Ecircumflex" horiz-adv-x="619" d="M415 770L345 875H275L205 770H257L310 833L362 770H415ZM555 0V87H152V306H467V394H152V612H555V700H65V0H555Z" />
<glyph unicode="&#xcb;" glyph-name="Edieresis" horiz-adv-x="619" d="M441 814Q441 832 429 844T397 857Q379 857 366 845T353 814Q353 795 366 783T397 770Q416 770 428 782T441 814ZM266 814Q266 832 254 844T222 857Q204 857 191 845T178 814Q178 795 191
783T222 770Q241 770 253 782T266 814ZM555 0V87H152V306H467V394H152V612H555V700H65V0H555Z" />
<glyph unicode="&#xcc;" glyph-name="Igrave" horiz-adv-x="217" d="M135 770L82 875H-5L82 770H135ZM152 0V700H65V0H152Z" />
<glyph unicode="&#xcd;" glyph-name="Iacute" horiz-adv-x="217" d="M222 875H135L82 770H135L222 875ZM152 0V700H65V0H152Z" />
<glyph unicode="&#xce;" glyph-name="Icircumflex" horiz-adv-x="217" d="M213 770L143 875H73L3 770H56L108 833L161 770H213ZM152 0V700H65V0H152Z" />
<glyph unicode="&#xcf;" glyph-name="Idieresis" horiz-adv-x="217" d="M240 814Q240 832 227 844T196 857Q177 857 165 845T152 814Q152 795 164 783T196 770Q214 770 227 782T240 814ZM65 814Q65 832 52 844T21 857Q2 857 -10 845T-23 814Q-23 795 -11 783T21
770Q39 770 52 782T65 814ZM152 0V700H65V0H152Z" />
<glyph unicode="&#xd0;" glyph-name="Eth" horiz-adv-x="799" d="M743 350Q743 494 640 597T393 700H130V394H43V324H130V0H393Q536 0 640 102Q743 205 743 350ZM655 350Q655 241 578 164T393 87H218V324H393V394H218V612H393Q502 612 578 535Q655 459 655 350Z" />
<glyph unicode="&#xd1;" glyph-name="Ntilde" horiz-adv-x="689" d="M478 847L430 873Q418 831 400 831Q380 831 340 854Q304 878 282 878Q234 878 213 801L262 774Q272 816 291 816Q312 816 350 793T409 770Q456 770 478 847ZM625 0V700H537V157L152 700H65V0H152V542L537
0H625Z" />
<glyph unicode="&#xd2;" glyph-name="Ograve" horiz-adv-x="821" d="M437 770L384 875H297L384 770H437ZM778 350Q778 502 670 610Q563 717 410 717Q257 717 150 610Q43 501 43 350Q43 199 150 90Q258 -18 410 -18Q562 -18 670 90T778 350ZM690 350Q690 234 608
152T410 70Q295 70 213 152Q130 234 130 350Q130 466 213 548Q295 630 410 630Q526 630 608 548T690 350Z" />
<glyph unicode="&#xd3;" glyph-name="Oacute" horiz-adv-x="821" d="M524 875H437L384 770H437L524 875ZM778 350Q778 502 670 610Q563 717 410 717Q257 717 150 610Q43 501 43 350Q43 199 150 90Q258 -18 410 -18Q562 -18 670 90T778 350ZM690 350Q690 234 608
152T410 70Q295 70 213 152Q130 234 130 350Q130 466 213 548Q295 630 410 630Q526 630 608 548T690 350Z" />
<glyph unicode="&#xd4;" glyph-name="Ocircumflex" horiz-adv-x="821" d="M515 770L445 875H375L305 770H358L410 833L463 770H515ZM778 350Q778 502 670 610Q563 717 410 717Q257 717 150 610Q43 501 43 350Q43 199 150 90Q258 -18 410 -18Q562 -18 670 90T778
350ZM690 350Q690 234 608 152T410 70Q295 70 213 152Q130 234 130 350Q130 466 213 548Q295 630 410 630Q526 630 608 548T690 350Z" />
<glyph unicode="&#xd5;" glyph-name="Otilde" horiz-adv-x="821" d="M543 847L495 873Q483 831 465 831Q444 831 406 854Q368 878 347 878Q301 878 278 801L327 774Q339 816 357 816Q378 816 416 793T475 770Q521 770 543 847ZM778 350Q778 502 670 610Q563 717
410 717Q257 717 150 610Q43 501 43 350Q43 199 150 90Q258 -18 410 -18Q562 -18 670 90T778 350ZM690 350Q690 234 608 152T410 70Q295 70 213 152Q130 234 130 350Q130 466 213 548Q295 630 410 630Q526 630 608 548T690 350Z" />
<glyph unicode="&#xd6;" glyph-name="Odieresis" horiz-adv-x="821" d="M542 814Q542 832 529 844T498 857Q479 857 467 845T454 814Q454 795 466 783T498 770Q516 770 529 782T542 814ZM367 814Q367 832 354 844T323 857Q304 857 292 845T279 814Q279 795 291
783T323 770Q341 770 354 782T367 814ZM778 350Q778 502 670 610Q563 717 410 717Q257 717 150 610Q43 501 43 350Q43 199 150 90Q258 -18 410 -18Q562 -18 670 90T778 350ZM690 350Q690 234 608 152T410 70Q295 70 213 152Q130 234 130 350Q130 466 213 548Q295
630 410 630Q526 630 608 548T690 350Z" />
<glyph unicode="&#xd7;" glyph-name="multiply" horiz-adv-x="476" d="M411 139L288 262L411 386L361 436L238 312L115 436L65 386L188 262L65 139L115 89L238 213L361 89L411 139Z" />
<glyph unicode="&#xd8;" glyph-name="Oslash" horiz-adv-x="821" d="M800 674L773 700L671 608Q562 717 410 717Q257 717 150 610Q43 501 43 350Q43 219 125 119L21 26L47 0L150 92Q258 -18 410 -18Q562 -18 670 90T778 350Q778 481 696 581L800 674ZM606 550L190
178Q130 253 130 350Q130 466 213 548Q295 630 410 630Q526 630 606 550ZM690 350Q690 234 608 152T410 70Q295 70 214 150L631 522Q690 446 690 350Z" />
<glyph unicode="&#xd9;" glyph-name="Ugrave" horiz-adv-x="672" d="M362 770L310 875H222L310 770H362ZM616 262V700H528V262Q528 184 472 126Q416 70 336 70Q255 70 199 126Q143 184 143 262V700H56V262Q56 147 138 65Q221 -18 336 -18Q451 -18 534 65Q616 147
616 262Z" />
<glyph unicode="&#xda;" glyph-name="Uacute" horiz-adv-x="672" d="M450 875H362L310 770H362L450 875ZM616 262V700H528V262Q528 184 472 126Q416 70 336 70Q255 70 199 126Q143 184 143 262V700H56V262Q56 147 138 65Q221 -18 336 -18Q451 -18 534 65Q616 147
616 262Z" />
<glyph unicode="&#xdb;" glyph-name="Ucircumflex" horiz-adv-x="672" d="M441 770L371 875H301L231 770H283L336 833L388 770H441ZM616 262V700H528V262Q528 184 472 126Q416 70 336 70Q255 70 199 126Q143 184 143 262V700H56V262Q56 147 138 65Q221 -18 336
-18Q451 -18 534 65Q616 147 616 262Z" />
<glyph unicode="&#xdc;" glyph-name="Udieresis" horiz-adv-x="672" d="M467 814Q467 832 455 844T423 857Q405 857 393 845T380 814Q380 795 392 783T423 770Q442 770 454 782T467 814ZM292 814Q292 832 280 844T248 857Q230 857 218 845T205 814Q205 795 217
783T248 770Q267 770 279 782T292 814ZM616 262V700H528V262Q528 184 472 126Q416 70 336 70Q255 70 199 126Q143 184 143 262V700H56V262Q56 147 138 65Q221 -18 336 -18Q451 -18 534 65Q616 147 616 262Z" />
<glyph unicode="&#xdd;" glyph-name="Yacute" horiz-adv-x="644" d="M436 875H348L296 770H348L436 875ZM623 700H514L322 427L129 700H21L278 335V0H366V335L623 700Z" />
<glyph unicode="&#xde;" glyph-name="Thorn" horiz-adv-x="615" d="M581 350Q581 434 514 493Q448 547 362 547H152V700H65V0H152V153H362Q450 153 514 208Q581 265 581 350ZM493 350Q493 300 451 269Q414 241 362 241H152V459H362Q415 459 451 430Q493 398 493 350Z" />
<glyph unicode="&#xdf;" glyph-name="germandbls" horiz-adv-x="646" d="M590 210Q590 274 551 324Q517 368 453 394Q555 434 555 534Q555 628 478 676Q413 717 314 717Q204 717 133 631Q65 550 65 437V-88H152V437Q152 513 195 569Q241 630 314 630Q467 630 467
534Q467 486 409 459Q365 437 310 437H257V350H310Q381 350 437 316Q502 277 502 210Q502 140 438 101Q386 70 310 70Q275 70 240 78L219 -6Q264 -18 310 -18Q422 -18 501 38Q590 101 590 210Z" />
<glyph unicode="&#xe0;" glyph-name="agrave" horiz-adv-x="580" d="M313 693L266 787H187L266 693H313ZM562 0L332 630H248L19 0H102L154 142H425L477 0H562ZM397 220H183L290 515L397 220Z" />
<glyph unicode="&#xe1;" glyph-name="aacute" horiz-adv-x="580" d="M392 787H313L266 693H313L392 787ZM562 0L332 630H248L19 0H102L154 142H425L477 0H562ZM397 220H183L290 515L397 220Z" />
<glyph unicode="&#xe2;" glyph-name="acircumflex" horiz-adv-x="580" d="M384 693L321 787H258L195 693H242L290 750L337 693H384ZM562 0L332 630H248L19 0H102L154 142H425L477 0H562ZM397 220H183L290 515L397 220Z" />
<glyph unicode="&#xe3;" glyph-name="atilde" horiz-adv-x="580" d="M409 762L366 786Q356 748 339 748Q321 748 286 768Q252 790 233 790Q192 790 171 720L215 696Q225 735 241 735Q261 735 295 713Q312 703 324 698T348 693Q389 693 409 762ZM562 0L332 630H248L19
0H102L154 142H425L477 0H562ZM397 220H183L290 515L397 220Z" />
<glyph unicode="&#xe4;" glyph-name="adieresis" horiz-adv-x="580" d="M409 732Q409 749 398 760T369 772Q352 772 341 761T330 732Q330 715 341 704T369 693Q386 693 397 704T409 732ZM251 732Q251 749 240 760T212 772Q195 772 184 761T172 732Q172 715 183
704T212 693Q229 693 240 704T251 732ZM562 0L332 630H248L19 0H102L154 142H425L477 0H562ZM397 220H183L290 515L397 220Z" />
<glyph unicode="&#xe5;" glyph-name="aring" horiz-adv-x="580" d="M562 0L339 613Q376 640 376 685Q376 721 350 745Q326 772 290 772Q255 772 228 745Q203 720 203 685Q203 639 241 612L19 0H102L154 142H425L477 0H562ZM345 685Q345 662 329 646T290 630Q267
630 251 646T234 685Q234 708 250 724T290 740Q313 740 329 724T345 685ZM397 220H183L290 515L397 220Z" />
<glyph unicode="&#xe6;" glyph-name="ae" horiz-adv-x="898" d="M839 0V79H556V276H760V354H556V551H839V630H477V232L332 630H248L19 0H102L154 142H425L477 0H839ZM397 220H183L290 515L397 220Z" />
<glyph unicode="&#xe7;" glyph-name="ccedilla" horiz-adv-x="654" d="M603 81L547 136Q474 63 369 63Q265 63 192 137Q117 210 117 315Q117 419 192 493Q266 567 369 567Q472 567 547 494L603 549Q506 646 369 646Q232 646 136 548Q38 452 38 315Q38 188 123
94Q209 -1 334 -14L322 -71H346Q362 -71 373 -82T385 -110Q385 -126 374 -138T346 -150H290L283 -173H346Q372 -173 390 -155T409 -110Q409 -88 395 -71T358 -49L366 -16Q504 -18 603 81Z" />
<glyph unicode="&#xe8;" glyph-name="egrave" horiz-adv-x="557" d="M303 693L255 787H177L255 693H303ZM500 0V79H137V276H421V354H137V551H500V630H59V0H500Z" />
<glyph unicode="&#xe9;" glyph-name="eacute" horiz-adv-x="557" d="M381 787H303L255 693H303L381 787ZM500 0V79H137V276H421V354H137V551H500V630H59V0H500Z" />
<glyph unicode="&#xea;" glyph-name="ecircumflex" horiz-adv-x="557" d="M374 693L311 787H248L185 693H232L279 750L326 693H374ZM500 0V79H137V276H421V354H137V551H500V630H59V0H500Z" />
<glyph unicode="&#xeb;" glyph-name="edieresis" horiz-adv-x="557" d="M397 732Q397 749 386 760T358 772Q341 772 330 761T318 732Q318 715 329 704T358 693Q375 693 386 704T397 732ZM240 732Q240 749 229 760T200 772Q183 772 172 761T161 732Q161 715 172
704T200 693Q217 693 228 704T240 732ZM500 0V79H137V276H421V354H137V551H500V630H59V0H500Z" />
<glyph unicode="&#xec;" glyph-name="igrave" horiz-adv-x="195" d="M122 693L74 787H-4L74 693H122ZM137 0V630H59V0H137Z" />
<glyph unicode="&#xed;" glyph-name="iacute" horiz-adv-x="195" d="M200 787H122L74 693H122L200 787ZM137 0V630H59V0H137Z" />
<glyph unicode="&#xee;" glyph-name="icircumflex" horiz-adv-x="195" d="M192 693L129 787H66L3 693H51L98 750L145 693H192ZM137 0V630H59V0H137Z" />
<glyph unicode="&#xef;" glyph-name="idieresis" horiz-adv-x="195" d="M216 732Q216 749 205 760T177 772Q160 772 149 761T137 732Q137 715 148 704T177 693Q194 693 205 704T216 732ZM59 732Q59 749 48 760T19 772Q2 772 -9 761T-20 732Q-20 715 -9 704T19
693Q36 693 47 704T59 732ZM137 0V630H59V0H137Z" />
<glyph unicode="&#xf0;" glyph-name="eth" horiz-adv-x="719" d="M668 315Q668 446 576 537Q483 630 353 630H117V354H38V291H117V0H353Q482 0 576 92Q668 184 668 315ZM590 315Q590 217 521 148T353 79H196V291H353V354H196V551H353Q450 551 521 482Q590 413 590 315Z" />
<glyph unicode="&#xf1;" glyph-name="ntilde" horiz-adv-x="620" d="M430 762L387 786Q377 748 360 748Q341 748 306 768Q274 790 254 790Q211 790 192 720L235 696Q245 735 262 735Q283 735 315 713Q350 693 368 693Q409 693 430 762ZM563 0V630H484V142L137
630H59V0H137V488L484 0H563Z" />
<glyph unicode="&#xf2;" glyph-name="ograve" horiz-adv-x="738" d="M393 693L346 787H267L346 693H393ZM700 315Q700 452 603 549T369 646Q233 646 136 549Q38 451 38 315Q38 177 136 81Q233 -16 369 -16Q506 -16 603 81Q700 177 700 315ZM621 315Q621 210 547
137Q474 63 369 63Q265 63 192 137Q117 210 117 315Q117 419 192 493Q266 567 369 567Q473 567 547 493Q621 420 621 315Z" />
<glyph unicode="&#xf3;" glyph-name="oacute" horiz-adv-x="738" d="M472 787H393L346 693H393L472 787ZM700 315Q700 452 603 549T369 646Q233 646 136 549Q38 451 38 315Q38 177 136 81Q233 -16 369 -16Q506 -16 603 81Q700 177 700 315ZM621 315Q621 210 547
137Q474 63 369 63Q265 63 192 137Q117 210 117 315Q117 419 192 493Q266 567 369 567Q473 567 547 493Q621 420 621 315Z" />
<glyph unicode="&#xf4;" glyph-name="ocircumflex" horiz-adv-x="738" d="M464 693L401 787H338L275 693H322L369 750L416 693H464ZM700 315Q700 452 603 549T369 646Q233 646 136 549Q38 451 38 315Q38 177 136 81Q233 -16 369 -16Q506 -16 603 81Q700 177 700
315ZM621 315Q621 210 547 137Q474 63 369 63Q265 63 192 137Q117 210 117 315Q117 419 192 493Q266 567 369 567Q473 567 547 493Q621 420 621 315Z" />
<glyph unicode="&#xf5;" glyph-name="otilde" horiz-adv-x="738" d="M489 762L445 786Q435 748 419 748Q400 748 366 768Q332 790 312 790Q269 790 250 720L295 696Q305 735 321 735Q342 735 374 713Q409 693 428 693Q469 693 489 762ZM700 315Q700 452 603 549T369
646Q233 646 136 549Q38 451 38 315Q38 177 136 81Q233 -16 369 -16Q506 -16 603 81Q700 177 700 315ZM621 315Q621 210 547 137Q474 63 369 63Q265 63 192 137Q117 210 117 315Q117 419 192 493Q266 567 369 567Q473 567 547 493Q621 420 621 315Z" />
<glyph unicode="&#xf6;" glyph-name="odieresis" horiz-adv-x="738" d="M487 732Q487 749 476 760T448 772Q431 772 420 761T409 732Q409 715 420 704T448 693Q465 693 476 704T487 732ZM330 732Q330 749 319 760T290 772Q274 772 263 761T251 732Q251 715 262
704T290 693Q307 693 318 704T330 732ZM700 315Q700 452 603 549T369 646Q233 646 136 549Q38 451 38 315Q38 177 136 81Q233 -16 369 -16Q506 -16 603 81Q700 177 700 315ZM621 315Q621 210 547 137Q474 63 369 63Q265 63 192 137Q117 210 117 315Q117 419 192
493Q266 567 369 567Q473 567 547 493Q621 420 621 315Z" />
<glyph unicode="&#xf7;" glyph-name="divide" horiz-adv-x="479" d="M301 464Q301 490 284 507T240 525Q214 525 196 508T178 464Q178 438 196 420T240 402Q266 402 283 420T301 464ZM415 227V297H65V227H415ZM301 61Q301 87 284 104T240 122Q214 122 196 105T178
61Q178 35 196 18T240 0Q266 0 283 17T301 61Z" />
<glyph unicode="&#xf8;" glyph-name="oslash" horiz-adv-x="738" d="M720 606L696 630L604 547Q505 646 369 646Q233 646 136 549Q38 451 38 315Q38 198 113 107L19 24L43 0L135 82Q233 -16 369 -16Q506 -16 603 81Q700 177 700 315Q700 431 626 523L720 606ZM546
495L171 160Q145 195 131 233T117 315Q117 419 192 493Q266 567 369 567Q472 567 546 495ZM621 315Q621 210 547 137Q474 63 369 63Q265 63 192 135L568 470Q621 400 621 315Z" />
<glyph unicode="&#xf9;" glyph-name="ugrave" horiz-adv-x="605" d="M326 693L279 787H200L279 693H326ZM555 236V630H476V236Q476 164 424 114Q373 63 303 63Q230 63 179 114Q129 163 129 236V630H51V236Q51 131 124 59Q199 -16 303 -16Q405 -16 480 59Q555 132
555 236Z" />
<glyph unicode="&#xfa;" glyph-name="uacute" horiz-adv-x="605" d="M405 787H326L279 693H326L405 787ZM555 236V630H476V236Q476 164 424 114Q373 63 303 63Q230 63 179 114Q129 163 129 236V630H51V236Q51 131 124 59Q199 -16 303 -16Q405 -16 480 59Q555 132
555 236Z" />
<glyph unicode="&#xfb;" glyph-name="ucircumflex" horiz-adv-x="605" d="M397 693L334 787H271L208 693H255L303 750L350 693H397ZM555 236V630H476V236Q476 164 424 114Q373 63 303 63Q230 63 179 114Q129 163 129 236V630H51V236Q51 131 124 59Q199 -16 303
-16Q405 -16 480 59Q555 132 555 236Z" />
<glyph unicode="&#xfc;" glyph-name="udieresis" horiz-adv-x="605" d="M421 732Q421 749 410 760T381 772Q364 772 353 761T342 732Q342 715 353 704T381 693Q398 693 409 704T421 732ZM263 732Q263 749 252 760T224 772Q207 772 196 761T185 732Q185 715 196
704T224 693Q241 693 252 704T263 732ZM555 236V630H476V236Q476 164 424 114Q373 63 303 63Q230 63 179 114Q129 163 129 236V630H51V236Q51 131 124 59Q199 -16 303 -16Q405 -16 480 59Q555 132 555 236Z" />
<glyph unicode="&#xfd;" glyph-name="yacute" horiz-adv-x="579" d="M392 787H313L266 693H313L392 787ZM561 630H463L290 384L116 630H19L250 302V0H329V302L561 630Z" />
<glyph unicode="&#xfe;" glyph-name="thorn" horiz-adv-x="554" d="M523 315Q523 391 462 444Q403 492 326 492H137V630H59V0H137V137H326Q402 137 463 187Q523 238 523 315ZM444 315Q444 272 406 242Q371 216 326 216H137V413H326Q372 413 406 388Q444 358 444 315Z" />
<glyph unicode="&#xff;" glyph-name="ydieresis" horiz-adv-x="579" d="M408 732Q408 749 397 760T368 772Q351 772 340 761T329 732Q329 715 340 704T368 693Q385 693 396 704T408 732ZM250 732Q250 749 239 760T211 772Q194 772 183 761T171 732Q171 715 182
704T211 693Q228 693 239 704T250 732ZM561 630H463L290 384L116 630H19L250 302V0H329V302L561 630Z" />
<glyph unicode="&#x152;" glyph-name="OE" horiz-adv-x="1158" d="M1093 0V87H778V306H1005V394H778V612H1093V700H690V588Q582 717 410 717Q257 717 150 610Q43 501 43 350Q43 199 150 90Q258 -18 410 -18Q581 -18 690 112V0H1093ZM690 350Q690 234 608 152T410
70Q295 70 213 152Q130 234 130 350Q130 466 213 548Q295 630 410 630Q526 630 608 548T690 350Z" />
<glyph unicode="&#x153;" glyph-name="oe" horiz-adv-x="1042" d="M983 0V79H700V276H905V354H700V551H983V630H621V529Q522 646 369 646Q233 646 136 549Q38 451 38 315Q38 177 136 81Q233 -16 369 -16Q522 -16 621 101V0H983ZM621 315Q621 210 547 137Q474 63
369 63Q265 63 192 137Q117 210 117 315Q117 419 192 493Q266 567 369 567Q473 567 547 493Q621 420 621 315Z" />
<glyph unicode="&#x160;" glyph-name="Scaron" horiz-adv-x="672" d="M441 875H388L336 812L283 875H231L301 770H371L441 875ZM616 189Q616 313 498 358L279 403Q161 431 161 513Q161 572 222 605Q247 617 275 623T336 630Q400 630 450 604Q511 573 511 513H598Q598
608 512 666Q435 717 336 717Q236 717 160 666Q73 607 73 513Q73 385 192 340Q246 329 301 318T410 296Q528 269 528 189Q528 125 460 94Q409 70 336 70Q264 70 212 94Q143 125 143 189H56Q56 90 150 32Q232 -18 336 -18Q440 -18 521 31Q616 91 616 189Z" />
<glyph unicode="&#x161;" glyph-name="scaron" horiz-adv-x="605" d="M397 787H350L303 731L255 787H208L271 693H334L397 787ZM555 170Q555 281 448 322Q398 332 350 342T251 363Q145 388 145 461Q145 514 200 544Q244 567 303 567Q360 567 405 543Q460 515 460
461H539Q539 547 460 599Q392 646 303 646Q214 646 144 599Q66 546 66 461Q66 346 172 306Q222 296 271 286T369 266Q476 242 476 170Q476 113 414 84Q367 63 303 63Q237 63 191 84Q129 113 129 170H51Q51 81 136 29Q208 -16 303 -16Q396 -16 469 28Q555 82 555
170Z" />
<glyph unicode="&#x178;" glyph-name="Ydieresis" horiz-adv-x="644" d="M453 814Q453 832 441 844T409 857Q391 857 379 845T366 814Q366 795 378 783T409 770Q428 770 440 782T453 814ZM278 814Q278 832 266 844T234 857Q216 857 204 845T191 814Q191 795 203
783T234 770Q253 770 265 782T278 814ZM623 700H514L322 427L129 700H21L278 335V0H366V335L623 700Z" />
<glyph unicode="&#x17d;" glyph-name="Zcaron" horiz-adv-x="672" d="M441 875H388L336 812L283 875H231L301 770H371L441 875ZM616 0V87H175L616 612V700H56V612H497L56 87V0H616Z" />
<glyph unicode="&#x17e;" glyph-name="zcaron" horiz-adv-x="605" d="M397 787H350L303 731L255 787H208L271 693H334L397 787ZM555 0V79H157L555 551V630H51V551H447L51 79V0H555Z" />
<glyph unicode="&#x192;" glyph-name="florin" horiz-adv-x="518" d="M475 700Q447 717 410 717Q355 717 312 678Q269 641 261 586L234 394H146L134 306H221L170 -61Q167 -79 152 -92T120 -105Q105 -105 94 -95L43 -174Q71 -193 108 -193Q161 -193 206 -153Q250
-114 257 -61L309 306H396L409 394H321L348 586Q351 604 365 617T398 631Q411 631 424 621L475 700Z" />
<glyph unicode="&#x2c6;" glyph-name="circumflex" horiz-adv-x="339" d="M275 595L205 700H135L65 595H117L170 658L222 595H275Z" />
<glyph unicode="&#x2c7;" glyph-name="caron" horiz-adv-x="339" d="M275 700H222L170 637L117 700H65L135 595H205L275 700Z" />
<glyph unicode="&#x2c9;" glyph-name="overscore" horiz-adv-x="436" d="M436 630V700H0V630H436Z" />
<glyph unicode="&#x2d8;" glyph-name="breve" horiz-adv-x="1029" d="M923 571V699H653V498H792V451H835V589H792V542H698V655H874L881 571H923ZM964 98Q964 170 890 194Q941 219 941 275Q941 292 936 304T923 328H926V456H883V371H613V542H403V656H451V700H73L65
604H109V656H213V371H86V0H836Q887 0 922 24Q964 51 964 98ZM917 105Q917 65 878 52Q867 47 849 45T807 43H684L566 328H808Q843 328 864 317Q894 303 894 272Q894 246 868 228Q857 221 844 217T816 213H713V170H807Q917 170 917 105ZM635 44H130V328H258V656H356V499H568V372H520V328H521L590
158H415L396 115H606L635 44ZM412 211V373H356V211H412Z" />
<glyph unicode="&#x2da;" glyph-name="ring" horiz-adv-x="322" d="M257 604Q257 644 229 672T161 700Q121 700 93 672T65 604Q65 563 93 535T161 507Q201 507 229 535T257 604ZM222 604Q222 578 205 560T161 542Q135 542 118 560T100 604Q100 630 117 647T161
665Q187 665 204 648T222 604Z" />
<glyph unicode="&#x2dc;" glyph-name="tilde" horiz-adv-x="395" d="M330 669L282 696Q270 654 252 654Q230 654 192 676Q156 700 134 700Q87 700 65 623L114 597Q126 639 143 639Q166 639 202 615Q240 592 262 592Q307 592 330 669Z" />
<glyph unicode="&#x37e;" glyph-name="semicolon" horiz-adv-x="252" d="M187 376Q187 402 170 419T126 437Q100 437 83 420T65 376Q65 350 82 333T126 315Q152 315 169 332T187 376ZM187 122H65L103 -117Q108 -140 126 -140Q144 -140 149 -117L187 122Z" />
<glyph unicode="&#x3bc;" glyph-name="mu" horiz-adv-x="584" d="M520 0V525H432V210Q432 152 391 111T292 70Q234 70 193 111T152 210V525H65V-175H152V59Q202 -18 292 -18Q384 -18 432 59V0H520Z" />
<glyph unicode="&#x2013;" glyph-name="endash" horiz-adv-x="392" d="M327 227V297H65V227H327Z" />
<glyph unicode="&#x2014;" glyph-name="emdash" horiz-adv-x="567" d="M502 227V297H65V227H502Z" />
<glyph unicode="&#x2018;" glyph-name="quoteleft" horiz-adv-x="252" d="M187 455V577H100Q100 614 115 639T152 665V700Q117 700 90 664Q65 629 65 577V455H187Z" />
<glyph unicode="&#x2019;" glyph-name="quoteright" horiz-adv-x="252" d="M187 577V700H65V577H152Q152 541 137 516T100 490V455Q135 455 161 491Q187 526 187 577Z" />
<glyph unicode="&#x201a;" glyph-name="quotesinglbase" horiz-adv-x="252" d="M187 0V122H65V0H152Q152 -36 137 -62T100 -88V-123Q134 -123 161 -87Q187 -50 187 0Z" />
<glyph unicode="&#x201c;" glyph-name="quotedblleft" horiz-adv-x="444" d="M380 455V577H292Q292 614 307 639T345 665V700Q308 700 283 664Q257 627 257 577V455H380ZM187 455V577H100Q100 614 115 639T152 665V700Q117 700 90 664Q65 629 65 577V455H187Z" />
<glyph unicode="&#x201d;" glyph-name="quotedblright" horiz-adv-x="444" d="M380 577V700H257V577H345Q345 541 330 516T292 490V455Q329 455 353 491Q380 525 380 577ZM187 577V700H65V577H152Q152 541 137 516T100 490V455Q135 455 161 491Q187 526 187 577Z" />
<glyph unicode="&#x201e;" glyph-name="quotedblbase" horiz-adv-x="444" d="M380 0V122H257V0H345Q345 -36 330 -62T292 -88V-123Q328 -123 353 -87Q380 -51 380 0ZM187 0V122H65V0H152Q152 -36 137 -62T100 -88V-123Q134 -123 161 -87Q187 -50 187 0Z" />
<glyph unicode="&#x2020;" glyph-name="dagger" horiz-adv-x="488" d="M423 437V525H288V700H200V525H65V437H200V-175H288V437H423Z" />
<glyph unicode="&#x2021;" glyph-name="daggerdbl" horiz-adv-x="488" d="M423 175V262H288V437H423V525H288V700H200V525H65V437H200V262H65V175H200V-175H288V175H423Z" />
<glyph unicode="&#x2022;" glyph-name="bullet" horiz-adv-x="444" d="M380 262Q380 327 333 374Q287 420 222 420Q159 420 111 374Q65 328 65 262Q65 197 111 151Q159 105 222 105Q288 105 333 150Q380 197 380 262Z" />
<glyph unicode="&#x2026;" glyph-name="ellipsis" horiz-adv-x="707" d="M642 61Q642 87 625 104T581 122Q555 122 538 105T520 61Q520 35 537 18T581 0Q607 0 624 17T642 61ZM415 61Q415 87 397 104T353 122Q327 122 310 105T292 61Q292 35 309 18T353 0Q379
0 397 17T415 61ZM187 61Q187 87 170 104T126 122Q100 122 83 105T65 61Q65 35 82 18T126 0Q152 0 169 17T187 61Z" />
<glyph unicode="&#x2030;" glyph-name="perthousand" horiz-adv-x="1276" d="M1211 157Q1211 229 1159 281Q1108 332 1036 332Q963 332 912 281T861 157Q861 84 912 33T1036 -18Q1108 -18 1159 33Q1211 85 1211 157ZM808 157Q808 230 757 281T633 332Q560 332
509 281T458 157Q458 84 509 33T633 -18Q706 -18 757 33T808 157ZM782 700H695L91 0H178L782 700ZM415 542Q415 614 363 666Q312 717 240 717Q167 717 115 666Q65 616 65 542Q65 468 115 418Q167 367 240 367Q312 367 363 418Q415 470 415 542ZM1141 157Q1141 114
1110 83T1036 52Q993 52 962 83Q931 113 931 157Q931 202 962 232Q992 262 1036 262Q1080 262 1110 232Q1141 201 1141 157ZM738 157Q738 113 708 83Q677 52 633 52Q590 52 559 83T528 157Q528 201 559 232Q589 262 633 262Q678 262 708 232T738 157ZM345 542Q345
499 314 468T240 437Q198 437 165 468Q135 499 135 542Q135 586 165 616Q196 647 240 647Q284 647 314 617Q345 586 345 542Z" />
<glyph unicode="&#x2039;" glyph-name="guilsinglleft" horiz-adv-x="374" d="M309 189L139 304L309 418L270 477L65 339V269L270 130L309 189Z" />
<glyph unicode="&#x203a;" glyph-name="guilsinglright" horiz-adv-x="374" d="M309 269V339L103 477L65 418L234 304L65 189L103 130L309 269Z" />
<glyph unicode="&#x20ac;" glyph-name="Euro" horiz-adv-x="797" d="M732 647Q637 717 515 717Q396 717 299 647Q204 577 166 464H91L65 394H150Q149 383 149 372T148 350Q148 339 148 328T150 306H91L65 236H166Q203 124 299 52Q398 -18 515 -18Q614 -18 701
33V140Q619 70 515 70Q432 70 363 115Q294 161 260 236H583L608 306H239Q235 326 235 350Q235 374 239 394H640L666 464H260Q295 539 363 584Q431 630 515 630Q619 630 701 560L732 647Z" />
<glyph unicode="&#x2122;" glyph-name="trademark" horiz-adv-x="766" d="M702 332V700H617L519 430L421 700H65V639H178V332H240V639H336V332H397V586L489 332H549L640 585V332H702Z" />
<glyph unicode="&#x2212;" glyph-name="minus" horiz-adv-x="479" d="M415 227V297H65V227H415Z" />
</font>
</defs>
</svg>
