<?xml version="1.0" standalone="no"?> <!DOCTYPE svg PUBLIC "-//W3C//DTD SVG 1.0//EN" "http://www.w3.org/TR/2001/REC-SVG-20010904/DTD/svg10.dtd" > <svg xmlns="http://www.w3.org/2000/svg" width="100%" height="100%">
<defs >
<font id="MarkerSD" horiz-adv-x="505" ><font-face
    font-family="Marker SD"
    units-per-em="1000"
    panose-1="2 0 4 0 0 0 0 0 0 0"
    ascent="1027"
    descent="-306"
    alphabetic="0" />
<missing-glyph horiz-adv-x="200" d="M0 708H200V0H0V708ZM25 25H175V683H25V25Z" />
<glyph unicode=" " glyph-name="space" horiz-adv-x="400" />
<glyph unicode="!" glyph-name="exclam" horiz-adv-x="216" d="M141 637Q141 636 132 545Q123 448 121 408Q118 297 115 186Q113 127 87 127Q25 127 25 287Q25 354 41 497Q63 698 95 698Q117 698 130 677Q141 660 141 637ZM127 26Q127 -8 97 -8Q71 -8 53 17Q39
37 39 54Q39 62 46 72Q55 86 69 86Q89 86 110 60Q127 38 127 26Z" />
<glyph unicode="&quot;" glyph-name="quotedbl" horiz-adv-x="204" d="M126 670Q129 654 123 599Q117 539 106 536Q84 532 73 583Q69 605 70 650Q71 704 85 707Q98 710 112 695Q123 682 126 670ZM56 666Q57 662 57 649T55 612Q50 558 41 555Q40 554 36 554Q27
554 15 571Q5 584 3 594Q1 603 1 617T1 652Q4 699 16 702Q29 704 41 692T56 666Z" />
<glyph unicode="#" glyph-name="numbersign" horiz-adv-x="576" d="M472 325Q415 324 379 315Q375 297 368 254Q380 254 397 256T420 258Q432 258 446 240T460 212Q460 196 418 191Q367 184 355 175T330 79Q320 -3 311 -3Q272 -2 272 60Q272 70 273 82T274 95T278
123Q282 147 280 151Q268 153 247 145Q231 139 214 133Q205 132 195 131Q182 129 178 123T168 77T164 16T148 -6Q119 -6 119 52Q119 70 122 93T125 116Q74 103 72 103Q13 103 13 144Q13 164 31 175Q64 180 129 193Q129 206 132 217T136 240V251Q130 252 88 242T42
232Q25 232 13 248T3 289Q22 303 68 312Q138 326 146 329Q159 387 174 483Q182 529 193 530Q225 534 225 466Q225 458 219 415T213 358Q213 351 214 349Q221 350 269 356Q305 361 325 370Q330 373 338 450T359 527Q390 527 390 472Q390 457 388 431T385 396Q385
379 391 379Q393 379 430 384T471 390Q480 390 490 380T501 357Q501 338 472 325ZM311 264V297H292Q294 297 199 269Q196 248 192 210Q197 208 240 215Q287 224 309 234Q310 244 311 264Z" />
<glyph unicode="$" glyph-name="dollar" horiz-adv-x="623" d="M544 165Q540 123 494 80Q451 41 399 24Q354 10 327 9Q314 9 306 0Q299 -20 293 -40Q278 -79 265 -82Q258 -84 252 -84Q228 -84 223 -42T196 -1Q170 -2 154 -49T113 -97Q98 -97 82 -78T69 -49Q71
-45 82 -27Q89 -16 87 -1Q0 11 0 59Q0 68 3 77Q22 92 43 92Q49 92 105 77Q148 181 168 273Q130 285 104 315T81 381Q87 449 235 493Q239 528 243 565T267 618Q325 619 325 547Q325 534 323 520Q346 520 357 525Q372 532 383 534Q383 579 383 583Q387 603 411 609Q451
618 464 573Q465 569 456 525Q472 518 489 511Q507 499 502 473Q499 454 476 450Q460 448 443 447Q431 415 419 384Q405 342 403 309Q457 307 502 263T544 165ZM350 418Q349 426 349 439Q340 442 333 442Q305 442 293 398Q285 367 277 335Q312 326 310 326Q323
326 336 365Q348 397 350 418ZM480 188Q481 191 481 194Q481 211 440 222Q407 231 383 231Q379 211 359 159Q340 113 338 91Q396 106 422 121Q461 144 480 188ZM190 389Q162 389 164 357Q164 351 173 349Q183 345 193 350Q210 359 210 374Q210 389 190 389ZM305
250Q275 264 247 255Q244 242 222 173Q205 122 200 80Q203 80 221 79T242 77Q256 110 281 181Q304 245 305 250Z" />
<glyph unicode="%" glyph-name="percent" horiz-adv-x="594" d="M273 425Q273 396 220 364Q173 334 147 334Q144 334 122 333T95 332Q62 332 33 355Q0 380 0 415Q0 457 61 492Q112 521 149 521Q156 521 170 520T192 519Q226 519 251 486Q273 456 273 425ZM451
454Q451 439 295 248Q121 35 97 -2Q82 0 65 13T48 45Q48 67 222 278T420 490Q432 490 441 477T451 454ZM519 117Q519 73 453 33Q396 -2 360 -2Q320 -2 286 18Q243 43 243 86Q243 129 296 177T393 226Q426 226 472 187T519 117ZM213 448Q213 466 197 466Q159 466
116 439Q78 416 70 400Q88 394 94 394Q109 394 157 411Q213 430 213 448ZM451 139Q412 161 412 161Q385 161 349 120Q317 84 315 69L345 65Q378 72 412 92Q453 117 451 139Z" />
<glyph unicode="&amp;" glyph-name="ampersand" horiz-adv-x="671" d="M594 292Q584 282 501 275Q406 266 380 258Q437 208 437 151Q437 111 421 87Q430 79 446 76Q458 75 478 76Q505 77 506 77T525 82T545 88Q553 88 569 75T585 52Q585 39 552 29Q526 21 514
21Q459 21 466 20Q417 28 368 36Q286 -7 216 -7Q213 -7 186 -6T157 -5Q101 -5 58 18Q0 49 0 114Q0 157 25 195Q41 219 73 249Q99 273 99 280Q99 281 93 299T87 352Q87 431 158 481Q217 523 281 523Q310 523 339 498T368 440Q368 395 290 325Q300 320 302 320H382L551
335Q563 335 579 325T596 300Q596 296 594 292ZM310 450Q310 469 294 469Q245 469 201 442Q145 408 145 348Q145 335 149 313Q189 330 235 360Q310 411 310 450ZM382 156Q382 193 364 213Q339 235 314 256Q299 259 284 262Q258 269 246 296Q225 285 204 274Q167
253 167 243Q167 206 250 148Q326 94 350 94Q363 94 373 122Q382 145 382 156ZM286 67Q212 101 118 209Q93 192 75 160T57 102Q57 49 151 49Q153 49 184 48T218 47Q227 47 256 56Q282 65 286 67Z" />
<glyph unicode="&apos;" glyph-name="quotesingle" horiz-adv-x="147" d="M68 672Q72 648 66 596Q58 536 40 533Q13 528 4 578Q0 601 0 640Q0 703 19 707Q41 710 55 695Q65 685 68 672Z" />
<glyph unicode="(" glyph-name="parenleft" horiz-adv-x="312" d="M233 657Q192 585 151 513Q86 389 91 283Q96 186 119 102Q132 52 160 -16Q184 -72 187 -93Q188 -104 177 -111T159 -119Q89 -119 40 56Q0 197 0 313Q0 402 55 541Q117 696 178 702Q201 705 216
697Q237 686 233 657Z" />
<glyph unicode=")" glyph-name="parenright" horiz-adv-x="264" d="M-46 -93Q-4 -24 37 45Q102 166 96 281Q92 368 69 458Q56 510 27 590Q4 656 1 677Q-1 688 12 696Q21 703 29 703Q98 703 148 517Q187 370 188 260Q189 172 133 27Q71 -132 10 -139Q-13 -141 -29
-133Q-50 -122 -46 -93Z" />
<glyph unicode="*" glyph-name="asterisk" horiz-adv-x="347" d="M238 617Q238 605 204 572Q191 560 184 551Q189 551 194 551Q210 553 231 554Q244 553 258 545T271 526Q271 512 234 510H194Q205 499 221 486Q247 463 247 452Q247 438 227 434Q209 430 198 437Q192
441 162 469Q162 459 164 436Q165 414 163 405Q161 393 151 391Q139 389 127 398T113 419Q111 425 109 473Q95 461 72 441Q67 437 59 437Q39 437 33 444Q31 446 31 449Q31 460 62 492Q70 500 76 506Q57 508 26 510Q17 511 8 525Q0 536 1 540Q2 553 49 554Q66 554
78 554Q74 559 68 566Q43 595 43 610Q43 617 46 622T63 629Q76 629 82 625Q96 610 111 595Q112 602 113 610Q116 653 136 657Q143 658 152 650T164 634V591Q173 602 186 615Q201 630 221 630Q238 630 238 617Z" />
<glyph unicode="+" glyph-name="plus" horiz-adv-x="551" d="M476 289Q476 263 425 254Q418 253 329 245Q275 240 269 226Q257 194 242 74Q232 -8 201 -8Q178 -8 158 15T138 61Q138 57 160 195L155 215Q138 213 95 208Q59 204 54 204Q36 204 16 230Q0 252 0 261Q0
286 77 299Q171 315 175 318Q187 325 199 378Q216 450 224 471Q243 519 274 519Q288 519 304 499T320 464Q320 459 307 406T294 349Q294 335 304 333Q294 335 320 335Q324 335 356 338T392 342Q419 342 447 326T476 289Z" />
<glyph unicode="," glyph-name="comma" horiz-adv-x="157" d="M65 -41Q60 -51 42 -64T12 -78Q0 -78 0 -65Q0 -68 7 -53Q24 -22 24 3Q24 11 22 25T20 46Q21 50 39 60T65 67Q82 57 82 26Q82 -9 65 -41Z" />
<glyph unicode="-" glyph-name="hyphen" horiz-adv-x="596" d="M471 325Q471 284 352 284L115 277Q97 277 74 299T50 344Q50 370 139 381Q208 381 279 385T419 389Q434 389 454 362Q471 337 471 325Z" />
<glyph unicode="." glyph-name="period" horiz-adv-x="151" d="M66 14Q54 -4 34 -4Q0 -4 0 38Q0 57 13 73T45 89Q54 89 62 84Q76 74 76 49Q76 28 66 14Z" />
<glyph unicode="/" glyph-name="slash" horiz-adv-x="641" d="M566 638Q566 613 321 305Q74 -7 45 -7Q0 -7 0 28Q0 41 171 250Q357 478 384 521Q408 560 446 605Q502 670 530 670Q566 670 566 638Z" />
<glyph unicode="0" glyph-name="zero" horiz-adv-x="551" d="M474 314Q476 260 458 207Q436 144 392 104Q280 4 192 4H142Q110 4 58 48Q0 98 0 183Q0 197 3 207Q23 301 76 382Q140 481 233 521Q250 525 271 521Q470 452 474 314ZM400 332Q398 373 382 393Q374
403 333 433Q311 448 277 447Q204 443 140 345T79 151Q82 61 156 61Q228 61 309 123Q344 150 364 185Q366 190 390 242Q402 269 400 332Z" />
<glyph unicode="1" glyph-name="one" horiz-adv-x="135" d="M57 320L52 263Q53 253 52 199Q51 186 51 67Q51 64 53 50T56 26Q56 -5 24 -5Q0 -5 0 59Q0 71 1 88Q1 105 1 108Q3 336 6 373L13 445Q14 454 13 469Q11 489 11 494Q11 518 28 526Q60 512 60 392Q60 353 57 320Z" />
<glyph unicode="2" glyph-name="two" horiz-adv-x="544" d="M469 15Q469 6 462 0T446 -7Q450 -7 269 13L69 -7Q50 -10 30 3T10 30Q10 39 101 77Q212 123 271 174Q363 254 363 363Q363 397 344 430Q320 470 280 470Q231 470 169 446Q127 429 79 400Q38 376 38 376Q23
376 12 388T0 413Q0 453 108 493Q202 527 260 528Q331 528 378 464Q421 406 419 342Q418 277 369 201T257 84Q302 67 407 55Q469 47 469 15Z" />
<glyph unicode="3" glyph-name="three" horiz-adv-x="561" d="M484 137Q477 52 330 12Q245 -10 175 -10Q147 -10 118 -11T90 -13Q53 -13 57 33Q58 52 96 57Q121 57 145 57Q192 62 238 66Q317 75 363 93Q427 118 430 160Q433 191 355 217Q290 239 267 238L116 217Q103
220 93 240Q86 256 87 266Q88 280 158 293Q263 312 288 320Q359 342 362 378Q368 439 287 457Q256 464 180 464Q136 464 80 449T30 434Q17 434 8 451Q0 465 1 473Q3 504 88 518Q138 526 183 526Q431 526 416 351Q412 311 369 285Q374 275 402 262Q435 247 443 239Q466
220 477 187Q486 160 484 137Z" />
<glyph unicode="4" glyph-name="four" horiz-adv-x="442" d="M367 249Q367 231 349 227Q323 221 320 218Q320 172 318 81T280 -10Q243 -10 243 56L251 219Q240 226 190 226Q165 226 121 224T69 222Q0 222 0 303V490Q0 499 6 513Q14 531 25 531Q75 530 75 433Q75
420 74 395T73 357Q73 307 87 294Q154 294 181 293T231 291Q249 291 249 407T275 523Q293 523 307 501Q317 484 317 470Q313 436 315 382Q317 288 317 296Q354 293 362 282Q367 276 367 249Z" />
<glyph unicode="5" glyph-name="five" horiz-adv-x="435" d="M360 152Q360 93 301 45T180 -3H161Q118 -3 66 18Q0 45 0 86Q0 114 23 112Q33 110 72 86Q107 64 150 64Q203 64 247 93Q298 126 298 175Q298 215 253 242Q214 264 171 264Q140 264 97 246T55 228Q19
228 8 317L2 480Q2 509 82 516Q135 519 189 522L308 524Q321 519 336 500Q347 485 347 481Q347 457 319 457Q64 457 64 431L69 318Q94 322 155 327Q255 331 310 277Q360 229 360 152Z" />
<glyph unicode="6" glyph-name="six" horiz-adv-x="470" d="M395 151Q395 77 301 30Q230 -5 177 -5Q110 -5 58 34Q0 78 0 150Q0 218 61 313Q116 399 193 465T318 531Q329 531 340 513T352 486Q343 461 337 458Q197 387 140 296Q144 292 149 292Q152 292 158 294T167
297T191 299T214 302Q279 302 330 270Q395 228 395 151ZM333 182Q333 205 305 218Q283 228 261 228Q206 228 165 216T129 204Q126 204 113 212Q97 222 93 224Q60 171 60 141Q60 103 96 82Q125 66 166 66Q205 66 262 96Q333 133 333 182Z" />
<glyph unicode="7" glyph-name="seven" horiz-adv-x="465" d="M389 486Q327 394 237 248Q101 -18 86 -18Q70 -18 59 5Q51 23 52 31Q54 56 271 456Q258 461 249 460Q229 458 230 458Q184 458 112 459T37 460Q21 460 11 472T0 500Q0 508 3 515Q54 528 144 528Q170
528 234 527Q295 525 330 525Q346 525 368 512T389 486Z" />
<glyph unicode="8" glyph-name="eight" horiz-adv-x="515" d="M435 148Q429 76 322 28Q240 -8 181 -8Q109 -8 61 18Q0 52 6 118Q10 170 93 230Q22 264 22 329Q22 396 112 461Q198 521 267 521Q333 520 378 480T419 380Q413 310 314 251Q358 250 391 232Q440 205
435 148ZM365 395Q368 423 323 438Q285 451 253 447Q212 442 152 406Q79 363 80 320Q99 302 140 294Q169 289 182 290Q237 296 286 315Q361 345 365 395ZM358 152Q356 186 223 186Q161 186 131 173Q81 152 81 94Q81 62 184 62Q235 62 295 89Q361 118 358 152Z"
/>
<glyph unicode="9" glyph-name="nine" horiz-adv-x="433" d="M355 24Q352 -9 320 -6Q301 -5 298 96Q294 248 286 300Q202 262 175 264Q122 269 73 294Q0 333 6 396Q12 467 120 500Q200 525 265 519Q286 517 311 501Q343 480 354 449Q358 436 358 408Q358 386 355
342T352 286Q353 202 355 147T358 84Q358 63 355 24ZM294 431Q293 433 277 439T255 447Q243 448 229 448Q174 448 133 434Q83 416 84 384Q84 366 114 353Q140 341 168 338Q203 335 240 360Q282 387 294 431Z" />
<glyph unicode=":" glyph-name="colon" horiz-adv-x="151" d="M66 232Q54 214 34 214Q0 214 0 256Q0 275 13 291T45 308Q54 308 62 302Q76 292 76 268Q76 246 66 232ZM66 61Q54 43 34 43Q0 43 0 85Q0 104 13 120T45 136Q54 136 62 131Q76 121 76 96Q76 74 66 61Z" />
<glyph unicode=";" glyph-name="semicolon" horiz-adv-x="153" d="M69 241Q56 223 36 223Q3 223 3 265Q3 284 16 300T48 317Q57 317 64 312Q78 302 78 277Q78 255 69 241ZM56 21Q73 52 73 88Q73 119 55 128Q49 132 36 122T21 107Q20 100 22 88Q24 72 24 64Q24
40 8 8Q0 -6 0 -4Q0 -16 12 -16Q22 -16 36 -3T56 21Z" />
<glyph unicode="&lt;" glyph-name="less" horiz-adv-x="415" d="M337 468Q334 448 88 255Q113 225 161 186Q212 144 237 117Q267 99 296 80Q337 51 331 13Q327 -16 304 -11Q291 -9 201 62Q118 128 108 139Q74 167 40 196Q0 232 0 271Q0 279 1 286T150 410T309
525Q326 521 333 503T337 468Z" />
<glyph unicode="=" glyph-name="equal" horiz-adv-x="471" d="M388 363Q388 342 367 342Q364 342 338 338T308 333Q265 333 156 312T39 290Q25 290 13 301T0 324Q0 338 12 351Q30 353 145 373Q248 391 304 391Q309 391 323 392Q337 392 344 392Q388 392 388 363ZM375
203Q387 203 332 195L67 161Q4 163 4 203Q4 230 29 230Q31 230 38 228T50 225L292 251Q295 251 327 258T361 265Q375 265 385 252T396 224Q396 203 375 203Z" />
<glyph unicode="&gt;" glyph-name="greater" horiz-adv-x="414" d="M2 471Q0 487 7 505T31 528Q42 530 189 414T338 290T339 274Q339 235 299 199Q265 170 231 142Q221 131 138 65Q49 -6 35 -8Q12 -13 8 16Q2 54 43 83Q73 102 102 120Q127 147 178 189Q226 228
251 258Q5 451 2 471Z" />
<glyph unicode="?" glyph-name="question" horiz-adv-x="469" d="M394 544Q394 477 341 434Q326 423 242 378Q213 362 171 307Q147 277 144 249Q144 202 144 156Q141 91 112 92Q82 94 82 161Q82 155 84 198Q90 329 159 396Q182 418 284 473Q349 507 348 560Q348
584 316 610Q290 632 280 632Q238 635 212 635Q150 635 104 619Q72 608 48 588Q27 572 27 572Q16 572 8 588Q0 601 0 611Q0 657 78 680Q142 700 233 698Q284 697 333 660Q394 614 394 544ZM147 21Q147 -9 126 -9Q112 -9 101 13Q92 32 92 45Q92 75 115 75Q126 75
136 55T147 21Z" />
<glyph unicode="@" glyph-name="at" horiz-adv-x="618" d="M543 100Q543 75 455 36Q376 0 359 0Q188 3 111 41Q0 95 0 241Q0 365 93 450Q183 531 306 531Q400 531 449 478T495 332Q494 287 455 231Q410 168 360 168Q304 168 259 223Q237 210 214 197Q186 181 165
181Q145 181 122 199T99 237Q99 281 161 323Q215 360 251 360Q262 360 273 347T282 324Q304 301 311 256Q316 225 342 225Q432 226 436 368Q437 409 400 444T322 479Q213 479 139 409Q62 337 62 229Q62 144 127 101Q176 69 273 55Q306 50 327 53Q393 61 502 132Q521
131 532 120T543 100ZM227 272Q237 295 226 296Q213 298 193 285T167 258Q158 235 169 234Q176 232 199 247T227 272Z" />
<glyph unicode="A" glyph-name="A" horiz-adv-x="623" d="M251 402Q254 402 286 411Q307 417 320 425Q302 483 294 508Q264 447 251 402ZM548 24Q548 -7 521 -7Q495 -7 471 16Q458 28 416 140Q375 245 369 275Q368 283 358 308Q347 337 341 336Q253 311 214 294Q199
282 167 201Q127 97 108 62Q70 -9 35 -9Q0 -9 0 21Q0 44 98 259Q89 258 81 256Q60 253 52 253Q10 251 10 287Q10 307 77 335T144 365Q165 431 206 528Q267 673 274 690Q289 704 301 704Q323 704 343 661Q379 539 407 451Q419 451 436 459T464 467Q508 463 508 436Q508
423 497 397Q488 394 460 379T430 364Q452 278 485 190Q511 119 538 48Q538 48 543 38T548 24Z" />
<glyph unicode="B" glyph-name="B" horiz-adv-x="689" d="M604 215Q603 188 562 129Q533 86 467 52Q420 33 385 25Q260 -3 191 -3Q188 -3 188 -5Q68 -7 26 -2Q6 11 8 42Q9 54 21 71Q34 74 117 74Q120 87 120 178Q120 328 113 450Q106 605 92 605Q81 605 59 598T24
591L13 592Q0 618 4 638Q18 652 48 668T163 692Q256 701 295 694Q358 690 405 665Q513 596 503 506Q498 464 466 423Q449 402 433 382Q476 378 475 378Q614 350 604 215ZM440 557Q423 582 378 605T306 629Q183 629 174 618Q173 585 187 381Q192 382 273 399Q327
411 383 432Q407 446 428 472T449 524Q449 543 440 557ZM555 244Q554 266 534 278Q485 315 430 313Q405 315 366 312Q335 310 304 307Q281 306 190 287Q190 292 189 254T186 177Q185 122 187 74Q189 74 260 79Q306 82 353 93Q437 105 499 155Q544 185 555 244Z"
/>
<glyph unicode="C" glyph-name="C" horiz-adv-x="641" d="M563 80Q554 37 493 22Q431 0 317 0H235Q205 0 157 22T86 68Q0 162 0 261V342Q0 466 94 571Q185 671 291 681Q302 683 368 689Q415 690 418 690Q530 690 530 623Q530 584 494 584Q483 584 461 590T429
597Q374 601 345 597Q316 589 287 581T242 562Q165 533 102 435Q92 411 82 388Q77 377 73 354Q84 259 93 229Q118 147 187 109Q262 86 380 91Q408 92 456 113T533 135Q546 127 556 110T563 80Z" />
<glyph unicode="D" glyph-name="D" horiz-adv-x="865" d="M782 418Q777 349 716 275Q674 223 607 173Q578 152 549 132Q461 87 322 43Q159 -8 68 -8Q41 -8 23 -3Q0 14 0 33Q0 46 5 67Q33 90 184 103Q190 136 198 330Q205 521 202 539Q201 554 202 568Q204 586
204 586Q204 597 190 602Q184 605 176 605Q153 605 107 584T56 564Q23 567 13 578T2 623Q40 660 124 680Q195 697 272 697Q298 697 319 695Q359 693 431 684Q535 673 578 656Q674 619 711 589Q790 525 782 418ZM700 457Q703 480 665 519Q623 562 574 570Q507 599
427 606Q365 612 274 621Q248 253 254 164Q253 154 253 144Q253 126 262 124Q262 124 280 125Q330 142 379 159Q445 182 473 199Q579 261 626 309Q691 375 700 457Z" />
<glyph unicode="E" glyph-name="E" horiz-adv-x="521" d="M435 117Q376 92 243 51Q163 26 83 2H42Q36 6 30 9Q17 18 15 41Q22 50 39 59Q81 64 81 91Q81 95 80 102T79 112Q75 167 71 276Q62 273 36 278Q14 278 14 301Q14 319 27 335Q39 338 51 341T69 353Q69 413
74 527Q69 526 47 522Q29 519 18 520Q0 533 0 548Q0 560 11 575Q26 594 175 635Q278 662 382 690Q393 692 403 692Q438 692 438 664Q438 647 425 625Q402 620 270 584Q148 551 143 551Q135 527 134 476Q134 405 134 399Q132 378 140 378Q145 378 155 384Q249 408
289 426Q330 434 330 394Q330 374 315 353Q302 350 136 295Q135 277 135 258Q135 232 139 178T143 94Q175 99 250 123Q332 149 394 175Q446 172 446 147Q446 135 435 117Z" />
<glyph unicode="F" glyph-name="F" horiz-adv-x="404" d="M406 627Q388 614 284 585Q173 555 148 542Q138 498 146 378Q163 380 222 408Q275 432 304 431Q340 430 340 397Q340 381 326 368Q312 363 165 301Q138 290 140 265Q133 181 138 30Q137 29 128 7Q125 -1
108 -2Q86 -4 77 42Q70 72 71 103Q78 266 76 268Q71 270 67 270Q64 270 53 267T29 266Q11 281 11 295Q11 301 14 309T34 327T69 346Q72 365 77 519Q57 510 48 510Q34 512 20 514Q0 529 0 540Q0 546 3 555Q12 584 60 603Q90 616 185 640Q297 670 368 694Q412 687
412 660Q412 648 406 627Z" />
<glyph unicode="G" glyph-name="G" horiz-adv-x="843" d="M746 245Q726 247 690 242Q688 195 660 144Q630 89 563 50Q475 -2 406 -2H282Q229 -2 153 43T47 134Q8 199 3 327Q0 425 70 516Q99 554 171 617Q236 673 363 690Q403 696 435 691Q455 692 472 673T489
630Q489 623 487 617Q488 617 485 610Q482 600 474 598Q393 606 356 595Q274 572 231 543Q160 494 122 436T76 306Q73 282 84 222Q91 181 147 134Q160 123 199 107Q243 89 269 87Q308 86 366 91T446 104Q588 151 605 244Q605 247 549 248Q522 249 507 254Q476 277
476 295Q476 306 486 321Q498 340 596 340Q692 340 734 326Q747 322 757 308T768 278Q768 257 746 245Z" />
<glyph unicode="H" glyph-name="H" horiz-adv-x="697" d="M624 369Q589 357 525 350Q525 324 528 249Q529 184 529 147Q529 114 516 8Q501 -4 489 -4Q471 -4 447 30Q437 123 448 213Q451 240 445 327Q325 311 180 275Q186 190 191 47Q191 1 160 1Q142 1 135 14Q116
72 112 141Q111 150 110 269L52 262Q0 262 0 303Q0 315 5 327Q30 346 94 349Q94 550 108 655Q118 687 143 687Q165 687 176 654Q176 610 174 557Q172 501 172 482Q172 429 180 364Q240 384 442 414Q441 538 462 670Q479 699 498 699Q538 699 538 608Q538 579 532
522T526 434Q543 434 562 441T595 449Q630 450 640 426Q647 411 647 399Q647 377 624 369Z" />
<glyph unicode="I" glyph-name="I" horiz-adv-x="477" d="M385 132Q384 117 370 107Q345 90 344 89Q317 81 211 38Q123 3 87 -1Q75 -3 63 -4Q55 -5 37 3Q19 3 19 29Q19 42 23 55Q67 69 183 112Q196 395 181 559Q160 556 64 523Q25 524 13 528T0 548Q0 556 5 583Q151
639 321 691Q331 695 343 695Q366 695 384 684T402 656Q402 637 373 621Q300 583 258 576Q272 379 272 282Q272 212 267 144Q285 147 300 155Q312 161 328 162Q357 164 368 155Q376 144 385 132Z" />
<glyph unicode="J" glyph-name="J" horiz-adv-x="439" d="M412 639Q403 634 386 621Q354 609 291 588Q301 500 310 411Q321 305 321 234L317 182Q314 170 306 138Q303 123 300 107T282 68Q273 54 250 37Q213 10 179 2Q142 -5 108 6Q40 29 17 83Q12 91 0 122Q4
166 34 166Q59 166 63 135Q93 74 143 74Q198 74 222 121Q236 148 246 217Q248 228 248 248Q248 288 238 392Q225 518 223 560Q206 561 182 549Q148 534 138 531Q120 525 106 525Q70 525 70 551Q70 572 95 597Q136 619 205 641Q294 670 332 686Q373 698 384 698Q400
698 414 665L412 639Z" />
<glyph unicode="K" glyph-name="K" horiz-adv-x="546" d="M471 22Q462 -11 438 -11Q428 -11 416 -7Q379 41 340 147T269 300Q268 306 236 366T193 442Q157 419 93 370Q93 123 89 29Q75 -7 55 -7Q32 -7 17 35Q0 252 8 644Q12 659 17 674Q24 695 42 696Q70 698 80
677Q92 646 92 606Q92 590 89 555T86 499Q90 493 94 493Q101 493 113 511Q131 519 257 609Q377 694 399 700Q417 700 433 684T448 648Q447 626 417 606Q378 581 370 570Q357 565 306 528T254 486Q280 447 311 388Q349 316 370 283Q390 245 422 164Q438 123 471
22Z" />
<glyph unicode="L" glyph-name="L" horiz-adv-x="482" d="M406 68Q407 55 390 35Q345 32 229 11Q127 -7 78 -7Q31 -6 19 42Q10 76 4 265Q0 417 8 423Q7 464 4 551Q1 618 1 644Q1 704 11 704Q80 708 80 566Q80 563 78 500Q76 433 81 352Q87 233 88 208Q90 140 99
89Q249 115 348 120Q400 111 406 68Z" />
<glyph unicode="M" glyph-name="M" horiz-adv-x="647" d="M493 0Q448 11 439 117Q434 229 430 341Q430 417 422 499Q382 437 295 316Q282 309 270 309Q259 309 252 315Q230 335 230 360Q230 371 232 389Q209 412 92 553Q78 502 78 287Q78 131 86 31Q89 -3 58 -3Q25
-3 18 33Q2 85 2 513Q2 516 1 563Q0 597 1 619Q2 650 8 670T41 691Q61 691 76 677Q106 633 167 563Q216 508 265 452Q287 465 407 664Q431 685 460 685Q476 685 487 679Q508 645 511 621Q513 610 512 549Q510 469 514 135Q515 121 518 105T521 65Q522 32 519 23Q514
9 493 0Z" />
<glyph unicode="N" glyph-name="N" horiz-adv-x="638" d="M498 26Q490 -1 456 -1Q425 -1 405 18Q394 31 383 45Q300 156 223 312Q129 501 92 560Q85 534 85 447Q85 394 85 341Q101 185 96 73Q100 72 100 44Q100 -4 73 -7Q54 -9 43 8T22 43Q9 235 9 348Q9 454 10
559Q10 575 5 613Q0 648 1 667Q3 704 42 704Q55 704 65 698Q114 672 186 543Q212 496 309 296Q381 148 417 104Q418 133 420 191Q433 434 423 569Q422 582 416 617Q410 647 410 665Q421 699 438 699Q449 699 466 682Q472 675 486 651Q512 596 512 448Q512 190 513
231Q511 72 498 26Z" />
<glyph unicode="O" glyph-name="O" horiz-adv-x="620" d="M518 420Q520 347 500 275Q476 189 428 136Q305 -1 210 -1H155Q120 -1 64 60Q33 92 16 147Q0 196 0 243Q0 261 3 275Q25 402 82 511Q153 645 254 700Q273 704 296 700Q513 606 518 420ZM436 444Q435 500
418 527Q409 540 364 580Q360 584 342 591Q318 600 302 599Q223 594 153 461T86 200Q89 77 171 77Q220 77 263 102Q294 120 338 162Q375 197 397 245Q400 251 425 322Q439 359 436 444Z" />
<glyph unicode="P" glyph-name="P" horiz-adv-x="529" d="M552 537Q554 491 528 456Q524 450 467 394Q442 368 333 318Q312 308 265 295T206 277Q205 254 207 203Q209 149 209 123Q209 61 201 17Q198 2 167 2Q160 2 155 4Q130 28 130 292Q130 357 132 465Q134
573 131 591Q47 549 38 550Q25 552 13 563T1 586Q3 614 27 630Q29 631 71 651Q128 677 219 691Q298 703 372 699Q546 689 552 537ZM467 607Q448 619 438 622Q434 623 398 626Q361 630 311 626Q231 619 197 611Q195 510 201 349Q225 350 257 362Q286 374 315 386Q364
405 424 448T492 553Q494 564 485 582T467 607Z" />
<glyph unicode="Q" glyph-name="Q" horiz-adv-x="688" d="M608 -29Q604 -54 586 -54Q579 -54 567 -51Q547 -47 427 70Q391 48 328 26T192 4Q154 5 99 44Q70 64 39 107Q3 158 1 198Q0 215 0 232Q0 405 98 538Q184 654 308 698Q319 702 353 698Q457 632 516 548Q571
468 571 329Q571 282 548 229Q532 192 505 154Q483 122 483 123Q485 117 552 56Q613 1 608 -29ZM500 373Q502 385 502 398Q502 495 414 570Q355 619 328 616Q300 609 282 595T246 565Q227 546 191 512Q83 418 63 217Q76 160 112 126Q140 100 168 96Q201 91 246
93Q312 106 368 136Q366 143 344 173Q327 198 329 214Q332 249 354 249Q362 249 372 245Q386 240 401 221Q416 199 421 196Q450 199 494 300Q498 311 499 338Q500 356 500 373Z" />
<glyph unicode="R" glyph-name="R" horiz-adv-x="696" d="M618 17Q620 -6 595 -6Q587 -6 578 -3Q542 52 450 166Q363 275 327 332Q310 330 271 318Q229 305 186 305Q176 305 169 306Q177 193 168 11Q158 -7 132 -7Q117 -7 108 3Q89 111 92 292Q97 557 96 586Q90
587 66 578T30 568Q0 583 0 609Q0 627 16 644Q21 649 47 661Q98 684 153 690Q264 701 353 694Q380 694 424 690Q476 679 509 640Q549 593 544 523Q541 474 521 446Q510 431 473 400Q450 382 394 362Q454 278 587 104Q621 62 618 17ZM384 621Q365 623 303 620T209
613Q164 606 165 606Q173 471 169 389Q177 386 190 386Q224 386 269 402Q306 414 342 426Q389 444 420 467Q456 492 458 495Q478 516 479 553Q480 581 446 601Q418 617 384 621Z" />
<glyph unicode="S" glyph-name="S" horiz-adv-x="792" d="M482 701Q530 702 588 688Q611 682 636 665Q672 640 672 624Q672 608 662 598T609 593Q502 610 465 609Q396 607 385 606Q348 602 299 588Q190 556 192 530Q193 511 231 497Q242 493 311 474Q374 463 515
434Q717 386 717 249Q717 237 715 224Q705 148 644 101Q597 65 495 31T265 3Q47 12 16 49Q0 68 0 85Q0 112 42 112Q51 112 62 110Q153 105 294 93Q346 87 494 128Q529 137 573 178Q622 222 622 257Q622 306 576 328Q552 339 467 355Q406 365 274 393Q137 427 105
466Q71 509 72 543Q74 589 132 620Q164 638 259 667Q364 698 482 701Z" />
<glyph unicode="T" glyph-name="T" horiz-adv-x="403" d="M364 704Q390 707 409 692T428 659Q428 651 422 643T359 620Q314 609 269 598Q263 497 262 271Q261 58 260 48Q248 0 223 0Q196 0 189 45T180 312Q180 520 184 567Q168 567 122 552Q95 544 68 535Q38 533
19 551T0 589Q0 605 13 612Q56 628 185 663Q325 701 364 704Z" />
<glyph unicode="U" glyph-name="U" horiz-adv-x="649" d="M572 438Q569 340 552 278Q529 197 470 123Q441 86 369 47Q287 3 222 0Q44 -7 10 225Q0 293 8 348Q23 446 42 494Q55 528 89 584Q126 648 159 685Q178 702 197 702Q232 702 237 655Q238 636 227 620Q213
602 200 585Q146 498 106 375Q90 293 90 259Q90 227 97 200Q113 139 131 115Q158 79 208 82Q284 88 377 165Q459 233 477 355Q489 427 489 455Q489 475 486 492Q478 539 458 581Q438 620 418 659Q423 701 451 701Q489 702 530 618Q574 530 572 438Z" />
<glyph unicode="V" glyph-name="V" horiz-adv-x="479" d="M65 667Q94 555 123 442Q175 244 222 166Q296 332 327 404Q410 600 429 672Q440 700 458 700Q473 700 487 681T500 650Q504 614 472 515Q447 438 418 371Q358 235 275 41Q256 0 233 0Q206 0 172 56Q127
187 75 353Q1 591 1 635Q1 640 2 643Q0 701 27 701Q46 701 65 667Z" />
<glyph unicode="W" glyph-name="W" horiz-adv-x="742" d="M764 643Q762 622 751 598Q737 565 733 553Q717 500 696 413Q671 308 662 273Q634 164 588 15Q574 1 565 1Q553 1 536 14Q508 38 453 140Q395 247 385 258Q366 240 323 141Q285 52 275 18Q255 -1 238 -1Q213
-1 193 39Q179 74 164 109Q152 181 91 375Q44 523 12 612Q13 619 7 638T0 669Q0 678 3 687Q22 703 35 703Q44 703 52 695T67 678Q105 644 200 294Q209 256 218 217Q225 194 242 196Q275 263 340 395Q359 407 378 407Q417 407 436 356Q441 350 480 265Q516 185 526
160Q566 235 604 424Q642 610 686 688Q703 700 720 700Q742 700 754 683T764 643Z" />
<glyph unicode="X" glyph-name="X" horiz-adv-x="613" d="M250 478Q262 487 311 584T369 691Q380 696 391 696Q414 696 428 678T438 648Q419 625 371 523Q319 413 302 387Q328 355 419 217Q513 76 521 53Q538 31 538 17Q538 0 516 0Q483 0 459 29Q413 98 366 167Q282
289 262 300Q251 293 172 168Q89 36 72 17Q54 2 36 2Q0 2 0 38Q0 45 2 53Q93 199 200 379Q178 427 125 523Q67 628 43 658Q38 668 38 675Q38 697 73 697Q89 697 96 692Q124 674 183 575Q240 482 250 478Z" />
<glyph unicode="Y" glyph-name="Y" horiz-adv-x="457" d="M480 669Q477 622 392 499Q280 338 273 324Q260 236 260 165Q260 150 262 100Q263 60 262 30Q261 3 230 -1Q221 -3 214 -3Q191 -3 185 28Q168 116 178 271Q178 277 177 299T176 326Q168 347 141 390Q108
443 104 450Q88 481 59 550Q36 605 15 635Q0 656 0 670Q0 693 27 693Q52 693 75 671Q91 655 106 631Q129 589 159 520Q198 433 210 409Q229 410 315 553T436 699Q458 700 470 693T480 669Z" />
<glyph unicode="Z" glyph-name="Z" horiz-adv-x="728" d="M239 8Q213 8 169 0T87 -8Q68 -8 46 -7Q0 14 0 50Q0 61 6 70Q77 188 153 282Q199 339 291 437Q388 540 444 608L417 609Q282 615 114 607Q71 613 71 655Q71 678 89 685Q153 694 238 694Q399 694 387 693Q516
696 563 688Q578 686 594 673T610 644Q610 638 608 632Q493 520 341 355Q149 146 120 88Q314 97 358 97Q421 97 472 92L609 80Q629 78 641 60T650 23Q647 1 598 1Q576 1 539 6T496 11Q458 11 368 9Q285 8 239 8Z" />
<glyph unicode="[" glyph-name="bracketleft" horiz-adv-x="309" d="M8 -128Q5 -122 5 -92Q6 -44 7 -50Q0 266 0 384Q0 446 3 532Q7 636 7 669Q17 683 97 692Q157 700 183 699Q198 699 212 690T227 666Q226 653 167 646Q119 642 70 638Q62 564 58 378Q62 200 63
-93Q109 -103 143 -105Q191 -109 206 -113Q234 -120 234 -140Q233 -159 222 -161Q193 -166 161 -166Q105 -166 48 -154Q20 -149 8 -128Z" />
<glyph unicode="\" glyph-name="backslash" horiz-adv-x="641" d="M0 638Q0 670 36 670Q64 670 120 605Q158 560 182 521Q209 478 395 250Q566 41 566 28Q566 -7 521 -7Q492 -7 245 305Q0 613 0 638Z" />
<glyph unicode="]" glyph-name="bracketright" horiz-adv-x="309" d="M225 -138Q214 -159 187 -164Q130 -176 72 -176Q41 -176 12 -171Q0 -169 0 -150Q0 -130 28 -123Q43 -119 91 -115Q125 -113 170 -103Q172 195 176 378Q172 564 164 638Q115 642 66 646Q7 653
7 666Q7 681 23 691Q36 699 50 699Q76 700 137 692Q217 683 226 669Q227 636 231 532Q234 446 234 384Q234 256 227 -60Q227 -54 228 -102Q229 -132 225 -138Z" />
<glyph unicode="^" glyph-name="asciicircum" horiz-adv-x="441" d="M365 461Q366 449 351 449Q340 449 306 482Q244 541 209 572Q191 561 114 501Q53 454 34 449Q18 449 11 452Q0 456 0 467Q0 478 57 521Q92 547 127 573Q179 617 191 619Q204 620 223 609T300
541Q364 479 365 461Z" />
<glyph unicode="_" glyph-name="underscore" horiz-adv-x="986" d="M911 -66Q911 -107 792 -107L65 -114Q47 -114 24 -92T0 -47Q0 -21 89 -10Q158 -10 474 -6T859 -2Q874 -2 894 -29Q911 -54 911 -66Z" />
<glyph unicode="`" glyph-name="grave" horiz-adv-x="428" d="M353 471Q353 460 334 449T306 439Q277 445 143 536Q0 633 0 664Q0 671 17 682T44 694Q50 694 68 681Q81 670 95 660Q169 607 291 520Q308 509 325 498Q353 480 353 471Z" />
<glyph unicode="a" glyph-name="a" horiz-adv-x="551" d="M476 47Q476 36 466 24T443 12Q425 12 397 46Q376 71 356 96Q315 49 260 21T159 -8Q156 -8 149 -5T137 -2Q79 -2 40 35T0 119Q0 192 116 276Q223 353 286 353Q307 353 321 338Q339 318 355 300T394 199Q401
170 438 108T476 47ZM299 230Q299 244 285 269Q225 243 171 200Q104 146 84 91Q105 76 143 76Q207 76 254 126Q299 173 299 230Z" />
<glyph unicode="b" glyph-name="b" horiz-adv-x="499" d="M420 200Q417 138 329 82Q263 41 162 8Q81 -19 61 -18Q7 -15 7 50Q7 67 11 75Q13 178 16 181L0 673Q1 701 26 700Q60 698 72 640Q80 604 82 512Q85 416 92 380Q110 380 156 384Q198 387 202 387Q275 384
342 338Q424 282 420 200ZM339 241Q340 263 288 286Q242 306 212 308Q178 309 141 300Q91 288 90 264Q93 229 96 186L92 97L115 96Q159 94 241 137Q336 187 339 241Z" />
<glyph unicode="c" glyph-name="c" horiz-adv-x="415" d="M340 31Q340 10 293 -1Q259 -9 225 -9Q222 -9 212 -8T199 -7Q134 -7 75 26Q0 67 0 138Q0 211 112 282Q212 344 278 344Q298 344 318 329T338 295Q338 273 309 270Q259 269 201 242Q170 227 126 194Q66
149 66 122Q66 95 138 78Q188 66 214 66Q217 66 258 71T303 76Q316 76 328 58T340 31Z" />
<glyph unicode="d" glyph-name="d" horiz-adv-x="530" d="M455 425L439 243V113L445 4Q445 -38 416 -38Q381 -38 353 4Q325 4 268 3T210 1Q120 1 62 43Q0 88 0 162Q0 218 79 275Q137 316 215 345Q288 372 346 367Q358 454 358 538Q358 563 357 596T356 640Q356
670 363 681T391 693Q455 693 455 425ZM345 115Q345 128 342 172T338 239Q338 271 345 280Q283 280 192 233Q87 180 91 124Q110 113 155 99Q195 87 197 84H311Q326 84 335 95T345 115Z" />
<glyph unicode="e" glyph-name="e" horiz-adv-x="477" d="M402 43Q402 17 345 4Q311 -4 275 -5T216 -7Q198 -8 196 -8Q133 -8 69 40Q0 92 0 157Q0 222 113 301Q217 374 277 374Q305 374 332 351T360 302Q360 258 295 212Q244 177 169 150Q103 126 86 129Q111 82
217 68Q248 64 349 88Q361 88 381 70T402 43ZM238 258Q257 274 257 286Q257 295 243 298Q224 301 175 274T126 246Q126 246 125 247Q126 248 129 251Q137 260 138 260Q138 261 128 244T117 218Q117 212 123 211Q178 207 238 258Z" />
<glyph unicode="f" glyph-name="f" horiz-adv-x="359" d="M361 611Q361 595 355 592Q353 591 340 591Q341 591 319 603T267 616Q218 616 200 577Q187 549 187 487Q187 478 187 461T187 435Q187 396 183 375Q185 373 189 373Q198 373 221 383T248 393Q289 389 289
355Q289 351 289 345Q288 340 288 339Q288 318 245 301Q189 279 180 270Q179 256 183 216Q187 193 187 27Q187 -4 160 -6Q132 -7 122 49Q116 82 114 163Q112 236 107 251Q95 251 72 247T46 243Q27 243 14 260T0 293Q0 320 54 335Q112 351 113 354Q117 447 120 541Q128
624 159 659Q196 700 282 700Q309 700 335 671T361 611Z" />
<glyph unicode="g" glyph-name="g" horiz-adv-x="408" d="M333 187L327 -16Q327 -71 295 -147T222 -259Q168 -291 158 -295Q138 -302 87 -302Q64 -302 23 -282Q-31 -256 -31 -218Q-31 -184 -6 -184Q-5 -184 34 -203T109 -223Q201 -223 246 -103Q279 -15 276 82Q230
42 174 38Q123 35 69 75Q4 123 2 200Q1 291 97 326Q156 348 257 347Q281 347 294 343Q319 337 328 319Q324 292 326 268Q333 194 333 187ZM260 270Q241 281 199 281Q146 281 108 263Q63 241 63 200Q63 158 96 128Q125 102 159 100Q224 98 263 154Q272 198 260 270Z"
/>
<glyph unicode="h" glyph-name="h" horiz-adv-x="473" d="M398 162Q398 112 389 67Q374 -6 340 -6Q323 -6 312 19Q303 38 303 52Q326 153 326 178Q326 214 304 258Q277 310 241 310Q186 310 140 280Q87 246 87 190L90 26Q90 -5 62 -8Q23 -11 14 83Q13 89 11 215Q10
233 5 359Q0 481 0 484Q0 676 16 696H55Q74 684 75 570Q78 403 84 351Q116 365 148 379Q177 390 221 390Q287 390 345 309Q398 233 398 162Z" />
<glyph unicode="i" glyph-name="i" horiz-adv-x="222" d="M79 404Q79 394 70 388T50 381Q33 381 17 400T0 434Q0 442 9 452T29 463Q47 463 63 440T79 404ZM97 23Q97 13 87 4T69 -5Q12 -5 12 153L15 309Q15 319 23 330T43 341Q61 341 79 313Q94 289 94 279V192Q94
148 95 97T97 23Z" />
<glyph unicode="j" glyph-name="j" horiz-adv-x="233" d="M105 443Q105 417 74 417Q55 417 38 439T21 478Q21 500 49 500Q67 500 86 480T105 443ZM108 31Q108 -104 90 -161Q55 -272 -61 -304Q-98 -303 -152 -280Q-230 -247 -230 -198Q-230 -174 -206 -174Q-198
-174 -157 -199T-87 -225Q-14 -225 12 -110Q19 -80 24 10Q21 125 24 129Q9 265 9 300Q9 353 40 353Q108 353 108 31Z" />
<glyph unicode="k" glyph-name="k" horiz-adv-x="430" d="M355 341Q355 317 288 284Q249 268 210 251Q228 207 286 115Q339 32 339 28Q339 17 331 8T314 -2Q283 -2 240 53Q220 80 174 157Q141 212 132 212Q115 212 103 203T91 181Q91 177 85 102T79 23Q79 10 68
-1T47 -11Q0 -4 0 192Q0 233 2 279T4 321Q4 353 9 468Q15 621 22 684Q24 696 51 701Q100 701 100 633L84 316Q84 298 94 294L303 382Q355 368 355 341Z" />
<glyph unicode="l" glyph-name="l" horiz-adv-x="225" d="M100 27Q100 -5 69 -5Q30 -5 15 112Q14 119 3 283Q0 327 0 578V655Q0 693 32 693Q83 693 83 613Q83 596 80 546Q77 502 78 478Q82 330 100 27Z" />
<glyph unicode="m" glyph-name="m" horiz-adv-x="767" d="M642 131Q642 94 633 54Q621 -3 600 -3Q588 -3 569 23T549 61Q549 65 555 107T561 154Q561 270 503 270Q411 270 380 199Q365 163 359 66Q355 -6 329 -6Q280 -6 280 95Q280 108 281 135T282 175Q282 273
235 273Q189 273 145 235Q106 202 88 160Q85 66 97 24Q99 14 84 3T55 -8Q0 -8 0 196Q0 218 0 241Q1 265 1 263Q1 353 42 353Q75 353 93 298Q167 347 220 347Q254 347 282 331Q300 321 319 301Q335 286 338 286Q338 286 360 301Q386 318 412 329Q449 344 486 344Q572
344 613 261Q642 203 642 131Z" />
<glyph unicode="n" glyph-name="n" horiz-adv-x="588" d="M463 152Q463 124 445 66Q420 -13 385 -13Q372 -13 353 9T334 42Q373 109 373 172Q373 275 247 275Q233 275 166 242T96 199Q92 183 91 175Q91 170 92 160Q93 147 93 133Q93 98 96 70T99 30Q99 -4 65 -4Q0
-4 0 229Q0 286 1 300Q8 358 34 358Q69 358 92 302Q127 316 163 330Q220 351 259 351Q342 351 402 290T463 152Z" />
<glyph unicode="o" glyph-name="o" horiz-adv-x="449" d="M374 173Q374 107 296 46Q224 -10 167 -10H147Q105 -10 57 20Q0 55 0 106Q0 170 75 257T212 345Q236 345 252 337Q265 329 279 321Q339 290 360 246Q374 218 374 173ZM300 189Q300 218 280 243T229 269Q196
269 137 202T78 95Q78 65 127 65Q170 65 228 97Q300 136 300 189Z" />
<glyph unicode="p" glyph-name="p" horiz-adv-x="446" d="M371 182Q371 90 291 39Q229 -1 155 -1Q128 -1 110 9Q97 16 85 23Q83 8 83 -38V-114L80 -268Q77 -279 74 -288T57 -300Q18 -305 15 -261Q2 -52 0 277Q0 363 28 363Q54 362 58 351Q68 322 68 322Q175 347
197 347Q257 347 314 296T371 182ZM300 209Q300 235 277 254T225 274Q188 274 142 256Q76 231 76 185Q76 108 81 81Q90 83 110 81T129 78Q177 78 228 105Q300 142 300 209Z" />
<glyph unicode="q" glyph-name="q" horiz-adv-x="496" d="M0 182Q0 244 57 295T174 347Q196 347 303 322Q303 322 313 351Q317 362 343 363Q371 363 371 277Q369 -52 356 -261Q353 -305 314 -300Q301 -298 298 -289T291 -268L288 -114V-38Q288 8 286 23Q274 16
261 9Q243 -1 216 -1Q142 -1 80 39Q0 90 0 182ZM71 209Q71 142 143 105Q194 78 242 78Q241 78 261 80T290 81Q295 108 295 185Q295 231 229 256Q183 274 146 274Q118 274 95 255T71 209Z" />
<glyph unicode="r" glyph-name="r" horiz-adv-x="347" d="M322 332Q322 307 298 307Q294 307 278 311T259 316Q222 316 156 273Q84 227 84 186Q84 183 79 104T74 22Q74 8 59 -1Q48 -8 38 -8Q4 -8 4 61Q4 72 5 85T6 98V179Q6 182 3 200T0 221V356Q0 364 14 372Q25
379 29 379Q51 379 62 353Q63 351 74 313Q103 336 156 358Q213 382 247 382Q268 382 292 370Q322 355 322 332Z" />
<glyph unicode="s" glyph-name="s" horiz-adv-x="408" d="M165 -8Q133 -8 105 -2Q73 4 38 35Q0 69 0 100Q0 129 29 129Q37 129 48 126Q50 126 67 109T108 83Q148 68 181 68Q254 68 256 125Q258 154 197 169Q140 183 84 197Q22 219 22 266Q22 274 24 283Q31 316
106 337Q169 354 193 350Q221 344 245 329Q277 308 273 281Q271 268 249 268Q235 268 221 274Q191 286 166 286Q144 286 120 278Q137 253 181 247Q240 239 254 231Q289 215 311 180T333 109Q333 49 276 17Q229 -8 165 -8Z" />
<glyph unicode="t" glyph-name="t" horiz-adv-x="400" d="M321 297Q319 272 267 261Q204 247 197 241Q195 239 195 228Q195 217 199 162T203 77Q203 -5 178 -5Q153 -5 140 42Q133 70 125 140Q119 204 113 222Q77 205 51 205Q28 205 14 221T0 258Q0 275 52 295Q87
308 121 320Q118 333 118 370Q118 393 143 399Q167 404 180 380Q188 358 197 337Q213 341 230 345Q253 350 277 349Q325 346 321 297Z" />
<glyph unicode="u" glyph-name="u" horiz-adv-x="472" d="M347 13Q347 -10 317 -10Q296 -10 279 9Q277 12 251 49Q239 46 200 19Q167 -3 132 -3Q69 -3 31 53Q0 98 0 143Q0 189 17 251Q44 350 97 350Q119 350 134 334T149 299Q149 296 133 268Q114 235 103 206Q87
161 87 114Q87 93 88 91Q91 83 108 79Q193 109 233 211Q254 278 275 344Q286 348 296 348Q343 348 343 287L322 114Q322 78 334 48T347 13Z" />
<glyph unicode="v" glyph-name="v" horiz-adv-x="362" d="M286 304Q284 278 220 141Q153 -2 135 0Q102 4 53 148Q12 267 0 341Q15 354 32 354Q60 353 93 264Q111 212 129 159Q160 206 205 296Q235 355 248 355Q267 355 278 333Q287 316 286 304Z" />
<glyph unicode="w" glyph-name="w" horiz-adv-x="678" d="M601 299Q599 274 516 133Q431 -11 410 -11Q395 -11 333 79Q300 129 268 179Q242 140 216 83Q193 32 181 18Q161 -6 127 -6Q97 -6 64 79Q40 142 18 239Q0 320 1 331Q2 353 24 353Q70 353 96 264Q113 194
130 125Q140 137 190 251Q235 353 248 353Q287 352 307 313Q332 255 357 198Q364 180 379 160Q408 122 408 121Q455 188 504 289Q534 349 554 349Q576 349 589 333T601 299Z" />
<glyph unicode="x" glyph-name="x" horiz-adv-x="379" d="M277 303Q274 271 228 211T181 141Q183 138 226 89Q258 53 256 26Q254 0 228 0Q210 0 136 79Q128 75 93 30T52 -16Q37 -16 19 4T1 38Q2 52 38 103T75 159Q75 165 43 225T12 308Q13 318 21 326T35 334Q64
334 89 296Q106 264 124 233Q137 241 177 297Q213 348 226 348Q246 348 260 338Q279 326 277 303Z" />
<glyph unicode="y" glyph-name="y" horiz-adv-x="458" d="M383 309Q383 280 359 237Q339 203 320 168Q318 163 222 15Q131 -126 112 -180Q69 -302 44 -302Q28 -302 13 -279Q0 -260 0 -249Q0 -246 12 -226Q25 -202 29 -192Q77 -65 126 13Q163 72 163 74Q163 78
147 96Q128 120 119 135Q106 158 68 229Q25 312 25 320Q25 349 50 349Q72 349 127 250Q190 140 197 133Q206 144 278 258Q336 352 351 352Q383 352 383 309Z" />
<glyph unicode="z" glyph-name="z" horiz-adv-x="428" d="M351 24Q351 13 341 5T319 -4Q208 -4 93 -13Q61 -15 34 -1Q0 17 0 53Q0 63 70 149Q145 241 153 259Q140 266 123 266Q112 266 91 262T59 257Q42 257 24 269T6 301Q6 322 71 331Q108 337 140 337L261 344Q279
344 297 330T315 298Q315 293 232 201Q135 93 125 80Q135 73 167 73Q186 73 222 76T267 79Q353 79 351 24Z" />
<glyph unicode="{" glyph-name="braceleft" horiz-adv-x="413" d="M338 -161Q338 -168 333 -178T322 -189H191Q135 -189 77 -151Q0 -100 0 -8Q0 75 94 175Q91 179 82 179Q74 179 60 176T42 173Q29 173 18 186T6 217Q6 239 83 259Q171 282 180 288Q172 298 138
325T88 374Q64 407 64 449Q64 515 152 609Q236 698 278 698Q295 698 309 682T323 637Q295 633 214 570Q118 496 118 437Q118 422 150 393Q201 349 210 339Q242 304 242 271Q242 243 226 229Q218 222 198 214Q183 209 182 202Q181 166 149 128Q118 95 88 62Q56 20
56 -25Q56 -62 95 -89Q127 -110 149 -110H298Q307 -110 322 -129T338 -161Z" />
<glyph unicode="|" glyph-name="bar" horiz-adv-x="146" d="M61 686Q71 673 71 328Q71 -164 50 -180Q37 -191 24 -191Q12 -191 4 -180Q0 -175 0 -86Q0 -21 3 167T6 426Q6 501 4 523T1 582Q1 672 22 688Q31 696 41 696Q53 696 61 686Z" />
<glyph unicode="}" glyph-name="braceright" horiz-adv-x="413" d="M0 -161Q0 -148 16 -129T40 -110H189Q211 -110 243 -89Q283 -62 283 -25Q283 20 250 62Q220 95 190 128Q157 166 156 202Q156 209 140 214Q120 222 112 229Q97 243 97 271Q97 304 129 339Q137
349 188 393Q221 422 221 437Q221 496 124 570Q44 633 16 637Q15 665 29 681T60 698Q103 698 186 609Q274 515 274 449Q274 407 250 374Q234 352 200 325T159 288Q167 282 256 259Q332 239 332 217Q332 200 321 187T297 173Q293 173 279 176T256 179Q247 179 244
175Q338 75 338 -8Q338 -100 261 -151Q204 -189 148 -189H17Q12 -189 6 -179T0 -161Z" />
<glyph unicode="~" glyph-name="asciitilde" horiz-adv-x="568" d="M493 385Q493 362 424 316T331 270Q294 270 250 291Q219 306 184 330Q154 351 154 351Q128 351 81 295T31 238Q20 238 10 249T0 270Q0 320 57 368Q110 412 147 412Q186 412 233 373T316 334Q336
334 383 374T458 415Q470 415 481 407T493 385Z" />
<glyph unicode="&#xa0;" glyph-name="nbspace" horiz-adv-x="400" />
<glyph unicode="&#xa1;" glyph-name="exclamdown" horiz-adv-x="191" d="M-50 53Q-50 54 -41 145Q-32 242 -30 282Q-27 393 -24 504Q-22 563 4 563Q66 563 66 403Q66 336 50 193Q28 -8 -4 -8Q-26 -8 -39 13Q-50 30 -50 53ZM-36 664Q-36 698 -6 698Q20 698 38 673Q52
653 52 636Q52 628 45 618Q36 604 22 604Q2 604 -19 630Q-36 652 -36 664Z" />
<glyph unicode="&#xa2;" glyph-name="cent" horiz-adv-x="415" d="M292 477Q299 458 265 343Q272 344 278 344Q298 344 318 329T338 295Q338 273 309 270Q275 269 238 257Q201 147 174 70Q198 66 214 66Q217 66 258 71T303 76Q316 76 328 58T340 31Q340 10 293
-1Q259 -9 225 -9Q222 -9 212 -8T199 -7Q172 -7 147 -1Q106 -108 92 -113Q50 -129 38 -96Q34 -88 72 27Q0 68 0 138Q0 211 112 282Q140 299 166 312Q185 353 201 410Q221 485 247 494Q281 507 292 477ZM126 194Q66 149 66 122Q66 105 94 92Q107 128 122 171Q127
185 131 198L126 194Z" />
<glyph unicode="&#xa3;" glyph-name="sterling" horiz-adv-x="652" d="M421 385Q421 354 302 354L251 352Q257 232 258 208Q260 140 269 89Q419 115 518 120Q570 111 576 68Q577 55 560 35Q515 32 399 11Q297 -7 248 -7Q201 -6 189 42Q180 76 174 265Q172 319
172 350L65 347Q47 347 24 364T0 404Q0 430 89 431Q133 431 177 432Q176 474 174 551Q171 618 171 644Q171 704 181 704Q250 708 250 566Q250 563 248 490Q247 462 247 436Q309 439 369 439Q384 439 404 412Q421 397 421 385Z" />
<glyph unicode="&#xa4;" glyph-name="currency" horiz-adv-x="449" d="M374 353Q374 287 296 226Q224 170 167 170H147Q105 170 57 200Q0 235 0 286Q0 350 75 437T212 525Q236 525 252 517Q265 509 279 501Q339 470 360 426Q374 398 374 353ZM300 369Q300 398
280 423T229 449Q196 449 137 382T78 275Q78 245 127 245Q170 245 228 277Q300 316 300 369Z" />
<glyph unicode="&#xa5;" glyph-name="yen" horiz-adv-x="557" d="M419 303Q419 282 398 282Q395 282 369 278T339 273Q314 273 265 265Q261 222 260 184L323 191Q326 191 358 198T392 205Q406 205 416 192T427 164Q427 144 408 143Q411 142 363 135L261 122Q261
112 262 100Q263 60 262 30Q261 3 230 -1Q221 -3 214 -3Q191 -3 185 28Q178 64 175 111L98 101Q35 103 35 143Q35 170 60 170Q62 170 69 168T81 165L174 175Q174 210 176 249Q77 230 70 230Q56 230 44 241T31 264Q31 278 43 291Q61 293 176 313V326Q168 347 141
390Q108 443 104 450Q88 481 59 550Q36 605 15 635Q0 656 0 670Q0 693 27 693Q52 693 75 671Q91 655 106 631Q129 589 159 520Q198 433 210 409Q229 410 315 553T436 699Q458 700 470 693T480 669Q477 622 392 499Q289 351 275 327Q310 331 335 331Q340 331 354
332H375Q419 332 419 303Z" />
<glyph unicode="&#xa6;" glyph-name="brokenbar" horiz-adv-x="214" d="M64 707Q105 707 105 588L112 351Q112 333 90 310T45 286Q19 286 8 375Q8 444 4 515T0 655Q0 670 27 690Q52 707 64 707ZM91 253Q132 253 132 134L139 -103Q139 -121 117 -144T72 -168Q46
-168 35 -79Q35 -10 31 61T27 201Q27 216 54 236Q79 253 91 253Z" />
<glyph unicode="&#xa7;" glyph-name="section" horiz-adv-x="802" d="M492 741Q540 742 598 728Q621 722 646 705Q682 680 682 664Q682 648 672 638T619 633Q512 650 475 649Q406 647 395 646Q358 642 309 628Q200 596 202 570Q203 551 241 537Q252 533 321 514Q375
504 485 482L502 480H496Q510 477 525 474Q727 426 727 289Q727 277 725 264Q719 223 700 191Q717 159 717 119Q717 107 715 94Q705 18 644 -29Q597 -65 495 -99T265 -127Q47 -118 16 -81Q0 -62 0 -45Q0 -18 42 -18Q51 -18 62 -20Q153 -25 294 -37Q346 -43 494
-2Q529 7 573 48Q622 92 622 127Q622 176 576 198Q552 209 467 225Q406 235 274 263Q137 297 105 336Q71 379 72 413Q74 459 132 490Q121 498 115 506Q81 549 82 583Q84 629 142 660Q174 678 269 707Q374 738 492 741ZM192 400Q193 381 231 367Q242 363 311 344Q374
333 515 304Q579 289 622 264Q632 281 632 297Q632 346 586 368Q562 379 477 395Q416 405 284 433Q266 437 250 442Q190 419 192 400Z" />
<glyph unicode="&#xa8;" glyph-name="dieresis" horiz-adv-x="333" d="M83 612Q68 590 43 590Q0 590 0 642Q0 666 16 686T56 706Q68 706 78 700Q95 687 95 656Q95 630 83 612ZM245 612Q230 590 205 590Q163 590 163 642Q163 666 179 686T219 706Q230 706 240 700Q258
687 258 656Q258 630 245 612Z" />
<glyph unicode="&#xa9;" glyph-name="copyright" horiz-adv-x="551" d="M474 494Q476 440 458 387Q436 324 392 284Q280 184 192 184H142Q110 184 58 228Q0 278 0 363Q0 377 3 387Q23 481 76 562Q140 661 233 701Q250 705 271 701Q470 632 474 494ZM400 512Q398
553 382 573Q374 583 333 613Q311 628 277 627Q204 623 140 525T79 331Q82 241 156 241Q228 241 309 303Q344 330 364 365Q366 370 390 422Q402 449 400 512ZM344 352Q344 337 310 331Q286 325 261 325Q259 325 252 325T242 326Q194 326 151 348Q97 375 97 422Q97
472 178 518Q251 559 299 559Q314 559 328 549T343 527Q343 512 321 510Q286 510 243 491Q220 481 189 460Q145 430 145 412Q145 394 197 383Q234 375 252 375Q254 375 284 378T318 382Q326 382 335 370T344 352Z" />
<glyph unicode="&#xaa;" glyph-name="ordfeminine" horiz-adv-x="551" d="M476 397Q476 386 466 374T443 362Q425 362 397 396Q376 421 356 446Q315 399 260 371T159 342Q156 342 149 345T137 348Q79 348 40 385T0 469Q0 542 116 626Q223 703 286 703Q307 703
321 688Q339 668 355 650T394 549Q401 520 438 458T476 397ZM299 580Q299 594 285 619Q225 593 171 550Q104 496 84 441Q105 426 143 426Q207 426 254 476Q299 523 299 580Z" />
<glyph unicode="&#xab;" glyph-name="guillemotleft" horiz-adv-x="645" d="M337 468Q334 448 88 255Q113 225 161 186Q212 144 237 117Q267 99 296 80Q337 51 331 13Q327 -16 304 -11Q291 -9 201 62Q118 128 108 139Q74 167 40 196Q0 232 0 271Q0 279 1 286T150
410T309 525Q326 521 333 503T337 468ZM567 468Q564 448 318 255Q343 225 391 186Q442 144 467 117Q497 99 526 80Q567 51 561 13Q557 -16 534 -11Q521 -9 431 62Q348 128 338 139Q304 167 270 196Q230 232 230 271Q230 279 231 286T380 410T539 525Q556 521 563
503T567 468Z" />
<glyph unicode="&#xac;" glyph-name="logicalnot" horiz-adv-x="790" d="M640 -42Q597 -36 588 16Q593 115 619 265Q568 274 500 276Q475 277 356 283Q275 288 208 286Q145 284 142 284Q0 284 4 353Q4 363 64 363Q90 363 157 360Q244 357 285 356Q291 364 443
360Q632 354 666 345Q714 333 715 286Q715 237 697 135Q676 19 673 -26Q653 -43 640 -42Z" />
<glyph unicode="&#xad;" glyph-name="uni00AD" horiz-adv-x="496" d="M421 325Q421 284 302 284L65 277Q47 277 24 299T0 344Q0 370 89 381Q158 381 229 385T369 389Q384 389 404 362Q421 337 421 325Z" />
<glyph unicode="&#xae;" glyph-name="registered" horiz-adv-x="551" d="M474 494Q476 440 458 387Q436 324 392 284Q280 184 192 184H142Q110 184 58 228Q0 278 0 363Q0 377 3 387Q23 481 76 562Q140 661 233 701Q250 705 271 701Q470 632 474 494ZM400 512Q398
553 382 573Q374 583 333 613Q311 628 277 627Q204 623 140 525T79 331Q82 241 156 241Q228 241 309 303Q344 330 364 365Q366 370 390 422Q402 449 400 512ZM393 507Q393 490 374 490Q372 490 360 492T345 495Q317 495 266 466Q211 435 211 407Q211 405 208 351T204
295Q204 285 192 279Q183 275 176 275Q150 275 150 322Q150 329 151 338L152 347V402Q152 404 150 416T147 431V523Q147 529 157 534Q166 539 169 539Q186 539 195 521Q195 520 204 493Q225 510 266 524Q310 541 336 541Q352 541 370 533Q393 522 393 507Z" />
<glyph unicode="&#xaf;" glyph-name="overscore" horiz-adv-x="496" d="M421 635Q421 594 302 594L65 587Q47 587 24 609T0 654Q0 680 89 691Q158 691 229 695T369 699Q384 699 404 672Q421 647 421 635Z" />
<glyph unicode="&#xb0;" glyph-name="degree" horiz-adv-x="449" d="M374 533Q374 467 296 406Q224 350 167 350H147Q105 350 57 380Q0 415 0 466Q0 530 75 617T212 705Q236 705 252 697Q265 689 279 681Q339 650 360 606Q374 578 374 533ZM300 549Q300 578 280
603T229 629Q196 629 137 562T78 455Q78 425 127 425Q170 425 228 457Q300 496 300 549Z" />
<glyph unicode="&#xb1;" glyph-name="plusminus" horiz-adv-x="551" d="M423 55Q423 14 304 14L67 7Q49 7 26 29T2 74Q2 100 91 111Q160 111 231 115T371 119Q386 119 406 92Q423 67 423 55ZM476 449Q476 423 425 414Q418 413 329 405Q275 400 269 386Q257 354
242 234Q232 152 201 152Q178 152 158 175T138 221Q138 217 160 355L155 375Q138 373 95 368Q59 364 54 364Q36 364 16 390Q0 412 0 421Q0 446 77 459Q171 475 175 478Q187 485 199 538Q216 610 224 631Q243 679 274 679Q288 679 304 659T320 624Q320 619 307 566T294
509Q294 495 304 493Q294 495 320 495Q324 495 356 498T392 502Q419 502 447 486T476 449Z" />
<glyph unicode="&#xb2;" glyph-name="twosuperior" horiz-adv-x="427" d="M352 321Q352 314 347 310T335 305Q338 305 202 320L52 305Q38 302 23 312T8 332Q8 339 76 368Q159 402 203 440Q272 500 272 582Q272 608 258 632Q240 662 210 662Q173 662 127 644Q95
632 59 610Q29 592 29 592Q17 592 9 601T0 620Q0 650 81 680Q152 705 195 706Q248 706 284 658Q316 614 314 566Q314 518 277 461T193 373Q227 360 305 351Q352 345 352 321Z" />
<glyph unicode="&#xb3;" glyph-name="threesuperior" horiz-adv-x="439" d="M363 413Q357 349 247 319Q183 302 131 302Q110 302 88 301T67 300Q39 300 42 335Q43 349 72 353Q90 353 108 353Q144 356 178 359Q237 366 272 380Q320 398 322 430Q324 453 266 473Q217
489 200 488L87 473Q77 475 69 490Q64 502 65 509Q66 520 118 530Q197 544 216 550Q269 566 271 593Q276 639 215 653Q192 658 135 658Q102 658 60 647T22 635Q12 635 6 648Q0 659 0 665Q2 688 66 698Q103 704 137 704Q323 704 312 573Q309 543 276 524Q280 516
301 506Q326 495 332 489Q349 475 357 450Q364 430 363 413Z" />
<glyph unicode="&#xb4;" glyph-name="acute" horiz-adv-x="428" d="M0 471Q0 480 28 498Q45 509 62 520Q184 607 258 660Q272 670 285 681Q303 694 309 694Q319 694 336 683T353 664Q353 633 210 536Q76 445 47 439Q38 437 19 448T0 471Z" />
<glyph unicode="&#xb5;" glyph-name="mu" horiz-adv-x="422" d="M347 13Q347 -10 317 -10Q296 -10 279 9Q277 12 251 49Q239 46 200 19Q167 -3 132 -3Q100 -3 74 11L70 -35Q71 -45 70 -99Q69 -112 69 -231Q69 -234 71 -248T74 -272Q74 -303 42 -303Q18 -303 18
-239Q18 -227 19 -210V-190Q21 14 23 65Q0 104 0 143Q0 189 17 251Q44 350 97 350Q119 350 134 334T149 299Q149 296 133 268Q114 235 103 206Q87 161 87 114Q87 93 88 91Q91 83 108 79Q193 109 233 211Q254 278 275 344Q286 348 296 348Q343 348 343 287L322 114Q322
78 334 48T347 13Z" />
<glyph unicode="&#xb6;" glyph-name="paragraph" horiz-adv-x="446" d="M0 182Q0 244 57 295T174 347Q196 347 303 322Q303 322 313 351Q317 362 343 363Q371 363 371 277Q369 -52 356 -261Q353 -305 314 -300Q301 -298 298 -289T291 -268L288 -114V-38Q288 8
286 23Q274 16 261 9Q243 -1 216 -1Q142 -1 80 39Q0 90 0 182Z" />
<glyph unicode="&#xb7;" glyph-name="middot" horiz-adv-x="151" d="M66 304Q54 286 34 286Q0 286 0 328Q0 347 13 363T45 379Q54 379 62 374Q76 364 76 339Q76 318 66 304Z" />
<glyph unicode="&#xb8;" glyph-name="cedilla" horiz-adv-x="148" d="M56 -109Q50 -120 36 -133T12 -146Q0 -146 0 -134Q0 -136 8 -122Q24 -90 24 -66Q24 -58 22 -42Q20 -30 21 -23Q22 -19 35 -9T55 -2Q73 -11 73 -42Q73 -78 56 -109Z" />
<glyph unicode="&#xb9;" glyph-name="onesuperior" horiz-adv-x="120" d="M43 558L39 515Q40 508 39 467Q39 457 39 368Q39 366 40 355T42 337Q42 314 18 314Q0 314 0 362Q0 371 1 384Q1 397 1 399Q3 570 5 598L10 652Q11 658 10 670Q9 685 9 688Q9 706 21 712Q45
702 45 612Q45 583 43 558Z" />
<glyph unicode="&#xba;" glyph-name="ordmasculine" horiz-adv-x="449" d="M374 540Q374 474 296 413Q224 357 167 357H147Q105 357 57 387Q0 422 0 473Q0 537 75 624T212 712Q236 712 252 704Q265 696 279 688Q339 657 360 613Q374 585 374 540ZM300 556Q300
585 280 610T229 636Q196 636 137 569T78 462Q78 432 127 432Q170 432 228 464Q300 503 300 556Z" />
<glyph unicode="&#xbb;" glyph-name="guillemotright" horiz-adv-x="644" d="M2 471Q0 487 7 505T31 528Q42 530 189 414T338 290T339 274Q339 235 299 199Q265 170 231 142Q221 131 138 65Q49 -6 35 -8Q12 -13 8 16Q2 54 43 83Q73 102 102 120Q127 147 178 189Q226
228 251 258Q5 451 2 471ZM232 471Q230 487 237 505T261 528Q272 530 419 414T568 290T569 274Q569 235 529 199Q495 170 461 142Q451 131 368 65Q279 -6 265 -8Q242 -13 238 16Q232 54 273 83Q303 102 332 120Q357 147 408 189Q456 228 481 258Q235 451 232 471Z"
/>
<glyph unicode="&#xbc;" glyph-name="onequarter" horiz-adv-x="754" d="M425 478Q425 460 241 229Q56 -5 34 -5Q0 -5 0 21Q0 31 128 187Q268 358 288 391Q306 420 335 454Q377 502 398 502Q425 502 425 478ZM69 420L65 377Q66 370 65 329Q65 319 65 230Q65 228
66 217T68 199Q68 176 44 176Q26 176 26 224Q26 233 27 246Q27 259 27 261Q29 432 31 460L36 514Q37 520 36 532Q35 547 35 550Q35 568 47 574Q71 564 71 474Q71 445 69 420ZM679 187Q679 173 665 170Q646 166 644 163Q644 129 642 61T614 -8Q586 -8 586 42L592
164Q584 169 546 169Q527 169 494 168T455 166Q404 166 404 227V367Q404 374 408 385Q414 398 422 398Q460 397 460 325Q460 315 459 296T458 268Q458 230 469 220Q519 220 539 219T577 218Q590 218 590 305T610 392Q623 392 634 376Q641 363 641 352Q638 327 640
286Q641 216 641 222Q669 220 675 211Q679 207 679 187Z" />
<glyph unicode="&#xbd;" glyph-name="onehalf" horiz-adv-x="770" d="M425 478Q425 460 241 229Q56 -5 34 -5Q0 -5 0 21Q0 31 128 187Q268 358 288 391Q306 420 335 454Q377 502 398 502Q425 502 425 478ZM84 405L80 362Q81 355 80 314Q80 304 80 215Q80 213 81
202T83 184Q83 161 59 161Q41 161 41 209Q41 218 42 231Q42 244 42 246Q44 417 46 445L51 499Q52 505 51 517Q50 532 50 535Q50 553 62 559Q86 549 86 459Q86 430 84 405ZM695 11Q695 4 690 0T678 -5Q681 -5 545 10L395 -5Q381 -8 366 2T351 22Q351 29 419 58Q503
92 547 130Q616 190 616 272Q616 298 602 322Q584 352 554 352Q517 352 470 334Q439 322 403 300Q372 282 372 282Q361 282 353 291T344 310Q344 340 425 370Q495 395 539 396Q592 396 627 348Q659 304 658 256Q657 208 621 151T536 63Q570 50 649 41Q695 35 695
11Z" />
<glyph unicode="&#xbe;" glyph-name="threequarters" horiz-adv-x="1019" d="M698 478Q698 460 514 229Q329 -5 307 -5Q273 -5 273 21Q273 31 401 187Q541 358 561 391Q579 420 608 454Q650 502 671 502Q698 502 698 478ZM363 238Q358 174 248 144Q184 127 131
127Q110 127 88 126T68 125Q40 125 43 160Q44 174 72 178Q91 178 109 178Q144 181 179 184Q238 191 272 205Q320 223 323 255Q325 278 266 298Q218 314 200 313L87 298Q77 300 70 315Q65 327 65 334Q66 345 119 355Q197 369 216 375Q269 391 272 418Q276 464 215
478Q192 483 135 483Q102 483 60 472T23 460Q13 460 6 473Q0 484 1 490Q2 513 66 523Q104 529 137 529Q323 529 312 398Q309 368 277 349Q281 341 302 331Q326 320 332 314Q350 300 358 275Q365 255 363 238ZM944 187Q944 173 931 170Q911 166 909 163Q909 129
907 61T879 -8Q851 -8 851 42L857 164Q849 169 812 169Q793 169 760 168T721 166Q669 166 669 227V367Q669 374 674 385Q680 398 688 398Q725 397 725 325Q725 315 725 296T724 268Q724 230 734 220Q785 220 805 219T842 218Q856 218 856 305T875 392Q889 392 899
376Q907 363 907 352Q904 327 905 286Q907 216 907 222Q935 220 941 211Q944 207 944 187Z" />
<glyph unicode="&#xbf;" glyph-name="questiondown" horiz-adv-x="469" d="M0 147Q0 214 53 257Q68 268 152 313Q181 329 223 384Q247 414 250 442Q250 489 250 535Q253 600 282 599Q312 597 312 530Q312 536 310 493Q304 362 235 295Q212 273 110 218Q45 184
46 131Q46 107 78 81Q104 59 114 59Q156 56 182 56Q244 56 290 72Q322 83 346 103Q367 119 367 119Q378 119 386 103Q394 90 394 80Q394 34 316 11Q252 -9 161 -7Q110 -6 61 31Q0 77 0 147ZM247 670Q247 700 268 700Q282 700 293 678Q302 659 302 646Q302 616 279
616Q268 616 258 636T247 670Z" />
<glyph unicode="&#xc0;" glyph-name="Agrave" horiz-adv-x="623" d="M251 402Q254 402 286 411Q307 417 320 425Q302 483 294 508Q264 447 251 402ZM548 24Q548 -7 521 -7Q495 -7 471 16Q458 28 416 140Q375 245 369 275Q368 283 358 308Q347 337 341 336Q253
311 214 294Q199 282 167 201Q127 97 108 62Q70 -9 35 -9Q0 -9 0 21Q0 44 98 259Q89 258 81 256Q60 253 52 253Q10 251 10 287Q10 307 77 335T144 365Q165 431 206 528Q267 673 274 690Q289 704 301 704Q323 704 343 661Q379 539 407 451Q419 451 436 459T464 467Q508
463 508 436Q508 423 497 397Q488 394 460 379T430 364Q452 278 485 190Q511 119 538 48Q538 48 543 38T548 24ZM459 794Q459 783 440 772T412 762Q383 768 249 859Q106 956 106 987Q106 994 123 1005T150 1017Q156 1017 174 1004Q187 993 201 983Q275 930 397
843Q414 832 431 821Q459 803 459 794Z" />
<glyph unicode="&#xc1;" glyph-name="Aacute" horiz-adv-x="623" d="M251 402Q254 402 286 411Q307 417 320 425Q302 483 294 508Q264 447 251 402ZM548 24Q548 -7 521 -7Q495 -7 471 16Q458 28 416 140Q375 245 369 275Q368 283 358 308Q347 337 341 336Q253
311 214 294Q199 282 167 201Q127 97 108 62Q70 -9 35 -9Q0 -9 0 21Q0 44 98 259Q89 258 81 256Q60 253 52 253Q10 251 10 287Q10 307 77 335T144 365Q165 431 206 528Q267 673 274 690Q289 704 301 704Q323 704 343 661Q379 539 407 451Q419 451 436 459T464 467Q508
463 508 436Q508 423 497 397Q488 394 460 379T430 364Q452 278 485 190Q511 119 538 48Q538 48 543 38T548 24ZM102 794Q102 803 130 821Q147 832 164 843Q286 930 360 983Q374 993 387 1004Q405 1017 411 1017Q421 1017 438 1006T455 987Q455 956 312 859Q178
768 149 762Q140 760 121 771T102 794Z" />
<glyph unicode="&#xc2;" glyph-name="Acircumflex" horiz-adv-x="623" d="M251 402Q254 402 286 411Q307 417 320 425Q302 483 294 508Q264 447 251 402ZM548 24Q548 -7 521 -7Q495 -7 471 16Q458 28 416 140Q375 245 369 275Q368 283 358 308Q347 337 341 336Q253
311 214 294Q199 282 167 201Q127 97 108 62Q70 -9 35 -9Q0 -9 0 21Q0 44 98 259Q89 258 81 256Q60 253 52 253Q10 251 10 287Q10 307 77 335T144 365Q165 431 206 528Q267 673 274 690Q289 704 301 704Q323 704 343 661Q379 539 407 451Q419 451 436 459T464 467Q508
463 508 436Q508 423 497 397Q488 394 460 379T430 364Q452 278 485 190Q511 119 538 48Q538 48 543 38T548 24ZM462 769Q463 757 448 757Q437 757 403 790Q341 849 306 880Q288 869 211 809Q150 762 131 757Q115 757 108 760Q97 764 97 775Q97 786 154 829Q189
855 224 881Q276 925 288 927Q301 928 320 917T397 849Q461 787 462 769Z" />
<glyph unicode="&#xc3;" glyph-name="Atilde" horiz-adv-x="632" d="M251 402Q254 402 286 411Q307 417 320 425Q302 483 294 508Q264 447 251 402ZM548 24Q548 -7 521 -7Q495 -7 471 16Q458 28 416 140Q375 245 369 275Q368 283 358 308Q347 337 341 336Q253
311 214 294Q199 282 167 201Q127 97 108 62Q70 -9 35 -9Q0 -9 0 21Q0 44 98 259Q89 258 81 256Q60 253 52 253Q10 251 10 287Q10 307 77 335T144 365Q165 431 206 528Q267 673 274 690Q289 704 301 704Q323 704 343 661Q379 539 407 451Q419 451 436 459T464 467Q508
463 508 436Q508 423 497 397Q488 394 460 379T430 364Q452 278 485 190Q511 119 538 48Q538 48 543 38T548 24ZM553 907Q553 884 484 838T391 792Q354 792 310 813Q279 828 244 852Q214 873 214 873Q188 873 141 817T91 760Q80 760 70 771T60 792Q60 842 117 890Q170
934 207 934Q246 934 293 895T376 856Q396 856 443 896T518 937Q530 937 541 929T553 907Z" />
<glyph unicode="&#xc4;" glyph-name="Adieresis" horiz-adv-x="623" d="M251 402Q254 402 286 411Q307 417 320 425Q302 483 294 508Q264 447 251 402ZM548 24Q548 -7 521 -7Q495 -7 471 16Q458 28 416 140Q375 245 369 275Q368 283 358 308Q347 337 341 336Q253
311 214 294Q199 282 167 201Q127 97 108 62Q70 -9 35 -9Q0 -9 0 21Q0 44 98 259Q89 258 81 256Q60 253 52 253Q10 251 10 287Q10 307 77 335T144 365Q165 431 206 528Q267 673 274 690Q289 704 301 704Q323 704 343 661Q379 539 407 451Q419 451 436 459T464 467Q508
463 508 436Q508 423 497 397Q488 394 460 379T430 364Q452 278 485 190Q511 119 538 48Q538 48 543 38T548 24ZM256 782Q241 760 216 760Q173 760 173 812Q173 836 189 856T229 876Q241 876 251 870Q268 857 268 826Q268 800 256 782ZM418 782Q403 760 378 760Q336
760 336 812Q336 836 352 856T392 876Q403 876 413 870Q431 857 431 826Q431 800 418 782Z" />
<glyph unicode="&#xc5;" glyph-name="Aring" horiz-adv-x="623" d="M445 898Q445 848 387 802Q333 760 290 760H275Q243 760 207 783Q165 809 165 847Q165 895 221 961T324 1027Q342 1027 354 1021Q363 1015 374 1009Q419 985 435 952Q445 931 445 898ZM390 910Q390
931 375 950T336 970Q312 970 268 919T223 839Q223 817 260 817Q292 817 336 841Q390 870 390 910ZM251 402Q264 447 294 508Q302 483 320 425Q307 417 286 411Q254 402 251 402ZM548 24Q548 28 543 38T538 48Q511 119 485 190Q452 278 430 364Q431 364 459 379T497
397Q508 423 508 436Q508 463 464 467Q454 468 437 460T407 451Q379 539 343 661Q323 704 301 704Q289 704 274 690Q267 673 206 528Q165 431 144 365Q144 363 77 335T10 287Q10 251 52 253Q60 253 81 256Q89 258 98 259Q0 44 0 21Q0 -9 35 -9Q70 -9 108 62Q127
97 167 201Q199 282 214 294Q253 311 341 336Q347 337 358 308Q368 283 369 275Q375 245 416 140Q458 28 471 16Q495 -7 521 -7Q548 -7 548 24Z" />
<glyph unicode="&#xc6;" glyph-name="AE" horiz-adv-x="819" d="M758 117Q699 92 566 51Q486 26 406 2H365Q359 6 353 9Q340 18 338 41Q345 50 362 59Q404 64 404 91Q404 95 403 102T402 112Q398 165 394 269Q309 246 270 231Q253 220 203 145Q142 50 116 17Q64
-48 32 -48Q0 -48 6 -20Q12 1 155 199Q145 198 138 196Q118 193 110 193Q71 191 80 225Q85 243 153 269T222 296Q257 357 319 446Q350 491 371 522H370Q352 519 341 520Q323 533 323 548Q323 560 334 575Q349 594 498 635Q601 662 705 690Q716 692 726 692Q761
692 761 664Q761 647 748 625Q725 620 593 584Q471 551 466 551Q458 527 457 476V399Q455 378 463 378Q468 378 478 384Q572 408 612 426Q653 434 653 394Q653 374 638 353Q625 350 459 295Q458 277 458 258Q458 232 462 178T466 94Q498 99 573 123Q655 149 717
175Q769 172 769 147Q769 135 758 117ZM330 330Q331 330 350 335H352Q357 337 364 339Q372 341 379 343Q387 346 392 353Q392 382 393 425Q352 371 330 330Z" />
<glyph unicode="&#xc7;" glyph-name="Ccedilla" horiz-adv-x="641" d="M563 80Q554 37 493 22Q431 0 317 0H235Q205 0 157 22T86 68Q0 162 0 261V342Q0 466 94 571Q185 671 291 681Q302 683 368 689Q415 690 418 690Q530 690 530 623Q530 584 494 584Q483 584
461 590T429 597Q374 601 345 597Q316 589 287 581T242 562Q165 533 102 435Q92 411 82 388Q77 377 73 354Q84 259 93 229Q118 147 187 109Q262 86 380 91Q408 92 456 113T533 135Q546 127 556 110T563 80ZM383 -109Q400 -78 400 -42Q400 -11 382 -2Q376 2 363
-8T348 -23Q347 -30 349 -42Q351 -58 351 -66Q351 -90 335 -122Q327 -136 327 -134Q327 -146 339 -146Q349 -146 363 -133T383 -109Z" />
<glyph unicode="&#xc8;" glyph-name="Egrave" horiz-adv-x="521" d="M435 117Q376 92 243 51Q163 26 83 2H42Q36 6 30 9Q17 18 15 41Q22 50 39 59Q81 64 81 91Q81 95 80 102T79 112Q75 167 71 276Q62 273 36 278Q14 278 14 301Q14 319 27 335Q39 338 51 341T69
353Q69 413 74 527Q69 526 47 522Q29 519 18 520Q0 533 0 548Q0 560 11 575Q26 594 175 635Q278 662 382 690Q393 692 403 692Q438 692 438 664Q438 647 425 625Q402 620 270 584Q148 551 143 551Q135 527 134 476Q134 405 134 399Q132 378 140 378Q145 378 155
384Q249 408 289 426Q330 434 330 394Q330 374 315 353Q302 350 136 295Q135 277 135 258Q135 232 139 178T143 94Q175 99 250 123Q332 149 394 175Q446 172 446 147Q446 135 435 117ZM392 794Q392 783 373 772T345 762Q316 768 182 859Q39 956 39 987Q39 994 56
1005T83 1017Q89 1017 107 1004Q120 993 134 983Q208 930 330 843Q347 832 364 821Q392 803 392 794Z" />
<glyph unicode="&#xc9;" glyph-name="Eacute" horiz-adv-x="521" d="M435 116Q376 91 243 50Q163 25 83 1H42Q36 5 30 8Q17 17 15 40Q22 49 39 58Q81 63 81 90Q81 94 80 101T79 111Q75 166 71 275Q62 272 36 277Q14 277 14 300Q14 318 27 334Q39 337 51 340T69
352Q69 412 74 526Q69 525 47 521Q29 518 18 519Q0 532 0 547Q0 559 11 574Q26 593 175 634Q278 661 382 689Q393 691 403 691Q438 691 438 663Q438 646 425 624Q402 619 270 583Q148 550 143 550Q135 526 134 475Q134 404 134 398Q132 377 140 377Q145 377 155
383Q249 407 289 425Q330 433 330 393Q330 373 315 352Q302 349 136 294Q135 276 135 257Q135 231 139 177T143 93Q175 98 250 122Q332 148 394 174Q446 171 446 146Q446 134 435 116ZM27 792Q27 801 55 819Q72 830 89 841Q211 928 285 981Q299 991 312 1002Q330
1015 336 1015Q346 1015 363 1004T380 985Q380 954 237 857Q103 766 74 760Q65 758 46 769T27 792Z" />
<glyph unicode="&#xca;" glyph-name="Ecircumflex" horiz-adv-x="521" d="M435 118Q376 93 243 52Q163 27 83 3H42Q36 7 30 10Q17 19 15 42Q22 51 39 60Q81 65 81 92Q81 96 80 103T79 113Q75 168 71 277Q62 274 36 279Q14 279 14 302Q14 320 27 336Q39 339 51
342T69 354Q69 414 74 528Q69 527 47 523Q29 520 18 521Q0 534 0 549Q0 561 11 576Q26 595 175 636Q278 663 382 691Q393 693 403 693Q438 693 438 665Q438 648 425 626Q402 621 270 585Q148 552 143 552Q135 528 134 477Q134 406 134 400Q132 379 140 379Q145
379 155 385Q249 409 289 427Q330 435 330 395Q330 375 315 354Q302 351 136 296Q135 278 135 259Q135 233 139 179T143 95Q175 100 250 124Q332 150 394 176Q446 173 446 148Q446 136 435 118ZM386 769Q387 757 372 757Q361 757 327 790Q265 849 230 880Q212 869
135 809Q74 762 55 757Q39 757 32 760Q21 764 21 775Q21 786 78 829Q113 855 148 881Q200 925 212 927Q225 928 244 917T321 849Q385 787 386 769Z" />
<glyph unicode="&#xcb;" glyph-name="Edieresis" horiz-adv-x="521" d="M435 117Q376 92 243 51Q163 26 83 2H42Q36 6 30 9Q17 18 15 41Q22 50 39 59Q81 64 81 91Q81 95 80 102T79 112Q75 167 71 276Q62 273 36 278Q14 278 14 301Q14 319 27 335Q39 338 51 341T69
353Q69 413 74 527Q69 526 47 522Q29 519 18 520Q0 533 0 548Q0 560 11 575Q26 594 175 635Q278 662 382 690Q393 692 403 692Q438 692 438 664Q438 647 425 625Q402 620 270 584Q148 551 143 551Q135 527 134 476Q134 405 134 399Q132 378 140 378Q145 378 155
384Q249 408 289 426Q330 434 330 394Q330 374 315 353Q302 350 136 295Q135 277 135 258Q135 232 139 178T143 94Q175 99 250 123Q332 149 394 175Q446 172 446 147Q446 135 435 117ZM160 780Q145 758 120 758Q77 758 77 810Q77 834 93 854T133 874Q145 874 155
868Q172 855 172 824Q172 798 160 780ZM322 780Q307 758 282 758Q240 758 240 810Q240 834 256 854T296 874Q307 874 317 868Q335 855 335 824Q335 798 322 780Z" />
<glyph unicode="&#xcc;" glyph-name="Igrave" horiz-adv-x="477" d="M385 132Q384 117 370 107Q345 90 344 89Q317 81 211 38Q123 3 87 -1Q75 -3 63 -4Q55 -5 37 3Q19 3 19 29Q19 42 23 55Q67 69 183 112Q196 395 181 559Q160 556 64 523Q25 524 13 528T0 548Q0
556 5 583Q151 639 321 691Q331 695 343 695Q366 695 384 684T402 656Q402 637 373 621Q300 583 258 576Q272 379 272 282Q272 212 267 144Q285 147 300 155Q312 161 328 162Q357 164 368 155Q376 144 385 132ZM396 784Q396 773 377 762T349 752Q320 758 186 849Q43
946 43 977Q43 984 60 995T87 1007Q93 1007 111 994Q124 983 138 973Q212 920 334 833Q351 822 368 811Q396 793 396 784Z" />
<glyph unicode="&#xcd;" glyph-name="Iacute" horiz-adv-x="477" d="M385 132Q384 117 370 107Q345 90 344 89Q317 81 211 38Q123 3 87 -1Q75 -3 63 -4Q55 -5 37 3Q19 3 19 29Q19 42 23 55Q67 69 183 112Q196 395 181 559Q160 556 64 523Q25 524 13 528T0 548Q0
556 5 583Q151 639 321 691Q331 695 343 695Q366 695 384 684T402 656Q402 637 373 621Q300 583 258 576Q272 379 272 282Q272 212 267 144Q285 147 300 155Q312 161 328 162Q357 164 368 155Q376 144 385 132ZM9 794Q9 803 37 821Q54 832 71 843Q193 930 267 983Q281
993 294 1004Q312 1017 318 1017Q328 1017 345 1006T362 987Q362 956 219 859Q85 768 56 762Q47 760 28 771T9 794Z" />
<glyph unicode="&#xce;" glyph-name="Icircumflex" horiz-adv-x="477" d="M385 132Q384 117 370 107Q345 90 344 89Q317 81 211 38Q123 3 87 -1Q75 -3 63 -4Q55 -5 37 3Q19 3 19 29Q19 42 23 55Q67 69 183 112Q196 395 181 559Q160 556 64 523Q25 524 13 528T0
548Q0 556 5 583Q151 639 321 691Q331 695 343 695Q366 695 384 684T402 656Q402 637 373 621Q300 583 258 576Q272 379 272 282Q272 212 267 144Q285 147 300 155Q312 161 328 162Q357 164 368 155Q376 144 385 132ZM370 772Q371 760 356 760Q345 760 311 793Q249
852 214 883Q196 872 119 812Q58 765 39 760Q23 760 16 763Q5 767 5 778Q5 789 62 832Q97 858 132 884Q184 928 196 930Q209 931 228 920T305 852Q369 790 370 772Z" />
<glyph unicode="&#xcf;" glyph-name="Idieresis" horiz-adv-x="477" d="M385 132Q384 117 370 107Q345 90 344 89Q317 81 211 38Q123 3 87 -1Q75 -3 63 -4Q55 -5 37 3Q19 3 19 29Q19 42 23 55Q67 69 183 112Q196 395 181 559Q160 556 64 523Q25 524 13 528T0 548Q0
556 5 583Q151 639 321 691Q331 695 343 695Q366 695 384 684T402 656Q402 637 373 621Q300 583 258 576Q272 379 272 282Q272 212 267 144Q285 147 300 155Q312 161 328 162Q357 164 368 155Q376 144 385 132ZM164 785Q149 763 124 763Q81 763 81 815Q81 839 97
859T137 879Q149 879 159 873Q176 860 176 829Q176 803 164 785ZM326 785Q311 763 286 763Q244 763 244 815Q244 839 260 859T300 879Q311 879 321 873Q339 860 339 829Q339 803 326 785Z" />
<glyph unicode="&#xd0;" glyph-name="Eth" horiz-adv-x="865" d="M782 418Q777 349 716 275Q674 223 607 173Q578 152 549 132Q461 87 322 43Q159 -8 68 -8Q41 -8 23 -3Q0 14 0 33Q0 46 5 67Q33 90 184 103Q189 133 197 303L70 299Q52 299 29 321T5 366Q5 392
94 403Q146 403 200 405Q204 525 202 539Q201 554 202 568L204 586Q204 597 190 602Q184 605 176 605Q153 605 107 584T56 564Q23 567 13 578T2 623Q40 660 124 680Q195 697 272 697Q298 697 319 695Q359 693 431 684Q535 673 578 656Q674 619 711 589Q790 525
782 418ZM426 347Q426 306 307 306L255 304Q251 204 254 164Q253 154 253 144Q253 126 262 124L280 125Q330 142 379 159Q445 182 473 199Q579 261 626 309Q691 375 700 457Q703 480 665 519Q623 562 574 570Q507 599 427 606Q365 612 274 621Q265 499 260 408Q318
411 374 411Q389 411 409 384Q426 359 426 347Z" />
<glyph unicode="&#xd1;" glyph-name="Ntilde" horiz-adv-x="596" d="M506 26Q498 -1 464 -1Q433 -1 413 18Q402 31 391 45Q308 156 231 312Q137 501 100 560Q93 534 93 447Q93 394 93 341Q109 185 104 73Q108 72 108 44Q108 -4 81 -7Q62 -9 51 8T30 43Q17 235
17 348Q17 454 18 559Q18 575 13 613Q8 648 9 667Q11 704 50 704Q63 704 73 698Q122 672 194 543Q220 496 317 296Q389 148 425 104Q426 133 428 191Q441 434 431 569Q430 582 424 617Q418 647 418 665Q429 699 446 699Q457 699 474 682Q480 675 494 651Q520 596
520 448Q520 190 521 231Q519 72 506 26ZM503 905Q503 882 434 836T341 790Q304 790 260 811Q229 826 194 850Q164 871 164 871Q138 871 91 815T41 758Q30 758 20 769T10 790Q10 840 67 888Q120 932 157 932Q196 932 243 893T326 854Q346 854 393 894T468 935Q480
935 491 927T503 905Z" />
<glyph unicode="&#xd2;" glyph-name="Ograve" horiz-adv-x="595" d="M518 420Q520 347 500 275Q476 189 428 136Q305 -1 210 -1H155Q120 -1 64 60Q33 92 16 147Q0 196 0 243Q0 261 3 275Q25 402 82 511Q153 645 254 700Q273 704 296 700Q513 606 518 420ZM436
444Q435 500 418 527Q409 540 364 580Q360 584 342 591Q318 600 302 599Q223 594 153 461T86 200Q89 77 171 77Q220 77 263 102Q294 120 338 162Q375 197 397 245Q400 251 425 322Q439 359 436 444ZM451 794Q451 783 432 772T404 762Q375 768 241 859Q98 956 98
987Q98 994 115 1005T142 1017Q148 1017 166 1004Q179 993 193 983Q267 930 389 843Q406 832 423 821Q451 803 451 794Z" />
<glyph unicode="&#xd3;" glyph-name="Oacute" horiz-adv-x="595" d="M518 420Q520 347 500 275Q476 189 428 136Q305 -1 210 -1H155Q120 -1 64 60Q33 92 16 147Q0 196 0 243Q0 261 3 275Q25 402 82 511Q153 645 254 700Q273 704 296 700Q513 606 518 420ZM436
444Q435 500 418 527Q409 540 364 580Q360 584 342 591Q318 600 302 599Q223 594 153 461T86 200Q89 77 171 77Q220 77 263 102Q294 120 338 162Q375 197 397 245Q400 251 425 322Q439 359 436 444ZM64 794Q64 803 92 821Q109 832 126 843Q248 930 322 983Q336
993 349 1004Q367 1017 373 1017Q383 1017 400 1006T417 987Q417 956 274 859Q140 768 111 762Q102 760 83 771T64 794Z" />
<glyph unicode="&#xd4;" glyph-name="Ocircumflex" horiz-adv-x="595" d="M518 420Q520 347 500 275Q476 189 428 136Q305 -1 210 -1H155Q120 -1 64 60Q33 92 16 147Q0 196 0 243Q0 261 3 275Q25 402 82 511Q153 645 254 700Q273 704 296 700Q513 606 518 420ZM436
444Q435 500 418 527Q409 540 364 580Q360 584 342 591Q318 600 302 599Q223 594 153 461T86 200Q89 77 171 77Q220 77 263 102Q294 120 338 162Q375 197 397 245Q400 251 425 322Q439 359 436 444ZM434 768Q435 756 420 756Q409 756 375 789Q313 848 278 879Q260
868 183 808Q122 761 103 756Q87 756 80 759Q69 763 69 774Q69 785 126 828Q161 854 196 880Q248 924 260 926Q273 927 292 916T369 848Q433 786 434 768Z" />
<glyph unicode="&#xd5;" glyph-name="Otilde" horiz-adv-x="608" d="M518 420Q520 347 500 275Q476 189 428 136Q305 -1 210 -1H155Q120 -1 64 60Q33 92 16 147Q0 196 0 243Q0 261 3 275Q25 402 82 511Q153 645 254 700Q273 704 296 700Q513 606 518 420ZM436
444Q435 500 418 527Q409 540 364 580Q360 584 342 591Q318 600 302 599Q223 594 153 461T86 200Q89 77 171 77Q220 77 263 102Q294 120 338 162Q375 197 397 245Q400 251 425 322Q439 359 436 444ZM535 906Q535 883 466 837T373 791Q336 791 292 812Q261 827 226
851Q196 872 196 872Q170 872 123 816T73 759Q62 759 52 770T42 791Q42 841 99 889Q152 933 189 933Q228 933 275 894T358 855Q378 855 425 895T500 936Q512 936 523 928T535 906Z" />
<glyph unicode="&#xd6;" glyph-name="Odieresis" horiz-adv-x="595" d="M518 420Q520 347 500 275Q476 189 428 136Q305 -1 210 -1H155Q120 -1 64 60Q33 92 16 147Q0 196 0 243Q0 261 3 275Q25 402 82 511Q153 645 254 700Q273 704 296 700Q513 606 518 420ZM436
444Q435 500 418 527Q409 540 364 580Q360 584 342 591Q318 600 302 599Q223 594 153 461T86 200Q89 77 171 77Q220 77 263 102Q294 120 338 162Q375 197 397 245Q400 251 425 322Q439 359 436 444ZM218 781Q203 759 178 759Q135 759 135 811Q135 835 151 855T191
875Q203 875 213 869Q230 856 230 825Q230 799 218 781ZM380 781Q365 759 340 759Q298 759 298 811Q298 835 314 855T354 875Q365 875 375 869Q393 856 393 825Q393 799 380 781Z" />
<glyph unicode="&#xd7;" glyph-name="multiply" horiz-adv-x="526" d="M421 191Q403 173 360 202Q355 206 286 264Q244 298 230 293Q199 279 103 204Q38 153 17 175Q0 192 2 222T21 269Q18 266 131 348L142 366Q128 376 94 403Q66 426 62 429Q50 442 54 474Q58
501 65 508Q82 525 146 480Q224 425 229 424Q242 421 288 450Q351 489 371 498Q419 518 441 496Q451 486 448 461T434 425Q431 421 385 393T335 362Q325 352 330 344Q325 352 343 334Q346 331 371 311T399 288Q418 269 427 238T421 191Z" />
<glyph unicode="&#xd8;" glyph-name="Oslash" horiz-adv-x="668" d="M591 420Q593 347 573 275Q549 189 501 136Q378 -1 283 -1H228Q193 -1 137 60Q106 92 89 147Q73 196 73 243Q73 261 76 275Q98 402 155 511Q226 645 327 700Q346 704 369 700Q586 606 591 420ZM509
444Q508 500 491 527Q482 540 437 580Q433 584 415 591Q391 600 375 599Q296 594 226 461T159 200Q162 77 244 77Q293 77 336 102Q367 120 411 162Q448 197 470 245Q473 251 498 322Q512 359 509 444ZM566 638Q566 613 321 305Q74 -7 45 -7Q0 -7 0 28Q0 41 171
250Q357 478 384 521Q408 560 446 605Q502 670 530 670Q566 670 566 638Z" />
<glyph unicode="&#xd9;" glyph-name="Ugrave" horiz-adv-x="649" d="M572 438Q569 340 552 278Q529 197 470 123Q441 86 369 47Q287 3 222 0Q44 -7 10 225Q0 293 8 348Q23 446 42 494Q55 528 89 584Q126 648 159 685Q178 702 197 702Q232 702 237 655Q238 636
227 620Q213 602 200 585Q146 498 106 375Q90 293 90 259Q90 227 97 200Q113 139 131 115Q158 79 208 82Q284 88 377 165Q459 233 477 355Q489 427 489 455Q489 475 486 492Q478 539 458 581Q438 620 418 659Q423 701 451 701Q489 702 530 618Q574 530 572 438ZM471
791Q471 780 452 769T424 759Q395 765 261 856Q118 953 118 984Q118 991 135 1002T162 1014Q168 1014 186 1001Q199 990 213 980Q287 927 409 840Q426 829 443 818Q471 800 471 791Z" />
<glyph unicode="&#xda;" glyph-name="Uacute" horiz-adv-x="649" d="M572 438Q569 340 552 278Q529 197 470 123Q441 86 369 47Q287 3 222 0Q44 -7 10 225Q0 293 8 348Q23 446 42 494Q55 528 89 584Q126 648 159 685Q178 702 197 702Q232 702 237 655Q238 636
227 620Q213 602 200 585Q146 498 106 375Q90 293 90 259Q90 227 97 200Q113 139 131 115Q158 79 208 82Q284 88 377 165Q459 233 477 355Q489 427 489 455Q489 475 486 492Q478 539 458 581Q438 620 418 659Q423 701 451 701Q489 702 530 618Q574 530 572 438ZM140
794Q140 803 168 821Q185 832 202 843Q324 930 398 983Q412 993 425 1004Q443 1017 449 1017Q459 1017 476 1006T493 987Q493 956 350 859Q216 768 187 762Q178 760 159 771T140 794Z" />
<glyph unicode="&#xdb;" glyph-name="Ucircumflex" horiz-adv-x="649" d="M572 438Q569 340 552 278Q529 197 470 123Q441 86 369 47Q287 3 222 0Q44 -7 10 225Q0 293 8 348Q23 446 42 494Q55 528 89 584Q126 648 159 685Q178 702 197 702Q232 702 237 655Q238
636 227 620Q213 602 200 585Q146 498 106 375Q90 293 90 259Q90 227 97 200Q113 139 131 115Q158 79 208 82Q284 88 377 165Q459 233 477 355Q489 427 489 455Q489 475 486 492Q478 539 458 581Q438 620 418 659Q423 701 451 701Q489 702 530 618Q574 530 572
438ZM474 768Q475 756 460 756Q449 756 415 789Q353 848 318 879Q300 868 223 808Q162 761 143 756Q127 756 120 759Q109 763 109 774Q109 785 166 828Q201 854 236 880Q288 924 300 926Q313 927 332 916T409 848Q473 786 474 768Z" />
<glyph unicode="&#xdc;" glyph-name="Udieresis" horiz-adv-x="649" d="M572 438Q569 340 552 278Q529 197 470 123Q441 86 369 47Q287 3 222 0Q44 -7 10 225Q0 293 8 348Q23 446 42 494Q55 528 89 584Q126 648 159 685Q178 702 197 702Q232 702 237 655Q238 636
227 620Q213 602 200 585Q146 498 106 375Q90 293 90 259Q90 227 97 200Q113 139 131 115Q158 79 208 82Q284 88 377 165Q459 233 477 355Q489 427 489 455Q489 475 486 492Q478 539 458 581Q438 620 418 659Q423 701 451 701Q489 702 530 618Q574 530 572 438ZM288
782Q273 760 248 760Q205 760 205 812Q205 836 221 856T261 876Q273 876 283 870Q300 857 300 826Q300 800 288 782ZM450 782Q435 760 410 760Q368 760 368 812Q368 836 384 856T424 876Q435 876 445 870Q463 857 463 826Q463 800 450 782Z" />
<glyph unicode="&#xdd;" glyph-name="Yacute" horiz-adv-x="557" d="M480 669Q477 622 392 499Q280 338 273 324Q260 236 260 165Q260 150 262 100Q263 60 262 30Q261 3 230 -1Q221 -3 214 -3Q191 -3 185 28Q168 116 178 271Q178 277 177 299T176 326Q168 347
141 390Q108 443 104 450Q88 481 59 550Q36 605 15 635Q0 656 0 670Q0 693 27 693Q52 693 75 671Q91 655 106 631Q129 589 159 520Q198 433 210 409Q229 410 315 553T436 699Q458 700 470 693T480 669ZM46 791Q46 800 74 818Q91 829 108 840Q230 927 304 980Q318
990 331 1001Q349 1014 355 1014Q365 1014 382 1003T399 984Q399 953 256 856Q122 765 93 759Q84 757 65 768T46 791Z" />
<glyph unicode="&#xde;" glyph-name="Thorn" horiz-adv-x="629" d="M552 537Q554 491 528 456Q524 450 467 394Q442 368 333 318Q312 308 265 295T206 277Q205 254 207 203Q209 149 209 123Q209 61 201 17Q198 2 167 2Q160 2 155 4Q130 28 130 292Q130 357 132
465Q134 573 131 591Q47 549 38 550Q25 552 13 563T1 586Q3 614 27 630Q29 631 71 651Q93 661 120 669Q119 713 116 777L114 927Q114 937 122 948T142 959Q160 959 178 931Q193 907 193 897V810Q193 766 194 714Q195 700 195 687Q207 689 219 691Q298 703 372 699Q546
689 552 537ZM467 607Q448 619 438 622Q434 623 398 626Q361 630 311 626Q231 619 197 611Q195 510 201 349Q225 350 257 362L315 386Q364 405 424 448T492 553Q494 564 485 582T467 607Z" />
<glyph unicode="&#xdf;" glyph-name="germandbls" horiz-adv-x="612" d="M369 533Q433 534 480 509Q537 477 537 417Q537 382 515 347T458 295Q444 287 385 279Q356 275 338 263Q356 251 385 247Q414 243 432 239Q433 239 434 238Q451 235 458 231Q493 215 515
180T537 109Q537 49 480 17Q433 -8 369 -8Q337 -8 309 -2Q277 4 242 35Q204 69 204 100Q204 129 233 129Q241 129 252 126Q254 126 271 109T312 83Q352 68 385 68Q458 68 460 125Q462 154 401 169L372 176Q348 178 310 189Q235 210 228 243Q226 252 226 260V264V266Q226
274 228 283Q235 316 310 337Q349 347 373 350Q387 353 401 357Q462 372 460 401Q458 458 385 458Q352 460 318 460Q295 458 284 457Q277 457 270 456Q218 446 200 407Q187 379 187 317V265Q185 229 184 205Q183 202 183 191L182 154Q183 118 182 94Q181 81 182
50Q184 23 187 -143Q187 -174 160 -176Q132 -177 122 -121Q116 -88 114 -7Q112 66 107 81Q95 81 72 77T46 73Q27 73 14 90T0 123Q0 150 54 165Q112 181 113 184Q117 277 120 371Q128 454 159 489Q196 530 292 532Q318 533 337 533Q352 534 369 533ZM474 198Q477
207 472 207Q473 203 474 198ZM495 366Q494 364 494 361Q494 363 495 366Z" />
<glyph unicode="&#xe0;" glyph-name="agrave" horiz-adv-x="551" d="M476 47Q476 36 466 24T443 12Q425 12 397 46Q376 71 356 96Q315 49 260 21T159 -8Q156 -8 149 -5T137 -2Q79 -2 40 35T0 119Q0 192 116 276Q223 353 286 353Q307 353 321 338Q339 318 355 300T394
199Q401 170 438 108T476 47ZM299 230Q299 244 285 269Q225 243 171 200Q104 146 84 91Q105 76 143 76Q207 76 254 126Q299 173 299 230ZM391 481Q391 470 372 459T344 449Q315 455 181 546Q38 643 38 674Q38 681 55 692T82 704Q88 704 106 691Q119 680 133 670Q207
617 329 530Q346 519 363 508Q391 490 391 481Z" />
<glyph unicode="&#xe1;" glyph-name="aacute" horiz-adv-x="552" d="M477 47Q477 36 467 24T444 12Q426 12 398 46Q377 71 357 96Q316 49 261 21T160 -8Q157 -8 150 -5T138 -2Q80 -2 41 35T1 119Q1 192 117 276Q224 353 287 353Q308 353 322 338Q340 318 356 300T395
199Q402 170 439 108T477 47ZM300 230Q300 244 286 269Q226 243 172 200Q105 146 85 91Q106 76 144 76Q208 76 255 126Q300 173 300 230ZM-5 481Q-5 490 23 508Q40 519 57 530Q179 617 253 670Q267 680 280 691Q298 704 304 704Q314 704 331 693T348 674Q348 643
205 546Q71 455 42 449Q33 447 14 458T-5 481Z" />
<glyph unicode="&#xe2;" glyph-name="acircumflex" horiz-adv-x="551" d="M476 47Q476 36 466 24T443 12Q425 12 397 46Q376 71 356 96Q315 49 260 21T159 -8Q156 -8 149 -5T137 -2Q79 -2 40 35T0 119Q0 192 116 276Q223 353 286 353Q307 353 321 338Q339 318
355 300T394 199Q401 170 438 108T476 47ZM299 230Q299 244 285 269Q225 243 171 200Q104 146 84 91Q105 76 143 76Q207 76 254 126Q299 173 299 230ZM365 551Q366 539 351 539Q340 539 306 572Q244 631 209 662Q191 651 114 591Q53 544 34 539Q18 539 11 542Q0
546 0 557Q0 568 57 611Q92 637 127 663Q179 707 191 709Q204 710 223 699T300 631Q364 569 365 551Z" />
<glyph unicode="&#xe3;" glyph-name="atilde" horiz-adv-x="549" d="M474 47Q474 36 464 24T441 12Q423 12 395 46Q374 71 354 96Q313 49 258 21T157 -8Q154 -8 147 -5T135 -2Q77 -2 38 35T-2 119Q-2 192 114 276Q221 353 284 353Q305 353 319 338Q337 318 353
300T392 199Q399 170 436 108T474 47ZM297 230Q297 244 283 269Q223 243 169 200Q102 146 82 91Q103 76 141 76Q205 76 252 126Q297 173 297 230ZM433 675Q433 652 364 606T271 560Q234 560 190 581Q159 596 124 620Q94 641 94 641Q68 641 21 585T-29 528Q-40 528
-50 539T-60 560Q-60 610 -3 658Q50 702 87 702Q126 702 173 663T256 624Q276 624 323 664T398 705Q410 705 421 697T433 675Z" />
<glyph unicode="&#xe4;" glyph-name="adieresis" horiz-adv-x="551" d="M476 47Q476 36 466 24T443 12Q425 12 397 46Q376 71 356 96Q315 49 260 21T159 -8Q156 -8 149 -5T137 -2Q79 -2 40 35T0 119Q0 192 116 276Q223 353 286 353Q307 353 321 338Q339 318 355
300T394 199Q401 170 438 108T476 47ZM299 230Q299 244 285 269Q225 243 171 200Q104 146 84 91Q105 76 143 76Q207 76 254 126Q299 173 299 230ZM139 612Q124 590 99 590Q56 590 56 642Q56 666 72 686T112 706Q124 706 134 700Q151 687 151 656Q151 630 139 612ZM301
612Q286 590 261 590Q219 590 219 642Q219 666 235 686T275 706Q286 706 296 700Q314 687 314 656Q314 630 301 612Z" />
<glyph unicode="&#xe5;" glyph-name="aring" horiz-adv-x="551" d="M326 580Q326 530 268 484Q214 442 171 442H156Q124 442 88 465Q46 491 46 529Q46 577 102 643T205 709Q223 709 235 703Q244 697 255 691Q300 667 316 634Q326 613 326 580ZM271 592Q271 613
256 632T217 652Q193 652 149 601T104 521Q104 499 141 499Q173 499 217 523Q271 552 271 592ZM476 47Q476 36 466 24T443 12Q425 12 397 46Q376 71 356 96Q315 49 260 21T159 -8Q156 -8 149 -5T137 -2Q79 -2 40 35T0 119Q0 192 116 276Q223 353 286 353Q307 353
321 338Q339 318 355 300T394 199Q401 170 438 108T476 47ZM299 230Q299 244 285 269Q225 243 171 200Q104 146 84 91Q105 76 143 76Q207 76 254 126Q299 173 299 230Z" />
<glyph unicode="&#xe6;" glyph-name="ae" horiz-adv-x="844" d="M476 47Q476 36 466 24T443 12Q425 12 397 46Q376 71 356 96Q315 49 260 21T159 -8Q156 -8 149 -5T137 -2Q79 -2 40 35T0 119Q0 192 116 276Q223 353 286 353Q307 353 321 338Q339 318 355 300T394
199Q401 170 438 108T476 47ZM299 230Q299 244 285 269Q225 243 171 200Q104 146 84 91Q105 76 143 76Q207 76 254 126Q299 173 299 230ZM769 13Q769 -13 712 -26Q678 -34 642 -35T583 -37Q565 -38 563 -38Q500 -38 436 10Q367 62 367 127Q367 192 480 271Q584
344 644 344Q672 344 699 321T727 272Q727 228 662 182Q611 147 536 120Q470 96 453 99Q478 52 584 38Q615 34 716 58Q728 58 748 40T769 13ZM605 228Q624 244 624 256Q624 265 610 268Q591 271 542 244T493 216Q493 216 492 217Q493 218 496 221Q504 230 505 230Q505
231 495 214T484 188Q484 182 490 181Q545 177 605 228Z" />
<glyph unicode="&#xe7;" glyph-name="ccedilla" horiz-adv-x="415" d="M340 31Q340 10 293 -1Q259 -9 225 -9Q222 -9 212 -8T199 -7Q134 -7 75 26Q0 67 0 138Q0 211 112 282Q212 344 278 344Q298 344 318 329T338 295Q338 273 309 270Q259 269 201 242Q170 227
126 194Q66 149 66 122Q66 95 138 78Q188 66 214 66Q217 66 258 71T303 76Q316 76 328 58T340 31ZM216 -119Q233 -88 233 -52Q233 -21 215 -12Q209 -8 196 -18T181 -33Q180 -40 182 -52Q184 -68 184 -76Q184 -100 168 -132Q160 -146 160 -144Q160 -156 172 -156Q182
-156 196 -143T216 -119Z" />
<glyph unicode="&#xe8;" glyph-name="egrave" horiz-adv-x="475" d="M400 43Q400 17 343 4Q309 -4 273 -5T214 -7Q196 -8 194 -8Q131 -8 67 40Q-2 92 -2 157Q-2 222 111 301Q215 374 275 374Q303 374 330 351T358 302Q358 258 293 212Q242 177 167 150Q101 126
84 129Q109 82 215 68Q246 64 347 88Q359 88 379 70T400 43ZM236 258Q255 274 255 286Q255 295 241 298Q222 301 173 274T124 246Q124 246 123 247Q124 248 127 251Q135 260 136 260Q136 261 126 244T115 218Q115 212 121 211Q176 207 236 258ZM363 481Q363 470
344 459T316 449Q287 455 153 546Q10 643 10 674Q10 681 27 692T54 704Q60 704 78 691Q91 680 105 670Q179 617 301 530Q318 519 335 508Q363 490 363 481Z" />
<glyph unicode="&#xe9;" glyph-name="eacute" horiz-adv-x="479" d="M404 43Q404 17 347 4Q313 -4 277 -5T218 -7Q200 -8 198 -8Q135 -8 71 40Q2 92 2 157Q2 222 115 301Q219 374 279 374Q307 374 334 351T362 302Q362 258 297 212Q246 177 171 150Q105 126 88
129Q113 82 219 68Q250 64 351 88Q363 88 383 70T404 43ZM240 258Q259 274 259 286Q259 295 245 298Q226 301 177 274T128 246Q128 246 127 247Q128 248 131 251Q139 260 140 260Q140 261 130 244T119 218Q119 212 125 211Q180 207 240 258ZM10 481Q10 490 38 508Q55
519 72 530Q194 617 268 670Q282 680 295 691Q313 704 319 704Q329 704 346 693T363 674Q363 643 220 546Q86 455 57 449Q48 447 29 458T10 481Z" />
<glyph unicode="&#xea;" glyph-name="ecircumflex" horiz-adv-x="474" d="M399 43Q399 17 342 4Q308 -4 272 -5T213 -7Q195 -8 193 -8Q130 -8 66 40Q-3 92 -3 157Q-3 222 110 301Q214 374 274 374Q302 374 329 351T357 302Q357 258 292 212Q241 177 166 150Q100
126 83 129Q108 82 214 68Q245 64 346 88Q358 88 378 70T399 43ZM235 258Q254 274 254 286Q254 295 240 298Q221 301 172 274T123 246Q123 246 122 247Q123 248 126 251Q134 260 135 260Q135 261 125 244T114 218Q114 212 120 211Q175 207 235 258ZM365 461Q366
449 351 449Q340 449 306 482Q244 541 209 572Q191 561 114 501Q53 454 34 449Q18 449 11 452Q0 456 0 467Q0 478 57 521Q92 547 127 573Q179 617 191 619Q204 620 223 609T300 541Q364 479 365 461Z" />
<glyph unicode="&#xeb;" glyph-name="edieresis" horiz-adv-x="477" d="M402 43Q402 17 345 4Q311 -4 275 -5T216 -7Q198 -8 196 -8Q133 -8 69 40Q0 92 0 157Q0 222 113 301Q217 374 277 374Q305 374 332 351T360 302Q360 258 295 212Q244 177 169 150Q103 126
86 129Q111 82 217 68Q248 64 349 88Q361 88 381 70T402 43ZM238 258Q257 274 257 286Q257 295 243 298Q224 301 175 274T126 246Q126 246 125 247Q126 248 129 251Q137 260 138 260Q138 261 128 244T117 218Q117 212 123 211Q178 207 238 258ZM172 612Q157 590
132 590Q89 590 89 642Q89 666 105 686T145 706Q157 706 167 700Q184 687 184 656Q184 630 172 612ZM334 612Q319 590 294 590Q252 590 252 642Q252 666 268 686T308 706Q319 706 329 700Q347 687 347 656Q347 630 334 612Z" />
<glyph unicode="&#xec;" glyph-name="igrave" horiz-adv-x="191" d="M68 404Q68 394 59 388T39 381Q22 381 6 400T-11 434Q-11 442 -2 452T18 463Q36 463 52 440T68 404ZM86 23Q86 13 76 4T58 -5Q1 -5 1 153L4 309Q4 319 12 330T32 341Q50 341 68 313Q83 289 83
279V192Q83 148 84 97T86 23ZM213 481Q213 470 194 459T166 449Q137 455 3 546Q-140 643 -140 674Q-140 681 -123 692T-96 704Q-90 704 -72 691Q-59 680 -45 670Q29 617 151 530Q168 519 185 508Q213 490 213 481Z" />
<glyph unicode="&#xed;" glyph-name="iacute" horiz-adv-x="184" d="M72 404Q72 394 63 388T43 381Q26 381 10 400T-7 434Q-7 442 2 452T22 463Q40 463 56 440T72 404ZM90 23Q90 13 80 4T62 -5Q5 -5 5 153L8 309Q8 319 16 330T36 341Q54 341 72 313Q87 289 87
279V192Q87 148 88 97T90 23ZM-160 491Q-160 500 -132 518Q-115 529 -98 540Q24 627 98 680Q112 690 125 701Q143 714 149 714Q159 714 176 703T193 684Q193 653 50 556Q-84 465 -113 459Q-122 457 -141 468T-160 491Z" />
<glyph unicode="&#xee;" glyph-name="icircumflex" horiz-adv-x="172" d="M66 404Q66 394 57 388T37 381Q20 381 4 400T-13 434Q-13 442 -4 452T16 463Q34 463 50 440T66 404ZM84 23Q84 13 74 4T56 -5Q-1 -5 -1 153L2 309Q2 319 10 330T30 341Q48 341 66 313Q81
289 81 279V192Q81 148 82 97T84 23ZM205 551Q206 539 191 539Q180 539 146 572Q84 631 49 662Q31 651 -46 591Q-107 544 -126 539Q-142 539 -149 542Q-160 546 -160 557Q-160 568 -103 611Q-68 637 -33 663Q19 707 31 709Q44 710 63 699T140 631Q204 569 205 551Z"
/>
<glyph unicode="&#xef;" glyph-name="idieresis" horiz-adv-x="177" d="M70 404Q70 394 61 388T41 381Q24 381 8 400T-9 434Q-9 442 0 452T20 463Q38 463 54 440T70 404ZM88 23Q88 13 78 4T60 -5Q3 -5 3 153L6 309Q6 319 14 330T34 341Q52 341 70 313Q85 289 85
279V192Q85 148 86 97T88 23ZM-7 612Q-22 590 -47 590Q-90 590 -90 642Q-90 666 -74 686T-34 706Q-22 706 -12 700Q5 687 5 656Q5 630 -7 612ZM155 612Q140 590 115 590Q73 590 73 642Q73 666 89 686T129 706Q140 706 150 700Q168 687 168 656Q168 630 155 612Z"
/>
<glyph unicode="&#xf0;" glyph-name="eth" horiz-adv-x="563" d="M228 450Q228 459 256 477L290 499Q326 524 358 547Q358 569 357 596Q356 630 356 640Q356 670 363 681T391 693Q427 693 443 608Q466 625 486 639Q500 649 513 660Q531 673 537 673Q547 673 564
662T581 643Q581 613 452 524Q455 480 455 425L439 243V113L445 4Q445 -38 416 -38Q381 -38 353 4Q325 4 267 2L210 1Q120 1 62 43Q0 88 0 162Q0 218 79 275Q137 316 215 345Q288 372 346 367Q352 414 355 460Q293 422 275 418Q266 416 247 427T228 450ZM345 115Q345
128 342 172T338 239Q338 271 345 280Q283 280 192 233Q87 180 91 124Q110 113 155 99Q195 87 197 84H311Q326 84 335 95T345 115Z" />
<glyph unicode="&#xf1;" glyph-name="ntilde" horiz-adv-x="544" d="M467 152Q467 124 449 66Q424 -13 389 -13Q376 -13 357 9T338 42Q377 109 377 172Q377 275 251 275Q237 275 170 242T100 199Q96 183 95 175Q95 170 96 160Q97 147 97 133Q97 98 100 70T103
30Q103 -4 69 -4Q4 -4 4 229Q4 286 5 300Q12 358 38 358Q73 358 96 302Q131 316 167 330Q224 351 263 351Q346 351 406 290T467 152ZM483 665Q483 642 414 596T321 550Q284 550 240 571Q209 586 174 610Q144 631 144 631Q118 631 71 575T21 518Q10 518 0 529T-10
550Q-10 600 47 648Q100 692 137 692Q176 692 223 653T306 614Q326 614 373 654T448 695Q460 695 471 687T483 665Z" />
<glyph unicode="&#xf2;" glyph-name="ograve" horiz-adv-x="449" d="M374 173Q374 107 296 46Q224 -10 167 -10H147Q105 -10 57 20Q0 55 0 106Q0 170 75 257T212 345Q236 345 252 337Q265 329 279 321Q339 290 360 246Q374 218 374 173ZM300 189Q300 218 280 243T229
269Q196 269 137 202T78 95Q78 65 127 65Q170 65 228 97Q300 136 300 189ZM363 481Q363 470 344 459T316 449Q287 455 153 546Q10 643 10 674Q10 681 27 692T54 704Q60 704 78 691Q91 680 105 670Q179 617 301 530Q318 519 335 508Q363 490 363 481Z" />
<glyph unicode="&#xf3;" glyph-name="oacute" horiz-adv-x="453" d="M378 173Q378 107 300 46Q228 -10 171 -10H151Q109 -10 61 20Q4 55 4 106Q4 170 79 257T216 345Q240 345 256 337Q269 329 283 321Q343 290 364 246Q378 218 378 173ZM304 189Q304 218 284 243T233
269Q200 269 141 202T82 95Q82 65 131 65Q174 65 232 97Q304 136 304 189ZM0 481Q0 490 28 508Q45 519 62 530Q184 617 258 670Q272 680 285 691Q303 704 309 704Q319 704 336 693T353 674Q353 643 210 546Q76 455 47 449Q38 447 19 458T0 481Z" />
<glyph unicode="&#xf4;" glyph-name="ocircumflex" horiz-adv-x="447" d="M372 173Q372 107 294 46Q222 -10 165 -10H145Q103 -10 55 20Q-2 55 -2 106Q-2 170 73 257T210 345Q234 345 250 337Q263 329 277 321Q337 290 358 246Q372 218 372 173ZM298 189Q298 218
278 243T227 269Q194 269 135 202T76 95Q76 65 125 65Q168 65 226 97Q298 136 298 189ZM365 541Q366 529 351 529Q340 529 306 562Q244 621 209 652Q191 641 114 581Q53 534 34 529Q18 529 11 532Q0 536 0 547Q0 558 57 601Q92 627 127 653Q179 697 191 699Q204
700 223 689T300 621Q364 559 365 541Z" />
<glyph unicode="&#xf5;" glyph-name="otilde" horiz-adv-x="455" d="M371 173Q371 107 293 46Q221 -10 164 -10H144Q102 -10 54 20Q-3 55 -3 106Q-3 170 72 257T209 345Q233 345 249 337Q262 329 276 321Q336 290 357 246Q371 218 371 173ZM297 189Q297 218 277
243T226 269Q193 269 134 202T75 95Q75 65 124 65Q167 65 225 97Q297 136 297 189ZM435 675Q435 652 366 606T273 560Q236 560 192 581Q161 596 126 620Q96 641 96 641Q70 641 23 585T-27 528Q-38 528 -48 539T-58 560Q-58 610 -1 658Q52 702 89 702Q128 702 175
663T258 624Q278 624 325 664T400 705Q412 705 423 697T435 675Z" />
<glyph unicode="&#xf6;" glyph-name="odieresis" horiz-adv-x="449" d="M374 173Q374 107 296 46Q224 -10 167 -10H147Q105 -10 57 20Q0 55 0 106Q0 170 75 257T212 345Q236 345 252 337Q265 329 279 321Q339 290 360 246Q374 218 374 173ZM300 189Q300 218 280
243T229 269Q196 269 137 202T78 95Q78 65 127 65Q170 65 228 97Q300 136 300 189ZM141 612Q126 590 101 590Q58 590 58 642Q58 666 74 686T114 706Q126 706 136 700Q153 687 153 656Q153 630 141 612ZM303 612Q288 590 263 590Q221 590 221 642Q221 666 237 686T277
706Q288 706 298 700Q316 687 316 656Q316 630 303 612Z" />
<glyph unicode="&#xf7;" glyph-name="divide" horiz-adv-x="467" d="M371 304Q383 304 328 296L63 262Q0 264 0 304Q0 331 25 331Q27 331 34 329T46 326L288 352Q291 352 323 359T357 366Q371 366 381 353T392 325Q392 304 371 304ZM209 145Q197 127 177 127Q143
127 143 169Q143 188 156 204T188 220Q197 220 205 215Q219 205 219 180Q219 159 209 145ZM209 415Q197 397 177 397Q143 397 143 439Q143 458 156 474T188 490Q197 490 205 485Q219 475 219 450Q219 429 209 415Z" />
<glyph unicode="&#xf8;" glyph-name="oslash" horiz-adv-x="449" d="M10 -79Q7 -71 25 -43Q36 -26 47 -8L62 17L57 20Q0 55 0 106Q0 170 75 257T212 345Q236 345 252 337Q259 348 264 357L280 387Q291 407 296 409Q305 413 325 410T349 400Q357 380 314 299Q346
275 360 246Q374 218 374 173Q374 107 296 46Q224 -10 167 -10H147Q136 -10 125 -8Q77 -80 66 -88Q59 -94 37 -92T10 -79ZM300 189Q300 217 281 241Q276 233 271 224Q217 137 178 74Q201 82 228 97Q300 136 300 189ZM137 201Q78 134 78 95Q78 78 94 70Q165 191
209 264Q180 251 137 201Z" />
<glyph unicode="&#xf9;" glyph-name="ugrave" horiz-adv-x="426" d="M351 13Q351 -10 321 -10Q300 -10 283 9Q281 12 255 49Q243 46 204 19Q171 -3 136 -3Q73 -3 35 53Q4 98 4 143Q4 189 21 251Q48 350 101 350Q123 350 138 334T153 299Q153 296 137 268Q118 235
107 206Q91 161 91 114Q91 93 92 91Q95 83 112 79Q197 109 237 211Q258 278 279 344Q290 348 300 348Q347 348 347 287L326 114Q326 78 338 48T351 13ZM350 481Q350 470 331 459T303 449Q274 455 140 546Q-3 643 -3 674Q-3 681 14 692T41 704Q47 704 65 691Q78
680 92 670Q166 617 288 530Q305 519 322 508Q350 490 350 481Z" />
<glyph unicode="&#xfa;" glyph-name="uacute" horiz-adv-x="419" d="M348 13Q348 -10 318 -10Q297 -10 280 9Q278 12 252 49Q240 46 201 19Q168 -3 133 -3Q70 -3 32 53Q1 98 1 143Q1 189 18 251Q45 350 98 350Q120 350 135 334T150 299Q150 296 134 268Q115 235
104 206Q88 161 88 114Q88 93 89 91Q92 83 109 79Q194 109 234 211Q255 278 276 344Q287 348 297 348Q344 348 344 287L323 114Q323 78 335 48T348 13ZM-10 481Q-10 490 18 508Q35 519 52 530Q174 617 248 670Q262 680 275 691Q293 704 299 704Q309 704 326 693T343
674Q343 643 200 546Q66 455 37 449Q28 447 9 458T-10 481Z" />
<glyph unicode="&#xfb;" glyph-name="ucircumflex" horiz-adv-x="415" d="M344 13Q344 -10 314 -10Q293 -10 276 9Q274 12 248 49Q236 46 197 19Q164 -3 129 -3Q66 -3 28 53Q-3 98 -3 143Q-3 189 14 251Q41 350 94 350Q116 350 131 334T146 299Q146 296 130 268Q111
235 100 206Q84 161 84 114Q84 93 85 91Q88 83 105 79Q190 109 230 211Q251 278 272 344Q283 348 293 348Q340 348 340 287L319 114Q319 78 331 48T344 13ZM366 551Q367 539 352 539Q341 539 307 572Q245 631 210 662Q192 651 115 591Q54 544 35 539Q19 539 12
542Q1 546 1 557Q1 568 58 611Q93 637 128 663Q180 707 192 709Q205 710 224 699T301 631Q365 569 366 551Z" />
<glyph unicode="&#xfc;" glyph-name="udieresis" horiz-adv-x="422" d="M347 13Q347 -10 317 -10Q296 -10 279 9Q277 12 251 49Q239 46 200 19Q167 -3 132 -3Q69 -3 31 53Q0 98 0 143Q0 189 17 251Q44 350 97 350Q119 350 134 334T149 299Q149 296 133 268Q114
235 103 206Q87 161 87 114Q87 93 88 91Q91 83 108 79Q193 109 233 211Q254 278 275 344Q286 348 296 348Q343 348 343 287L322 114Q322 78 334 48T347 13ZM143 612Q128 590 103 590Q60 590 60 642Q60 666 76 686T116 706Q128 706 138 700Q155 687 155 656Q155
630 143 612ZM305 612Q290 590 265 590Q223 590 223 642Q223 666 239 686T279 706Q290 706 300 700Q318 687 318 656Q318 630 305 612Z" />
<glyph unicode="&#xfd;" glyph-name="yacute" horiz-adv-x="437" d="M362 309Q362 280 338 237Q318 203 299 168Q297 163 201 15Q110 -126 91 -180Q48 -302 23 -302Q7 -302 -8 -279Q-21 -260 -21 -249Q-21 -246 -9 -226Q4 -202 8 -192Q56 -65 105 13Q142 72 142
74Q142 78 126 96Q107 120 98 135Q85 158 47 229Q4 312 4 320Q4 349 29 349Q51 349 106 250Q169 140 176 133Q185 144 257 258Q315 352 330 352Q362 352 362 309ZM0 481Q0 490 28 508Q45 519 62 530Q184 617 258 670Q272 680 285 691Q303 704 309 704Q319 704 336
693T353 674Q353 643 210 546Q76 455 47 449Q38 447 19 458T0 481Z" />
<glyph unicode="&#xfe;" glyph-name="thorn" horiz-adv-x="449" d="M374 182Q374 90 294 39Q232 -1 158 -1Q131 -1 113 9Q100 16 88 23Q86 8 86 -38V-114L83 -268Q80 -279 77 -288T60 -300Q21 -305 18 -261Q5 -52 3 277Q3 290 3 301Q0 330 0 370L3 526Q3 536 11
547T31 558Q49 558 67 530Q82 506 82 496V409Q82 370 83 325Q179 347 200 347Q260 347 317 296T374 182ZM303 209Q303 235 280 254T228 274Q191 274 145 256Q79 231 79 185Q79 108 84 81Q93 83 113 81T132 78Q180 78 231 105Q303 142 303 209Z" />
<glyph unicode="&#xff;" glyph-name="ydieresis" horiz-adv-x="438" d="M363 309Q363 280 339 237Q319 203 300 168Q298 163 202 15Q111 -126 92 -180Q49 -302 24 -302Q8 -302 -7 -279Q-20 -260 -20 -249Q-20 -246 -8 -226Q5 -202 9 -192Q57 -65 106 13Q143 72
143 74Q143 78 127 96Q108 120 99 135Q86 158 48 229Q5 312 5 320Q5 349 30 349Q52 349 107 250Q170 140 177 133Q186 144 258 258Q316 352 331 352Q363 352 363 309ZM135 612Q120 590 95 590Q52 590 52 642Q52 666 68 686T108 706Q120 706 130 700Q147 687 147
656Q147 630 135 612ZM297 612Q282 590 257 590Q215 590 215 642Q215 666 231 686T271 706Q282 706 292 700Q310 687 310 656Q310 630 297 612Z" />
<glyph unicode="&#x152;" glyph-name="OE" horiz-adv-x="876" d="M815 117Q756 92 623 51Q543 26 463 2H422Q416 5 411 8Q363 0 292 0H216Q189 0 144 19T79 58Q0 139 0 224V293Q0 400 87 490Q170 576 268 584Q278 586 339 591Q382 592 385 592Q402 592 417 590Q457
608 555 635Q658 662 762 690Q773 692 783 692Q818 692 818 664Q818 647 805 625Q782 620 650 584Q528 551 523 551Q515 527 514 476V399Q512 378 520 378Q525 378 535 384Q629 408 669 426Q710 434 710 394Q710 374 695 353Q682 350 516 295Q515 277 515 258Q515
232 519 178T523 94Q555 99 630 123Q712 149 774 175Q826 172 826 147Q826 135 815 117ZM459 112Q455 167 451 276Q442 273 416 278Q394 278 394 301Q394 319 407 335L431 341Q443 344 449 353Q449 406 452 501Q442 501 424 506Q403 512 395 512Q344 516 318 512Q291
505 264 499T223 482Q152 457 94 373Q85 353 75 333Q71 324 67 304Q77 222 86 197Q109 126 172 94Q241 74 350 78Q376 79 420 97Q442 105 459 110V112Z" />
<glyph unicode="&#x153;" glyph-name="oe" horiz-adv-x="798" d="M374 173Q374 107 296 46Q224 -10 167 -10H147Q105 -10 57 20Q0 55 0 106Q0 170 75 257T212 345Q236 345 252 337Q265 329 279 321Q339 290 360 246Q374 218 374 173ZM300 189Q300 218 280 243T229
269Q196 269 137 202T78 95Q78 65 127 65Q170 65 228 97Q300 136 300 189ZM723 43Q723 17 666 4Q632 -4 596 -5T537 -7Q519 -8 517 -8Q454 -8 390 40Q321 92 321 157Q321 222 434 301Q538 374 598 374Q626 374 653 351T681 302Q681 258 616 212Q565 177 490 150Q424
126 407 129Q432 82 538 68Q569 64 670 88Q682 88 702 70T723 43ZM559 258Q578 274 578 286Q578 295 564 298Q545 301 496 274T447 246Q447 246 446 247Q447 248 450 251Q458 260 459 260Q459 261 449 244T438 218Q438 212 444 211Q499 207 559 258Z" />
<glyph unicode="&#x160;" glyph-name="Scaron" horiz-adv-x="792" d="M520 918Q519 900 455 838Q397 781 378 770T346 760Q334 762 282 806Q247 832 212 858Q155 901 155 912Q155 923 166 927Q173 930 189 930Q208 925 269 878Q346 818 364 807Q399 838 461 897Q495
930 506 930Q521 930 520 918ZM482 701Q530 702 588 688Q611 682 636 665Q672 640 672 624Q672 608 662 598T609 593Q502 610 465 609Q396 607 385 606Q348 602 299 588Q190 556 192 530Q193 511 231 497Q242 493 311 474Q374 463 515 434Q717 386 717 249Q717
237 715 224Q705 148 644 101Q597 65 495 31T265 3Q47 12 16 49Q0 68 0 85Q0 112 42 112Q51 112 62 110Q153 105 294 93Q346 87 494 128Q529 137 573 178Q622 222 622 257Q622 306 576 328Q552 339 467 355Q406 365 274 393Q137 427 105 466Q71 509 72 543Q74 589
132 620Q164 638 259 667Q364 698 482 701Z" />
<glyph unicode="&#x161;" glyph-name="scaron" horiz-adv-x="515" d="M365 548Q364 530 300 468Q242 411 223 400T191 390Q179 392 127 436Q92 462 57 488Q0 531 0 542Q0 553 11 557Q18 560 34 560Q53 555 114 508Q191 448 209 437Q244 468 306 527Q340 560 351
560Q366 560 365 548ZM272 -8Q240 -8 212 -2Q180 4 145 35Q107 69 107 100Q107 129 136 129Q144 129 155 126Q157 126 174 109T215 83Q255 68 288 68Q361 68 363 125Q365 154 304 169Q247 183 191 197Q129 219 129 266Q129 274 131 283Q138 316 213 337Q276 354
300 350Q328 344 352 329Q384 308 380 281Q378 268 356 268Q342 268 328 274Q298 286 273 286Q251 286 227 278Q244 253 288 247Q347 239 361 231Q396 215 418 180T440 109Q440 49 383 17Q336 -8 272 -8Z" />
<glyph unicode="&#x178;" glyph-name="Ydieresis" horiz-adv-x="557" d="M480 669Q477 622 392 499Q280 338 273 324Q260 236 260 165Q260 150 262 100Q263 60 262 30Q261 3 230 -1Q221 -3 214 -3Q191 -3 185 28Q168 116 178 271Q178 277 177 299T176 326Q168
347 141 390Q108 443 104 450Q88 481 59 550Q36 605 15 635Q0 656 0 670Q0 693 27 693Q52 693 75 671Q91 655 106 631Q129 589 159 520Q198 433 210 409Q229 410 315 553T436 699Q458 700 470 693T480 669ZM181 779Q166 757 141 757Q98 757 98 809Q98 833 114 853T154
873Q166 873 176 867Q193 854 193 823Q193 797 181 779ZM343 779Q328 757 303 757Q261 757 261 809Q261 833 277 853T317 873Q328 873 338 867Q356 854 356 823Q356 797 343 779Z" />
<glyph unicode="&#x17d;" glyph-name="Zcaron" horiz-adv-x="728" d="M473 918Q472 900 408 838Q350 781 331 770T299 760Q287 762 235 806Q200 832 165 858Q108 901 108 912Q108 923 119 927Q126 930 142 930Q161 925 222 878Q299 818 317 807Q352 838 414 897Q448
930 459 930Q474 930 473 918ZM239 8Q213 8 169 0T87 -8Q68 -8 46 -7Q0 14 0 50Q0 61 6 70Q77 188 153 282Q199 339 291 437Q388 540 444 608L417 609Q282 615 114 607Q71 613 71 655Q71 678 89 685Q153 694 238 694Q399 694 387 693Q516 696 563 688Q578 686 594
673T610 644Q610 638 608 632Q493 520 341 355Q149 146 120 88Q314 97 358 97Q421 97 472 92L609 80Q629 78 641 60T650 23Q647 1 598 1Q576 1 539 6T496 11Q458 11 368 9Q285 8 239 8Z" />
<glyph unicode="&#x17e;" glyph-name="zcaron" horiz-adv-x="441" d="M365 588Q364 570 300 508Q242 451 223 440T191 430Q179 432 127 476Q92 502 57 528Q0 571 0 582Q0 593 11 597Q18 600 34 600Q53 595 114 548Q191 488 209 477Q244 508 306 567Q340 600 351
600Q366 600 365 588ZM356 24Q356 13 346 5T324 -4Q213 -4 98 -13Q66 -15 39 -1Q5 17 5 53Q5 63 75 149Q150 241 158 259Q145 266 128 266Q117 266 96 262T64 257Q47 257 29 269T11 301Q11 322 76 331Q113 337 145 337L266 344Q284 344 302 330T320 298Q320 293
237 201Q140 93 130 80Q140 73 172 73Q191 73 227 76T272 79Q358 79 356 24Z" />
<glyph unicode="&#x192;" glyph-name="florin" horiz-adv-x="436" d="M361 611Q361 595 355 592Q353 591 340 591Q341 591 319 603T267 616Q218 616 200 577Q187 549 187 487Q187 478 187 461T187 435Q187 396 183 375Q185 373 189 373Q198 373 221 383T248 393Q289
389 289 355Q289 351 289 345Q288 340 288 339Q288 318 245 301Q189 279 180 270Q179 256 183 216Q187 193 187 -273Q187 -304 160 -306Q132 -307 122 -251Q116 -218 114 163Q112 236 107 251Q95 251 72 247T46 243Q27 243 14 260T0 293Q0 320 54 335Q112 351 113
354Q117 447 120 541Q128 624 159 659Q196 700 282 700Q309 700 335 671T361 611Z" />
<glyph unicode="&#x2c6;" glyph-name="circumflex" horiz-adv-x="441" d="M365 461Q366 449 351 449Q340 449 306 482Q244 541 209 572Q191 561 114 501Q53 454 34 449Q18 449 11 452Q0 456 0 467Q0 478 57 521Q92 547 127 573Q179 617 191 619Q204 620 223 609T300
541Q364 479 365 461Z" />
<glyph unicode="&#x2dc;" glyph-name="tilde" horiz-adv-x="568" d="M493 675Q493 652 424 606T331 560Q294 560 250 581Q219 596 184 620Q154 641 154 641Q128 641 81 585T31 528Q20 528 10 539T0 560Q0 610 57 658Q110 702 147 702Q186 702 233 663T316 624Q336
624 383 664T458 705Q470 705 481 697T493 675Z" />
<glyph unicode="&#x2013;" glyph-name="endash" horiz-adv-x="806" d="M681 325Q681 284 503 284L147 277Q120 277 85 299T50 344Q50 370 183 381Q287 381 393 385T603 389Q626 389 656 362Q681 337 681 325Z" />
<glyph unicode="&#x2014;" glyph-name="emdash" horiz-adv-x="1227" d="M1102 325Q1102 284 805 284L212 277Q167 277 109 299T50 344Q50 370 272 381Q445 381 622 385T972 389Q1010 389 1060 362Q1102 337 1102 325Z" />
<glyph unicode="&#x2018;" glyph-name="FL2018h" horiz-adv-x="175" d="M74 678Q84 656 92 605Q100 545 83 537Q58 525 37 571Q27 592 17 630Q0 691 18 700Q38 708 56 697Q68 690 74 678Z" />
<glyph unicode="&#x2019;" glyph-name="FL2019h" horiz-adv-x="166" d="M91 662Q88 638 69 589Q46 533 28 535Q0 537 4 588Q7 611 17 649Q33 709 52 708Q74 706 84 687Q91 675 91 662Z" />
<glyph unicode="&#x201a;" glyph-name="quotesinglbase" horiz-adv-x="157" d="M65 -41Q60 -51 42 -64T12 -78Q0 -78 0 -65Q0 -68 7 -53Q24 -22 24 3Q24 11 22 25T20 46Q21 50 39 60T65 67Q82 57 82 26Q82 -9 65 -41Z" />
<glyph unicode="&#x201c;" glyph-name="FL201Ch" horiz-adv-x="225" d="M125 680Q132 666 141 611Q150 551 141 546Q120 536 97 582Q87 603 76 646Q63 699 76 705Q88 712 105 701Q119 691 125 680ZM59 658Q61 655 64 642T72 606Q81 552 73 547Q72 546 68 545Q60
543 44 556Q31 566 26 575Q22 583 18 597T9 631Q0 677 11 683Q23 688 37 679T59 658Z" />
<glyph unicode="&#x201d;" glyph-name="FL201Dh" horiz-adv-x="215" d="M140 650Q138 634 118 583Q97 526 86 526Q63 528 66 580Q68 602 80 646Q95 697 110 697Q123 696 133 678Q140 663 140 650ZM71 665Q71 661 67 648T56 613Q37 562 28 561Q26 561 23 562Q14
564 7 584Q0 599 1 609Q2 618 5 632T14 665Q29 710 42 710Q55 708 63 693T71 665Z" />
<glyph unicode="&#x201e;" glyph-name="quotedblbase" horiz-adv-x="277" d="M65 -41Q60 -51 42 -64T12 -78Q0 -78 0 -65Q0 -68 7 -53Q24 -22 24 3Q24 11 22 25T20 46Q21 50 39 60T65 67Q82 57 82 26Q82 -9 65 -41ZM185 -41Q180 -51 162 -64T132 -78Q120 -78 120
-65Q120 -68 127 -53Q144 -22 144 3Q144 11 142 25T140 46Q141 50 159 60T185 67Q202 57 202 26Q202 -9 185 -41Z" />
<glyph unicode="&#x2020;" glyph-name="dagger" horiz-adv-x="551" d="M476 469Q476 443 425 434Q418 433 329 425Q275 420 269 406Q257 374 192 84Q182 2 151 2Q128 2 108 25T88 71Q88 67 160 375L155 395Q138 393 95 388Q59 384 54 384Q36 384 16 410Q0 432
0 441Q0 466 77 479Q171 495 175 498Q187 505 199 558Q216 630 224 651Q243 699 274 699Q288 699 304 679T320 644Q320 639 307 586T294 529Q294 515 304 513Q294 515 320 515Q324 515 356 518T392 522Q419 522 447 506T476 469Z" />
<glyph unicode="&#x2021;" glyph-name="daggerdbl" horiz-adv-x="691" d="M0 -68Q0 -42 51 -33Q58 -32 147 -24Q201 -19 207 -5Q212 8 228 65V71Q228 67 300 375L295 395Q278 393 235 388Q199 384 194 384Q176 384 156 410Q140 432 140 441Q140 466 217 479Q311
495 315 498Q327 505 339 558Q356 630 364 651Q383 699 414 699Q428 699 444 679T460 644Q460 639 447 586T434 529Q434 517 441 514Q441 515 460 515Q464 515 496 518T532 522Q559 522 587 506T616 469Q616 443 565 434Q558 433 469 425Q415 420 409 406Q397 374
332 84Q327 43 316 23L321 6Q338 8 381 13Q417 17 422 17Q440 17 460 -9Q476 -31 476 -40Q476 -65 399 -78Q305 -94 301 -97Q289 -104 277 -157Q260 -229 252 -250Q233 -298 202 -298Q188 -298 172 -278T156 -243Q156 -238 169 -185T182 -128Q182 -116 174 -112Q177
-114 156 -114Q152 -114 120 -117T84 -121Q57 -121 29 -105T0 -68Z" />
<glyph unicode="&#x2022;" glyph-name="bullet" horiz-adv-x="227" d="M132 298Q108 262 68 262Q0 262 0 346Q0 384 26 416T90 448Q108 448 124 438Q152 418 152 368Q152 326 132 298Z" />
<glyph unicode="&#x2026;" glyph-name="ellipsis" horiz-adv-x="421" d="M66 14Q54 -4 34 -4Q0 -4 0 38Q0 57 13 73T45 89Q54 89 62 84Q76 74 76 49Q76 28 66 14ZM196 14Q184 -4 164 -4Q130 -4 130 38Q130 57 143 73T175 89Q184 89 192 84Q206 74 206 49Q206 28
196 14ZM336 14Q324 -4 304 -4Q270 -4 270 38Q270 57 283 73T315 89Q324 89 332 84Q346 74 346 49Q346 28 336 14Z" />
<glyph unicode="&#x2030;" glyph-name="perthousand" horiz-adv-x="1162" d="M356 565Q357 525 344 485Q327 438 294 408Q210 333 144 333H107Q83 333 44 366Q0 403 0 467Q0 478 2 485Q17 556 57 616Q105 691 175 721Q188 724 203 721Q353 669 356 565ZM300 579Q299
610 287 625Q281 632 250 655Q233 666 208 665Q153 662 105 588T59 443Q62 376 117 376Q171 376 232 422Q258 442 273 469Q275 472 293 511Q302 532 300 579ZM611 638Q611 613 366 305Q119 -7 90 -7Q45 -7 45 28Q45 41 216 250Q402 478 429 521Q453 560 491 605Q547
670 575 670Q611 670 611 638ZM716 235Q717 195 704 155Q687 108 654 78Q570 3 504 3H467Q443 3 404 36Q360 73 360 137Q360 148 362 155Q377 226 417 286Q465 361 535 391Q548 394 563 391Q713 339 716 235ZM660 249Q659 280 647 295Q641 302 610 325Q593 336
568 335Q513 332 465 258T419 113Q422 46 477 46Q531 46 592 92Q618 112 633 139Q635 142 653 181Q662 202 660 249ZM1086 235Q1087 195 1074 155Q1057 108 1024 78Q940 3 874 3H837Q813 3 774 36Q730 73 730 137Q730 148 732 155Q747 226 787 286Q835 361 905
391Q918 394 933 391Q1083 339 1086 235ZM1030 249Q1029 280 1017 295Q1011 302 980 325Q963 336 938 335Q883 332 835 258T789 113Q792 46 847 46Q901 46 962 92Q988 112 1003 139Q1005 142 1023 181Q1032 202 1030 249Z" />
<glyph unicode="&#x2039;" glyph-name="guilsinglleft" horiz-adv-x="415" d="M337 468Q334 448 88 255Q113 225 161 186Q212 144 237 117Q267 99 296 80Q337 51 331 13Q327 -16 304 -11Q291 -9 201 62Q118 128 108 139Q74 167 40 196Q0 232 0 271Q0 279 1 286T150
410T309 525Q326 521 333 503T337 468Z" />
<glyph unicode="&#x203a;" glyph-name="guilsinglright" horiz-adv-x="414" d="M2 471Q0 487 7 505T31 528Q42 530 189 414T338 290T339 274Q339 235 299 199Q265 170 231 142Q221 131 138 65Q49 -6 35 -8Q12 -13 8 16Q2 54 43 83Q73 102 102 120Q127 147 178
189Q226 228 251 258Q5 451 2 471Z" />
<glyph unicode="&#x20ac;" glyph-name="Euro" horiz-adv-x="784" d="M388 403Q388 382 367 382Q364 382 338 378T308 373Q278 373 217 363Q217 359 216 354Q221 313 225 284L292 291Q295 291 327 298T361 305Q375 305 385 292T396 264Q396 244 377 243Q380 242
332 235L238 223Q263 145 330 109Q405 86 523 91Q551 92 599 113T676 135Q689 127 699 110T706 80Q697 37 636 22Q574 0 460 0H378Q348 0 300 22T229 68Q164 138 148 211L67 201Q4 203 4 243Q4 270 29 270Q31 270 38 268T50 265L143 275V342V349Q47 330 39 330Q25
330 13 341T0 364Q0 378 12 391Q30 393 145 413Q148 413 151 414Q171 497 237 571Q328 671 434 681Q445 683 511 689Q558 690 561 690Q673 690 673 623Q673 584 637 584Q626 584 604 590T572 597Q517 601 488 597L430 581Q401 573 385 562Q308 533 245 435Q243
431 241 427Q278 431 304 431Q309 431 323 432H344Q388 432 388 403Z" />
<glyph unicode="&#x2122;" glyph-name="trademark" horiz-adv-x="787" d="M273 708Q292 710 306 699T321 674Q321 668 317 662T269 645Q235 637 201 628Q197 553 196 383Q195 223 195 216Q186 180 167 180Q147 180 141 214T135 414Q135 570 138 605Q126 605 91
594Q71 588 51 581Q28 580 14 593T0 622Q0 634 9 639Q42 651 138 677Q243 706 273 708ZM690 180Q657 188 650 268Q646 352 643 436Q643 493 637 554Q607 508 542 417Q532 412 523 412Q515 412 510 416Q493 431 493 450Q493 458 495 472Q477 489 390 595Q379 556
379 395Q379 278 385 203Q387 178 364 178Q339 178 334 205Q322 244 322 565Q322 567 321 602Q321 628 321 644Q322 667 327 682T351 698Q366 698 378 688Q400 655 446 602Q483 561 519 519Q536 529 626 678Q644 694 666 694Q678 694 686 689Q702 664 704 646Q705
637 705 592Q703 532 706 281Q707 271 709 259T711 229Q712 204 710 197Q706 187 690 180Z" />
</font>
</defs>
</svg>
